<?xml version="1.0" encoding="UTF-8" standalone="no"?>
<!-- Created with Inkscape (http://www.inkscape.org/) -->

<svg
   xmlns:dc="http://purl.org/dc/elements/1.1/"
   xmlns:cc="http://creativecommons.org/ns#"
   xmlns:rdf="http://www.w3.org/1999/02/22-rdf-syntax-ns#"
   xmlns:svg="http://www.w3.org/2000/svg"
   xmlns="http://www.w3.org/2000/svg"
   xmlns:sodipodi="http://sodipodi.sourceforge.net/DTD/sodipodi-0.dtd"
   xmlns:inkscape="http://www.inkscape.org/namespaces/inkscape"
   width="344.81482"
   height="78.569771"
   id="svg4155"
   version="1.1"
   inkscape:version="0.48.5 r10040"
   sodipodi:docname="Nowy dokument 5">
  <defs
     id="defs4157" />
  <sodipodi:namedview
     id="base"
     pagecolor="#ffffff"
     bordercolor="#666666"
     borderopacity="1.0"
     inkscape:pageopacity="0.0"
     inkscape:pageshadow="2"
     inkscape:zoom="1.979899"
     inkscape:cx="238.56035"
     inkscape:cy="30.016959"
     inkscape:document-units="px"
     inkscape:current-layer="layer1"
     showgrid="false"
     fit-margin-top="0"
     fit-margin-left="0"
     fit-margin-right="0"
     fit-margin-bottom="0"
     inkscape:window-width="1366"
     inkscape:window-height="744"
     inkscape:window-x="0"
     inkscape:window-y="24"
     inkscape:window-maximized="1" />
  <metadata
     id="metadata4160">
    <rdf:RDF>
      <cc:Work
         rdf:about="">
        <dc:format>image/svg+xml</dc:format>
        <dc:type
           rdf:resource="http://purl.org/dc/dcmitype/StillImage" />
        <dc:title></dc:title>
      </cc:Work>
    </rdf:RDF>
  </metadata>
  <g
     inkscape:label="Layer 1"
     inkscape:groupmode="layer"
     id="layer1"
     transform="translate(-1.3591364,-0.96536839)">
    <g
       transform="translate(-189.86807,-879.33889)"
       id="g4170">
      <path
         sodipodi:type="arc"
         style="fill:#000000;fill-opacity:0.27554178"
         id="path3792"
         sodipodi:cx="360"
         sodipodi:cy="1157.2269"
         sodipodi:rx="162.51051"
         sodipodi:ry="32.869457"
         d="m 522.51051,1157.2269 c 0,18.1533 -72.75843,32.8695 -162.51051,32.8695 -89.75208,0 -162.51051,-14.7162 -162.51051,-32.8695 0,-18.1533 72.75843,-32.8694 162.51051,-32.8694 89.75208,0 162.51051,14.7161 162.51051,32.8694 z"
         transform="matrix(1.0609,0,0,1.195179,-18.28939,-463.50418)" />
      <path
         inkscape:connector-curvature="0"
         id="path4038"
         transform="translate(0,-227.63782)"
         d="m 361.625,1111.9688 c -91.55609,-1e-4 -165.78125,15.3008 -165.78125,34.1874 0,18.8867 74.22516,34.1876 165.78125,34.1876 91.55609,-1e-4 165.78125,-15.3009 165.78125,-34.1876 0,-18.8866 -74.22516,-34.1874 -165.78125,-34.1874 z m 27.125,14.8437 c -0.0319,0.1687 -0.0873,0.4004 -0.1875,0.6875 -0.10028,0.2826 -0.19013,0.5834 -0.28125,0.875 -0.0912,0.2871 -0.17711,0.5866 -0.25,0.9375 -0.0729,0.3509 -0.10289,0.7325 -0.0937,1.1563 0.0136,0.4238 0.0644,0.8795 0.1875,1.3124 0.16404,0.5789 0.28448,1.0925 0.34375,1.5938 0.0638,0.5013 0.0944,1.0033 0.0625,1.5 -0.0319,0.4922 -0.10093,0.9688 -0.1875,1.4062 -0.0866,0.433 -0.21096,0.948 -0.375,1.5313 -0.12763,-0.091 -0.26109,-0.2291 -0.375,-0.375 -0.11395,-0.1504 -0.20315,-0.2955 -0.3125,-0.4687 -0.1094,-0.1778 -0.24286,-0.3711 -0.375,-0.5626 -0.13218,-0.1913 -0.29885,-0.3795 -0.53125,-0.5937 -0.22789,-0.2142 -0.5163,-0.4381 -0.8125,-0.625 -1.00718,-0.6198 -2.10028,-1.0267 -3.3125,-1.25 -1.21226,-0.2278 -2.36199,-0.2018 -3.4375,0.062 -0.64259,0.1687 -1.22137,0.4089 -1.75,0.7188 -0.52866,0.3053 -0.95769,0.6308 -1.28125,1 -0.32358,0.3646 -0.55991,0.7415 -0.6875,1.1562 -0.12761,0.4147 -0.11394,0.8093 0,1.1875 0.12304,0.4193 0.27668,0.8145 0.5,1.1563 0.2233,0.3418 0.50715,0.6465 0.8125,0.9062 0.30533,0.2598 0.64322,0.4779 1.0625,0.6875 0.42382,0.2097 0.89647,0.4076 1.375,0.5625 0.48306,0.1504 1.01431,0.2741 1.625,0.4062 0.56053,0.1186 1.13931,0.2774 1.75,0.4688 0.61522,0.1914 1.27667,0.4362 1.9375,0.7188 0.66079,0.278 1.29555,0.6126 1.90625,1 0.61521,0.3828 1.11196,0.7858 1.53125,1.2187 0.99347,1.0254 1.69334,2.2175 2.0625,3.5937 0.36912,1.3718 0.48956,2.9766 0.34375,4.7813 -0.0501,0.6198 -0.10614,1.1517 -0.15625,1.5937 -0.0501,0.4376 -0.12307,0.9004 -0.21875,1.4063 -0.0912,0.5013 -0.21617,0.9557 -0.34375,1.375 -0.12763,0.4147 -0.27281,0.8522 -0.46875,1.3125 -0.19599,0.4557 -0.44534,0.9414 -0.71875,1.4062 -0.2689,0.4649 -0.58205,0.9317 -0.9375,1.4376 -0.38739,0.5332 -0.79494,1.0143 -1.21875,1.4062 -0.42385,0.3919 -0.84768,0.6999 -1.3125,0.9688 -0.46486,0.2643 -0.9883,0.4967 -1.5625,0.6562 -0.56968,0.1595 -1.16147,0.2708 -1.78125,0.3438 -0.61981,0.077 -1.33205,0.1204 -2.125,0.125 -0.56967,0 -1.10613,-0.03 -1.59375,-0.094 -0.48308,-0.064 -0.96746,-0.1797 -1.46875,-0.3438 -0.50131,-0.1686 -0.98569,-0.4088 -1.46875,-0.7187 -0.47852,-0.3145 -0.95509,-0.7005 -1.40625,-1.1563 -0.44662,-0.4466 -0.81967,-0.8925 -1.125,-1.3437 -0.30534,-0.4557 -0.55404,-0.9102 -0.75,-1.375 -0.19597,-0.4648 -0.38933,-0.9414 -0.5625,-1.4063 -0.17318,-0.4693 -0.40886,-1.0312 -0.71875,-1.6874 -0.3099,-0.6608 -0.66146,-1.3347 -1.0625,-2 -0.16407,-0.2735 -0.36589,-0.5085 -0.59375,-0.75 -0.22787,-0.2416 -0.44206,-0.4655 -0.65625,-0.625 -0.21419,-0.1595 -0.43294,-0.3223 -0.65625,-0.5 -0.22331,-0.1778 -0.44727,-0.3451 -0.625,-0.5 -0.17774,-0.155 -0.32747,-0.3217 -0.46875,-0.5313 -0.14128,-0.2142 -0.22201,-0.446 -0.28125,-0.6875 0.10937,-0.018 0.37435,-0.083 0.84375,-0.1875 0.47396,-0.1048 0.85547,-0.1686 1.15625,-0.2187 0.30078,-0.05 0.74284,-0.1413 1.3125,-0.2188 0.56966,-0.078 1.222,-0.1419 1.9375,-0.1875 0.71549,-0.046 1.52213,-0.071 2.40625,-0.094 1.82291,0.041 2.99413,0.1354 3.5,0.2812 0.3828,0.1094 0.56249,0.2988 0.5625,0.5312 -10e-6,0.2097 -0.19337,0.5346 -0.5625,1.0313 -0.0593,0.082 -0.13217,0.194 -0.21875,0.3125 -0.71551,0.957 -1.13608,1.8275 -1.25,2.625 -0.10938,0.7975 0.10155,1.4974 0.59375,2.0625 0.28254,0.3281 0.64647,0.5814 1.125,0.75 0.48306,0.1686 1.00194,0.2149 1.5625,0.1875 0.56509,-0.027 1.10611,-0.1647 1.59375,-0.4062 0.26887,-0.1322 0.52603,-0.295 0.78125,-0.5 0.25975,-0.2097 0.52147,-0.4799 0.78125,-0.8126 0.25975,-0.3326 0.49152,-0.6972 0.6875,-1.0937 0.19595,-0.401 0.34113,-0.8594 0.46875,-1.4063 0.13214,-0.5468 0.20962,-1.1171 0.21875,-1.7187 0.005,-0.3737 -0.008,-0.7435 -0.0625,-1.0625 -0.0547,-0.3236 -0.13218,-0.6152 -0.21875,-0.875 -0.082,-0.2598 -0.22398,-0.4818 -0.40625,-0.7188 -0.18231,-0.2369 -0.35809,-0.4739 -0.53125,-0.6562 -0.16864,-0.1823 -0.40431,-0.3711 -0.71875,-0.5625 -0.31447,-0.1914 -0.61525,-0.332 -0.875,-0.4687 -0.25522,-0.1368 -0.58009,-0.3177 -1.03125,-0.5 -0.44663,-0.1869 -0.86785,-0.3412 -1.21875,-0.4688 -0.35092,-0.1276 -0.80079,-0.2903 -1.375,-0.5 -0.83399,-0.2962 -1.58465,-0.5924 -2.25,-0.875 -0.66082,-0.2825 -1.28256,-0.5735 -1.875,-0.9062 -0.59245,-0.3327 -1.09831,-0.6758 -1.53125,-1.0313 -0.43295,-0.36 -0.82813,-0.7415 -1.15625,-1.1563 -0.32813,-0.4146 -0.58985,-0.8697 -0.78125,-1.3437 -0.28256,-0.6972 -0.48438,-1.4778 -0.59375,-2.3437 -0.10938,-0.8705 -0.10417,-1.7409 -0.0312,-2.625 0.0775,-0.8841 0.25325,-1.7676 0.53125,-2.6563 0.28255,-0.8886 0.65559,-1.709 1.125,-2.4063 0.30533,-0.4556 0.60481,-0.8717 0.9375,-1.25 0.33268,-0.3827 0.68945,-0.7174 1.03125,-1 0.34635,-0.287 0.68489,-0.5312 1.03125,-0.75 0.3509,-0.2232 0.70247,-0.4166 1.0625,-0.5624 0.36002,-0.1458 0.71158,-0.2481 1.0625,-0.3438 0.35546,-0.096 0.72916,-0.151 1.09375,-0.1875 0.36913,-0.041 0.69856,-0.062 1.03125,-0.062 0.33723,0 0.68033,0.022 1.03125,0.062 0.65624,0.073 1.2272,0.1674 1.6875,0.2813 0.46483,0.1139 0.82551,0.2207 1.0625,0.3437 0.23696,0.1185 0.43879,0.2299 0.59375,0.3437 0.15949,0.114 0.32681,0.239 0.5,0.3438 0.17316,0.1003 0.34829,0.1465 0.5625,0.1875 0.45571,0.096 0.91014,0.061 1.375,-0.094 0.46938,-0.155 1.04425,-0.485 1.71875,-1 0.34633,-0.2689 0.65948,-0.4609 0.9375,-0.625 0.28253,-0.1686 0.52667,-0.3021 0.75,-0.375 0.22328,-0.073 0.41209,-0.1113 0.5625,-0.125 0.15037,-0.018 0.31769,-0.036 0.5,-0.031 z m 24.71875,0 c -0.0319,0.1687 -0.0873,0.4004 -0.1875,0.6875 -0.10028,0.2826 -0.19013,0.5834 -0.28125,0.875 -0.0912,0.2871 -0.17711,0.5866 -0.25,0.9375 -0.0729,0.3509 -0.10289,0.7325 -0.0937,1.1563 0.0136,0.4238 0.0644,0.8795 0.1875,1.3124 0.16404,0.5789 0.28448,1.0925 0.34375,1.5938 0.0638,0.5013 0.0944,1.0033 0.0625,1.5 -0.0319,0.4922 -0.10093,0.9688 -0.1875,1.4062 -0.0866,0.433 -0.21096,0.948 -0.375,1.5313 -0.12763,-0.091 -0.26109,-0.2291 -0.375,-0.375 -0.11395,-0.1504 -0.20315,-0.2955 -0.3125,-0.4687 -0.1094,-0.1778 -0.24286,-0.3711 -0.375,-0.5626 -0.13218,-0.1913 -0.29885,-0.3795 -0.53125,-0.5937 -0.22789,-0.2142 -0.5163,-0.4381 -0.8125,-0.625 -1.00718,-0.6198 -2.10028,-1.0267 -3.3125,-1.25 -1.21226,-0.2278 -2.36199,-0.2018 -3.4375,0.062 -0.64259,0.1687 -1.22137,0.4089 -1.75,0.7188 -0.52866,0.3053 -0.95769,0.6308 -1.28125,1 -0.32358,0.3646 -0.55991,0.7415 -0.6875,1.1562 -0.12761,0.4147 -0.11394,0.8093 0,1.1875 0.12304,0.4193 0.27668,0.8145 0.5,1.1563 0.2233,0.3418 0.50715,0.6465 0.8125,0.9062 0.30533,0.2598 0.64322,0.4779 1.0625,0.6875 0.42382,0.2097 0.89647,0.4076 1.375,0.5625 0.48306,0.1504 1.01431,0.2741 1.625,0.4062 0.56053,0.1186 1.13931,0.2774 1.75,0.4688 0.61522,0.1914 1.27667,0.4362 1.9375,0.7188 0.66079,0.278 1.29555,0.6126 1.90625,1 0.61521,0.3828 1.11196,0.7858 1.53125,1.2187 0.99347,1.0254 1.69334,2.2175 2.0625,3.5937 0.36912,1.3718 0.48956,2.9766 0.34375,4.7813 -0.0501,0.6198 -0.10614,1.1517 -0.15625,1.5937 -0.0501,0.4376 -0.12307,0.9004 -0.21875,1.4063 -0.0912,0.5013 -0.21617,0.9557 -0.34375,1.375 -0.12763,0.4147 -0.27281,0.8522 -0.46875,1.3125 -0.19599,0.4557 -0.44534,0.9414 -0.71875,1.4062 -0.2689,0.4649 -0.58205,0.9317 -0.9375,1.4376 -0.38739,0.5332 -0.79494,1.0143 -1.21875,1.4062 -0.42385,0.3919 -0.84768,0.6999 -1.3125,0.9688 -0.46486,0.2643 -0.9883,0.4967 -1.5625,0.6562 -0.56968,0.1595 -1.16147,0.2708 -1.78125,0.3438 -0.61981,0.077 -1.33205,0.1204 -2.125,0.125 -0.56967,0 -1.10613,-0.03 -1.59375,-0.094 -0.48308,-0.064 -0.96746,-0.1797 -1.46875,-0.3438 -0.50131,-0.1686 -0.98569,-0.4088 -1.46875,-0.7187 -0.47852,-0.3145 -0.95509,-0.7005 -1.40625,-1.1563 -0.44662,-0.4466 -0.81967,-0.8925 -1.125,-1.3437 -0.30534,-0.4557 -0.55404,-0.9102 -0.75,-1.375 -0.19597,-0.4648 -0.38933,-0.9414 -0.5625,-1.4063 -0.17318,-0.4693 -0.40886,-1.0312 -0.71875,-1.6874 -0.3099,-0.6608 -0.66146,-1.3347 -1.0625,-2 -0.16407,-0.2735 -0.36589,-0.5085 -0.59375,-0.75 -0.22787,-0.2416 -0.44206,-0.4655 -0.65625,-0.625 -0.21419,-0.1595 -0.43294,-0.3223 -0.65625,-0.5 -0.22331,-0.1778 -0.44727,-0.3451 -0.625,-0.5 -0.17774,-0.155 -0.32747,-0.3217 -0.46875,-0.5313 -0.14128,-0.2142 -0.22201,-0.446 -0.28125,-0.6875 0.10937,-0.018 0.37435,-0.083 0.84375,-0.1875 0.47396,-0.1048 0.85547,-0.1686 1.15625,-0.2187 0.30078,-0.05 0.74284,-0.1413 1.3125,-0.2188 0.56966,-0.078 1.222,-0.1419 1.9375,-0.1875 0.71549,-0.046 1.52213,-0.071 2.40625,-0.094 1.82291,0.041 2.99413,0.1354 3.5,0.2812 0.3828,0.1094 0.56249,0.2988 0.5625,0.5312 -10e-6,0.2097 -0.19337,0.5346 -0.5625,1.0313 -0.0593,0.082 -0.13217,0.194 -0.21875,0.3125 -0.71551,0.957 -1.13608,1.8275 -1.25,2.625 -0.10938,0.7975 0.10155,1.4974 0.59375,2.0625 0.28254,0.3281 0.64647,0.5814 1.125,0.75 0.48306,0.1686 1.00194,0.2149 1.5625,0.1875 0.56509,-0.027 1.10611,-0.1647 1.59375,-0.4062 0.26887,-0.1322 0.52603,-0.295 0.78125,-0.5 0.25975,-0.2097 0.52147,-0.4799 0.78125,-0.8126 0.25975,-0.3326 0.49152,-0.6972 0.6875,-1.0937 0.19595,-0.401 0.34113,-0.8594 0.46875,-1.4063 0.13214,-0.5468 0.20962,-1.1171 0.21875,-1.7187 0.005,-0.3737 -0.008,-0.7435 -0.0625,-1.0625 -0.0547,-0.3236 -0.13218,-0.6152 -0.21875,-0.875 -0.082,-0.2598 -0.22398,-0.4818 -0.40625,-0.7188 -0.18231,-0.2369 -0.35809,-0.4739 -0.53125,-0.6562 -0.16864,-0.1823 -0.40431,-0.3711 -0.71875,-0.5625 -0.31447,-0.1914 -0.61525,-0.332 -0.875,-0.4687 -0.25522,-0.1368 -0.58009,-0.3177 -1.03125,-0.5 -0.44663,-0.1869 -0.86785,-0.3412 -1.21875,-0.4688 -0.35092,-0.1276 -0.80079,-0.2903 -1.375,-0.5 -0.83399,-0.2962 -1.58465,-0.5924 -2.25,-0.875 -0.66082,-0.2825 -1.28256,-0.5735 -1.875,-0.9062 -0.59245,-0.3327 -1.09831,-0.6758 -1.53125,-1.0313 -0.43295,-0.36 -0.82813,-0.7415 -1.15625,-1.1563 -0.32813,-0.4146 -0.58985,-0.8697 -0.78125,-1.3437 -0.28256,-0.6972 -0.48438,-1.4778 -0.59375,-2.3437 -0.10938,-0.8705 -0.10417,-1.7409 -0.0312,-2.625 0.0775,-0.8841 0.25325,-1.7676 0.53125,-2.6563 0.28255,-0.8886 0.65559,-1.709 1.125,-2.4063 0.30533,-0.4556 0.60481,-0.8717 0.9375,-1.25 0.33268,-0.3827 0.68945,-0.7174 1.03125,-1 0.34635,-0.287 0.68489,-0.5312 1.03125,-0.75 0.3509,-0.2232 0.70247,-0.4166 1.0625,-0.5624 0.36002,-0.1458 0.71158,-0.2481 1.0625,-0.3438 0.35546,-0.096 0.72916,-0.151 1.09375,-0.1875 0.36913,-0.041 0.69856,-0.062 1.03125,-0.062 0.33723,0 0.68033,0.022 1.03125,0.062 0.65624,0.073 1.2272,0.1674 1.6875,0.2813 0.46483,0.1139 0.82551,0.2207 1.0625,0.3437 0.23696,0.1185 0.43879,0.2299 0.59375,0.3437 0.15949,0.114 0.32681,0.239 0.5,0.3438 0.17316,0.1003 0.34829,0.1465 0.5625,0.1875 0.45571,0.096 0.91014,0.061 1.375,-0.094 0.46938,-0.155 1.04425,-0.485 1.71875,-1 0.34633,-0.2689 0.65948,-0.4609 0.9375,-0.625 0.28253,-0.1686 0.52667,-0.3021 0.75,-0.375 0.22328,-0.073 0.41209,-0.1113 0.5625,-0.125 0.15037,-0.018 0.31769,-0.036 0.5,-0.031 z m -101.125,1.9063 c 0.15495,0 0.43359,0.025 0.84375,0.094 0.41471,0.068 0.86002,0.1322 1.375,0.2187 0.51953,0.087 1.25325,0.1856 2.1875,0.2813 0.93424,0.096 1.92968,0.1732 2.96875,0.2187 4.81704,0.2143 8.50584,1.0502 11.0625,2.5313 1.12107,0.6517 2.10349,1.4154 2.9375,2.2813 0.83852,0.8659 1.58071,1.8522 2.21875,2.9687 0.55141,0.9707 0.93292,1.8679 1.15625,2.6563 0.22328,0.7884 0.33461,1.638 0.34375,2.5312 -3e-5,0.4512 -0.0521,0.862 -0.125,1.2812 -0.0729,0.4193 -0.15823,0.8275 -0.28125,1.1876 -0.12307,0.3554 -0.27737,0.6849 -0.46875,1.0312 -0.19143,0.3464 -0.40627,0.6817 -0.625,0.9688 -0.21422,0.2871 -0.46291,0.5566 -0.75,0.8437 -0.28713,0.2871 -0.57034,0.5488 -0.84375,0.7813 -0.27346,0.2324 -0.55992,0.4726 -0.90625,0.7187 -0.34638,0.2416 -0.66799,0.4603 -0.96875,0.6563 -0.3008,0.1914 -0.65302,0.4108 -1.03125,0.625 -0.25067,0.1504 -0.50783,0.2741 -0.78125,0.4062 -0.27346,0.1322 -0.56057,0.2611 -0.875,0.375 -0.31447,0.1139 -0.6107,0.2214 -0.875,0.3125 -0.26434,0.091 -0.59963,0.1856 -0.96875,0.2813 l -0.90625,0.25 c -0.24155,0.059 -0.5853,0.1054 -1,0.1874 -0.41017,0.082 -0.72332,0.1465 -0.9375,0.1876 -0.20965,0.041 -0.52215,0.1054 -0.96875,0.1874 -0.44663,0.082 -0.76434,0.129 -0.9375,0.1563 -10e-6,1.987 0.12043,3.7162 0.34375,5.1563 0.22785,1.4401 0.58853,2.6705 1.0625,3.7187 0.15949,0.3509 0.49803,0.9342 1.03125,1.75 0.53319,0.8112 0.8548,1.3177 0.96875,1.5 -0.21421,0.091 -0.3991,0.1686 -0.53125,0.2187 -0.13218,0.046 -0.29494,0.093 -0.5,0.1563 -0.20509,0.068 -0.38478,0.1198 -0.5625,0.1563 -0.17319,0.041 -0.40106,0.084 -0.65625,0.125 -0.25522,0.045 -0.53452,0.075 -0.8125,0.094 -0.27801,0.018 -0.57749,0.049 -0.9375,0.062 -0.36004,0.014 -0.75001,0 -1.1875,0 -0.43751,0 -0.94011,-0.018 -1.46875,-0.031 -0.74285,-0.023 -1.41212,-0.048 -2,-0.125 -0.5879,-0.073 -1.04688,-0.1726 -1.375,-0.25 -0.32357,-0.073 -0.65821,-0.1329 -1,-0.1876 -0.33724,-0.059 -0.71875,-0.067 -1.15625,-0.062 -0.43295,0 -0.95638,0.034 -1.5625,0.125 0.12305,-0.2963 0.29101,-0.5971 0.46875,-0.875 0.17773,-0.2826 0.36653,-0.5398 0.5625,-0.7813 0.20052,-0.2415 0.38867,-0.4681 0.59375,-0.7187 0.20507,-0.2553 0.42382,-0.5645 0.65625,-0.9063 0.23242,-0.3418 0.43815,-0.7109 0.625,-1.0937 0.34635,-0.6928 0.62955,-1.3705 0.84375,-2.0313 0.21874,-0.6654 0.39908,-1.3984 0.53125,-2.2187 0.13671,-0.8249 0.22721,-1.7683 0.25,-2.8438 0.0228,-1.0801 -0.0124,-2.3027 -0.0625,-3.6562 -0.0501,-1.3581 -0.13998,-2.9838 -0.28125,-4.875 -0.13217,-1.7591 -0.27735,-3.3379 -0.46875,-4.7188 -0.19141,-1.3854 -0.41081,-2.5429 -0.625,-3.5 -0.2142,-0.957 -0.44922,-1.819 -0.75,-2.5938 -0.29623,-0.7747 -0.58789,-1.4361 -0.875,-1.9374 -0.28255,-0.5013 -0.63933,-0.985 -1.03125,-1.5 -0.82031,-1.071 -1.28776,-1.7494 -1.40625,-2 -0.0912,-0.1914 -0.0742,-0.2982 0.0625,-0.3438 0.0592,-0.018 0.20573,-0.027 0.40625,-0.031 z m 44.09375,1.3124 c 0.29621,-0.023 0.52342,0 0.6875,0.063 0.16404,0.055 0.27928,0.1491 0.375,0.2812 0.19594,0.2552 0.40232,0.9408 0.59375,2.0938 0.19594,1.1484 0.36782,2.5983 0.5,4.3437 0.2962,3.9694 0.80141,8.4434 1.5625,13.4063 0.19594,1.2942 0.4199,2.4648 0.625,3.5312 0.20506,1.0664 0.43618,2.1908 0.71875,3.3438 0.28709,1.1484 0.61716,2.2812 1,3.375 0.38279,1.0891 0.80271,2.1354 1.28125,3.1562 0.19138,0.4102 0.43617,0.8216 0.71875,1.25 0.28708,0.4238 0.56182,0.7839 0.8125,1.0938 0.25518,0.3098 0.54229,0.679 0.875,1.0937 0.33721,0.4193 0.62953,0.7884 0.84375,1.0937 0.0729,0.1049 0.0722,0.2208 0.0312,0.3438 -0.0365,0.1276 -0.10485,0.2135 -0.21875,0.25 -0.19599,0.059 -0.47919,0.08 -0.84375,0.094 -0.36005,0.014 -0.67711,0.018 -0.96875,0 -0.28714,-0.018 -0.65172,-0.053 -1.09375,-0.094 -0.44208,-0.041 -0.71617,-0.049 -0.84375,-0.062 -1.21226,-0.078 -2.31122,-0.096 -3.25,0 -0.93882,0.1003 -2.07033,0.3021 -3.4375,0.5937 -0.36916,0.078 -0.83335,0.211 -1.34375,0.375 -0.50588,0.1687 -0.88739,0.3015 -1.15625,0.4063 -0.15952,0.059 -0.35223,0.098 -0.59375,0.125 -0.24155,0.032 -0.40431,0.014 -0.5,-0.031 -0.28257,-0.1822 -0.19663,-0.5983 0.25,-1.25 l 1.3125,-1.875 c 1.23045,-1.8229 1.84829,-3.8346 1.84375,-6.0312 -0.005,-1.0117 -0.0697,-1.9987 -0.15625,-2.9375 -0.0866,-0.9434 -0.19403,-1.6816 -0.3125,-2.1875 -0.60158,-0.1003 -1.13674,-0.138 -1.65625,-0.1562 -0.51499,-0.023 -1.1797,-0.018 -2,0 -0.51499,0.014 -1.08204,0.064 -1.65625,0.1874 -0.56967,0.1231 -0.90366,0.2696 -1.03125,0.4063 -0.25978,0.278 -0.38478,0.7839 -0.34375,1.5313 0.0182,0.3326 0.0443,0.6074 0.0625,0.8124 0.0228,0.2051 0.0703,0.4577 0.125,0.7813 0.0547,0.3236 0.10546,0.6244 0.1875,0.875 0.082,0.2507 0.19791,0.5072 0.34375,0.8125 0.15038,0.3053 0.32616,0.6191 0.53125,0.9062 0.15038,0.2097 0.30077,0.3894 0.4375,0.5626 0.13671,0.1731 0.25715,0.3014 0.34375,0.4062 0.0866,0.1003 0.17186,0.2031 0.28125,0.3125 0.10936,0.1094 0.18228,0.1869 0.21875,0.2187 0.0365,0.032 0.12303,0.1101 0.21875,0.1876 0.0957,0.077 0.14256,0.1158 0.15625,0.125 0.15493,0.1321 0.1673,0.3209 0.0625,0.5624 -0.0365,0.082 -0.1478,0.1413 -0.34375,0.2188 -0.19598,0.078 -0.4271,0.1374 -0.71875,0.1875 -0.41017,0.073 -1.26824,0.1419 -2.5625,0.1875 -1.28972,0.046 -2.45704,0.033 -3.46875,-0.031 -0.92969,-0.068 -1.73178,-0.1322 -2.40625,-0.2188 -0.66993,-0.091 -1.21029,-0.2031 -1.625,-0.3125 -0.41472,-0.1139 -0.72331,-0.1992 -0.9375,-0.2813 -0.21419,-0.086 -0.42839,-0.2161 -0.65625,-0.3437 -0.0365,-0.018 -0.071,-0.051 -0.0937,-0.1563 -0.0182,-0.1093 -0.0182,-0.2682 0,-0.4687 0.0182,-0.2051 0.0566,-0.4414 0.125,-0.6875 0.0684,-0.2461 0.20638,-0.5469 0.375,-0.875 0.17318,-0.3281 0.36979,-0.6406 0.625,-0.9688 0.25976,-0.3281 0.59896,-0.718 1,-1.1874 0.40104,-0.4694 0.70507,-0.8425 0.9375,-1.125 0.23697,-0.2872 0.50325,-0.6517 0.78125,-1.0938 0.28255,-0.442 0.52278,-0.9056 0.71875,-1.375 0.51497,-1.2305 1.02994,-2.5736 1.53125,-4 0.50129,-1.4264 0.87825,-2.7083 1.15625,-3.875 0.98892,-4.1927 1.45637,-7.4017 1.40625,-9.5938 -0.005,-0.1959 0.009,-0.3626 0,-0.5312 -0.009,-0.1686 -0.0352,-0.3274 -0.0625,-0.4688 -0.0228,-0.1458 -0.0397,-0.2655 -0.0625,-0.375 -0.0228,-0.1139 -0.0749,-0.2389 -0.125,-0.3437 -0.0456,-0.1048 -0.0885,-0.1771 -0.125,-0.25 -0.0319,-0.077 -0.0833,-0.1634 -0.15625,-0.25 -0.0684,-0.087 -0.11069,-0.1686 -0.15625,-0.2187 -0.041,-0.055 -0.1185,-0.11 -0.21875,-0.1876 -0.10027,-0.082 -0.19076,-0.1418 -0.25,-0.1874 -0.0593,-0.05 -0.12696,-0.1231 -0.25,-0.2188 -0.0182,-0.014 -0.058,-0.027 -0.0625,-0.031 -0.22787,-0.1732 -0.4629,-0.3275 -0.75,-0.4688 -0.28256,-0.1412 -0.59115,-0.2786 -0.9375,-0.4062 -0.34636,-0.1322 -0.57422,-0.209 -0.65625,-0.25 -0.17774,-0.082 -0.34506,-0.2031 -0.5,-0.3126 -0.1504,-0.1093 -0.2754,-0.1946 -0.34375,-0.2812 -0.0684,-0.091 -0.0632,-0.1465 -0.0312,-0.1875 0.0592,-0.082 0.11914,-0.1549 0.1875,-0.2187 0.0684,-0.068 0.1621,-0.1543 0.3125,-0.25 0.15494,-0.096 0.33984,-0.1908 0.53125,-0.25 0.1914,-0.059 0.43098,-0.1107 0.75,-0.1563 0.319,-0.045 0.70182,-0.062 1.09375,-0.062 0.58788,0 1.06835,-0.017 1.4375,-0.031 0.36913,-0.018 0.77994,-0.039 1.28125,-0.094 0.50129,-0.055 0.98241,-0.1185 1.40625,-0.2188 0.42837,-0.1047 0.9173,-0.2506 1.46875,-0.4374 0.55598,-0.1914 1.15233,-0.4453 1.78125,-0.7188 0.69725,-0.3053 1.27993,-0.528 1.78125,-0.6875 0.50584,-0.164 0.92251,-0.263 1.21875,-0.2813 z m -33.53125,5.1563 c -0.53777,-0.036 -0.86329,0.1999 -1,0.6875 -0.11394,0.4147 -0.097,1.1602 0.0625,2.2812 0.0365,0.2416 0.1009,0.6453 0.1875,1.1876 0.15949,0.998 0.27538,1.7741 0.34375,2.3437 0.13671,1.0983 0.24413,2.1198 0.3125,3.0313 0.0729,0.9069 0.12889,1.6269 0.15625,2.1874 0.0319,0.5606 0.0482,0.9981 0.0937,1.3126 1.61783,-0.1368 2.94334,-0.3594 3.96875,-0.6876 0.45571,-0.1412 0.90233,-0.3085 1.3125,-0.5 0.41014,-0.1959 0.80011,-0.4277 1.1875,-0.6874 0.38735,-0.2598 0.73956,-0.543 1.03125,-0.8438 0.2962,-0.3008 0.54946,-0.6263 0.75,-1 0.2005,-0.3782 0.31573,-0.7773 0.375,-1.1875 0.1048,-0.7519 0.0742,-1.515 -0.0625,-2.3125 -0.13674,-0.7975 -0.34572,-1.5267 -0.6875,-2.1875 -0.33726,-0.6653 -0.74937,-1.1894 -1.21875,-1.5313 -0.85223,-0.6152 -1.86916,-1.0911 -3.03125,-1.4374 -1.15757,-0.3509 -2.42319,-0.5697 -3.78125,-0.6563 z m 31.65625,6.3125 c -0.47853,0.1413 -0.98895,0.6693 -1.53125,1.5625 -0.53777,0.8887 -0.99676,1.9955 -1.375,3.3125 -0.27345,0.9434 -0.51303,1.8483 -0.75,2.7188 -0.23243,0.8704 -0.39975,1.5052 -0.5,1.9062 l -0.15625,0.5938 c 0.92967,0 1.75715,-0.018 2.5,-0.031 1.17121,-0.023 2.02928,-0.065 2.5625,-0.1563 -0.0684,-1.0982 -0.19273,-2.7454 -0.375,-4.9374 -0.18231,-2.1966 -0.31577,-3.8614 -0.375,-4.9688 z"
         style="fill:#333333;fill-opacity:0.72445822" />
      <path
         inkscape:connector-curvature="0"
         id="path3012"
         transform="translate(0,-227.63782)"
         d="m 359.625,1110.3438 c -89.75208,0 -162.5,14.7217 -162.5,32.875 0,18.1532 72.74792,32.875 162.5,32.875 89.75208,0 162.53125,-14.7218 162.53125,-32.875 0,-18.1533 -72.77917,-32.875 -162.53125,-32.875 z m 24.9375,13.4374 c -0.0319,0.1687 -0.0873,0.4005 -0.1875,0.6876 -0.10028,0.2825 -0.19013,0.5833 -0.28125,0.875 -0.0912,0.2871 -0.17711,0.5866 -0.25,0.9374 -0.0729,0.351 -0.10289,0.7325 -0.0937,1.1563 0.0136,0.4239 0.0644,0.8796 0.1875,1.3125 0.16404,0.5788 0.28448,1.0925 0.34375,1.5938 0.0638,0.5013 0.0631,1.0032 0.0312,1.5 -0.0319,0.4922 -0.0697,0.9687 -0.15625,1.4062 -0.0866,0.433 -0.21096,0.9479 -0.375,1.5312 -0.12763,-0.091 -0.26109,-0.2291 -0.375,-0.375 -0.11395,-0.1503 -0.2344,-0.2955 -0.34375,-0.4687 -0.1094,-0.1777 -0.21161,-0.3711 -0.34375,-0.5625 -0.13218,-0.1914 -0.3301,-0.3795 -0.5625,-0.5938 -0.22789,-0.2141 -0.48505,-0.4381 -0.78125,-0.625 -1.00718,-0.6197 -2.10028,-1.0266 -3.3125,-1.25 -1.21226,-0.2278 -2.36199,-0.2017 -3.4375,0.063 -0.64259,0.1686 -1.22137,0.4088 -1.75,0.7187 -0.52866,0.3054 -0.95769,0.6309 -1.28125,1 -0.32358,0.3646 -0.55991,0.7416 -0.6875,1.1563 -0.12761,0.4147 -0.14519,0.8092 -0.0312,1.1874 0.12304,0.4193 0.30793,0.8145 0.53125,1.1563 0.2233,0.3418 0.4759,0.6465 0.78125,0.9063 0.30533,0.2597 0.67447,0.4778 1.09375,0.6874 0.42382,0.2097 0.89647,0.4076 1.375,0.5626 0.48306,0.1504 1.01431,0.2741 1.625,0.4062 0.56053,0.1185 1.13931,0.2774 1.75,0.4688 0.61522,0.1914 1.24542,0.4362 1.90625,0.7187 0.66079,0.278 1.3268,0.6127 1.9375,1 0.61521,0.3828 1.11196,0.7858 1.53125,1.2187 0.99347,1.0255 1.69334,2.2175 2.0625,3.5938 0.36912,1.3718 0.45831,2.9766 0.3125,4.7812 -0.0501,0.6199 -0.10614,1.1518 -0.15625,1.5938 -0.0501,0.4375 -0.0918,0.9004 -0.1875,1.4062 -0.0912,0.5014 -0.21617,0.9558 -0.34375,1.375 -0.12763,0.4148 -0.30406,0.8523 -0.5,1.3126 -0.19599,0.4557 -0.41409,0.9414 -0.6875,1.4062 -0.2689,0.4648 -0.58205,0.9316 -0.9375,1.4375 -0.38739,0.5332 -0.79494,1.0143 -1.21875,1.4063 -0.42385,0.3919 -0.87893,0.6998 -1.34375,0.9687 -0.46486,0.2643 -0.95705,0.4967 -1.53125,0.6563 -0.56968,0.1595 -1.19272,0.2708 -1.8125,0.3437 -0.61981,0.078 -1.3008,0.1204 -2.09375,0.125 -0.56967,0 -1.10613,-0.03 -1.59375,-0.094 -0.48308,-0.064 -0.96746,-0.1797 -1.46875,-0.3438 -0.50131,-0.1686 -1.01694,-0.4089 -1.5,-0.7188 -0.47852,-0.3144 -0.92384,-0.7005 -1.375,-1.1562 -0.44662,-0.4466 -0.81967,-0.8926 -1.125,-1.3438 -0.30534,-0.4557 -0.55404,-0.9101 -0.75,-1.375 -0.19597,-0.4648 -0.38933,-0.9414 -0.5625,-1.4062 -0.17318,-0.4694 -0.40886,-1.0312 -0.71875,-1.6875 -0.3099,-0.6608 -0.66146,-1.3346 -1.0625,-2 -0.16407,-0.2734 -0.36589,-0.5085 -0.59375,-0.75 -0.22787,-0.2415 -0.44206,-0.4655 -0.65625,-0.625 -0.21419,-0.1595 -0.46419,-0.3223 -0.6875,-0.5 -0.22331,-0.1777 -0.41602,-0.345 -0.59375,-0.5 -0.17774,-0.1549 -0.32747,-0.3216 -0.46875,-0.5313 -0.14128,-0.2141 -0.25326,-0.4459 -0.3125,-0.6874 0.10937,-0.018 0.4056,-0.083 0.875,-0.1876 0.47396,-0.1048 0.85547,-0.1686 1.15625,-0.2187 0.30078,-0.05 0.74284,-0.1413 1.3125,-0.2187 0.56966,-0.078 1.222,-0.1107 1.9375,-0.1563 0.71549,-0.046 1.52213,-0.1022 2.40625,-0.125 1.82291,0.041 2.96288,0.1354 3.46875,0.2813 0.3828,0.1093 0.59374,0.2988 0.59375,0.5312 -10e-6,0.2096 -0.19337,0.5658 -0.5625,1.0625 -0.0593,0.082 -0.13217,0.1628 -0.21875,0.2813 -0.71551,0.957 -1.13608,1.8274 -1.25,2.625 -0.10938,0.7975 0.10155,1.4974 0.59375,2.0624 0.28254,0.3282 0.64647,0.5814 1.125,0.75 0.48306,0.1687 1.00194,0.2149 1.5625,0.1876 0.56509,-0.027 1.10611,-0.1648 1.59375,-0.4063 0.26887,-0.1322 0.52603,-0.2949 0.78125,-0.5 0.25975,-0.2096 0.52147,-0.4798 0.78125,-0.8125 0.25975,-0.3327 0.49152,-0.6973 0.6875,-1.0938 0.19595,-0.401 0.34113,-0.8593 0.46875,-1.4062 0.13214,-0.5469 0.20962,-1.1172 0.21875,-1.7188 0.005,-0.3736 -0.008,-0.7434 -0.0625,-1.0624 -0.0547,-0.3236 -0.13218,-0.6153 -0.21875,-0.875 -0.082,-0.2598 -0.22398,-0.4818 -0.40625,-0.7188 -0.18231,-0.237 -0.35809,-0.4739 -0.53125,-0.6562 -0.16864,-0.1823 -0.40431,-0.3711 -0.71875,-0.5626 -0.31447,-0.1913 -0.61525,-0.332 -0.875,-0.4687 -0.25522,-0.1367 -0.61134,-0.3177 -1.0625,-0.5 -0.44663,-0.1868 -0.8366,-0.3411 -1.1875,-0.4687 -0.35092,-0.1276 -0.80079,-0.2904 -1.375,-0.5 -0.83399,-0.2963 -1.58465,-0.5925 -2.25,-0.875 -0.66082,-0.2826 -1.28256,-0.5736 -1.875,-0.9063 -0.59245,-0.3327 -1.12956,-0.6758 -1.5625,-1.0313 -0.43295,-0.36 -0.79688,-0.7415 -1.125,-1.1562 -0.32813,-0.4147 -0.58985,-0.8698 -0.78125,-1.3438 -0.28256,-0.6972 -0.48438,-1.4778 -0.59375,-2.3437 -0.10938,-0.8704 -0.13542,-1.7409 -0.0625,-2.625 0.0775,-0.8841 0.25325,-1.7675 0.53125,-2.6563 0.28255,-0.8886 0.65559,-1.7089 1.125,-2.4062 0.30533,-0.4557 0.63606,-0.8717 0.96875,-1.25 0.33268,-0.3828 0.6582,-0.6862 1,-0.9688 0.34635,-0.287 0.71614,-0.5624 1.0625,-0.7812 0.3509,-0.2233 0.70247,-0.3854 1.0625,-0.5312 0.36002,-0.1458 0.71158,-0.2793 1.0625,-0.375 0.35546,-0.096 0.72916,-0.1511 1.09375,-0.1876 0.36913,-0.041 0.69856,-0.062 1.03125,-0.062 0.33723,0 0.68033,0.021 1.03125,0.062 0.65624,0.073 1.2272,0.1674 1.6875,0.2813 0.46483,0.114 0.82551,0.2207 1.0625,0.3437 0.23696,0.1186 0.40754,0.2299 0.5625,0.3438 0.15949,0.114 0.32681,0.239 0.5,0.3438 0.17316,0.1002 0.37954,0.1465 0.59375,0.1874 0.45571,0.096 0.91014,0.093 1.375,-0.062 0.46938,-0.155 1.04425,-0.5163 1.71875,-1.0313 0.34633,-0.2688 0.65948,-0.4609 0.9375,-0.625 0.28253,-0.1686 0.52667,-0.302 0.75,-0.375 0.22328,-0.073 0.41209,-0.1113 0.5625,-0.125 0.15037,-0.018 0.31769,-0.036 0.5,-0.031 z m 24.71875,0 c -0.0319,0.1687 -0.0873,0.4005 -0.1875,0.6876 -0.10028,0.2825 -0.19013,0.5833 -0.28125,0.875 -0.0912,0.2871 -0.17711,0.5866 -0.25,0.9374 -0.0729,0.351 -0.10289,0.7325 -0.0937,1.1563 0.0136,0.4239 0.0644,0.8796 0.1875,1.3125 0.16404,0.5788 0.28448,1.0925 0.34375,1.5938 0.0638,0.5013 0.0944,1.0032 0.0625,1.5 -0.0319,0.4922 -0.10093,0.9687 -0.1875,1.4062 -0.0866,0.433 -0.21096,0.9479 -0.375,1.5312 -0.12763,-0.091 -0.26109,-0.2291 -0.375,-0.375 -0.11395,-0.1503 -0.2344,-0.2955 -0.34375,-0.4687 -0.1094,-0.1777 -0.21161,-0.3711 -0.34375,-0.5625 -0.13218,-0.1914 -0.3301,-0.3795 -0.5625,-0.5938 -0.22789,-0.2141 -0.48505,-0.4381 -0.78125,-0.625 -1.00718,-0.6197 -2.10028,-1.0266 -3.3125,-1.25 -1.21226,-0.2278 -2.36199,-0.2017 -3.4375,0.063 -0.64259,0.1686 -1.22137,0.4088 -1.75,0.7187 -0.52866,0.3054 -0.95769,0.6309 -1.28125,1 -0.32358,0.3646 -0.55991,0.7416 -0.6875,1.1563 -0.12761,0.4147 -0.14519,0.8092 -0.0312,1.1874 0.12304,0.4193 0.30793,0.8145 0.53125,1.1563 0.2233,0.3418 0.4759,0.6465 0.78125,0.9063 0.30533,0.2597 0.67447,0.4778 1.09375,0.6874 0.42382,0.2097 0.89647,0.4076 1.375,0.5626 0.48306,0.1504 1.01431,0.2741 1.625,0.4062 0.56053,0.1185 1.13931,0.2774 1.75,0.4688 0.61522,0.1914 1.27667,0.4362 1.9375,0.7187 0.66079,0.278 1.29555,0.6127 1.90625,1 0.61521,0.3828 1.11196,0.7858 1.53125,1.2187 0.99347,1.0255 1.69334,2.2175 2.0625,3.5938 0.36912,1.3718 0.45831,2.9766 0.3125,4.7812 -0.0501,0.6199 -0.0749,1.1518 -0.125,1.5938 -0.0501,0.4375 -0.15432,0.9004 -0.25,1.4062 -0.0912,0.5014 -0.18492,0.9558 -0.3125,1.375 -0.12763,0.4148 -0.30406,0.8523 -0.5,1.3126 -0.19599,0.4557 -0.41409,0.9414 -0.6875,1.4062 -0.2689,0.4648 -0.58205,0.9316 -0.9375,1.4375 -0.38739,0.5332 -0.79494,1.0143 -1.21875,1.4063 -0.42385,0.3919 -0.87893,0.6998 -1.34375,0.9687 -0.46486,0.2643 -0.9883,0.4967 -1.5625,0.6563 -0.56968,0.1595 -1.16147,0.2708 -1.78125,0.3437 -0.61981,0.078 -1.3008,0.1204 -2.09375,0.125 -0.56967,0 -1.10613,-0.03 -1.59375,-0.094 -0.48308,-0.064 -0.96746,-0.1797 -1.46875,-0.3438 -0.50131,-0.1686 -1.01694,-0.4089 -1.5,-0.7188 -0.47852,-0.3144 -0.92384,-0.7005 -1.375,-1.1562 -0.44662,-0.4466 -0.81967,-0.8926 -1.125,-1.3438 -0.30534,-0.4557 -0.55404,-0.9101 -0.75,-1.375 -0.19597,-0.4648 -0.38933,-0.9414 -0.5625,-1.4062 -0.17318,-0.4694 -0.40886,-1.0312 -0.71875,-1.6875 -0.3099,-0.6608 -0.66146,-1.3346 -1.0625,-2 -0.16407,-0.2734 -0.36589,-0.5085 -0.59375,-0.75 -0.22787,-0.2415 -0.47331,-0.4655 -0.6875,-0.625 -0.21419,-0.1595 -0.40169,-0.3223 -0.625,-0.5 -0.22331,-0.1777 -0.44727,-0.345 -0.625,-0.5 -0.17774,-0.1549 -0.32747,-0.3216 -0.46875,-0.5313 -0.14128,-0.2141 -0.25326,-0.4459 -0.3125,-0.6874 0.10937,-0.018 0.4056,-0.083 0.875,-0.1876 0.47396,-0.1048 0.85547,-0.1686 1.15625,-0.2187 0.30078,-0.05 0.74284,-0.1413 1.3125,-0.2187 0.56966,-0.078 1.222,-0.1107 1.9375,-0.1563 0.71549,-0.046 1.52213,-0.1022 2.40625,-0.125 1.82291,0.041 2.96288,0.1354 3.46875,0.2813 0.3828,0.1093 0.59374,0.2988 0.59375,0.5312 -10e-6,0.2096 -0.19337,0.5658 -0.5625,1.0625 -0.0593,0.082 -0.13217,0.1628 -0.21875,0.2813 -0.71551,0.957 -1.13608,1.8274 -1.25,2.625 -0.10938,0.7975 0.10155,1.4974 0.59375,2.0624 0.28254,0.3282 0.64647,0.5814 1.125,0.75 0.48306,0.1687 1.00194,0.2149 1.5625,0.1876 0.56509,-0.027 1.10611,-0.1648 1.59375,-0.4063 0.26887,-0.1322 0.52603,-0.2949 0.78125,-0.5 0.25975,-0.2096 0.52147,-0.4798 0.78125,-0.8125 0.25975,-0.3327 0.49152,-0.6973 0.6875,-1.0938 0.19595,-0.401 0.34113,-0.8593 0.46875,-1.4062 0.13214,-0.5469 0.20962,-1.1172 0.21875,-1.7188 0.005,-0.3736 -0.008,-0.7434 -0.0625,-1.0624 -0.0547,-0.3236 -0.13218,-0.6153 -0.21875,-0.875 -0.082,-0.2598 -0.22398,-0.4818 -0.40625,-0.7188 -0.18231,-0.237 -0.35809,-0.4739 -0.53125,-0.6562 -0.16864,-0.1823 -0.40431,-0.3711 -0.71875,-0.5626 -0.31447,-0.1913 -0.61525,-0.332 -0.875,-0.4687 -0.25522,-0.1367 -0.61134,-0.3177 -1.0625,-0.5 -0.44663,-0.1868 -0.8366,-0.3411 -1.1875,-0.4687 -0.35092,-0.1276 -0.80079,-0.2904 -1.375,-0.5 -0.83399,-0.2963 -1.58465,-0.5925 -2.25,-0.875 -0.66082,-0.2826 -1.28256,-0.5736 -1.875,-0.9063 -0.59245,-0.3327 -1.12956,-0.6758 -1.5625,-1.0313 -0.43295,-0.36 -0.79688,-0.7415 -1.125,-1.1562 -0.32813,-0.4147 -0.58985,-0.8698 -0.78125,-1.3438 -0.28256,-0.6972 -0.48438,-1.4778 -0.59375,-2.3437 -0.10938,-0.8704 -0.13542,-1.7409 -0.0625,-2.625 0.0775,-0.8841 0.25325,-1.7675 0.53125,-2.6563 0.28255,-0.8886 0.65559,-1.7089 1.125,-2.4062 0.30533,-0.4557 0.63606,-0.8717 0.96875,-1.25 0.33268,-0.3828 0.6582,-0.6862 1,-0.9688 0.34635,-0.287 0.71614,-0.5624 1.0625,-0.7812 0.3509,-0.2233 0.70247,-0.3854 1.0625,-0.5312 0.36002,-0.1458 0.71158,-0.2793 1.0625,-0.375 0.35546,-0.096 0.72916,-0.1511 1.09375,-0.1876 0.36913,-0.041 0.69856,-0.062 1.03125,-0.062 0.33723,0 0.68033,0.021 1.03125,0.062 0.65624,0.073 1.2272,0.1674 1.6875,0.2813 0.46483,0.114 0.82551,0.2207 1.0625,0.3437 0.23696,0.1186 0.40754,0.2299 0.5625,0.3438 0.15949,0.114 0.32681,0.239 0.5,0.3438 0.17316,0.1002 0.37954,0.1465 0.59375,0.1874 0.45571,0.096 0.91014,0.093 1.375,-0.062 0.46938,-0.155 1.04425,-0.5163 1.71875,-1.0313 0.34633,-0.2688 0.65948,-0.4609 0.9375,-0.625 0.28253,-0.1686 0.52667,-0.302 0.75,-0.375 0.22328,-0.073 0.41209,-0.1113 0.5625,-0.125 0.15037,-0.018 0.31769,-0.036 0.5,-0.031 z m -101.125,1.9063 c 0.15495,0 0.43359,0.025 0.84375,0.094 0.41471,0.068 0.86002,0.1322 1.375,0.2188 0.51953,0.087 1.25325,0.1856 2.1875,0.2812 0.93424,0.096 1.92968,0.1733 2.96875,0.2188 4.81704,0.2142 8.50584,1.0502 11.0625,2.5312 1.12107,0.6518 2.10349,1.4154 2.9375,2.2813 0.83852,0.8659 1.54946,1.8522 2.1875,2.9687 0.55141,0.9708 0.96417,1.8679 1.1875,2.6563 0.22328,0.7884 0.33461,1.638 0.34375,2.5313 -3e-5,0.4511 -0.0521,0.862 -0.125,1.2812 -0.0729,0.4193 -0.15823,0.8275 -0.28125,1.1875 -0.12307,0.3555 -0.27737,0.6849 -0.46875,1.0313 -0.19143,0.3463 -0.40627,0.6816 -0.625,0.9687 -0.21422,0.2871 -0.46291,0.5567 -0.75,0.8437 -0.28713,0.2872 -0.57034,0.5489 -0.84375,0.7813 -0.27346,0.2324 -0.59117,0.4727 -0.9375,0.7187 -0.34638,0.2416 -0.66799,0.4604 -0.96875,0.6563 -0.3008,0.1914 -0.62177,0.4108 -1,0.625 -0.25067,0.1504 -0.50783,0.2741 -0.78125,0.4063 -0.27346,0.1321 -0.59182,0.261 -0.90625,0.375 -0.31447,0.1139 -0.57945,0.2213 -0.84375,0.3124 -0.26434,0.091 -0.59963,0.1856 -0.96875,0.2813 l -0.90625,0.25 c -0.24155,0.059 -0.5853,0.1055 -1,0.1875 -0.41017,0.082 -0.72332,0.1465 -0.9375,0.1875 -0.20965,0.041 -0.52215,0.1055 -0.96875,0.1875 -0.44663,0.082 -0.76434,0.1289 -0.9375,0.1562 -10e-6,1.987 0.12043,3.7162 0.34375,5.1563 0.22785,1.4401 0.55728,2.6706 1.03125,3.7187 0.15949,0.351 0.52928,0.9343 1.0625,1.75 0.53319,0.8112 0.8548,1.3178 0.96875,1.5 -0.21421,0.091 -0.3991,0.1687 -0.53125,0.2188 -0.13218,0.046 -0.29494,0.092 -0.5,0.1562 -0.20509,0.068 -0.41603,0.1198 -0.59375,0.1563 -0.17319,0.041 -0.36981,0.084 -0.625,0.125 -0.25522,0.046 -0.53452,0.075 -0.8125,0.094 -0.27801,0.018 -0.57749,0.049 -0.9375,0.063 -0.36004,0.014 -0.78126,0 -1.21875,0 -0.43751,-10e-5 -0.90886,-0.018 -1.4375,-0.031 -0.74285,-0.023 -1.41212,-0.047 -2,-0.125 -0.5879,-0.073 -1.04688,-0.1725 -1.375,-0.25 -0.32357,-0.073 -0.65821,-0.1328 -1,-0.1875 -0.33724,-0.059 -0.71875,-0.067 -1.15625,-0.062 -0.43295,0 -0.95638,0.034 -1.5625,0.125 0.12305,-0.2962 0.29101,-0.597 0.46875,-0.875 0.17773,-0.2826 0.36653,-0.5397 0.5625,-0.7813 0.20052,-0.2415 0.38867,-0.468 0.59375,-0.7187 0.20507,-0.2552 0.42382,-0.5645 0.65625,-0.9063 0.23242,-0.3417 0.43815,-0.7109 0.625,-1.0937 0.34635,-0.6927 0.62955,-1.3704 0.84375,-2.0313 0.21874,-0.6653 0.39908,-1.3984 0.53125,-2.2187 0.13671,-0.8249 0.22721,-1.7682 0.25,-2.8437 0.0228,-1.0801 -0.0124,-2.3028 -0.0625,-3.6563 -0.0501,-1.3581 -0.13998,-2.9837 -0.28125,-4.875 -0.13217,-1.7591 -0.27735,-3.3379 -0.46875,-4.7187 -0.19141,-1.3854 -0.41081,-2.543 -0.625,-3.5 -0.2142,-0.9571 -0.48047,-1.819 -0.78125,-2.5938 -0.29623,-0.7747 -0.58789,-1.4362 -0.875,-1.9375 -0.28255,-0.5013 -0.60808,-0.985 -1,-1.5 -0.82031,-1.0709 -1.28776,-1.7493 -1.40625,-2 -0.0912,-0.1914 -0.0742,-0.2981 0.0625,-0.3437 0.0592,-0.018 0.20573,-0.027 0.40625,-0.031 z m 44.0625,1.3125 c 0.29621,-0.023 0.55467,0 0.71875,0.062 0.16404,0.055 0.27928,0.1491 0.375,0.2813 0.19594,0.2552 0.40232,0.972 0.59375,2.125 0.19594,1.1484 0.33657,2.567 0.46875,4.3124 0.2962,3.9695 0.83266,8.4434 1.59375,13.4063 0.19594,1.2943 0.38865,2.4649 0.59375,3.5313 0.20506,1.0664 0.46743,2.1907 0.75,3.3437 0.28709,1.1484 0.61716,2.2813 1,3.375 0.38279,1.0892 0.80271,2.1354 1.28125,3.1563 0.19138,0.4101 0.43617,0.8216 0.71875,1.25 0.28708,0.4238 0.56182,0.7838 0.8125,1.0937 0.25518,0.3099 0.54229,0.679 0.875,1.0937 0.33721,0.4193 0.62953,0.7885 0.84375,1.0938 0.0729,0.1048 0.0722,0.2207 0.0312,0.3438 -0.0365,0.1276 -0.10485,0.2135 -0.21875,0.25 -0.19599,0.059 -0.47919,0.08 -0.84375,0.094 -0.36005,0.014 -0.67711,0.018 -0.96875,0 -0.28714,-0.018 -0.65172,-0.053 -1.09375,-0.094 -0.44208,-0.041 -0.74742,-0.049 -0.875,-0.063 -1.21226,-0.077 -2.27997,-0.096 -3.21875,0 -0.93882,0.1003 -2.10158,0.3021 -3.46875,0.5938 -0.36916,0.078 -0.8021,0.2109 -1.3125,0.375 -0.50588,0.1686 -0.88739,0.3014 -1.15625,0.4062 -0.15952,0.059 -0.35223,0.098 -0.59375,0.125 -0.24155,0.032 -0.40431,0.014 -0.5,-0.031 -0.28257,-0.1823 -0.22788,-0.5983 0.21875,-1.25 L 350.1875,1164 c 1.23045,-1.8229 1.81704,-3.8346 1.8125,-6.0312 -0.005,-1.0118 -0.0384,-1.9987 -0.125,-2.9376 -0.0866,-0.9433 -0.19403,-1.6503 -0.3125,-2.1562 -0.60158,-0.1003 -1.16799,-0.1693 -1.6875,-0.1875 -0.51499,-0.023 -1.1797,-0.018 -2,0 -0.51499,0.014 -1.05079,0.064 -1.625,0.1875 -0.56967,0.1231 -0.90366,0.2695 -1.03125,0.4062 -0.25978,0.2781 -0.38478,0.7839 -0.34375,1.5313 0.0182,0.3327 0.0443,0.6074 0.0625,0.8125 0.0228,0.2051 0.0703,0.4577 0.125,0.7812 0.0547,0.3236 0.10546,0.6244 0.1875,0.875 0.082,0.2507 0.19791,0.5072 0.34375,0.8126 0.15038,0.3053 0.32616,0.6191 0.53125,0.9062 0.15038,0.2096 0.30077,0.3893 0.4375,0.5625 0.13671,0.1732 0.25715,0.3014 0.34375,0.4063 0.0866,0.1002 0.17186,0.2343 0.28125,0.3437 0.10936,0.1094 0.18228,0.1556 0.21875,0.1875 0.0365,0.032 0.0918,0.11 0.1875,0.1875 0.0957,0.078 0.17381,0.1159 0.1875,0.125 0.15493,0.1322 0.1673,0.321 0.0625,0.5625 -0.0365,0.082 -0.1478,0.1413 -0.34375,0.2188 -0.19598,0.077 -0.45835,0.1373 -0.75,0.1874 -0.41017,0.073 -1.23699,0.142 -2.53125,0.1876 -1.28972,0.045 -2.45704,0.032 -3.46875,-0.031 -0.92969,-0.068 -1.73178,-0.1322 -2.40625,-0.2187 -0.66993,-0.091 -1.21029,-0.2032 -1.625,-0.3126 -0.41472,-0.1139 -0.72331,-0.1992 -0.9375,-0.2812 -0.21419,-0.087 -0.42839,-0.2161 -0.65625,-0.3438 -0.0365,-0.018 -0.071,-0.051 -0.0937,-0.1562 -0.0182,-0.1094 -0.0182,-0.2682 0,-0.4688 0.0182,-0.205 0.0566,-0.4414 0.125,-0.6874 0.0684,-0.2461 0.17513,-0.5469 0.34375,-0.875 0.17318,-0.3282 0.40104,-0.6407 0.65625,-0.9688 0.25976,-0.3281 0.59896,-0.7181 1,-1.1875 0.40104,-0.4694 0.70507,-0.8424 0.9375,-1.125 0.23697,-0.2871 0.50325,-0.6517 0.78125,-1.0937 0.28255,-0.4421 0.52278,-0.9056 0.71875,-1.375 0.51497,-1.2305 1.02994,-2.5736 1.53125,-4 0.50129,-1.4265 0.87825,-2.7084 1.15625,-3.875 0.98892,-4.1927 1.45637,-7.4017 1.40625,-9.5938 -0.005,-0.1959 -0.0221,-0.3626 -0.0312,-0.5312 -0.009,-0.1686 -0.004,-0.3275 -0.0312,-0.4688 -0.0228,-0.1458 -0.071,-0.2656 -0.0937,-0.375 -0.0228,-0.1139 -0.0436,-0.2389 -0.0937,-0.3438 -0.0456,-0.1047 -0.0885,-0.177 -0.125,-0.25 -0.0319,-0.077 -0.0833,-0.1633 -0.15625,-0.25 -0.0684,-0.086 -0.11069,-0.1685 -0.15625,-0.2187 -0.041,-0.055 -0.1185,-0.11 -0.21875,-0.1875 -0.10027,-0.082 -0.19076,-0.1419 -0.25,-0.1875 -0.0593,-0.05 -0.15821,-0.123 -0.28125,-0.2187 -0.0182,-0.014 -0.0267,-0.027 -0.0312,-0.031 -0.22787,-0.1731 -0.49415,-0.3274 -0.78125,-0.4687 -0.28256,-0.1413 -0.59115,-0.2787 -0.9375,-0.4063 -0.34636,-0.1321 -0.54297,-0.209 -0.625,-0.25 -0.17774,-0.082 -0.34506,-0.2031 -0.5,-0.3125 -0.1504,-0.1093 -0.2754,-0.1946 -0.34375,-0.2812 -0.0684,-0.091 -0.0632,-0.1465 -0.0312,-0.1876 0.0592,-0.082 0.11914,-0.1549 0.1875,-0.2187 0.0684,-0.068 0.1621,-0.1543 0.3125,-0.25 0.15494,-0.096 0.33984,-0.1907 0.53125,-0.25 0.1914,-0.059 0.43098,-0.1106 0.75,-0.1563 0.319,-0.045 0.67057,-0.062 1.0625,-0.062 0.58788,0 1.06835,0.014 1.4375,0 0.36913,-0.018 0.81119,-0.07 1.3125,-0.125 0.50129,-0.055 0.98241,-0.1185 1.40625,-0.2188 0.42837,-0.1048 0.9173,-0.2506 1.46875,-0.4375 0.55598,-0.1914 1.12108,-0.4453 1.75,-0.7187 0.69725,-0.3054 1.31118,-0.528 1.8125,-0.6876 0.50584,-0.164 0.89126,-0.2629 1.1875,-0.2812 z m -33.5,5.1562 c -0.53777,-0.036 -0.86329,0.1999 -1,0.6876 -0.11394,0.4147 -0.097,1.1914 0.0625,2.3124 0.0365,0.2416 0.1009,0.614 0.1875,1.1563 0.15949,0.9981 0.27538,1.7741 0.34375,2.3437 0.13671,1.0984 0.24413,2.1199 0.3125,3.0313 0.0729,0.9069 0.0976,1.627 0.125,2.1875 0.0319,0.5606 0.0794,0.9981 0.125,1.3125 1.61783,-0.1367 2.94334,-0.3594 3.96875,-0.6875 0.45571,-0.1413 0.90233,-0.3086 1.3125,-0.5 0.41014,-0.1959 0.80011,-0.4277 1.1875,-0.6875 0.38735,-0.2597 0.73956,-0.5429 1.03125,-0.8437 0.2962,-0.3008 0.51821,-0.6263 0.71875,-1 0.2005,-0.3783 0.34698,-0.7774 0.40625,-1.1876 0.1048,-0.7519 0.0742,-1.5149 -0.0625,-2.3124 -0.13674,-0.7976 -0.37697,-1.5267 -0.71875,-2.1876 -0.33726,-0.6653 -0.71812,-1.1894 -1.1875,-1.5312 -0.85223,-0.6152 -1.86916,-1.0911 -3.03125,-1.4375 -1.15757,-0.3509 -2.42319,-0.5696 -3.78125,-0.6563 z m 31.65625,6.3126 c -0.47853,0.1412 -0.98895,0.6692 -1.53125,1.5624 -0.53777,0.8887 -0.99676,1.9955 -1.375,3.3126 -0.27345,0.9433 -0.51303,1.8483 -0.75,2.7187 -0.23243,0.8705 -0.39975,1.5052 -0.5,1.9063 l -0.15625,0.5937 c 0.92967,0 1.75715,-0.018 2.5,-0.031 1.17121,-0.023 2.02928,-0.065 2.5625,-0.1562 -0.0684,-1.0983 -0.19273,-2.7454 -0.375,-4.9375 -0.18231,-2.1966 -0.31577,-3.8613 -0.375,-4.9687 z"
         style="fill:#f1f4b9;fill-opacity:1" />
    </g>
  </g>
</svg>
