<?xml version="1.0" encoding="UTF-8" standalone="no"?>
<!-- Created with Inkscape (http://www.inkscape.org/) -->

<svg
   xmlns:dc="http://purl.org/dc/elements/1.1/"
   xmlns:cc="http://creativecommons.org/ns#"
   xmlns:rdf="http://www.w3.org/1999/02/22-rdf-syntax-ns#"
   xmlns:svg="http://www.w3.org/2000/svg"
   xmlns="http://www.w3.org/2000/svg"
   xmlns:xlink="http://www.w3.org/1999/xlink"
   xmlns:sodipodi="http://sodipodi.sourceforge.net/DTD/sodipodi-0.dtd"
   xmlns:inkscape="http://www.inkscape.org/namespaces/inkscape"
   width="344.81482"
   height="78.569771"
   id="svg5641"
   version="1.1"
   inkscape:version="0.48.5 r10040"
   sodipodi:docname="ButtonPassUp.svg">
  <defs
     id="defs5643">
    <linearGradient
       inkscape:collect="always"
       id="linearGradient5727">
      <stop
         style="stop-color:#ffffff;stop-opacity:1;"
         offset="0"
         id="stop5729" />
      <stop
         style="stop-color:#ffffff;stop-opacity:0;"
         offset="1"
         id="stop5731" />
    </linearGradient>
    <filter
       color-interpolation-filters="sRGB"
       inkscape:collect="always"
       id="filter4336-2"
       x="-0.045628764"
       width="1.0912575"
       y="-0.10840871"
       height="1.2168174">
      <feGaussianBlur
         inkscape:collect="always"
         stdDeviation="1.9616878"
         id="feGaussianBlur4338-9" />
    </filter>
    <filter
       color-interpolation-filters="sRGB"
       inkscape:collect="always"
       id="filter4666">
      <feGaussianBlur
         inkscape:collect="always"
         stdDeviation="0.95751177"
         id="feGaussianBlur4668" />
    </filter>
    <linearGradient
       inkscape:collect="always"
       xlink:href="#linearGradient5727"
       id="linearGradient5733"
       x1="359.45319"
       y1="884.3075"
       x2="360.87411"
       y2="970.79816"
       gradientUnits="userSpaceOnUse" />
  </defs>
  <sodipodi:namedview
     id="base"
     pagecolor="#ffffff"
     bordercolor="#666666"
     borderopacity="1.0"
     inkscape:pageopacity="0.0"
     inkscape:pageshadow="2"
     inkscape:zoom="2.8"
     inkscape:cx="181.43049"
     inkscape:cy="42.554988"
     inkscape:document-units="px"
     inkscape:current-layer="g4170"
     showgrid="false"
     fit-margin-top="0"
     fit-margin-left="0"
     fit-margin-right="0"
     fit-margin-bottom="0"
     inkscape:window-width="1366"
     inkscape:window-height="744"
     inkscape:window-x="0"
     inkscape:window-y="24"
     inkscape:window-maximized="1" />
  <metadata
     id="metadata5646">
    <rdf:RDF>
      <cc:Work
         rdf:about="">
        <dc:format>image/svg+xml</dc:format>
        <dc:type
           rdf:resource="http://purl.org/dc/dcmitype/StillImage" />
        <dc:title></dc:title>
      </cc:Work>
    </rdf:RDF>
  </metadata>
  <g
     inkscape:label="Layer 1"
     inkscape:groupmode="layer"
     id="layer1"
     transform="translate(-319.02117,-158.79158)">
    <g
       transform="translate(127.79396,-721.51268)"
       id="g4170">
      <path
         sodipodi:type="arc"
         style="fill:#575b00;fill-opacity:0.27554178"
         id="path3792"
         sodipodi:cx="360"
         sodipodi:cy="1157.2269"
         sodipodi:rx="162.51051"
         sodipodi:ry="32.869457"
         d="m 522.51051,1157.2269 c 0,18.1533 -72.75843,32.8695 -162.51051,32.8695 -89.75208,0 -162.51051,-14.7162 -162.51051,-32.8695 0,-18.1533 72.75843,-32.8694 162.51051,-32.8694 89.75208,0 162.51051,14.7161 162.51051,32.8694 z"
         transform="matrix(1.0609,0,0,1.195179,-18.28939,-463.50418)" />
      <flowRoot
         xml:space="preserve"
         id="flowRoot4328"
         style="font-size:56px;font-style:normal;font-variant:normal;font-weight:500;font-stretch:normal;line-height:125%;letter-spacing:0px;word-spacing:0px;fill:#ffffff;fill-opacity:0.16615385;stroke:none;filter:url(#filter4336-2);font-family:Celestia Redux;-inkscape-font-specification:Celestia Redux Medium"
         transform="matrix(0.97058209,0,0,0.97058209,16.263523,-207.85223)"><flowRegion
           id="flowRegion4330"><rect
             id="rect4332"
             width="203.5"
             height="92"
             x="301.5"
             y="1119.5"
             style="font-size:56px;font-style:normal;font-variant:normal;font-weight:500;font-stretch:normal;fill:#ffffff;fill-opacity:0.16615385;font-family:Celestia Redux;-inkscape-font-specification:Celestia Redux Medium" /></flowRegion><flowPara
           id="flowPara4334">PASS</flowPara></flowRoot>      <path
         inkscape:connector-curvature="0"
         id="path4038"
         transform="translate(0,-227.63782)"
         d="m 361.625,1111.9688 c -91.55609,-1e-4 -165.78125,15.3008 -165.78125,34.1874 0,18.8867 74.22516,34.1876 165.78125,34.1876 91.55609,-1e-4 165.78125,-15.3009 165.78125,-34.1876 0,-18.8866 -74.22516,-34.1874 -165.78125,-34.1874 z m 27.125,14.8437 c -0.0319,0.1687 -0.0873,0.4004 -0.1875,0.6875 -0.10028,0.2826 -0.19013,0.5834 -0.28125,0.875 -0.0912,0.2871 -0.17711,0.5866 -0.25,0.9375 -0.0729,0.3509 -0.10289,0.7325 -0.0937,1.1563 0.0136,0.4238 0.0644,0.8795 0.1875,1.3124 0.16404,0.5789 0.28448,1.0925 0.34375,1.5938 0.0638,0.5013 0.0944,1.0033 0.0625,1.5 -0.0319,0.4922 -0.10093,0.9688 -0.1875,1.4062 -0.0866,0.433 -0.21096,0.948 -0.375,1.5313 -0.12763,-0.091 -0.26109,-0.2291 -0.375,-0.375 -0.11395,-0.1504 -0.20315,-0.2955 -0.3125,-0.4687 -0.1094,-0.1778 -0.24286,-0.3711 -0.375,-0.5626 -0.13218,-0.1913 -0.29885,-0.3795 -0.53125,-0.5937 -0.22789,-0.2142 -0.5163,-0.4381 -0.8125,-0.625 -1.00718,-0.6198 -2.10028,-1.0267 -3.3125,-1.25 -1.21226,-0.2278 -2.36199,-0.2018 -3.4375,0.062 -0.64259,0.1687 -1.22137,0.4089 -1.75,0.7188 -0.52866,0.3053 -0.95769,0.6308 -1.28125,1 -0.32358,0.3646 -0.55991,0.7415 -0.6875,1.1562 -0.12761,0.4147 -0.11394,0.8093 0,1.1875 0.12304,0.4193 0.27668,0.8145 0.5,1.1563 0.2233,0.3418 0.50715,0.6465 0.8125,0.9062 0.30533,0.2598 0.64322,0.4779 1.0625,0.6875 0.42382,0.2097 0.89647,0.4076 1.375,0.5625 0.48306,0.1504 1.01431,0.2741 1.625,0.4062 0.56053,0.1186 1.13931,0.2774 1.75,0.4688 0.61522,0.1914 1.27667,0.4362 1.9375,0.7188 0.66079,0.278 1.29555,0.6126 1.90625,1 0.61521,0.3828 1.11196,0.7858 1.53125,1.2187 0.99347,1.0254 1.69334,2.2175 2.0625,3.5937 0.36912,1.3718 0.48956,2.9766 0.34375,4.7813 -0.0501,0.6198 -0.10614,1.1517 -0.15625,1.5937 -0.0501,0.4376 -0.12307,0.9004 -0.21875,1.4063 -0.0912,0.5013 -0.21617,0.9557 -0.34375,1.375 -0.12763,0.4147 -0.27281,0.8522 -0.46875,1.3125 -0.19599,0.4557 -0.44534,0.9414 -0.71875,1.4062 -0.2689,0.4649 -0.58205,0.9317 -0.9375,1.4376 -0.38739,0.5332 -0.79494,1.0143 -1.21875,1.4062 -0.42385,0.3919 -0.84768,0.6999 -1.3125,0.9688 -0.46486,0.2643 -0.9883,0.4967 -1.5625,0.6562 -0.56968,0.1595 -1.16147,0.2708 -1.78125,0.3438 -0.61981,0.077 -1.33205,0.1204 -2.125,0.125 -0.56967,0 -1.10613,-0.03 -1.59375,-0.094 -0.48308,-0.064 -0.96746,-0.1797 -1.46875,-0.3438 -0.50131,-0.1686 -0.98569,-0.4088 -1.46875,-0.7187 -0.47852,-0.3145 -0.95509,-0.7005 -1.40625,-1.1563 -0.44662,-0.4466 -0.81967,-0.8925 -1.125,-1.3437 -0.30534,-0.4557 -0.55404,-0.9102 -0.75,-1.375 -0.19597,-0.4648 -0.38933,-0.9414 -0.5625,-1.4063 -0.17318,-0.4693 -0.40886,-1.0312 -0.71875,-1.6874 -0.3099,-0.6608 -0.66146,-1.3347 -1.0625,-2 -0.16407,-0.2735 -0.36589,-0.5085 -0.59375,-0.75 -0.22787,-0.2416 -0.44206,-0.4655 -0.65625,-0.625 -0.21419,-0.1595 -0.43294,-0.3223 -0.65625,-0.5 -0.22331,-0.1778 -0.44727,-0.3451 -0.625,-0.5 -0.17774,-0.155 -0.32747,-0.3217 -0.46875,-0.5313 -0.14128,-0.2142 -0.22201,-0.446 -0.28125,-0.6875 0.10937,-0.018 0.37435,-0.083 0.84375,-0.1875 0.47396,-0.1048 0.85547,-0.1686 1.15625,-0.2187 0.30078,-0.05 0.74284,-0.1413 1.3125,-0.2188 0.56966,-0.078 1.222,-0.1419 1.9375,-0.1875 0.71549,-0.046 1.52213,-0.071 2.40625,-0.094 1.82291,0.041 2.99413,0.1354 3.5,0.2812 0.3828,0.1094 0.56249,0.2988 0.5625,0.5312 -10e-6,0.2097 -0.19337,0.5346 -0.5625,1.0313 -0.0593,0.082 -0.13217,0.194 -0.21875,0.3125 -0.71551,0.957 -1.13608,1.8275 -1.25,2.625 -0.10938,0.7975 0.10155,1.4974 0.59375,2.0625 0.28254,0.3281 0.64647,0.5814 1.125,0.75 0.48306,0.1686 1.00194,0.2149 1.5625,0.1875 0.56509,-0.027 1.10611,-0.1647 1.59375,-0.4062 0.26887,-0.1322 0.52603,-0.295 0.78125,-0.5 0.25975,-0.2097 0.52147,-0.4799 0.78125,-0.8126 0.25975,-0.3326 0.49152,-0.6972 0.6875,-1.0937 0.19595,-0.401 0.34113,-0.8594 0.46875,-1.4063 0.13214,-0.5468 0.20962,-1.1171 0.21875,-1.7187 0.005,-0.3737 -0.008,-0.7435 -0.0625,-1.0625 -0.0547,-0.3236 -0.13218,-0.6152 -0.21875,-0.875 -0.082,-0.2598 -0.22398,-0.4818 -0.40625,-0.7188 -0.18231,-0.2369 -0.35809,-0.4739 -0.53125,-0.6562 -0.16864,-0.1823 -0.40431,-0.3711 -0.71875,-0.5625 -0.31447,-0.1914 -0.61525,-0.332 -0.875,-0.4687 -0.25522,-0.1368 -0.58009,-0.3177 -1.03125,-0.5 -0.44663,-0.1869 -0.86785,-0.3412 -1.21875,-0.4688 -0.35092,-0.1276 -0.80079,-0.2903 -1.375,-0.5 -0.83399,-0.2962 -1.58465,-0.5924 -2.25,-0.875 -0.66082,-0.2825 -1.28256,-0.5735 -1.875,-0.9062 -0.59245,-0.3327 -1.09831,-0.6758 -1.53125,-1.0313 -0.43295,-0.36 -0.82813,-0.7415 -1.15625,-1.1563 -0.32813,-0.4146 -0.58985,-0.8697 -0.78125,-1.3437 -0.28256,-0.6972 -0.48438,-1.4778 -0.59375,-2.3437 -0.10938,-0.8705 -0.10417,-1.7409 -0.0312,-2.625 0.0775,-0.8841 0.25325,-1.7676 0.53125,-2.6563 0.28255,-0.8886 0.65559,-1.709 1.125,-2.4063 0.30533,-0.4556 0.60481,-0.8717 0.9375,-1.25 0.33268,-0.3827 0.68945,-0.7174 1.03125,-1 0.34635,-0.287 0.68489,-0.5312 1.03125,-0.75 0.3509,-0.2232 0.70247,-0.4166 1.0625,-0.5624 0.36002,-0.1458 0.71158,-0.2481 1.0625,-0.3438 0.35546,-0.096 0.72916,-0.151 1.09375,-0.1875 0.36913,-0.041 0.69856,-0.062 1.03125,-0.062 0.33723,0 0.68033,0.022 1.03125,0.062 0.65624,0.073 1.2272,0.1674 1.6875,0.2813 0.46483,0.1139 0.82551,0.2207 1.0625,0.3437 0.23696,0.1185 0.43879,0.2299 0.59375,0.3437 0.15949,0.114 0.32681,0.239 0.5,0.3438 0.17316,0.1003 0.34829,0.1465 0.5625,0.1875 0.45571,0.096 0.91014,0.061 1.375,-0.094 0.46938,-0.155 1.04425,-0.485 1.71875,-1 0.34633,-0.2689 0.65948,-0.4609 0.9375,-0.625 0.28253,-0.1686 0.52667,-0.3021 0.75,-0.375 0.22328,-0.073 0.41209,-0.1113 0.5625,-0.125 0.15037,-0.018 0.31769,-0.036 0.5,-0.031 z m 24.71875,0 c -0.0319,0.1687 -0.0873,0.4004 -0.1875,0.6875 -0.10028,0.2826 -0.19013,0.5834 -0.28125,0.875 -0.0912,0.2871 -0.17711,0.5866 -0.25,0.9375 -0.0729,0.3509 -0.10289,0.7325 -0.0937,1.1563 0.0136,0.4238 0.0644,0.8795 0.1875,1.3124 0.16404,0.5789 0.28448,1.0925 0.34375,1.5938 0.0638,0.5013 0.0944,1.0033 0.0625,1.5 -0.0319,0.4922 -0.10093,0.9688 -0.1875,1.4062 -0.0866,0.433 -0.21096,0.948 -0.375,1.5313 -0.12763,-0.091 -0.26109,-0.2291 -0.375,-0.375 -0.11395,-0.1504 -0.20315,-0.2955 -0.3125,-0.4687 -0.1094,-0.1778 -0.24286,-0.3711 -0.375,-0.5626 -0.13218,-0.1913 -0.29885,-0.3795 -0.53125,-0.5937 -0.22789,-0.2142 -0.5163,-0.4381 -0.8125,-0.625 -1.00718,-0.6198 -2.10028,-1.0267 -3.3125,-1.25 -1.21226,-0.2278 -2.36199,-0.2018 -3.4375,0.062 -0.64259,0.1687 -1.22137,0.4089 -1.75,0.7188 -0.52866,0.3053 -0.95769,0.6308 -1.28125,1 -0.32358,0.3646 -0.55991,0.7415 -0.6875,1.1562 -0.12761,0.4147 -0.11394,0.8093 0,1.1875 0.12304,0.4193 0.27668,0.8145 0.5,1.1563 0.2233,0.3418 0.50715,0.6465 0.8125,0.9062 0.30533,0.2598 0.64322,0.4779 1.0625,0.6875 0.42382,0.2097 0.89647,0.4076 1.375,0.5625 0.48306,0.1504 1.01431,0.2741 1.625,0.4062 0.56053,0.1186 1.13931,0.2774 1.75,0.4688 0.61522,0.1914 1.27667,0.4362 1.9375,0.7188 0.66079,0.278 1.29555,0.6126 1.90625,1 0.61521,0.3828 1.11196,0.7858 1.53125,1.2187 0.99347,1.0254 1.69334,2.2175 2.0625,3.5937 0.36912,1.3718 0.48956,2.9766 0.34375,4.7813 -0.0501,0.6198 -0.10614,1.1517 -0.15625,1.5937 -0.0501,0.4376 -0.12307,0.9004 -0.21875,1.4063 -0.0912,0.5013 -0.21617,0.9557 -0.34375,1.375 -0.12763,0.4147 -0.27281,0.8522 -0.46875,1.3125 -0.19599,0.4557 -0.44534,0.9414 -0.71875,1.4062 -0.2689,0.4649 -0.58205,0.9317 -0.9375,1.4376 -0.38739,0.5332 -0.79494,1.0143 -1.21875,1.4062 -0.42385,0.3919 -0.84768,0.6999 -1.3125,0.9688 -0.46486,0.2643 -0.9883,0.4967 -1.5625,0.6562 -0.56968,0.1595 -1.16147,0.2708 -1.78125,0.3438 -0.61981,0.077 -1.33205,0.1204 -2.125,0.125 -0.56967,0 -1.10613,-0.03 -1.59375,-0.094 -0.48308,-0.064 -0.96746,-0.1797 -1.46875,-0.3438 -0.50131,-0.1686 -0.98569,-0.4088 -1.46875,-0.7187 -0.47852,-0.3145 -0.95509,-0.7005 -1.40625,-1.1563 -0.44662,-0.4466 -0.81967,-0.8925 -1.125,-1.3437 -0.30534,-0.4557 -0.55404,-0.9102 -0.75,-1.375 -0.19597,-0.4648 -0.38933,-0.9414 -0.5625,-1.4063 -0.17318,-0.4693 -0.40886,-1.0312 -0.71875,-1.6874 -0.3099,-0.6608 -0.66146,-1.3347 -1.0625,-2 -0.16407,-0.2735 -0.36589,-0.5085 -0.59375,-0.75 -0.22787,-0.2416 -0.44206,-0.4655 -0.65625,-0.625 -0.21419,-0.1595 -0.43294,-0.3223 -0.65625,-0.5 -0.22331,-0.1778 -0.44727,-0.3451 -0.625,-0.5 -0.17774,-0.155 -0.32747,-0.3217 -0.46875,-0.5313 -0.14128,-0.2142 -0.22201,-0.446 -0.28125,-0.6875 0.10937,-0.018 0.37435,-0.083 0.84375,-0.1875 0.47396,-0.1048 0.85547,-0.1686 1.15625,-0.2187 0.30078,-0.05 0.74284,-0.1413 1.3125,-0.2188 0.56966,-0.078 1.222,-0.1419 1.9375,-0.1875 0.71549,-0.046 1.52213,-0.071 2.40625,-0.094 1.82291,0.041 2.99413,0.1354 3.5,0.2812 0.3828,0.1094 0.56249,0.2988 0.5625,0.5312 -10e-6,0.2097 -0.19337,0.5346 -0.5625,1.0313 -0.0593,0.082 -0.13217,0.194 -0.21875,0.3125 -0.71551,0.957 -1.13608,1.8275 -1.25,2.625 -0.10938,0.7975 0.10155,1.4974 0.59375,2.0625 0.28254,0.3281 0.64647,0.5814 1.125,0.75 0.48306,0.1686 1.00194,0.2149 1.5625,0.1875 0.56509,-0.027 1.10611,-0.1647 1.59375,-0.4062 0.26887,-0.1322 0.52603,-0.295 0.78125,-0.5 0.25975,-0.2097 0.52147,-0.4799 0.78125,-0.8126 0.25975,-0.3326 0.49152,-0.6972 0.6875,-1.0937 0.19595,-0.401 0.34113,-0.8594 0.46875,-1.4063 0.13214,-0.5468 0.20962,-1.1171 0.21875,-1.7187 0.005,-0.3737 -0.008,-0.7435 -0.0625,-1.0625 -0.0547,-0.3236 -0.13218,-0.6152 -0.21875,-0.875 -0.082,-0.2598 -0.22398,-0.4818 -0.40625,-0.7188 -0.18231,-0.2369 -0.35809,-0.4739 -0.53125,-0.6562 -0.16864,-0.1823 -0.40431,-0.3711 -0.71875,-0.5625 -0.31447,-0.1914 -0.61525,-0.332 -0.875,-0.4687 -0.25522,-0.1368 -0.58009,-0.3177 -1.03125,-0.5 -0.44663,-0.1869 -0.86785,-0.3412 -1.21875,-0.4688 -0.35092,-0.1276 -0.80079,-0.2903 -1.375,-0.5 -0.83399,-0.2962 -1.58465,-0.5924 -2.25,-0.875 -0.66082,-0.2825 -1.28256,-0.5735 -1.875,-0.9062 -0.59245,-0.3327 -1.09831,-0.6758 -1.53125,-1.0313 -0.43295,-0.36 -0.82813,-0.7415 -1.15625,-1.1563 -0.32813,-0.4146 -0.58985,-0.8697 -0.78125,-1.3437 -0.28256,-0.6972 -0.48438,-1.4778 -0.59375,-2.3437 -0.10938,-0.8705 -0.10417,-1.7409 -0.0312,-2.625 0.0775,-0.8841 0.25325,-1.7676 0.53125,-2.6563 0.28255,-0.8886 0.65559,-1.709 1.125,-2.4063 0.30533,-0.4556 0.60481,-0.8717 0.9375,-1.25 0.33268,-0.3827 0.68945,-0.7174 1.03125,-1 0.34635,-0.287 0.68489,-0.5312 1.03125,-0.75 0.3509,-0.2232 0.70247,-0.4166 1.0625,-0.5624 0.36002,-0.1458 0.71158,-0.2481 1.0625,-0.3438 0.35546,-0.096 0.72916,-0.151 1.09375,-0.1875 0.36913,-0.041 0.69856,-0.062 1.03125,-0.062 0.33723,0 0.68033,0.022 1.03125,0.062 0.65624,0.073 1.2272,0.1674 1.6875,0.2813 0.46483,0.1139 0.82551,0.2207 1.0625,0.3437 0.23696,0.1185 0.43879,0.2299 0.59375,0.3437 0.15949,0.114 0.32681,0.239 0.5,0.3438 0.17316,0.1003 0.34829,0.1465 0.5625,0.1875 0.45571,0.096 0.91014,0.061 1.375,-0.094 0.46938,-0.155 1.04425,-0.485 1.71875,-1 0.34633,-0.2689 0.65948,-0.4609 0.9375,-0.625 0.28253,-0.1686 0.52667,-0.3021 0.75,-0.375 0.22328,-0.073 0.41209,-0.1113 0.5625,-0.125 0.15037,-0.018 0.31769,-0.036 0.5,-0.031 z m -101.125,1.9063 c 0.15495,0 0.43359,0.025 0.84375,0.094 0.41471,0.068 0.86002,0.1322 1.375,0.2187 0.51953,0.087 1.25325,0.1856 2.1875,0.2813 0.93424,0.096 1.92968,0.1732 2.96875,0.2187 4.81704,0.2143 8.50584,1.0502 11.0625,2.5313 1.12107,0.6517 2.10349,1.4154 2.9375,2.2813 0.83852,0.8659 1.58071,1.8522 2.21875,2.9687 0.55141,0.9707 0.93292,1.8679 1.15625,2.6563 0.22328,0.7884 0.33461,1.638 0.34375,2.5312 -3e-5,0.4512 -0.0521,0.862 -0.125,1.2812 -0.0729,0.4193 -0.15823,0.8275 -0.28125,1.1876 -0.12307,0.3554 -0.27737,0.6849 -0.46875,1.0312 -0.19143,0.3464 -0.40627,0.6817 -0.625,0.9688 -0.21422,0.2871 -0.46291,0.5566 -0.75,0.8437 -0.28713,0.2871 -0.57034,0.5488 -0.84375,0.7813 -0.27346,0.2324 -0.55992,0.4726 -0.90625,0.7187 -0.34638,0.2416 -0.66799,0.4603 -0.96875,0.6563 -0.3008,0.1914 -0.65302,0.4108 -1.03125,0.625 -0.25067,0.1504 -0.50783,0.2741 -0.78125,0.4062 -0.27346,0.1322 -0.56057,0.2611 -0.875,0.375 -0.31447,0.1139 -0.6107,0.2214 -0.875,0.3125 -0.26434,0.091 -0.59963,0.1856 -0.96875,0.2813 l -0.90625,0.25 c -0.24155,0.059 -0.5853,0.1054 -1,0.1874 -0.41017,0.082 -0.72332,0.1465 -0.9375,0.1876 -0.20965,0.041 -0.52215,0.1054 -0.96875,0.1874 -0.44663,0.082 -0.76434,0.129 -0.9375,0.1563 -10e-6,1.987 0.12043,3.7162 0.34375,5.1563 0.22785,1.4401 0.58853,2.6705 1.0625,3.7187 0.15949,0.3509 0.49803,0.9342 1.03125,1.75 0.53319,0.8112 0.8548,1.3177 0.96875,1.5 -0.21421,0.091 -0.3991,0.1686 -0.53125,0.2187 -0.13218,0.046 -0.29494,0.093 -0.5,0.1563 -0.20509,0.068 -0.38478,0.1198 -0.5625,0.1563 -0.17319,0.041 -0.40106,0.084 -0.65625,0.125 -0.25522,0.045 -0.53452,0.075 -0.8125,0.094 -0.27801,0.018 -0.57749,0.049 -0.9375,0.062 -0.36004,0.014 -0.75001,0 -1.1875,0 -0.43751,0 -0.94011,-0.018 -1.46875,-0.031 -0.74285,-0.023 -1.41212,-0.048 -2,-0.125 -0.5879,-0.073 -1.04688,-0.1726 -1.375,-0.25 -0.32357,-0.073 -0.65821,-0.1329 -1,-0.1876 -0.33724,-0.059 -0.71875,-0.067 -1.15625,-0.062 -0.43295,0 -0.95638,0.034 -1.5625,0.125 0.12305,-0.2963 0.29101,-0.5971 0.46875,-0.875 0.17773,-0.2826 0.36653,-0.5398 0.5625,-0.7813 0.20052,-0.2415 0.38867,-0.4681 0.59375,-0.7187 0.20507,-0.2553 0.42382,-0.5645 0.65625,-0.9063 0.23242,-0.3418 0.43815,-0.7109 0.625,-1.0937 0.34635,-0.6928 0.62955,-1.3705 0.84375,-2.0313 0.21874,-0.6654 0.39908,-1.3984 0.53125,-2.2187 0.13671,-0.8249 0.22721,-1.7683 0.25,-2.8438 0.0228,-1.0801 -0.0124,-2.3027 -0.0625,-3.6562 -0.0501,-1.3581 -0.13998,-2.9838 -0.28125,-4.875 -0.13217,-1.7591 -0.27735,-3.3379 -0.46875,-4.7188 -0.19141,-1.3854 -0.41081,-2.5429 -0.625,-3.5 -0.2142,-0.957 -0.44922,-1.819 -0.75,-2.5938 -0.29623,-0.7747 -0.58789,-1.4361 -0.875,-1.9374 -0.28255,-0.5013 -0.63933,-0.985 -1.03125,-1.5 -0.82031,-1.071 -1.28776,-1.7494 -1.40625,-2 -0.0912,-0.1914 -0.0742,-0.2982 0.0625,-0.3438 0.0592,-0.018 0.20573,-0.027 0.40625,-0.031 z m 44.09375,1.3124 c 0.29621,-0.023 0.52342,0 0.6875,0.063 0.16404,0.055 0.27928,0.1491 0.375,0.2812 0.19594,0.2552 0.40232,0.9408 0.59375,2.0938 0.19594,1.1484 0.36782,2.5983 0.5,4.3437 0.2962,3.9694 0.80141,8.4434 1.5625,13.4063 0.19594,1.2942 0.4199,2.4648 0.625,3.5312 0.20506,1.0664 0.43618,2.1908 0.71875,3.3438 0.28709,1.1484 0.61716,2.2812 1,3.375 0.38279,1.0891 0.80271,2.1354 1.28125,3.1562 0.19138,0.4102 0.43617,0.8216 0.71875,1.25 0.28708,0.4238 0.56182,0.7839 0.8125,1.0938 0.25518,0.3098 0.54229,0.679 0.875,1.0937 0.33721,0.4193 0.62953,0.7884 0.84375,1.0937 0.0729,0.1049 0.0722,0.2208 0.0312,0.3438 -0.0365,0.1276 -0.10485,0.2135 -0.21875,0.25 -0.19599,0.059 -0.47919,0.08 -0.84375,0.094 -0.36005,0.014 -0.67711,0.018 -0.96875,0 -0.28714,-0.018 -0.65172,-0.053 -1.09375,-0.094 -0.44208,-0.041 -0.71617,-0.049 -0.84375,-0.062 -1.21226,-0.078 -2.31122,-0.096 -3.25,0 -0.93882,0.1003 -2.07033,0.3021 -3.4375,0.5937 -0.36916,0.078 -0.83335,0.211 -1.34375,0.375 -0.50588,0.1687 -0.88739,0.3015 -1.15625,0.4063 -0.15952,0.059 -0.35223,0.098 -0.59375,0.125 -0.24155,0.032 -0.40431,0.014 -0.5,-0.031 -0.28257,-0.1822 -0.19663,-0.5983 0.25,-1.25 l 1.3125,-1.875 c 1.23045,-1.8229 1.84829,-3.8346 1.84375,-6.0312 -0.005,-1.0117 -0.0697,-1.9987 -0.15625,-2.9375 -0.0866,-0.9434 -0.19403,-1.6816 -0.3125,-2.1875 -0.60158,-0.1003 -1.13674,-0.138 -1.65625,-0.1562 -0.51499,-0.023 -1.1797,-0.018 -2,0 -0.51499,0.014 -1.08204,0.064 -1.65625,0.1874 -0.56967,0.1231 -0.90366,0.2696 -1.03125,0.4063 -0.25978,0.278 -0.38478,0.7839 -0.34375,1.5313 0.0182,0.3326 0.0443,0.6074 0.0625,0.8124 0.0228,0.2051 0.0703,0.4577 0.125,0.7813 0.0547,0.3236 0.10546,0.6244 0.1875,0.875 0.082,0.2507 0.19791,0.5072 0.34375,0.8125 0.15038,0.3053 0.32616,0.6191 0.53125,0.9062 0.15038,0.2097 0.30077,0.3894 0.4375,0.5626 0.13671,0.1731 0.25715,0.3014 0.34375,0.4062 0.0866,0.1003 0.17186,0.2031 0.28125,0.3125 0.10936,0.1094 0.18228,0.1869 0.21875,0.2187 0.0365,0.032 0.12303,0.1101 0.21875,0.1876 0.0957,0.077 0.14256,0.1158 0.15625,0.125 0.15493,0.1321 0.1673,0.3209 0.0625,0.5624 -0.0365,0.082 -0.1478,0.1413 -0.34375,0.2188 -0.19598,0.078 -0.4271,0.1374 -0.71875,0.1875 -0.41017,0.073 -1.26824,0.1419 -2.5625,0.1875 -1.28972,0.046 -2.45704,0.033 -3.46875,-0.031 -0.92969,-0.068 -1.73178,-0.1322 -2.40625,-0.2188 -0.66993,-0.091 -1.21029,-0.2031 -1.625,-0.3125 -0.41472,-0.1139 -0.72331,-0.1992 -0.9375,-0.2813 -0.21419,-0.086 -0.42839,-0.2161 -0.65625,-0.3437 -0.0365,-0.018 -0.071,-0.051 -0.0937,-0.1563 -0.0182,-0.1093 -0.0182,-0.2682 0,-0.4687 0.0182,-0.2051 0.0566,-0.4414 0.125,-0.6875 0.0684,-0.2461 0.20638,-0.5469 0.375,-0.875 0.17318,-0.3281 0.36979,-0.6406 0.625,-0.9688 0.25976,-0.3281 0.59896,-0.718 1,-1.1874 0.40104,-0.4694 0.70507,-0.8425 0.9375,-1.125 0.23697,-0.2872 0.50325,-0.6517 0.78125,-1.0938 0.28255,-0.442 0.52278,-0.9056 0.71875,-1.375 0.51497,-1.2305 1.02994,-2.5736 1.53125,-4 0.50129,-1.4264 0.87825,-2.7083 1.15625,-3.875 0.98892,-4.1927 1.45637,-7.4017 1.40625,-9.5938 -0.005,-0.1959 0.009,-0.3626 0,-0.5312 -0.009,-0.1686 -0.0352,-0.3274 -0.0625,-0.4688 -0.0228,-0.1458 -0.0397,-0.2655 -0.0625,-0.375 -0.0228,-0.1139 -0.0749,-0.2389 -0.125,-0.3437 -0.0456,-0.1048 -0.0885,-0.1771 -0.125,-0.25 -0.0319,-0.077 -0.0833,-0.1634 -0.15625,-0.25 -0.0684,-0.087 -0.11069,-0.1686 -0.15625,-0.2187 -0.041,-0.055 -0.1185,-0.11 -0.21875,-0.1876 -0.10027,-0.082 -0.19076,-0.1418 -0.25,-0.1874 -0.0593,-0.05 -0.12696,-0.1231 -0.25,-0.2188 -0.0182,-0.014 -0.058,-0.027 -0.0625,-0.031 -0.22787,-0.1732 -0.4629,-0.3275 -0.75,-0.4688 -0.28256,-0.1412 -0.59115,-0.2786 -0.9375,-0.4062 -0.34636,-0.1322 -0.57422,-0.209 -0.65625,-0.25 -0.17774,-0.082 -0.34506,-0.2031 -0.5,-0.3126 -0.1504,-0.1093 -0.2754,-0.1946 -0.34375,-0.2812 -0.0684,-0.091 -0.0632,-0.1465 -0.0312,-0.1875 0.0592,-0.082 0.11914,-0.1549 0.1875,-0.2187 0.0684,-0.068 0.1621,-0.1543 0.3125,-0.25 0.15494,-0.096 0.33984,-0.1908 0.53125,-0.25 0.1914,-0.059 0.43098,-0.1107 0.75,-0.1563 0.319,-0.045 0.70182,-0.062 1.09375,-0.062 0.58788,0 1.06835,-0.017 1.4375,-0.031 0.36913,-0.018 0.77994,-0.039 1.28125,-0.094 0.50129,-0.055 0.98241,-0.1185 1.40625,-0.2188 0.42837,-0.1047 0.9173,-0.2506 1.46875,-0.4374 0.55598,-0.1914 1.15233,-0.4453 1.78125,-0.7188 0.69725,-0.3053 1.27993,-0.528 1.78125,-0.6875 0.50584,-0.164 0.92251,-0.263 1.21875,-0.2813 z m -33.53125,5.1563 c -0.53777,-0.036 -0.86329,0.1999 -1,0.6875 -0.11394,0.4147 -0.097,1.1602 0.0625,2.2812 0.0365,0.2416 0.1009,0.6453 0.1875,1.1876 0.15949,0.998 0.27538,1.7741 0.34375,2.3437 0.13671,1.0983 0.24413,2.1198 0.3125,3.0313 0.0729,0.9069 0.12889,1.6269 0.15625,2.1874 0.0319,0.5606 0.0482,0.9981 0.0937,1.3126 1.61783,-0.1368 2.94334,-0.3594 3.96875,-0.6876 0.45571,-0.1412 0.90233,-0.3085 1.3125,-0.5 0.41014,-0.1959 0.80011,-0.4277 1.1875,-0.6874 0.38735,-0.2598 0.73956,-0.543 1.03125,-0.8438 0.2962,-0.3008 0.54946,-0.6263 0.75,-1 0.2005,-0.3782 0.31573,-0.7773 0.375,-1.1875 0.1048,-0.7519 0.0742,-1.515 -0.0625,-2.3125 -0.13674,-0.7975 -0.34572,-1.5267 -0.6875,-2.1875 -0.33726,-0.6653 -0.74937,-1.1894 -1.21875,-1.5313 -0.85223,-0.6152 -1.86916,-1.0911 -3.03125,-1.4374 -1.15757,-0.3509 -2.42319,-0.5697 -3.78125,-0.6563 z m 31.65625,6.3125 c -0.47853,0.1413 -0.98895,0.6693 -1.53125,1.5625 -0.53777,0.8887 -0.99676,1.9955 -1.375,3.3125 -0.27345,0.9434 -0.51303,1.8483 -0.75,2.7188 -0.23243,0.8704 -0.39975,1.5052 -0.5,1.9062 l -0.15625,0.5938 c 0.92967,0 1.75715,-0.018 2.5,-0.031 1.17121,-0.023 2.02928,-0.065 2.5625,-0.1563 -0.0684,-1.0982 -0.19273,-2.7454 -0.375,-4.9374 -0.18231,-2.1966 -0.31577,-3.8614 -0.375,-4.9688 z"
         style="fill:#474a00;fill-opacity:0.72445822" />
      <path
         id="path3012"
         d="m 361.625,884.70598 c -89.75208,0 -162.5,14.7217 -162.5,32.875 0,18.1532 72.74792,32.875 162.5,32.875 89.75208,0 162.53125,-14.7218 162.53125,-32.875 0,-18.1533 -72.77917,-32.875 -162.53125,-32.875 z m 24.9375,13.4374 c -0.0319,0.1687 -0.0873,0.4005 -0.1875,0.6876 -0.10028,0.2825 -0.19013,0.5833 -0.28125,0.875 -0.0912,0.2871 -0.17711,0.5866 -0.25,0.9374 -0.0729,0.351 -0.10289,0.7325 -0.0937,1.1563 0.0136,0.4239 0.0644,0.8796 0.1875,1.3125 0.16404,0.5788 0.28448,1.0925 0.34375,1.5938 0.0638,0.5013 0.0631,1.0032 0.0312,1.5 -0.0319,0.4922 -0.0697,0.9687 -0.15625,1.4062 -0.0866,0.433 -0.21096,0.9479 -0.375,1.5312 -0.12763,-0.0911 -0.26109,-0.2291 -0.375,-0.375 -0.11395,-0.1503 -0.2344,-0.2955 -0.34375,-0.4687 -0.1094,-0.1777 -0.21161,-0.3711 -0.34375,-0.5625 -0.13218,-0.1914 -0.3301,-0.3795 -0.5625,-0.5938 -0.22789,-0.2141 -0.48505,-0.4381 -0.78125,-0.625 -1.00718,-0.6197 -2.10028,-1.0266 -3.3125,-1.25 -1.21226,-0.2278 -2.36199,-0.2017 -3.4375,0.0626 -0.64259,0.1686 -1.22137,0.4088 -1.75,0.7187 -0.52866,0.3054 -0.95769,0.6309 -1.28125,1 -0.32358,0.3646 -0.55991,0.7416 -0.6875,1.1563 -0.12761,0.4147 -0.14519,0.8092 -0.0312,1.1874 0.12304,0.4193 0.30793,0.8145 0.53125,1.1563 0.2233,0.3418 0.4759,0.6465 0.78125,0.9063 0.30533,0.2597 0.67447,0.4778 1.09375,0.6874 0.42382,0.2097 0.89647,0.4076 1.375,0.5626 0.48306,0.1504 1.01431,0.2741 1.625,0.4062 0.56053,0.1185 1.13931,0.2774 1.75,0.4688 0.61522,0.1914 1.24542,0.4362 1.90625,0.7187 0.66079,0.278 1.3268,0.6127 1.9375,1 0.61521,0.3828 1.11196,0.7858 1.53125,1.2187 0.99347,1.0255 1.69334,2.2175 2.0625,3.5938 0.36912,1.3718 0.45831,2.9766 0.3125,4.7812 -0.0501,0.6199 -0.10614,1.1518 -0.15625,1.5938 -0.0501,0.4375 -0.0918,0.9004 -0.1875,1.4062 -0.0912,0.5014 -0.21617,0.9558 -0.34375,1.375 -0.12763,0.4148 -0.30406,0.8523 -0.5,1.3126 -0.19599,0.4557 -0.41409,0.9414 -0.6875,1.4062 -0.2689,0.4648 -0.58205,0.9316 -0.9375,1.4375 -0.38739,0.5332 -0.79494,1.0143 -1.21875,1.4063 -0.42385,0.3919 -0.87893,0.6998 -1.34375,0.9687 -0.46486,0.2643 -0.95705,0.4967 -1.53125,0.6563 -0.56968,0.1595 -1.19272,0.2708 -1.8125,0.3437 -0.61981,0.0775 -1.3008,0.1204 -2.09375,0.125 -0.56967,0.005 -1.10613,-0.0299 -1.59375,-0.0937 -0.48308,-0.0639 -0.96746,-0.1797 -1.46875,-0.3438 -0.50131,-0.1686 -1.01694,-0.4089 -1.5,-0.7188 -0.47852,-0.3144 -0.92384,-0.7005 -1.375,-1.1562 -0.44662,-0.4466 -0.81967,-0.8926 -1.125,-1.3438 -0.30534,-0.4557 -0.55404,-0.9101 -0.75,-1.375 -0.19597,-0.4648 -0.38933,-0.9414 -0.5625,-1.4062 -0.17318,-0.4694 -0.40886,-1.0312 -0.71875,-1.6875 -0.3099,-0.6608 -0.66146,-1.3346 -1.0625,-2 -0.16407,-0.2734 -0.36589,-0.5085 -0.59375,-0.75 -0.22787,-0.2415 -0.44206,-0.4655 -0.65625,-0.625 -0.21419,-0.1595 -0.46419,-0.3223 -0.6875,-0.5 -0.22331,-0.1777 -0.41602,-0.345 -0.59375,-0.5 -0.17774,-0.1549 -0.32747,-0.3216 -0.46875,-0.5313 -0.14128,-0.2141 -0.25326,-0.4459 -0.3125,-0.6874 0.10937,-0.0183 0.4056,-0.0827 0.875,-0.1876 0.47396,-0.1048 0.85547,-0.1686 1.15625,-0.2187 0.30078,-0.0501 0.74284,-0.1413 1.3125,-0.2187 0.56966,-0.0775 1.222,-0.1107 1.9375,-0.1563 0.71549,-0.0456 1.52213,-0.1022 2.40625,-0.125 1.82291,0.041 2.96288,0.1354 3.46875,0.2813 0.3828,0.1093 0.59374,0.2988 0.59375,0.5312 -10e-6,0.2096 -0.19337,0.5658 -0.5625,1.0625 -0.0593,0.082 -0.13217,0.1628 -0.21875,0.2813 -0.71551,0.957 -1.13608,1.8274 -1.25,2.625 -0.10938,0.7975 0.10155,1.4974 0.59375,2.0624 0.28254,0.3282 0.64647,0.5814 1.125,0.75 0.48306,0.1687 1.00194,0.2149 1.5625,0.1876 0.56509,-0.0274 1.10611,-0.1648 1.59375,-0.4063 0.26887,-0.1322 0.52603,-0.2949 0.78125,-0.5 0.25975,-0.2096 0.52147,-0.4798 0.78125,-0.8125 0.25975,-0.3327 0.49152,-0.6973 0.6875,-1.0938 0.19595,-0.401 0.34113,-0.8593 0.46875,-1.4062 0.13214,-0.5469 0.20962,-1.1172 0.21875,-1.7188 0.005,-0.3736 -0.008,-0.7434 -0.0625,-1.0624 -0.0547,-0.3236 -0.13218,-0.6153 -0.21875,-0.875 -0.082,-0.2598 -0.22398,-0.4818 -0.40625,-0.7188 -0.18231,-0.237 -0.35809,-0.4739 -0.53125,-0.6562 -0.16864,-0.1823 -0.40431,-0.3711 -0.71875,-0.5626 -0.31447,-0.1913 -0.61525,-0.332 -0.875,-0.4687 -0.25522,-0.1367 -0.61134,-0.3177 -1.0625,-0.5 -0.44663,-0.1868 -0.8366,-0.3411 -1.1875,-0.4687 -0.35092,-0.1276 -0.80079,-0.2904 -1.375,-0.5 -0.83399,-0.2963 -1.58465,-0.5925 -2.25,-0.875 -0.66082,-0.2826 -1.28256,-0.5736 -1.875,-0.9063 -0.59245,-0.3327 -1.12956,-0.6758 -1.5625,-1.0313 -0.43295,-0.36 -0.79688,-0.7415 -1.125,-1.1562 -0.32813,-0.4147 -0.58985,-0.8698 -0.78125,-1.3438 -0.28256,-0.6972 -0.48438,-1.4778 -0.59375,-2.3437 -0.10938,-0.8704 -0.13542,-1.7409 -0.0625,-2.625 0.0775,-0.8841 0.25325,-1.7675 0.53125,-2.6563 0.28255,-0.8886 0.65559,-1.7089 1.125,-2.4062 0.30533,-0.4557 0.63606,-0.8717 0.96875,-1.25 0.33268,-0.3828 0.6582,-0.6862 1,-0.9688 0.34635,-0.287 0.71614,-0.5624 1.0625,-0.7812 0.3509,-0.2233 0.70247,-0.3854 1.0625,-0.5312 0.36002,-0.1458 0.71158,-0.2793 1.0625,-0.375 0.35546,-0.0957 0.72916,-0.1511 1.09375,-0.1876 0.36913,-0.0409 0.69856,-0.0624 1.03125,-0.0624 0.33723,0 0.68033,0.0215 1.03125,0.0624 0.65624,0.073 1.2272,0.1674 1.6875,0.2813 0.46483,0.114 0.82551,0.2207 1.0625,0.3437 0.23696,0.1186 0.40754,0.2299 0.5625,0.3438 0.15949,0.114 0.32681,0.239 0.5,0.3438 0.17316,0.1002 0.37954,0.1465 0.59375,0.1874 0.45571,0.0958 0.91014,0.0925 1.375,-0.0624 0.46938,-0.155 1.04425,-0.5163 1.71875,-1.0313 0.34633,-0.2688 0.65948,-0.4609 0.9375,-0.625 0.28253,-0.1686 0.52667,-0.302 0.75,-0.375 0.22328,-0.0729 0.41209,-0.1113 0.5625,-0.125 0.15037,-0.0182 0.31769,-0.0358 0.5,-0.0313 z m 24.71875,0 c -0.0319,0.1687 -0.0873,0.4005 -0.1875,0.6876 -0.10028,0.2825 -0.19013,0.5833 -0.28125,0.875 -0.0912,0.2871 -0.17711,0.5866 -0.25,0.9374 -0.0729,0.351 -0.10289,0.7325 -0.0937,1.1563 0.0136,0.4239 0.0644,0.8796 0.1875,1.3125 0.16404,0.5788 0.28448,1.0925 0.34375,1.5938 0.0638,0.5013 0.0944,1.0032 0.0625,1.5 -0.0319,0.4922 -0.10093,0.9687 -0.1875,1.4062 -0.0866,0.433 -0.21096,0.9479 -0.375,1.5312 -0.12763,-0.0911 -0.26109,-0.2291 -0.375,-0.375 -0.11395,-0.1503 -0.2344,-0.2955 -0.34375,-0.4687 -0.1094,-0.1777 -0.21161,-0.3711 -0.34375,-0.5625 -0.13218,-0.1914 -0.3301,-0.3795 -0.5625,-0.5938 -0.22789,-0.2141 -0.48505,-0.4381 -0.78125,-0.625 -1.00718,-0.6197 -2.10028,-1.0266 -3.3125,-1.25 -1.21226,-0.2278 -2.36199,-0.2017 -3.4375,0.0626 -0.64259,0.1686 -1.22137,0.4088 -1.75,0.7187 -0.52866,0.3054 -0.95769,0.6309 -1.28125,1 -0.32358,0.3646 -0.55991,0.7416 -0.6875,1.1563 -0.12761,0.4147 -0.14519,0.8092 -0.0312,1.1874 0.12304,0.4193 0.30793,0.8145 0.53125,1.1563 0.2233,0.3418 0.4759,0.6465 0.78125,0.9063 0.30533,0.2597 0.67447,0.4778 1.09375,0.6874 0.42382,0.2097 0.89647,0.4076 1.375,0.5626 0.48306,0.1504 1.01431,0.2741 1.625,0.4062 0.56053,0.1185 1.13931,0.2774 1.75,0.4688 0.61522,0.1914 1.27667,0.4362 1.9375,0.7187 0.66079,0.278 1.29555,0.6127 1.90625,1 0.61521,0.3828 1.11196,0.7858 1.53125,1.2187 0.99347,1.0255 1.69334,2.2175 2.0625,3.5938 0.36912,1.3718 0.45831,2.9766 0.3125,4.7812 -0.0501,0.6199 -0.0749,1.1518 -0.125,1.5938 -0.0501,0.4375 -0.15432,0.9004 -0.25,1.4062 -0.0912,0.5014 -0.18492,0.9558 -0.3125,1.375 -0.12763,0.4148 -0.30406,0.8523 -0.5,1.3126 -0.19599,0.4557 -0.41409,0.9414 -0.6875,1.4062 -0.2689,0.4648 -0.58205,0.9316 -0.9375,1.4375 -0.38739,0.5332 -0.79494,1.0143 -1.21875,1.4063 -0.42385,0.3919 -0.87893,0.6998 -1.34375,0.9687 -0.46486,0.2643 -0.9883,0.4967 -1.5625,0.6563 -0.56968,0.1595 -1.16147,0.2708 -1.78125,0.3437 -0.61981,0.0775 -1.3008,0.1204 -2.09375,0.125 -0.56967,0.005 -1.10613,-0.0299 -1.59375,-0.0937 -0.48308,-0.0639 -0.96746,-0.1797 -1.46875,-0.3438 -0.50131,-0.1686 -1.01694,-0.4089 -1.5,-0.7188 -0.47852,-0.3144 -0.92384,-0.7005 -1.375,-1.1562 -0.44662,-0.4466 -0.81967,-0.8926 -1.125,-1.3438 -0.30534,-0.4557 -0.55404,-0.9101 -0.75,-1.375 -0.19597,-0.4648 -0.38933,-0.9414 -0.5625,-1.4062 -0.17318,-0.4694 -0.40886,-1.0312 -0.71875,-1.6875 -0.3099,-0.6608 -0.66146,-1.3346 -1.0625,-2 -0.16407,-0.2734 -0.36589,-0.5085 -0.59375,-0.75 -0.22787,-0.2415 -0.47331,-0.4655 -0.6875,-0.625 -0.21419,-0.1595 -0.40169,-0.3223 -0.625,-0.5 -0.22331,-0.1777 -0.44727,-0.345 -0.625,-0.5 -0.17774,-0.1549 -0.32747,-0.3216 -0.46875,-0.5313 -0.14128,-0.2141 -0.25326,-0.4459 -0.3125,-0.6874 0.10937,-0.0183 0.4056,-0.0827 0.875,-0.1876 0.47396,-0.1048 0.85547,-0.1686 1.15625,-0.2187 0.30078,-0.0501 0.74284,-0.1413 1.3125,-0.2187 0.56966,-0.0775 1.222,-0.1107 1.9375,-0.1563 0.71549,-0.0456 1.52213,-0.1022 2.40625,-0.125 1.82291,0.041 2.96288,0.1354 3.46875,0.2813 0.3828,0.1093 0.59374,0.2988 0.59375,0.5312 -10e-6,0.2096 -0.19337,0.5658 -0.5625,1.0625 -0.0593,0.082 -0.13217,0.1628 -0.21875,0.2813 -0.71551,0.957 -1.13608,1.8274 -1.25,2.625 -0.10938,0.7975 0.10155,1.4974 0.59375,2.0624 0.28254,0.3282 0.64647,0.5814 1.125,0.75 0.48306,0.1687 1.00194,0.2149 1.5625,0.1876 0.56509,-0.0274 1.10611,-0.1648 1.59375,-0.4063 0.26887,-0.1322 0.52603,-0.2949 0.78125,-0.5 0.25975,-0.2096 0.52147,-0.4798 0.78125,-0.8125 0.25975,-0.3327 0.49152,-0.6973 0.6875,-1.0938 0.19595,-0.401 0.34113,-0.8593 0.46875,-1.4062 0.13214,-0.5469 0.20962,-1.1172 0.21875,-1.7188 0.005,-0.3736 -0.008,-0.7434 -0.0625,-1.0624 -0.0547,-0.3236 -0.13218,-0.6153 -0.21875,-0.875 -0.082,-0.2598 -0.22398,-0.4818 -0.40625,-0.7188 -0.18231,-0.237 -0.35809,-0.4739 -0.53125,-0.6562 -0.16864,-0.1823 -0.40431,-0.3711 -0.71875,-0.5626 -0.31447,-0.1913 -0.61525,-0.332 -0.875,-0.4687 -0.25522,-0.1367 -0.61134,-0.3177 -1.0625,-0.5 -0.44663,-0.1868 -0.8366,-0.3411 -1.1875,-0.4687 -0.35092,-0.1276 -0.80079,-0.2904 -1.375,-0.5 -0.83399,-0.2963 -1.58465,-0.5925 -2.25,-0.875 -0.66082,-0.2826 -1.28256,-0.5736 -1.875,-0.9063 -0.59245,-0.3327 -1.12956,-0.6758 -1.5625,-1.0313 -0.43295,-0.36 -0.79688,-0.7415 -1.125,-1.1562 -0.32813,-0.4147 -0.58985,-0.8698 -0.78125,-1.3438 -0.28256,-0.6972 -0.48438,-1.4778 -0.59375,-2.3437 -0.10938,-0.8704 -0.13542,-1.7409 -0.0625,-2.625 0.0775,-0.8841 0.25325,-1.7675 0.53125,-2.6563 0.28255,-0.8886 0.65559,-1.7089 1.125,-2.4062 0.30533,-0.4557 0.63606,-0.8717 0.96875,-1.25 0.33268,-0.3828 0.6582,-0.6862 1,-0.9688 0.34635,-0.287 0.71614,-0.5624 1.0625,-0.7812 0.3509,-0.2233 0.70247,-0.3854 1.0625,-0.5312 0.36002,-0.1458 0.71158,-0.2793 1.0625,-0.375 0.35546,-0.0957 0.72916,-0.1511 1.09375,-0.1876 0.36913,-0.0409 0.69856,-0.0624 1.03125,-0.0624 0.33723,0 0.68033,0.0215 1.03125,0.0624 0.65624,0.073 1.2272,0.1674 1.6875,0.2813 0.46483,0.114 0.82551,0.2207 1.0625,0.3437 0.23696,0.1186 0.40754,0.2299 0.5625,0.3438 0.15949,0.114 0.32681,0.239 0.5,0.3438 0.17316,0.1002 0.37954,0.1465 0.59375,0.1874 0.45571,0.0958 0.91014,0.0925 1.375,-0.0624 0.46938,-0.155 1.04425,-0.5163 1.71875,-1.0313 0.34633,-0.2688 0.65948,-0.4609 0.9375,-0.625 0.28253,-0.1686 0.52667,-0.302 0.75,-0.375 0.22328,-0.0729 0.41209,-0.1113 0.5625,-0.125 0.15037,-0.0182 0.31769,-0.0358 0.5,-0.0313 z m -101.125,1.9063 c 0.15495,0 0.43359,0.0254 0.84375,0.0937 0.41471,0.0684 0.86002,0.1322 1.375,0.2188 0.51953,0.0866 1.25325,0.1856 2.1875,0.2812 0.93424,0.0958 1.92968,0.1733 2.96875,0.2188 4.81704,0.2142 8.50584,1.0502 11.0625,2.5312 1.12107,0.6518 2.10349,1.4154 2.9375,2.2813 0.83852,0.8659 1.54946,1.8522 2.1875,2.9687 0.55141,0.9708 0.96417,1.8679 1.1875,2.6563 0.22328,0.7884 0.33461,1.638 0.34375,2.5313 -3e-5,0.4511 -0.0521,0.862 -0.125,1.2812 -0.0729,0.4193 -0.15823,0.8275 -0.28125,1.1875 -0.12307,0.3555 -0.27737,0.6849 -0.46875,1.0313 -0.19143,0.3463 -0.40627,0.6816 -0.625,0.9687 -0.21422,0.2871 -0.46291,0.5567 -0.75,0.8437 -0.28713,0.2872 -0.57034,0.5489 -0.84375,0.7813 -0.27346,0.2324 -0.59117,0.4727 -0.9375,0.7187 -0.34638,0.2416 -0.66799,0.4604 -0.96875,0.6563 -0.3008,0.1914 -0.62177,0.4108 -1,0.625 -0.25067,0.1504 -0.50783,0.2741 -0.78125,0.4063 -0.27346,0.1321 -0.59182,0.261 -0.90625,0.375 -0.31447,0.1139 -0.57945,0.2213 -0.84375,0.3124 -0.26434,0.0912 -0.59963,0.1856 -0.96875,0.2813 l -0.90625,0.25 c -0.24155,0.0593 -0.5853,0.1055 -1,0.1875 -0.41017,0.082 -0.72332,0.1465 -0.9375,0.1875 -0.20965,0.041 -0.52215,0.1055 -0.96875,0.1875 -0.44663,0.082 -0.76434,0.1289 -0.9375,0.1562 -10e-6,1.987 0.12043,3.7162 0.34375,5.1563 0.22785,1.4401 0.55728,2.6706 1.03125,3.7187 0.15949,0.351 0.52928,0.9343 1.0625,1.75 0.53319,0.8112 0.8548,1.3178 0.96875,1.5 -0.21421,0.0912 -0.3991,0.1687 -0.53125,0.2188 -0.13218,0.0456 -0.29494,0.0924 -0.5,0.1562 -0.20509,0.0684 -0.41603,0.1198 -0.59375,0.1563 -0.17319,0.041 -0.36981,0.084 -0.625,0.125 -0.25522,0.0456 -0.53452,0.0755 -0.8125,0.0937 -0.27801,0.0183 -0.57749,0.0489 -0.9375,0.0626 -0.36004,0.0136 -0.78126,0.005 -1.21875,0 -0.43751,-10e-5 -0.90886,-0.0176 -1.4375,-0.0313 -0.74285,-0.0228 -1.41212,-0.0475 -2,-0.125 -0.5879,-0.0729 -1.04688,-0.1725 -1.375,-0.25 -0.32357,-0.0729 -0.65821,-0.1328 -1,-0.1875 -0.33724,-0.0592 -0.71875,-0.0671 -1.15625,-0.0625 -0.43295,0 -0.95638,0.0339 -1.5625,0.125 0.12305,-0.2962 0.29101,-0.597 0.46875,-0.875 0.17773,-0.2826 0.36653,-0.5397 0.5625,-0.7813 0.20052,-0.2415 0.38867,-0.468 0.59375,-0.7187 0.20507,-0.2552 0.42382,-0.5645 0.65625,-0.9063 0.23242,-0.3417 0.43815,-0.7109 0.625,-1.0937 0.34635,-0.6927 0.62955,-1.3704 0.84375,-2.0313 0.21874,-0.6653 0.39908,-1.3984 0.53125,-2.2187 0.13671,-0.8249 0.22721,-1.7682 0.25,-2.8437 0.0228,-1.0801 -0.0124,-2.3028 -0.0625,-3.6563 -0.0501,-1.3581 -0.13998,-2.9837 -0.28125,-4.875 -0.13217,-1.7591 -0.27735,-3.3379 -0.46875,-4.7187 -0.19141,-1.3854 -0.41081,-2.543 -0.625,-3.5 -0.2142,-0.9571 -0.48047,-1.819 -0.78125,-2.5938 -0.29623,-0.7747 -0.58789,-1.4362 -0.875,-1.9375 -0.28255,-0.5013 -0.60808,-0.985 -1,-1.5 -0.82031,-1.0709 -1.28776,-1.7493 -1.40625,-2 -0.0912,-0.1914 -0.0742,-0.2981 0.0625,-0.3437 0.0592,-0.0182 0.20573,-0.0267 0.40625,-0.0313 z m 44.0625,1.3125 c 0.29621,-0.0228 0.55467,0.003 0.71875,0.0625 0.16404,0.0547 0.27928,0.1491 0.375,0.2813 0.19594,0.2552 0.40232,0.972 0.59375,2.125 0.19594,1.1484 0.33657,2.567 0.46875,4.3124 0.2962,3.9695 0.83266,8.4434 1.59375,13.4063 0.19594,1.2943 0.38865,2.4649 0.59375,3.5313 0.20506,1.0664 0.46743,2.1907 0.75,3.3437 0.28709,1.1484 0.61716,2.2813 1,3.375 0.38279,1.0892 0.80271,2.1354 1.28125,3.1563 0.19138,0.4101 0.43617,0.8216 0.71875,1.25 0.28708,0.4238 0.56182,0.7838 0.8125,1.0937 0.25518,0.3099 0.54229,0.679 0.875,1.0937 0.33721,0.4193 0.62953,0.7885 0.84375,1.0938 0.0729,0.1048 0.0722,0.2207 0.0312,0.3438 -0.0365,0.1276 -0.10485,0.2135 -0.21875,0.25 -0.19599,0.0592 -0.47919,0.08 -0.84375,0.0937 -0.36005,0.0137 -0.67711,0.0182 -0.96875,0 -0.28714,-0.0182 -0.65172,-0.0527 -1.09375,-0.0937 -0.44208,-0.0411 -0.74742,-0.0489 -0.875,-0.0626 -1.21226,-0.0774 -2.27997,-0.0957 -3.21875,0 -0.93882,0.1003 -2.10158,0.3021 -3.46875,0.5938 -0.36916,0.0775 -0.8021,0.2109 -1.3125,0.375 -0.50588,0.1686 -0.88739,0.3014 -1.15625,0.4062 -0.15952,0.0593 -0.35223,0.0977 -0.59375,0.125 -0.24155,0.0319 -0.40431,0.0144 -0.5,-0.0312 -0.28257,-0.1823 -0.22788,-0.5983 0.21875,-1.25 l 1.34375,-1.875 c 1.23045,-1.8229 1.81704,-3.8346 1.8125,-6.0312 -0.005,-1.0118 -0.0384,-1.9987 -0.125,-2.9376 -0.0866,-0.9433 -0.19403,-1.6503 -0.3125,-2.1562 -0.60158,-0.1003 -1.16799,-0.1693 -1.6875,-0.1875 -0.51499,-0.0228 -1.1797,-0.0182 -2,0 -0.51499,0.0137 -1.05079,0.0645 -1.625,0.1875 -0.56967,0.1231 -0.90366,0.2695 -1.03125,0.4062 -0.25978,0.2781 -0.38478,0.7839 -0.34375,1.5313 0.0182,0.3327 0.0443,0.6074 0.0625,0.8125 0.0228,0.2051 0.0703,0.4577 0.125,0.7812 0.0547,0.3236 0.10546,0.6244 0.1875,0.875 0.082,0.2507 0.19791,0.5072 0.34375,0.8126 0.15038,0.3053 0.32616,0.6191 0.53125,0.9062 0.15038,0.2096 0.30077,0.3893 0.4375,0.5625 0.13671,0.1732 0.25715,0.3014 0.34375,0.4063 0.0866,0.1002 0.17186,0.2343 0.28125,0.3437 0.10936,0.1094 0.18228,0.1556 0.21875,0.1875 0.0365,0.0319 0.0918,0.11 0.1875,0.1875 0.0957,0.0775 0.17381,0.1159 0.1875,0.125 0.15493,0.1322 0.1673,0.321 0.0625,0.5625 -0.0365,0.082 -0.1478,0.1413 -0.34375,0.2188 -0.19598,0.0774 -0.45835,0.1373 -0.75,0.1874 -0.41017,0.073 -1.23699,0.142 -2.53125,0.1876 -1.28972,0.0455 -2.45704,0.0325 -3.46875,-0.0313 -0.92969,-0.0684 -1.73178,-0.1322 -2.40625,-0.2187 -0.66993,-0.0912 -1.21029,-0.2032 -1.625,-0.3126 -0.41472,-0.1139 -0.72331,-0.1992 -0.9375,-0.2812 -0.21419,-0.0866 -0.42839,-0.2161 -0.65625,-0.3438 -0.0365,-0.0182 -0.071,-0.0514 -0.0937,-0.1562 -0.0182,-0.1094 -0.0182,-0.2682 0,-0.4688 0.0182,-0.205 0.0566,-0.4414 0.125,-0.6874 0.0684,-0.2461 0.17513,-0.5469 0.34375,-0.875 0.17318,-0.3282 0.40104,-0.6407 0.65625,-0.9688 0.25976,-0.3281 0.59896,-0.7181 1,-1.1875 0.40104,-0.4694 0.70507,-0.8424 0.9375,-1.125 0.23697,-0.2871 0.50325,-0.6517 0.78125,-1.0937 0.28255,-0.4421 0.52278,-0.9056 0.71875,-1.375 0.51497,-1.2305 1.02994,-2.5736 1.53125,-4 0.50129,-1.4265 0.87825,-2.7084 1.15625,-3.875 0.98892,-4.1927 1.45637,-7.4017 1.40625,-9.5938 -0.005,-0.1959 -0.0221,-0.3626 -0.0312,-0.5312 -0.009,-0.1686 -0.004,-0.3275 -0.0312,-0.4688 -0.0228,-0.1458 -0.071,-0.2656 -0.0937,-0.375 -0.0228,-0.1139 -0.0436,-0.2389 -0.0937,-0.3438 -0.0456,-0.1047 -0.0885,-0.177 -0.125,-0.25 -0.0319,-0.0774 -0.0833,-0.1633 -0.15625,-0.25 -0.0684,-0.0865 -0.11069,-0.1685 -0.15625,-0.2187 -0.041,-0.0547 -0.1185,-0.11 -0.21875,-0.1875 -0.10027,-0.082 -0.19076,-0.1419 -0.25,-0.1875 -0.0593,-0.0501 -0.15821,-0.123 -0.28125,-0.2187 -0.0182,-0.0137 -0.0267,-0.0267 -0.0312,-0.0313 -0.22787,-0.1731 -0.49415,-0.3274 -0.78125,-0.4687 -0.28256,-0.1413 -0.59115,-0.2787 -0.9375,-0.4063 -0.34636,-0.1321 -0.54297,-0.209 -0.625,-0.25 -0.17774,-0.082 -0.34506,-0.2031 -0.5,-0.3125 -0.1504,-0.1093 -0.2754,-0.1946 -0.34375,-0.2812 -0.0684,-0.0912 -0.0632,-0.1465 -0.0312,-0.1876 0.0592,-0.0819 0.11914,-0.1549 0.1875,-0.2187 0.0684,-0.0683 0.1621,-0.1543 0.3125,-0.25 0.15494,-0.0957 0.33984,-0.1907 0.53125,-0.25 0.1914,-0.0592 0.43098,-0.1106 0.75,-0.1563 0.319,-0.0455 0.67057,-0.0624 1.0625,-0.0624 0.58788,0 1.06835,0.0137 1.4375,0 0.36913,-0.0182 0.81119,-0.0703 1.3125,-0.125 0.50129,-0.0547 0.98241,-0.1185 1.40625,-0.2188 0.42837,-0.1048 0.9173,-0.2506 1.46875,-0.4375 0.55598,-0.1914 1.12108,-0.4453 1.75,-0.7187 0.69725,-0.3054 1.31118,-0.528 1.8125,-0.6876 0.50584,-0.164 0.89126,-0.2629 1.1875,-0.2812 z m -33.5,5.1562 c -0.53777,-0.0364 -0.86329,0.1999 -1,0.6876 -0.11394,0.4147 -0.097,1.1914 0.0625,2.3124 0.0365,0.2416 0.1009,0.614 0.1875,1.1563 0.15949,0.9981 0.27538,1.7741 0.34375,2.3437 0.13671,1.0984 0.24413,2.1199 0.3125,3.0313 0.0729,0.9069 0.0976,1.627 0.125,2.1875 0.0319,0.5606 0.0794,0.9981 0.125,1.3125 1.61783,-0.1367 2.94334,-0.3594 3.96875,-0.6875 0.45571,-0.1413 0.90233,-0.3086 1.3125,-0.5 0.41014,-0.1959 0.80011,-0.4277 1.1875,-0.6875 0.38735,-0.2597 0.73956,-0.5429 1.03125,-0.8437 0.2962,-0.3008 0.51821,-0.6263 0.71875,-1 0.2005,-0.3783 0.34698,-0.7774 0.40625,-1.1876 0.1048,-0.7519 0.0742,-1.5149 -0.0625,-2.3124 -0.13674,-0.7976 -0.37697,-1.5267 -0.71875,-2.1876 -0.33726,-0.6653 -0.71812,-1.1894 -1.1875,-1.5312 -0.85223,-0.6152 -1.86916,-1.0911 -3.03125,-1.4375 -1.15757,-0.3509 -2.42319,-0.5696 -3.78125,-0.6563 z m 31.65625,6.3126 c -0.47853,0.1412 -0.98895,0.6692 -1.53125,1.5624 -0.53777,0.8887 -0.99676,1.9955 -1.375,3.3126 -0.27345,0.9433 -0.51303,1.8483 -0.75,2.7187 -0.23243,0.8705 -0.39975,1.5052 -0.5,1.9063 l -0.15625,0.5937 c 0.92967,0 1.75715,-0.0176 2.5,-0.0313 1.17121,-0.0227 2.02928,-0.065 2.5625,-0.1562 -0.0684,-1.0983 -0.19273,-2.7454 -0.375,-4.9375 -0.18231,-2.1966 -0.31577,-3.8613 -0.375,-4.9687 z"
         style="fill:#d5dc27;fill-opacity:1"
         inkscape:connector-curvature="0" />
      <path
         inkscape:connector-curvature="0"
         style="fill:url(#linearGradient5733);fill-opacity:1;filter:url(#filter4666)"
         d="m 361.62531,885.36019 c -87.96601,0 -159.26625,14.42874 -159.26625,32.22079 0,17.79195 71.30024,32.22079 159.26625,32.22079 87.96602,0 159.29688,-14.42884 159.29688,-32.22079 0,-17.79205 -71.33086,-32.22079 -159.29688,-32.22079 z m 24.44124,13.17 c -0.0313,0.16534 -0.0855,0.39253 -0.18376,0.67392 -0.0983,0.27687 -0.18635,0.57169 -0.27566,0.85758 -0.0894,0.28139 -0.17358,0.57493 -0.24502,0.91875 -0.0715,0.34402 -0.10084,0.71792 -0.0919,1.13328 0.0134,0.41547 0.0631,0.86211 0.18376,1.28639 0.16078,0.56728 0.27882,1.07076 0.33691,1.56208 0.0626,0.49133 0.0619,0.98324 0.0306,1.47015 -0.0313,0.48241 -0.0683,0.94942 -0.15314,1.37822 -0.0849,0.42438 -0.20677,0.92904 -0.36754,1.50073 -0.12509,-0.0893 -0.2559,-0.22454 -0.36754,-0.36754 -0.11168,-0.14731 -0.22973,-0.28962 -0.33691,-0.45938 -0.10721,-0.17416 -0.20739,-0.36371 -0.3369,-0.5513 -0.12955,-0.18759 -0.32354,-0.37195 -0.55131,-0.58198 -0.22336,-0.20984 -0.4754,-0.42938 -0.7657,-0.61256 -0.98714,-0.60738 -2.05849,-1.00618 -3.24659,-1.22513 -1.18813,-0.22327 -2.31498,-0.19769 -3.36909,0.0614 -0.6298,0.16525 -1.19706,0.40067 -1.71517,0.7044 -0.51815,0.29933 -0.93864,0.61834 -1.25576,0.9801 -0.31714,0.35735 -0.54876,0.72685 -0.67382,1.13329 -0.12507,0.40645 -0.14229,0.7931 -0.0306,1.16378 0.12059,0.41095 0.3018,0.79828 0.52067,1.13328 0.21886,0.33501 0.46643,0.63364 0.76571,0.88827 0.29925,0.25453 0.66105,0.46829 1.07198,0.67372 0.41539,0.20553 0.87863,0.39949 1.34764,0.5514 0.47344,0.14741 0.99412,0.26865 1.59266,0.39812 0.54938,0.11614 1.11664,0.27187 1.71517,0.45947 0.60298,0.18759 1.22064,0.42752 1.86832,0.70439 0.64764,0.27247 1.3004,0.60052 1.89895,0.9801 0.60296,0.37518 1.08983,0.77017 1.50077,1.19446 0.9737,1.00509 1.65965,2.17337 2.02146,3.52228 0.36178,1.3445 0.44919,2.91736 0.30628,4.68606 -0.0491,0.60756 -0.10403,1.12887 -0.15314,1.56208 -0.0491,0.42879 -0.09,0.88247 -0.18377,1.37822 -0.0894,0.49141 -0.21187,0.93677 -0.33691,1.34763 -0.12509,0.40655 -0.29801,0.83534 -0.49005,1.28648 -0.19209,0.44663 -0.40585,0.92267 -0.67382,1.37822 -0.26355,0.45555 -0.57047,0.91306 -0.91884,1.40889 -0.37968,0.52259 -0.77912,0.99412 -1.19449,1.37831 -0.41543,0.3841 -0.86144,0.68588 -1.31702,0.94942 -0.45561,0.25905 -0.938,0.48683 -1.50077,0.64325 -0.55835,0.15632 -1.16899,0.26541 -1.77644,0.33685 -0.60747,0.0759 -1.27491,0.11801 -2.05208,0.12252 -0.55834,0.005 -1.08412,-0.0293 -1.56203,-0.0919 -0.47347,-0.0627 -0.94821,-0.17613 -1.43953,-0.33696 -0.49133,-0.16525 -0.9967,-0.40076 -1.47015,-0.7045 -0.46899,-0.30814 -0.90545,-0.68656 -1.34764,-1.13319 -0.43773,-0.43772 -0.80335,-0.87484 -1.10261,-1.31706 -0.29926,-0.44663 -0.54301,-0.89199 -0.73507,-1.34763 -0.19207,-0.45556 -0.38158,-0.92267 -0.55131,-1.37822 -0.16973,-0.46006 -0.40072,-1.01068 -0.70444,-1.65392 -0.30374,-0.64765 -0.6483,-1.30804 -1.04136,-1.96021 -0.16081,-0.26795 -0.35861,-0.49837 -0.58193,-0.73507 -0.22334,-0.23669 -0.43327,-0.45623 -0.6432,-0.61256 -0.20993,-0.15632 -0.45495,-0.31588 -0.67381,-0.49005 -0.21887,-0.17416 -0.40774,-0.33814 -0.58194,-0.49005 -0.1742,-0.15182 -0.32095,-0.3152 -0.45942,-0.52072 -0.13847,-0.20984 -0.24822,-0.43704 -0.30628,-0.67373 0.10719,-0.0179 0.39753,-0.0811 0.85759,-0.18386 0.46453,-0.10272 0.83844,-0.16525 1.13323,-0.21435 0.29481,-0.0491 0.72806,-0.13849 1.28639,-0.21435 0.55832,-0.0759 1.19768,-0.10849 1.89894,-0.15319 0.70125,-0.0446 1.49184,-0.10017 2.35837,-0.12251 1.78663,0.0402 2.90391,0.1327 3.39972,0.2757 0.37519,0.10713 0.58193,0.29285 0.58194,0.52063 -1e-5,0.20543 -0.18953,0.55454 -0.55131,1.04135 -0.0581,0.0804 -0.12955,0.15956 -0.2144,0.27571 -0.70127,0.93795 -1.11347,1.79104 -1.22512,2.57276 -0.10721,0.78162 0.0995,1.46761 0.58193,2.02136 0.27692,0.32166 0.63361,0.56983 1.10261,0.73508 0.47345,0.16534 0.982,0.21062 1.53141,0.18386 0.55384,-0.0268 1.08409,-0.16152 1.56203,-0.39822 0.26352,-0.12957 0.51557,-0.28903 0.76571,-0.49005 0.25458,-0.20542 0.51109,-0.47025 0.7657,-0.79632 0.25458,-0.32609 0.48174,-0.68343 0.67382,-1.07204 0.19205,-0.39302 0.33434,-0.8422 0.45942,-1.37821 0.12951,-0.53602 0.20544,-1.09497 0.21439,-1.6846 0.005,-0.36617 -0.008,-0.72861 -0.0613,-1.04126 -0.0536,-0.31716 -0.12955,-0.60306 -0.21439,-0.85759 -0.0804,-0.25463 -0.21953,-0.47221 -0.39817,-0.70449 -0.17869,-0.23228 -0.35097,-0.46447 -0.52068,-0.64314 -0.16528,-0.17868 -0.39627,-0.36372 -0.70445,-0.55141 -0.30821,-0.18749 -0.603,-0.32539 -0.85758,-0.45937 -0.25015,-0.13398 -0.59918,-0.31138 -1.04136,-0.49005 -0.43774,-0.18309 -0.81995,-0.33432 -1.16387,-0.45937 -0.34393,-0.12506 -0.78485,-0.28463 -1.34764,-0.49005 -0.81739,-0.29041 -1.55312,-0.58072 -2.20522,-0.85759 -0.64767,-0.27697 -1.25704,-0.56218 -1.83769,-0.88827 -0.58066,-0.32608 -1.10709,-0.66235 -1.53141,-1.01077 -0.42433,-0.35284 -0.78102,-0.72675 -1.10261,-1.13319 -0.3216,-0.40646 -0.57811,-0.85249 -0.7657,-1.31706 -0.27694,-0.68333 -0.47474,-1.4484 -0.58194,-2.29707 -0.1072,-0.85307 -0.13272,-1.70625 -0.0613,-2.57276 0.0759,-0.86651 0.24821,-1.73232 0.52068,-2.60343 0.27692,-0.87093 0.64254,-1.6749 1.10261,-2.35832 0.29925,-0.44664 0.62341,-0.85436 0.94947,-1.22513 0.32606,-0.37518 0.64511,-0.67254 0.9801,-0.94952 0.33945,-0.28128 0.70189,-0.55121 1.04135,-0.76565 0.34392,-0.21886 0.6885,-0.37774 1.04136,-0.52063 0.35286,-0.1429 0.69742,-0.27375 1.04136,-0.36754 0.34839,-0.0937 0.71465,-0.14809 1.07199,-0.18386 0.36177,-0.0401 0.68465,-0.0612 1.01072,-0.0612 0.33052,0 0.66679,0.0211 1.01073,0.0612 0.64318,0.0716 1.20278,0.16406 1.65392,0.27569 0.45558,0.11173 0.80908,0.21632 1.04135,0.33687 0.23225,0.11624 0.39944,0.22532 0.55132,0.33696 0.15631,0.11173 0.3203,0.23424 0.49005,0.33695 0.1697,0.0982 0.37198,0.14358 0.58193,0.18368 0.44664,0.0938 0.89203,0.0907 1.34763,-0.0612 0.46004,-0.15192 1.02348,-0.50603 1.68455,-1.01078 0.33944,-0.26345 0.64636,-0.45173 0.91885,-0.61257 0.2769,-0.16524 0.51618,-0.29599 0.73507,-0.36753 0.21883,-0.0715 0.40388,-0.10908 0.5513,-0.12252 0.14739,-0.0178 0.31137,-0.035 0.49005,-0.0307 z m 24.22685,0 c -0.0313,0.16534 -0.0855,0.39253 -0.18377,0.67392 -0.0983,0.27687 -0.18634,0.57169 -0.27565,0.85758 -0.0894,0.28139 -0.17359,0.57493 -0.24503,0.91875 -0.0715,0.34402 -0.10084,0.71792 -0.0919,1.13328 0.0134,0.41547 0.0631,0.86211 0.18377,1.28639 0.16077,0.56728 0.27882,1.07076 0.33691,1.56208 0.0626,0.49133 0.0926,0.98324 0.0613,1.47015 -0.0313,0.48241 -0.0989,0.94942 -0.18376,1.37822 -0.0848,0.42438 -0.20676,0.92904 -0.36754,1.50073 -0.12509,-0.0893 -0.25589,-0.22454 -0.36754,-0.36754 -0.11168,-0.14731 -0.22974,-0.28962 -0.33691,-0.45938 -0.10722,-0.17416 -0.2074,-0.36371 -0.33691,-0.5513 -0.12955,-0.18759 -0.32353,-0.37195 -0.5513,-0.58198 -0.22336,-0.20984 -0.4754,-0.42938 -0.76571,-0.61256 -0.98714,-0.60738 -2.05848,-1.00618 -3.24658,-1.22513 -1.18813,-0.22327 -2.31499,-0.19769 -3.36909,0.0614 -0.62981,0.16525 -1.19707,0.40067 -1.71518,0.7044 -0.51814,0.29933 -0.93863,0.61834 -1.25575,0.9801 -0.31714,0.35735 -0.54877,0.72685 -0.67382,1.13329 -0.12507,0.40645 -0.1423,0.7931 -0.0306,1.16378 0.1206,0.41095 0.3018,0.79828 0.52068,1.13328 0.21885,0.33501 0.46643,0.63364 0.7657,0.88827 0.29926,0.25453 0.66105,0.46829 1.07199,0.67372 0.41539,0.20553 0.87863,0.39949 1.34764,0.5514 0.47344,0.14741 0.99412,0.26865 1.59266,0.39812 0.54937,0.11614 1.11663,0.27187 1.71518,0.45947 0.60297,0.18759 1.25126,0.42752 1.89894,0.70439 0.64763,0.27247 1.26976,0.60052 1.86831,0.9801 0.60297,0.37518 1.08983,0.77017 1.50078,1.19446 0.9737,1.00509 1.65964,2.17337 2.02146,3.52228 0.36177,1.3445 0.44919,2.91736 0.30628,4.68606 -0.0491,0.60756 -0.0735,1.12887 -0.12251,1.56208 -0.0491,0.42879 -0.15125,0.88247 -0.24503,1.37822 -0.0894,0.49141 -0.18125,0.93677 -0.30628,1.34763 -0.12509,0.40655 -0.29801,0.83534 -0.49005,1.28648 -0.19209,0.44663 -0.40585,0.92267 -0.67382,1.37822 -0.26355,0.45555 -0.57046,0.91306 -0.91884,1.40889 -0.37969,0.52259 -0.77912,0.99412 -1.1945,1.37831 -0.41541,0.3841 -0.86144,0.68588 -1.31701,0.94942 -0.45561,0.25905 -0.96863,0.48683 -1.53141,0.64325 -0.55834,0.15632 -1.13836,0.26541 -1.7458,0.33685 -0.60748,0.0759 -1.27492,0.11801 -2.05208,0.12252 -0.55834,0.005 -1.08412,-0.0293 -1.56204,-0.0919 -0.47346,-0.0627 -0.94821,-0.17613 -1.43952,-0.33696 -0.49133,-0.16525 -0.99671,-0.40076 -1.47015,-0.7045 -0.469,-0.30814 -0.90546,-0.68656 -1.34763,-1.13319 -0.43774,-0.43772 -0.80337,-0.87484 -1.10262,-1.31706 -0.29926,-0.44663 -0.54301,-0.89199 -0.73507,-1.34763 -0.19208,-0.45556 -0.38159,-0.92267 -0.55131,-1.37822 -0.16974,-0.46006 -0.40072,-1.01068 -0.70445,-1.65392 -0.30373,-0.64765 -0.6483,-1.30804 -1.04136,-1.96021 -0.1608,-0.26795 -0.35861,-0.49837 -0.58193,-0.73507 -0.22333,-0.23669 -0.46389,-0.45623 -0.67381,-0.61256 -0.20993,-0.15632 -0.39371,-0.31588 -0.61257,-0.49005 -0.21887,-0.17416 -0.43837,-0.33814 -0.61256,-0.49005 -0.17421,-0.15182 -0.32096,-0.3152 -0.45943,-0.52072 -0.13846,-0.20984 -0.24821,-0.43704 -0.30627,-0.67373 0.10718,-0.0179 0.39752,-0.0811 0.85758,-0.18386 0.46453,-0.10272 0.83844,-0.16525 1.13325,-0.21435 0.29479,-0.0491 0.72805,-0.13849 1.28637,-0.21435 0.55832,-0.0759 1.19768,-0.10849 1.89895,-0.15319 0.70125,-0.0446 1.49183,-0.10017 2.35836,-0.12251 1.78663,0.0402 2.90392,0.1327 3.39973,0.2757 0.37518,0.10713 0.58192,0.29285 0.58193,0.52063 -10e-6,0.20543 -0.18952,0.55454 -0.55131,1.04135 -0.0581,0.0804 -0.12954,0.15956 -0.21439,0.27571 -0.70127,0.93795 -1.11348,1.79104 -1.22513,2.57276 -0.10721,0.78162 0.0995,1.46761 0.58193,2.02136 0.27692,0.32166 0.63361,0.56983 1.10261,0.73508 0.47345,0.16534 0.98201,0.21062 1.53142,0.18386 0.55384,-0.0268 1.0841,-0.16152 1.56203,-0.39822 0.26352,-0.12957 0.51556,-0.28903 0.7657,-0.49005 0.25458,-0.20542 0.51109,-0.47025 0.76571,-0.79632 0.25458,-0.32609 0.48173,-0.68343 0.67381,-1.07204 0.19205,-0.39302 0.33435,-0.8422 0.45942,-1.37821 0.12951,-0.53602 0.20546,-1.09497 0.21441,-1.6846 0.005,-0.36617 -0.008,-0.72861 -0.0613,-1.04126 -0.0537,-0.31716 -0.12956,-0.60306 -0.2144,-0.85759 -0.0804,-0.25463 -0.21952,-0.47221 -0.39817,-0.70449 -0.17868,-0.23228 -0.35096,-0.46447 -0.52068,-0.64314 -0.16528,-0.17868 -0.39626,-0.36372 -0.70444,-0.55141 -0.30822,-0.18749 -0.60301,-0.32539 -0.85759,-0.45937 -0.25014,-0.13398 -0.59918,-0.31138 -1.04135,-0.49005 -0.43775,-0.18309 -0.81996,-0.33432 -1.16387,-0.45937 -0.34394,-0.12506 -0.78486,-0.28463 -1.34764,-0.49005 -0.8174,-0.29041 -1.55311,-0.58072 -2.20523,-0.85759 -0.64767,-0.27697 -1.25703,-0.56218 -1.83768,-0.88827 -0.58067,-0.32608 -1.10708,-0.66235 -1.53141,-1.01077 -0.42434,-0.35284 -0.78103,-0.72675 -1.10261,-1.13319 -0.3216,-0.40646 -0.57812,-0.85249 -0.7657,-1.31706 -0.27695,-0.68333 -0.47475,-1.4484 -0.58194,-2.29707 -0.1072,-0.85307 -0.13273,-1.70625 -0.0613,-2.57276 0.0759,-0.86651 0.24822,-1.73232 0.52068,-2.60343 0.27693,-0.87093 0.64254,-1.6749 1.10262,-2.35832 0.29924,-0.44664 0.6234,-0.85436 0.94947,-1.22513 0.32605,-0.37518 0.6451,-0.67254 0.9801,-0.94952 0.33946,-0.28128 0.70189,-0.55121 1.04136,-0.76565 0.34391,-0.21886 0.68848,-0.37774 1.04135,-0.52063 0.35285,-0.1429 0.69741,-0.27375 1.04136,-0.36754 0.34838,-0.0937 0.71464,-0.14809 1.07198,-0.18386 0.36179,-0.0401 0.68466,-0.0612 1.01073,-0.0612 0.33051,0 0.66679,0.0211 1.01072,0.0612 0.64319,0.0716 1.20278,0.16406 1.65393,0.27569 0.45557,0.11173 0.80907,0.21632 1.04135,0.33687 0.23224,0.11624 0.39943,0.22532 0.55131,0.33696 0.15631,0.11173 0.3203,0.23424 0.49005,0.33695 0.16971,0.0982 0.37198,0.14358 0.58193,0.18368 0.44664,0.0938 0.89203,0.0907 1.34764,-0.0612 0.46004,-0.15192 1.02347,-0.50603 1.68454,-1.01078 0.33944,-0.26345 0.64636,-0.45173 0.91885,-0.61257 0.2769,-0.16524 0.51619,-0.29599 0.73508,-0.36753 0.21883,-0.0715 0.40389,-0.10908 0.5513,-0.12252 0.14738,-0.0178 0.31137,-0.035 0.49005,-0.0307 z m -99.11261,1.86836 c 0.15186,0 0.42496,0.0249 0.82696,0.0919 0.40646,0.067 0.84291,0.12956 1.34764,0.21445 0.50919,0.0848 1.2283,0.1819 2.14396,0.2756 0.91565,0.0938 1.89128,0.16985 2.90967,0.21445 4.72118,0.20994 8.33658,1.0293 10.84236,2.48083 1.09877,0.63882 2.06163,1.38722 2.87904,2.23589 0.82184,0.84867 1.51863,1.81535 2.14398,2.90963 0.54043,0.95148 0.94498,1.83073 1.16386,2.60343 0.21884,0.77272 0.32796,1.60541 0.33692,2.48093 -3e-5,0.44213 -0.0511,0.84485 -0.12252,1.25571 -0.0715,0.41095 -0.15508,0.81103 -0.27565,1.16386 -0.12062,0.34844 -0.27185,0.67127 -0.45942,1.01078 -0.18763,0.33942 -0.39819,0.66804 -0.61256,0.94942 -0.20996,0.28139 -0.4537,0.54563 -0.73508,0.82692 -0.28142,0.28148 -0.55899,0.53798 -0.82696,0.76575 -0.26802,0.22778 -0.5794,0.4633 -0.91884,0.7044 -0.33949,0.23679 -0.6547,0.45123 -0.94947,0.64323 -0.29482,0.1876 -0.60941,0.40263 -0.9801,0.61257 -0.24569,0.14741 -0.49774,0.26864 -0.76571,0.39821 -0.26802,0.12948 -0.58004,0.25581 -0.88822,0.36754 -0.3082,0.11163 -0.56791,0.2169 -0.82695,0.30619 -0.25909,0.0894 -0.5877,0.1819 -0.94947,0.27569 l -0.88822,0.24503 c -0.23675,0.0581 -0.57366,0.10341 -0.9801,0.18377 -0.40201,0.0804 -0.70893,0.14358 -0.91885,0.18377 -0.20547,0.0402 -0.51175,0.1034 -0.94947,0.18377 -0.43774,0.0804 -0.74913,0.12633 -0.91884,0.15309 -10e-6,1.94746 0.11803,3.64224 0.33691,5.05369 0.22331,1.41144 0.54619,2.61746 1.01073,3.6447 0.15631,0.34402 0.51874,0.9157 1.04135,1.71518 0.52258,0.79505 0.83779,1.29157 0.94947,1.47015 -0.20994,0.0894 -0.39116,0.16534 -0.52067,0.21444 -0.12955,0.0447 -0.28907,0.0906 -0.49005,0.15309 -0.20101,0.067 -0.40775,0.11742 -0.58194,0.15319 -0.16974,0.0402 -0.36245,0.0824 -0.61256,0.12251 -0.25014,0.0447 -0.52388,0.0739 -0.79633,0.0919 -0.27248,0.0179 -0.566,0.0479 -0.91885,0.0614 -0.35288,0.0134 -0.76571,0.005 -1.19449,0 -0.4288,-10e-5 -0.89078,-0.0172 -1.40889,-0.0307 -0.72808,-0.0224 -1.38402,-0.0465 -1.9602,-0.12251 -0.5762,-0.0715 -1.02605,-0.16906 -1.34764,-0.24503 -0.31714,-0.0715 -0.64511,-0.13015 -0.9801,-0.18376 -0.33053,-0.058 -0.70445,-0.0657 -1.13324,-0.0613 -0.42434,0 -0.93736,0.0333 -1.53141,0.12251 0.1206,-0.2903 0.28521,-0.58512 0.45942,-0.85759 0.1742,-0.27697 0.35924,-0.52895 0.55131,-0.76574 0.19653,-0.2367 0.38093,-0.45869 0.58193,-0.70441 0.20099,-0.25011 0.41539,-0.55326 0.64319,-0.88825 0.2278,-0.33491 0.42943,-0.69677 0.61256,-1.07195 0.33946,-0.67891 0.61703,-1.34312 0.82696,-1.99087 0.21439,-0.65206 0.39114,-1.37057 0.52068,-2.17455 0.13399,-0.80848 0.22269,-1.73302 0.24503,-2.78711 0.0224,-1.05861 -0.0122,-2.25697 -0.0613,-3.58354 -0.0491,-1.33108 -0.13719,-2.92432 -0.27565,-4.77799 -0.12954,-1.72409 -0.27183,-3.27147 -0.45942,-4.62479 -0.18761,-1.35784 -0.40264,-2.4924 -0.61256,-3.43035 -0.20994,-0.93806 -0.47092,-1.78281 -0.76571,-2.54218 -0.29034,-0.75929 -0.57619,-1.40763 -0.85759,-1.89895 -0.27693,-0.49132 -0.59598,-0.9654 -0.9801,-1.47015 -0.80398,-1.04959 -1.26213,-1.71449 -1.37826,-1.9602 -0.0894,-0.18759 -0.0728,-0.29217 0.0613,-0.33686 0.058,-0.0178 0.20163,-0.0261 0.39816,-0.0307 z m 43.18566,1.28639 c 0.29031,-0.0224 0.54363,0.003 0.70444,0.0613 0.16078,0.0537 0.27373,0.14613 0.36754,0.2757 0.19204,0.25013 0.39432,0.95266 0.58193,2.08271 0.19204,1.12556 0.32988,2.51592 0.45943,4.22659 0.2903,3.8905 0.81609,8.27537 1.56203,13.13951 0.19204,1.26855 0.38091,2.41585 0.58193,3.46103 0.20098,1.04518 0.45814,2.1471 0.73508,3.27716 0.28138,1.12555 0.60488,2.2359 0.9801,3.30783 0.37517,1.06753 0.78673,2.09291 1.25575,3.0935 0.18757,0.40194 0.4275,0.80524 0.70445,1.22512 0.28137,0.41537 0.55064,0.7682 0.79633,1.07193 0.2501,0.30374 0.5315,0.66549 0.85759,1.07195 0.33049,0.41095 0.617,0.7728 0.82696,1.07203 0.0715,0.10271 0.0708,0.2163 0.0306,0.33695 -0.0357,0.12506 -0.10276,0.20925 -0.2144,0.24503 -0.19209,0.058 -0.46965,0.0784 -0.82696,0.0919 -0.35289,0.0135 -0.66364,0.0178 -0.94947,0 -0.28143,-0.0178 -0.63875,-0.0517 -1.07198,-0.0919 -0.43329,-0.0403 -0.73255,-0.0479 -0.85759,-0.0614 -1.18814,-0.0758 -2.2346,-0.0937 -3.1547,0 -0.92014,0.0983 -2.05976,0.29608 -3.39972,0.58198 -0.36182,0.0759 -0.78614,0.2067 -1.28638,0.36754 -0.49581,0.16524 -0.86973,0.29539 -1.13324,0.39812 -0.15635,0.0581 -0.34523,0.0957 -0.58193,0.12251 -0.23675,0.0313 -0.39627,0.0142 -0.49005,-0.0306 -0.27696,-0.17868 -0.22335,-0.5864 0.21439,-1.22513 l 1.31701,-1.83768 c 1.20596,-1.78663 1.78088,-3.7583 1.77643,-5.91118 -0.005,-0.99167 -0.0376,-1.95893 -0.12251,-2.87914 -0.0848,-0.92453 -0.19017,-1.61746 -0.30629,-2.1133 -0.5896,-0.0983 -1.14474,-0.16593 -1.65391,-0.18377 -0.50474,-0.0224 -1.15623,-0.0178 -1.9602,0 -0.50474,0.0135 -1.02989,0.0633 -1.59266,0.18377 -0.55834,0.12065 -0.88569,0.26414 -1.01073,0.39812 -0.25461,0.27257 -0.37712,0.7683 -0.33691,1.50082 0.0178,0.32609 0.0435,0.59532 0.0613,0.79634 0.0224,0.20102 0.0689,0.44859 0.12251,0.76565 0.0536,0.31716 0.10337,0.61197 0.18378,0.85759 0.0804,0.24571 0.19397,0.4971 0.3369,0.79643 0.1474,0.29923 0.31968,0.60678 0.52068,0.88817 0.14739,0.20542 0.29479,0.38155 0.42879,0.5513 0.13399,0.16975 0.25204,0.2954 0.33691,0.39822 0.0848,0.0982 0.16845,0.22964 0.27566,0.33685 0.10718,0.10723 0.17865,0.15251 0.21439,0.18378 0.0357,0.0313 0.09,0.10781 0.18377,0.18376 0.0938,0.0759 0.17035,0.11359 0.18377,0.12251 0.15184,0.12957 0.16397,0.31461 0.0613,0.55131 -0.0357,0.0804 -0.14486,0.13849 -0.33691,0.21445 -0.19208,0.0758 -0.44923,0.13457 -0.73507,0.18367 -0.40201,0.0716 -1.21238,0.13918 -2.48088,0.18387 -1.26406,0.0445 -2.40815,0.0319 -3.39972,-0.0307 -0.9112,-0.067 -1.69733,-0.12958 -2.35837,-0.21435 -0.6566,-0.0894 -1.18621,-0.19916 -1.59266,-0.30638 -0.40647,-0.11164 -0.70892,-0.19523 -0.91885,-0.2756 -0.20992,-0.0848 -0.41986,-0.2118 -0.64319,-0.33696 -0.0357,-0.0178 -0.0696,-0.0504 -0.0919,-0.15309 -0.0178,-0.10723 -0.0178,-0.26287 0,-0.45947 0.0178,-0.20092 0.0554,-0.43262 0.12252,-0.67372 0.067,-0.24121 0.17164,-0.53602 0.33691,-0.85759 0.16973,-0.32167 0.39306,-0.62795 0.64319,-0.94952 0.25459,-0.32157 0.58704,-0.70381 0.9801,-1.16387 0.39305,-0.46006 0.69103,-0.82564 0.91884,-1.10262 0.23226,-0.28139 0.49324,-0.63873 0.76571,-1.07193 0.27692,-0.4333 0.51237,-0.88757 0.70444,-1.34764 0.50473,-1.20602 1.00945,-2.52238 1.50078,-3.9204 0.49131,-1.39811 0.86077,-2.6545 1.13324,-3.79788 0.96924,-4.10927 1.42739,-7.25441 1.37827,-9.40289 -0.005,-0.192 -0.0217,-0.35539 -0.0306,-0.52063 -0.009,-0.16524 -0.004,-0.32099 -0.0306,-0.45947 -0.0224,-0.14289 -0.0696,-0.26032 -0.0919,-0.36753 -0.0224,-0.11164 -0.0428,-0.23415 -0.0919,-0.33696 -0.0446,-0.10262 -0.0867,-0.17348 -0.12251,-0.24503 -0.0313,-0.0758 -0.0817,-0.16005 -0.15315,-0.24502 -0.067,-0.0847 -0.10848,-0.16515 -0.15314,-0.21435 -0.0402,-0.0536 -0.11614,-0.10782 -0.21439,-0.18377 -0.0983,-0.0804 -0.18696,-0.13907 -0.24503,-0.18377 -0.0581,-0.0491 -0.15506,-0.12055 -0.27565,-0.21435 -0.0178,-0.0135 -0.0261,-0.0261 -0.0306,-0.0307 -0.22334,-0.16965 -0.48431,-0.32088 -0.7657,-0.45937 -0.27694,-0.13849 -0.57939,-0.27315 -0.91885,-0.39821 -0.33946,-0.12948 -0.53216,-0.20485 -0.61256,-0.24503 -0.1742,-0.0804 -0.3382,-0.19906 -0.49005,-0.30628 -0.1474,-0.10712 -0.26992,-0.19073 -0.33691,-0.2756 -0.067,-0.0894 -0.062,-0.14359 -0.0306,-0.18386 0.058,-0.0803 0.11677,-0.15183 0.18377,-0.21436 0.067,-0.0669 0.15888,-0.15122 0.30628,-0.24502 0.15186,-0.0938 0.33308,-0.18691 0.52068,-0.24503 0.1876,-0.058 0.4224,-0.10839 0.73508,-0.15318 0.31265,-0.0446 0.65723,-0.0612 1.04136,-0.0612 0.57618,0 1.04708,0.0135 1.40889,0 0.36178,-0.0178 0.79505,-0.0689 1.28638,-0.12252 0.49131,-0.0536 0.96286,-0.11614 1.37826,-0.21444 0.41985,-0.10271 0.89905,-0.24562 1.43953,-0.4288 0.54492,-0.18758 1.09876,-0.43643 1.71517,-0.70439 0.68337,-0.29933 1.28508,-0.5175 1.77643,-0.67392 0.49577,-0.16073 0.87353,-0.25766 1.16387,-0.2756 z m -32.83335,5.05359 c -0.52707,-0.0356 -0.84612,0.19592 -0.9801,0.67391 -0.11168,0.40645 -0.095,1.1677 0.0613,2.26639 0.0357,0.23679 0.0989,0.60178 0.18377,1.13328 0.15631,0.97824 0.2699,1.7388 0.33691,2.29707 0.13398,1.07654 0.23927,2.07771 0.30628,2.97097 0.0715,0.88885 0.0956,1.59462 0.12252,2.14397 0.0313,0.54944 0.0778,0.97824 0.12251,1.28638 1.58563,-0.13398 2.88476,-0.35224 3.88977,-0.67381 0.44664,-0.13849 0.88438,-0.30247 1.28638,-0.49005 0.40197,-0.192 0.78418,-0.41919 1.16387,-0.67383 0.37964,-0.25453 0.72484,-0.53209 1.01073,-0.8269 0.2903,-0.29482 0.50789,-0.61384 0.70444,-0.9801 0.19651,-0.37078 0.34008,-0.76194 0.39817,-1.16397 0.10271,-0.73693 0.0727,-1.48476 -0.0613,-2.26638 -0.13402,-0.78173 -0.36947,-1.49632 -0.70444,-2.14407 -0.33055,-0.65206 -0.70383,-1.16573 -1.16388,-1.50073 -0.83526,-0.60296 -1.83195,-1.06939 -2.97092,-1.4089 -1.13454,-0.34391 -2.37497,-0.55826 -3.706,-0.64323 z m 31.02629,6.18698 c -0.46901,0.13839 -0.96927,0.65588 -1.50078,1.53131 -0.52707,0.87101 -0.97692,1.95578 -1.34764,3.24667 -0.26801,0.92453 -0.50282,1.81152 -0.73507,2.6646 -0.22781,0.85318 -0.3918,1.47525 -0.49005,1.86837 l -0.15315,0.58188 c 0.91117,0 1.72219,-0.0172 2.45025,-0.0307 1.14791,-0.0223 1.9889,-0.0637 2.51151,-0.1531 -0.067,-1.07644 -0.1889,-2.69077 -0.36753,-4.83924 -0.17869,-2.15289 -0.3095,-3.78446 -0.36754,-4.86982 z"
         id="path4628"
         transform="matrix(1.0053791,0,0,0.99102438,-1.9452418,7.8608563)" />
    </g>
  </g>
</svg>
