<?xml version="1.0" encoding="UTF-8" standalone="no"?>
<!-- Created with Inkscape (http://www.inkscape.org/) -->

<svg
   xmlns:dc="http://purl.org/dc/elements/1.1/"
   xmlns:cc="http://creativecommons.org/ns#"
   xmlns:rdf="http://www.w3.org/1999/02/22-rdf-syntax-ns#"
   xmlns:svg="http://www.w3.org/2000/svg"
   xmlns="http://www.w3.org/2000/svg"
   xmlns:xlink="http://www.w3.org/1999/xlink"
   xmlns:sodipodi="http://sodipodi.sourceforge.net/DTD/sodipodi-0.dtd"
   xmlns:inkscape="http://www.inkscape.org/namespaces/inkscape"
   width="344.81482"
   height="78.569771"
   id="svg5641"
   version="1.1"
   inkscape:version="0.48.5 r10040"
   sodipodi:docname="ButtonPassDown.svg">
  <defs
     id="defs5643">
    <linearGradient
       inkscape:collect="always"
       id="linearGradient5727">
      <stop
         style="stop-color:#ffffff;stop-opacity:1;"
         offset="0"
         id="stop5729" />
      <stop
         style="stop-color:#ffffff;stop-opacity:0;"
         offset="1"
         id="stop5731" />
    </linearGradient>
    <filter
       color-interpolation-filters="sRGB"
       inkscape:collect="always"
       id="filter4336-2"
       x="-0.045628764"
       width="1.0912575"
       y="-0.10840871"
       height="1.2168174">
      <feGaussianBlur
         inkscape:collect="always"
         stdDeviation="1.9616878"
         id="feGaussianBlur4338-9" />
    </filter>
    <filter
       color-interpolation-filters="sRGB"
       inkscape:collect="always"
       id="filter4666">
      <feGaussianBlur
         inkscape:collect="always"
         stdDeviation="0.95751177"
         id="feGaussianBlur4668" />
    </filter>
    <linearGradient
       inkscape:collect="always"
       xlink:href="#linearGradient5727"
       id="linearGradient5733"
       x1="364.42645"
       y1="956.02264"
       x2="363.36075"
       y2="858.36035"
       gradientUnits="userSpaceOnUse" />
  </defs>
  <sodipodi:namedview
     id="base"
     pagecolor="#ffffff"
     bordercolor="#666666"
     borderopacity="1.0"
     inkscape:pageopacity="0.0"
     inkscape:pageshadow="2"
     inkscape:zoom="1.979899"
     inkscape:cx="210.7905"
     inkscape:cy="39.758374"
     inkscape:document-units="px"
     inkscape:current-layer="g4170"
     showgrid="false"
     fit-margin-top="0"
     fit-margin-left="0"
     fit-margin-right="0"
     fit-margin-bottom="0"
     inkscape:window-width="1366"
     inkscape:window-height="744"
     inkscape:window-x="0"
     inkscape:window-y="24"
     inkscape:window-maximized="1" />
  <metadata
     id="metadata5646">
    <rdf:RDF>
      <cc:Work
         rdf:about="">
        <dc:format>image/svg+xml</dc:format>
        <dc:type
           rdf:resource="http://purl.org/dc/dcmitype/StillImage" />
        <dc:title></dc:title>
      </cc:Work>
    </rdf:RDF>
  </metadata>
  <g
     inkscape:label="Layer 1"
     inkscape:groupmode="layer"
     id="layer1"
     transform="translate(-319.02117,-158.79158)">
    <g
       transform="translate(127.79396,-721.51268)"
       id="g4170">
      <path
         sodipodi:type="arc"
         style="fill:#575b00;fill-opacity:0.27554178"
         id="path3792"
         sodipodi:cx="360"
         sodipodi:cy="1157.2269"
         sodipodi:rx="162.51051"
         sodipodi:ry="32.869457"
         d="m 522.51051,1157.2269 a 162.51051,32.869457 0 1 1 -325.02102,0 162.51051,32.869457 0 1 1 325.02102,0 z"
         transform="matrix(1.0609,0,0,1.1260314,-18.28939,-381.2119)" />
      <flowRoot
         xml:space="preserve"
         id="flowRoot4328"
         style="font-size:56px;font-style:normal;font-variant:normal;font-weight:500;font-stretch:normal;line-height:125%;letter-spacing:0px;word-spacing:0px;fill:#ffffff;fill-opacity:0.16615385;stroke:none;filter:url(#filter4336-2);font-family:Celestia Redux;-inkscape-font-specification:Celestia Redux Medium"
         transform="matrix(0.97058209,0,0,0.94562501,16.263523,-177.85159)"><flowRegion
           id="flowRegion4330"><rect
             id="rect4332"
             width="203.5"
             height="92"
             x="301.5"
             y="1119.5"
             style="font-size:56px;font-style:normal;font-variant:normal;font-weight:500;font-stretch:normal;fill:#ffffff;fill-opacity:0.16615385;font-family:Celestia Redux;-inkscape-font-specification:Celestia Redux Medium" /></flowRegion><flowPara
           id="flowPara4334">PASS</flowPara></flowRoot>      <path
         inkscape:connector-curvature="0"
         id="path4038"
         d="m 361.625,886.24774 c -91.55609,-9e-5 -165.78125,14.90737 -165.78125,33.30833 0,18.40105 74.22516,33.30851 165.78125,33.30851 91.55609,-1e-4 165.78125,-14.90746 165.78125,-33.30851 0,-18.40096 -74.22516,-33.30833 -165.78125,-33.30833 z m 27.125,14.46202 c -0.0319,0.16436 -0.0873,0.3901 -0.1875,0.66982 -0.10028,0.27534 -0.19013,0.5684 -0.28125,0.8525 -0.0912,0.27972 -0.17711,0.57152 -0.25,0.9134 -0.0729,0.34187 -0.10289,0.71366 -0.0937,1.12656 0.0136,0.41291 0.0644,0.85689 0.1875,1.27866 0.16404,0.56401 0.28448,1.06441 0.34375,1.55282 0.0638,0.48841 0.0944,0.9775 0.0625,1.46142 -0.0319,0.47955 -0.10093,0.94389 -0.1875,1.37005 -0.0866,0.42186 -0.21096,0.92362 -0.375,1.49192 -0.12763,-0.0887 -0.26109,-0.22321 -0.375,-0.36536 -0.11395,-0.14653 -0.20315,-0.2879 -0.3125,-0.45664 -0.1094,-0.17323 -0.24286,-0.36156 -0.375,-0.54814 -0.13218,-0.18638 -0.29885,-0.36974 -0.53125,-0.57843 -0.22789,-0.20869 -0.5163,-0.42684 -0.8125,-0.60893 -1.00718,-0.60386 -2.10028,-1.0003 -3.3125,-1.21786 -1.21226,-0.22194 -2.36199,-0.19661 -3.4375,0.0604 -0.64259,0.16436 -1.22137,0.39838 -1.75,0.70031 -0.52866,0.29745 -0.95769,0.61458 -1.28125,0.97429 -0.32358,0.35523 -0.55991,0.72243 -0.6875,1.12647 -0.12761,0.40404 -0.11394,0.78849 0,1.15697 0.12304,0.40851 0.27668,0.79355 0.5,1.12656 0.2233,0.33301 0.50715,0.62988 0.8125,0.8829 0.30533,0.25312 0.64322,0.46561 1.0625,0.66982 0.42382,0.20431 0.89647,0.39712 1.375,0.54804 0.48306,0.14653 1.01431,0.26705 1.625,0.39576 0.56053,0.11555 1.13931,0.27026 1.75,0.45674 0.61522,0.18648 1.27667,0.42498 1.9375,0.70032 0.66079,0.27085 1.29555,0.59685 1.90625,0.97428 0.61521,0.37296 1.11196,0.7656 1.53125,1.18737 0.99347,0.99903 1.69334,2.16048 2.0625,3.50129 0.36912,1.33653 0.48956,2.90006 0.34375,4.65836 -0.0501,0.60386 -0.10614,1.12208 -0.15625,1.55272 -0.0501,0.42634 -0.12307,0.87724 -0.21875,1.37014 -0.0912,0.48841 -0.21617,0.93112 -0.34375,1.33964 -0.12763,0.40404 -0.27281,0.83029 -0.46875,1.27875 -0.19599,0.44398 -0.44534,0.91719 -0.71875,1.37004 -0.2689,0.45295 -0.58205,0.90775 -0.9375,1.40064 -0.38739,0.51949 -0.79494,0.98822 -1.21875,1.37004 -0.42385,0.38182 -0.84768,0.6819 -1.3125,0.94389 -0.46486,0.2575 -0.9883,0.48393 -1.5625,0.63932 -0.56968,0.1554 -1.16147,0.26384 -1.78125,0.33496 -0.61981,0.075 -1.33205,0.11731 -2.125,0.12179 -0.56967,0 -1.10613,-0.0292 -1.59375,-0.0916 -0.48308,-0.0624 -0.96746,-0.17508 -1.46875,-0.33496 -0.50131,-0.16427 -0.98569,-0.39829 -1.46875,-0.70022 -0.47852,-0.30642 -0.95509,-0.68249 -1.40625,-1.12657 -0.44662,-0.43512 -0.81967,-0.86955 -1.125,-1.30915 -0.30534,-0.44398 -0.55404,-0.88679 -0.75,-1.33964 -0.19597,-0.45285 -0.38933,-0.9172 -0.5625,-1.37014 -0.17318,-0.45723 -0.40886,-1.00469 -0.71875,-1.64401 -0.3099,-0.64381 -0.66146,-1.30038 -1.0625,-1.94858 -0.16407,-0.26646 -0.36589,-0.49542 -0.59375,-0.73071 -0.22787,-0.23539 -0.44206,-0.45353 -0.65625,-0.60893 -0.21419,-0.1554 -0.43294,-0.31401 -0.65625,-0.48714 -0.22331,-0.17323 -0.44727,-0.33623 -0.625,-0.48715 -0.17774,-0.15101 -0.32747,-0.31342 -0.46875,-0.51763 -0.14128,-0.2087 -0.22201,-0.43454 -0.28125,-0.66983 0.10937,-0.0175 0.37435,-0.0809 0.84375,-0.18268 0.47396,-0.1021 0.85547,-0.16426 1.15625,-0.21307 0.30078,-0.0487 0.74284,-0.13767 1.3125,-0.21318 0.56966,-0.076 1.222,-0.13825 1.9375,-0.18267 0.71549,-0.0448 1.52213,-0.0692 2.40625,-0.0916 1.82291,0.04 2.99413,0.13192 3.5,0.27397 0.3828,0.10659 0.56249,0.29112 0.5625,0.51754 -10e-6,0.20431 -0.19337,0.52086 -0.5625,1.00478 -0.0593,0.0799 -0.13217,0.18902 -0.21875,0.30447 -0.71551,0.93239 -1.13608,1.78051 -1.25,2.5575 -0.10938,0.77699 0.10155,1.4589 0.59375,2.00947 0.28254,0.31966 0.64647,0.56645 1.125,0.73071 0.48306,0.16427 1.00194,0.20938 1.5625,0.18268 0.56509,-0.0263 1.10611,-0.16046 1.59375,-0.39575 0.26887,-0.12881 0.52603,-0.28742 0.78125,-0.48715 0.25975,-0.20431 0.52147,-0.46756 0.78125,-0.7917 0.25975,-0.32405 0.49152,-0.67928 0.6875,-1.06558 0.19595,-0.39069 0.34113,-0.8373 0.46875,-1.37014 0.13214,-0.53274 0.20962,-1.08837 0.21875,-1.67451 0.005,-0.36409 -0.008,-0.72438 -0.0625,-1.03517 -0.0547,-0.31528 -0.13218,-0.59939 -0.21875,-0.85251 -0.082,-0.25312 -0.22398,-0.46941 -0.40625,-0.70031 -0.18231,-0.23081 -0.35809,-0.46172 -0.53125,-0.63933 -0.16864,-0.17761 -0.40431,-0.36156 -0.71875,-0.54804 -0.31447,-0.18647 -0.61525,-0.32346 -0.875,-0.45664 -0.25522,-0.13329 -0.58009,-0.30953 -1.03125,-0.48715 -0.44663,-0.18209 -0.86785,-0.33242 -1.21875,-0.45674 -0.35092,-0.12432 -0.80079,-0.28284 -1.375,-0.48715 -0.83399,-0.28858 -1.58465,-0.57716 -2.25,-0.8525 -0.66082,-0.27523 -1.28256,-0.55875 -1.875,-0.88289 -0.59245,-0.32415 -1.09831,-0.65843 -1.53125,-1.00479 -0.43295,-0.35074 -0.82813,-0.72243 -1.15625,-1.12656 -0.32813,-0.40394 -0.58985,-0.84734 -0.78125,-1.30915 -0.28256,-0.67928 -0.48438,-1.4398 -0.59375,-2.28344 -0.10938,-0.84811 -0.10417,-1.69613 -0.0312,-2.5575 0.0775,-0.86137 0.25325,-1.72215 0.53125,-2.588 0.28255,-0.86575 0.65559,-1.66505 1.125,-2.34442 0.30533,-0.44389 0.60481,-0.84929 0.9375,-1.21786 0.33268,-0.37286 0.68945,-0.69895 1.03125,-0.97429 0.34635,-0.27962 0.68489,-0.51754 1.03125,-0.73071 0.3509,-0.21746 0.70247,-0.40589 1.0625,-0.54794 0.36002,-0.14205 0.71158,-0.24172 1.0625,-0.33496 0.35546,-0.0935 0.72916,-0.14712 1.09375,-0.18268 0.36913,-0.0399 0.69856,-0.0604 1.03125,-0.0604 0.33723,0 0.68033,0.0214 1.03125,0.0604 0.65624,0.0711 1.2272,0.1631 1.6875,0.27407 0.46483,0.11097 0.82551,0.21502 1.0625,0.33486 0.23696,0.11545 0.43879,0.22399 0.59375,0.33486 0.15949,0.11107 0.32681,0.23286 0.5,0.33496 0.17316,0.0977 0.34829,0.14273 0.5625,0.18268 0.45571,0.0935 0.91014,0.0594 1.375,-0.0916 0.46938,-0.15102 1.04425,-0.47253 1.71875,-0.97429 0.34633,-0.26198 0.65948,-0.44905 0.9375,-0.60893 0.28253,-0.16426 0.52667,-0.29433 0.75,-0.36536 0.22328,-0.0711 0.41209,-0.10843 0.5625,-0.12178 0.15037,-0.0175 0.31769,-0.0351 0.5,-0.0302 z m 24.71875,0 c -0.0319,0.16436 -0.0873,0.3901 -0.1875,0.66982 -0.10028,0.27534 -0.19013,0.5684 -0.28125,0.8525 -0.0912,0.27972 -0.17711,0.57152 -0.25,0.9134 -0.0729,0.34187 -0.10289,0.71366 -0.0937,1.12656 0.0136,0.41291 0.0644,0.85689 0.1875,1.27866 0.16404,0.56401 0.28448,1.06441 0.34375,1.55282 0.0638,0.48841 0.0944,0.9775 0.0625,1.46142 -0.0319,0.47955 -0.10093,0.94389 -0.1875,1.37005 -0.0866,0.42186 -0.21096,0.92362 -0.375,1.49192 -0.12763,-0.0887 -0.26109,-0.22321 -0.375,-0.36536 -0.11395,-0.14653 -0.20315,-0.2879 -0.3125,-0.45664 -0.1094,-0.17323 -0.24286,-0.36156 -0.375,-0.54814 -0.13218,-0.18638 -0.29885,-0.36974 -0.53125,-0.57843 -0.22789,-0.20869 -0.5163,-0.42684 -0.8125,-0.60893 -1.00718,-0.60386 -2.10028,-1.0003 -3.3125,-1.21786 -1.21226,-0.22194 -2.36199,-0.19661 -3.4375,0.0604 -0.64259,0.16436 -1.22137,0.39838 -1.75,0.70031 -0.52866,0.29745 -0.95769,0.61458 -1.28125,0.97429 -0.32358,0.35523 -0.55991,0.72243 -0.6875,1.12647 -0.12761,0.40404 -0.11394,0.78849 0,1.15697 0.12304,0.40851 0.27668,0.79355 0.5,1.12656 0.2233,0.33301 0.50715,0.62988 0.8125,0.8829 0.30533,0.25312 0.64322,0.46561 1.0625,0.66982 0.42382,0.20431 0.89647,0.39712 1.375,0.54804 0.48306,0.14653 1.01431,0.26705 1.625,0.39576 0.56053,0.11555 1.13931,0.27026 1.75,0.45674 0.61522,0.18648 1.27667,0.42498 1.9375,0.70032 0.66079,0.27085 1.29555,0.59685 1.90625,0.97428 0.61521,0.37296 1.11196,0.7656 1.53125,1.18737 0.99347,0.99903 1.69334,2.16048 2.0625,3.50129 0.36912,1.33653 0.48956,2.90006 0.34375,4.65836 -0.0501,0.60386 -0.10614,1.12208 -0.15625,1.55272 -0.0501,0.42634 -0.12307,0.87724 -0.21875,1.37014 -0.0912,0.48841 -0.21617,0.93112 -0.34375,1.33964 -0.12763,0.40404 -0.27281,0.83029 -0.46875,1.27875 -0.19599,0.44398 -0.44534,0.91719 -0.71875,1.37004 -0.2689,0.45295 -0.58205,0.90775 -0.9375,1.40064 -0.38739,0.51949 -0.79494,0.98822 -1.21875,1.37004 -0.42385,0.38182 -0.84768,0.6819 -1.3125,0.94389 -0.46486,0.2575 -0.9883,0.48393 -1.5625,0.63932 -0.56968,0.1554 -1.16147,0.26384 -1.78125,0.33496 -0.61981,0.075 -1.33205,0.11731 -2.125,0.12179 -0.56967,0 -1.10613,-0.0292 -1.59375,-0.0916 -0.48308,-0.0624 -0.96746,-0.17508 -1.46875,-0.33496 -0.50131,-0.16427 -0.98569,-0.39829 -1.46875,-0.70022 -0.47852,-0.30642 -0.95509,-0.68249 -1.40625,-1.12657 -0.44662,-0.43512 -0.81967,-0.86955 -1.125,-1.30915 -0.30534,-0.44398 -0.55404,-0.88679 -0.75,-1.33964 -0.19597,-0.45285 -0.38933,-0.9172 -0.5625,-1.37014 -0.17318,-0.45723 -0.40886,-1.00469 -0.71875,-1.64401 -0.3099,-0.64381 -0.66146,-1.30038 -1.0625,-1.94858 -0.16407,-0.26646 -0.36589,-0.49542 -0.59375,-0.73071 -0.22787,-0.23539 -0.44206,-0.45353 -0.65625,-0.60893 -0.21419,-0.1554 -0.43294,-0.31401 -0.65625,-0.48714 -0.22331,-0.17323 -0.44727,-0.33623 -0.625,-0.48715 -0.17774,-0.15101 -0.32747,-0.31342 -0.46875,-0.51763 -0.14128,-0.2087 -0.22201,-0.43454 -0.28125,-0.66983 0.10937,-0.0175 0.37435,-0.0809 0.84375,-0.18268 0.47396,-0.1021 0.85547,-0.16426 1.15625,-0.21307 0.30078,-0.0487 0.74284,-0.13767 1.3125,-0.21318 0.56966,-0.076 1.222,-0.13825 1.9375,-0.18267 0.71549,-0.0448 1.52213,-0.0692 2.40625,-0.0916 1.82291,0.04 2.99413,0.13192 3.5,0.27397 0.3828,0.10659 0.56249,0.29112 0.5625,0.51754 -10e-6,0.20431 -0.19337,0.52086 -0.5625,1.00478 -0.0593,0.0799 -0.13217,0.18902 -0.21875,0.30447 -0.71551,0.93239 -1.13608,1.78051 -1.25,2.5575 -0.10938,0.77699 0.10155,1.4589 0.59375,2.00947 0.28254,0.31966 0.64647,0.56645 1.125,0.73071 0.48306,0.16427 1.00194,0.20938 1.5625,0.18268 0.56509,-0.0263 1.10611,-0.16046 1.59375,-0.39575 0.26887,-0.12881 0.52603,-0.28742 0.78125,-0.48715 0.25975,-0.20431 0.52147,-0.46756 0.78125,-0.7917 0.25975,-0.32405 0.49152,-0.67928 0.6875,-1.06558 0.19595,-0.39069 0.34113,-0.8373 0.46875,-1.37014 0.13214,-0.53274 0.20962,-1.08837 0.21875,-1.67451 0.005,-0.36409 -0.008,-0.72438 -0.0625,-1.03517 -0.0547,-0.31528 -0.13218,-0.59939 -0.21875,-0.85251 -0.082,-0.25312 -0.22398,-0.46941 -0.40625,-0.70031 -0.18231,-0.23081 -0.35809,-0.46172 -0.53125,-0.63933 -0.16864,-0.17761 -0.40431,-0.36156 -0.71875,-0.54804 -0.31447,-0.18647 -0.61525,-0.32346 -0.875,-0.45664 -0.25522,-0.13329 -0.58009,-0.30953 -1.03125,-0.48715 -0.44663,-0.18209 -0.86785,-0.33242 -1.21875,-0.45674 -0.35092,-0.12432 -0.80079,-0.28284 -1.375,-0.48715 -0.83399,-0.28858 -1.58465,-0.57716 -2.25,-0.8525 -0.66082,-0.27523 -1.28256,-0.55875 -1.875,-0.88289 -0.59245,-0.32415 -1.09831,-0.65843 -1.53125,-1.00479 -0.43295,-0.35074 -0.82813,-0.72243 -1.15625,-1.12656 -0.32813,-0.40394 -0.58985,-0.84734 -0.78125,-1.30915 -0.28256,-0.67928 -0.48438,-1.4398 -0.59375,-2.28344 -0.10938,-0.84811 -0.10417,-1.69613 -0.0312,-2.5575 0.0775,-0.86137 0.25325,-1.72215 0.53125,-2.588 0.28255,-0.86575 0.65559,-1.66505 1.125,-2.34442 0.30533,-0.44389 0.60481,-0.84929 0.9375,-1.21786 0.33268,-0.37286 0.68945,-0.69895 1.03125,-0.97429 0.34635,-0.27962 0.68489,-0.51754 1.03125,-0.73071 0.3509,-0.21746 0.70247,-0.40589 1.0625,-0.54794 0.36002,-0.14205 0.71158,-0.24172 1.0625,-0.33496 0.35546,-0.0935 0.72916,-0.14712 1.09375,-0.18268 0.36913,-0.0399 0.69856,-0.0604 1.03125,-0.0604 0.33723,0 0.68033,0.0214 1.03125,0.0604 0.65624,0.0711 1.2272,0.1631 1.6875,0.27407 0.46483,0.11097 0.82551,0.21502 1.0625,0.33486 0.23696,0.11545 0.43879,0.22399 0.59375,0.33486 0.15949,0.11107 0.32681,0.23286 0.5,0.33496 0.17316,0.0977 0.34829,0.14273 0.5625,0.18268 0.45571,0.0935 0.91014,0.0594 1.375,-0.0916 0.46938,-0.15102 1.04425,-0.47253 1.71875,-0.97429 0.34633,-0.26198 0.65948,-0.44905 0.9375,-0.60893 0.28253,-0.16426 0.52667,-0.29433 0.75,-0.36536 0.22328,-0.0711 0.41209,-0.10843 0.5625,-0.12178 0.15037,-0.0175 0.31769,-0.0351 0.5,-0.0302 z m -101.125,1.85728 c 0.15495,0 0.43359,0.0244 0.84375,0.0916 0.41471,0.0662 0.86002,0.1288 1.375,0.21307 0.51953,0.0848 1.25325,0.18083 2.1875,0.27407 0.93424,0.0935 1.92968,0.16875 2.96875,0.21308 4.81704,0.20878 8.50584,1.02319 11.0625,2.46621 1.12107,0.63494 2.10349,1.379 2.9375,2.22264 0.83852,0.84363 1.58071,1.80457 2.21875,2.89236 0.55141,0.94574 0.93292,1.81987 1.15625,2.588 0.22328,0.76813 0.33461,1.59588 0.34375,2.46611 -3e-5,0.4396 -0.0521,0.83984 -0.125,1.24826 -0.0729,0.40852 -0.15823,0.80622 -0.28125,1.15706 -0.12307,0.34626 -0.27737,0.66729 -0.46875,1.00468 -0.19143,0.3375 -0.40627,0.66418 -0.625,0.94389 -0.21422,0.27972 -0.46291,0.54229 -0.75,0.82201 -0.28713,0.27972 -0.57034,0.53469 -0.84375,0.76121 -0.27346,0.22642 -0.55992,0.46045 -0.90625,0.70022 -0.34638,0.23539 -0.66799,0.44846 -0.96875,0.63942 -0.3008,0.18648 -0.65302,0.40024 -1.03125,0.60893 -0.25067,0.14653 -0.50783,0.26705 -0.78125,0.39576 -0.27346,0.1288 -0.56057,0.25438 -0.875,0.36535 -0.31447,0.11098 -0.6107,0.21571 -0.875,0.30447 -0.26434,0.0887 -0.59963,0.18083 -0.96875,0.27407 l -0.90625,0.24357 c -0.24155,0.0575 -0.5853,0.10269 -1,0.18258 -0.41017,0.0799 -0.72332,0.14273 -0.9375,0.18277 -0.20965,0.0399 -0.52215,0.10269 -0.96875,0.18259 -0.44663,0.0799 -0.76434,0.12568 -0.9375,0.15228 -10e-6,1.9359 0.12043,3.62064 0.34375,5.02371 0.22785,1.40307 0.58853,2.60183 1.0625,3.62308 0.15949,0.34188 0.49803,0.91018 1.03125,1.705 0.53319,0.79034 0.8548,1.28382 0.96875,1.46143 -0.21421,0.0887 -0.3991,0.16427 -0.53125,0.21308 -0.13218,0.0448 -0.29494,0.0906 -0.5,0.15228 -0.20509,0.0663 -0.38478,0.11672 -0.5625,0.15228 -0.17319,0.0399 -0.40106,0.0818 -0.65625,0.12178 -0.25522,0.0438 -0.53452,0.0731 -0.8125,0.0916 -0.27801,0.0175 -0.57749,0.0477 -0.9375,0.0604 -0.36004,0.0136 -0.75001,0 -1.1875,0 -0.43751,0 -0.94011,-0.0175 -1.46875,-0.0302 -0.74285,-0.0224 -1.41212,-0.0468 -2,-0.12179 -0.5879,-0.0711 -1.04688,-0.16816 -1.375,-0.24357 -0.32357,-0.0711 -0.65821,-0.12948 -1,-0.18277 -0.33724,-0.0575 -0.71875,-0.0653 -1.15625,-0.0604 -0.43295,0 -0.95638,0.0331 -1.5625,0.12179 0.12305,-0.28868 0.29101,-0.58175 0.46875,-0.8525 0.17773,-0.27534 0.36653,-0.52592 0.5625,-0.76121 0.20052,-0.23529 0.38867,-0.45607 0.59375,-0.70022 0.20507,-0.24874 0.42382,-0.54999 0.65625,-0.883 0.23242,-0.33301 0.43815,-0.69262 0.625,-1.06558 0.34635,-0.67498 0.62955,-1.33526 0.84375,-1.97906 0.21874,-0.64829 0.39908,-1.36245 0.53125,-2.16165 0.13671,-0.80369 0.22721,-1.72283 0.25,-2.77068 0.0228,-1.05233 -0.0124,-2.24349 -0.0625,-3.56219 -0.0501,-1.32317 -0.13998,-2.90707 -0.28125,-4.74964 -0.13217,-1.71387 -0.27735,-3.25207 -0.46875,-4.59747 -0.19141,-1.34977 -0.41081,-2.47751 -0.625,-3.41 -0.2142,-0.93239 -0.44922,-1.77223 -0.75,-2.5271 -0.29623,-0.75478 -0.58789,-1.39918 -0.875,-1.88759 -0.28255,-0.48841 -0.63933,-0.95967 -1.03125,-1.46143 -0.82031,-1.04346 -1.28776,-1.70441 -1.40625,-1.94857 -0.0912,-0.18648 -0.0742,-0.29053 0.0625,-0.33496 0.0592,-0.0175 0.20573,-0.0263 0.40625,-0.0302 z m 44.09375,1.27866 c 0.29621,-0.0224 0.52342,0 0.6875,0.0614 0.16404,0.0536 0.27928,0.14526 0.375,0.27397 0.19594,0.24863 0.40232,0.9166 0.59375,2.03996 0.19594,1.11887 0.36782,2.53149 0.5,4.232 0.2962,3.86734 0.80141,8.2263 1.5625,13.06158 0.19594,1.26092 0.4199,2.40142 0.625,3.4404 0.20506,1.03898 0.43618,2.13447 0.71875,3.25782 0.28709,1.11887 0.61716,2.22254 1,3.28822 0.38279,1.06109 0.80271,2.08049 1.28125,3.07504 0.19138,0.39965 0.43617,0.80047 0.71875,1.21786 0.28708,0.4129 0.56182,0.76374 0.8125,1.06567 0.25518,0.30184 0.54229,0.66154 0.875,1.06558 0.33721,0.40852 0.62953,0.76813 0.84375,1.06558 0.0729,0.1022 0.0722,0.21512 0.0312,0.33496 -0.0365,0.12432 -0.10485,0.20801 -0.21875,0.24357 -0.19599,0.0575 -0.47919,0.0779 -0.84375,0.0916 -0.36005,0.0136 -0.67711,0.0175 -0.96875,0 -0.28714,-0.0175 -0.65172,-0.0516 -1.09375,-0.0916 -0.44208,-0.0399 -0.71617,-0.0477 -0.84375,-0.0604 -1.21226,-0.076 -2.31122,-0.0935 -3.25,0 -0.93882,0.0977 -2.07033,0.29434 -3.4375,0.57844 -0.36916,0.076 -0.83335,0.20557 -1.34375,0.36535 -0.50588,0.16437 -0.88739,0.29375 -1.15625,0.39586 -0.15952,0.0575 -0.35223,0.0955 -0.59375,0.12178 -0.24155,0.0312 -0.40431,0.0136 -0.5,-0.0302 -0.28257,-0.17751 -0.19663,-0.58292 0.25,-1.21786 l 1.3125,-1.82678 c 1.23045,-1.77603 1.84829,-3.736 1.84375,-5.87612 -0.005,-0.98569 -0.0697,-1.94731 -0.15625,-2.86197 -0.0866,-0.91914 -0.19403,-1.63836 -0.3125,-2.13125 -0.60158,-0.0977 -1.13674,-0.13445 -1.65625,-0.15218 -0.51499,-0.0224 -1.1797,-0.0175 -2,0 -0.51499,0.0136 -1.08204,0.0623 -1.65625,0.18258 -0.56967,0.11993 -0.90366,0.26267 -1.03125,0.39585 -0.25978,0.27085 -0.38478,0.76374 -0.34375,1.49193 0.0182,0.32404 0.0443,0.59178 0.0625,0.79151 0.0228,0.19982 0.0703,0.44593 0.125,0.76121 0.0547,0.31527 0.10546,0.60834 0.1875,0.8525 0.082,0.24425 0.19791,0.49415 0.34375,0.7916 0.15038,0.29745 0.32616,0.60319 0.53125,0.8829 0.15038,0.20431 0.30077,0.37939 0.4375,0.54814 0.13671,0.16865 0.25715,0.29365 0.34375,0.39575 0.0866,0.0977 0.17186,0.19788 0.28125,0.30447 0.10936,0.10658 0.18228,0.18209 0.21875,0.21307 0.0365,0.0312 0.12303,0.10727 0.21875,0.18278 0.0957,0.075 0.14256,0.11282 0.15625,0.12178 0.15493,0.12871 0.1673,0.31265 0.0625,0.54794 -0.0365,0.0799 -0.1478,0.13767 -0.34375,0.21318 -0.19598,0.076 -0.4271,0.13386 -0.71875,0.18268 -0.41017,0.0711 -1.26824,0.13825 -2.5625,0.18267 -1.28972,0.0448 -2.45704,0.0322 -3.46875,-0.0302 -0.92969,-0.0663 -1.73178,-0.1288 -2.40625,-0.21317 -0.66993,-0.0887 -1.21029,-0.19788 -1.625,-0.30447 -0.41472,-0.11097 -0.72331,-0.19407 -0.9375,-0.27406 -0.21419,-0.0838 -0.42839,-0.21055 -0.65625,-0.33487 -0.0365,-0.0175 -0.071,-0.0497 -0.0937,-0.15228 -0.0182,-0.10649 -0.0182,-0.2613 0,-0.45664 0.0182,-0.19983 0.0566,-0.43006 0.125,-0.66983 0.0684,-0.23977 0.20638,-0.53283 0.375,-0.8525 0.17318,-0.31966 0.36979,-0.62413 0.625,-0.94389 0.25976,-0.31966 0.59896,-0.69953 1,-1.15686 0.40104,-0.45733 0.70507,-0.82084 0.9375,-1.09608 0.23697,-0.27981 0.50325,-0.63494 0.78125,-1.06567 0.28255,-0.43064 0.52278,-0.88231 0.71875,-1.33964 0.51497,-1.19886 1.02994,-2.50743 1.53125,-3.89715 0.50129,-1.38972 0.87825,-2.63866 1.15625,-3.77536 0.98892,-4.08489 1.45637,-7.21138 1.40625,-9.34711 -0.005,-0.19086 0.009,-0.35328 0,-0.51754 -0.009,-0.16427 -0.0352,-0.31898 -0.0625,-0.45675 -0.0228,-0.14205 -0.0397,-0.25867 -0.0625,-0.36535 -0.0228,-0.11098 -0.0749,-0.23276 -0.125,-0.33487 -0.0456,-0.1021 -0.0885,-0.17254 -0.125,-0.24357 -0.0319,-0.075 -0.0833,-0.1592 -0.15625,-0.24357 -0.0684,-0.0848 -0.11069,-0.16426 -0.15625,-0.21308 -0.041,-0.0536 -0.1185,-0.10717 -0.21875,-0.18277 -0.10027,-0.0799 -0.19076,-0.13816 -0.25,-0.18258 -0.0593,-0.0487 -0.12696,-0.11994 -0.25,-0.21318 -0.0182,-0.0136 -0.058,-0.0263 -0.0625,-0.0302 -0.22787,-0.16875 -0.4629,-0.31908 -0.75,-0.45675 -0.28256,-0.13757 -0.59115,-0.27143 -0.9375,-0.39575 -0.34636,-0.1288 -0.57422,-0.20363 -0.65625,-0.24357 -0.17774,-0.0799 -0.34506,-0.19788 -0.5,-0.30456 -0.1504,-0.10649 -0.2754,-0.1896 -0.34375,-0.27397 -0.0684,-0.0887 -0.0632,-0.14274 -0.0312,-0.18268 0.0592,-0.0799 0.11914,-0.15092 0.1875,-0.21308 0.0684,-0.0662 0.1621,-0.15033 0.3125,-0.24357 0.15494,-0.0935 0.33984,-0.18589 0.53125,-0.24357 0.1914,-0.0575 0.43098,-0.10786 0.75,-0.15228 0.319,-0.0439 0.70182,-0.0604 1.09375,-0.0604 0.58788,0 1.06835,-0.0166 1.4375,-0.0302 0.36913,-0.0175 0.77994,-0.038 1.28125,-0.0916 0.50129,-0.0536 0.98241,-0.11545 1.40625,-0.21317 0.42837,-0.10201 0.9173,-0.24416 1.46875,-0.42615 0.55598,-0.18648 1.15233,-0.43385 1.78125,-0.70032 0.69725,-0.29745 1.27993,-0.51442 1.78125,-0.66982 0.50584,-0.15978 0.92251,-0.25624 1.21875,-0.27407 z m -33.53125,5.02371 c -0.53777,-0.0351 -0.86329,0.19476 -1,0.66982 -0.11394,0.40404 -0.097,1.13037 0.0625,2.22254 0.0365,0.23539 0.1009,0.62871 0.1875,1.15707 0.15949,0.97233 0.27538,1.72848 0.34375,2.28343 0.13671,1.07006 0.24413,2.06529 0.3125,2.95336 0.0729,0.88358 0.12889,1.58506 0.15625,2.13115 0.0319,0.54619 0.0482,0.97244 0.0937,1.27885 1.61783,-0.13328 2.94334,-0.35016 3.96875,-0.66992 0.45571,-0.13757 0.90233,-0.30057 1.3125,-0.48714 0.41014,-0.19087 0.80011,-0.41671 1.1875,-0.66973 0.38735,-0.25312 0.73956,-0.52904 1.03125,-0.8221 0.2962,-0.29307 0.54946,-0.6102 0.75,-0.97429 0.2005,-0.36847 0.31573,-0.75731 0.375,-1.15696 0.1048,-0.73257 0.0742,-1.47605 -0.0625,-2.25304 -0.13674,-0.77699 -0.34572,-1.48744 -0.6875,-2.13125 -0.33726,-0.64819 -0.74937,-1.15882 -1.21875,-1.49193 -0.85223,-0.59938 -1.86916,-1.06304 -3.03125,-1.40044 -1.15757,-0.34187 -2.42319,-0.55505 -3.78125,-0.63942 z m 31.65625,6.15018 c -0.47853,0.13767 -0.98895,0.65209 -1.53125,1.52233 -0.53777,0.86584 -0.99676,1.94418 -1.375,3.22732 -0.27345,0.91914 -0.51303,1.80077 -0.75,2.64889 -0.23243,0.84802 -0.39975,1.4665 -0.5,1.85718 l -0.15625,0.57854 c 0.92967,0 1.75715,-0.0175 2.5,-0.0302 1.17121,-0.0224 2.02928,-0.0633 2.5625,-0.15228 -0.0684,-1.06996 -0.19273,-2.6748 -0.375,-4.81044 -0.18231,-2.14012 -0.31577,-3.76211 -0.375,-4.84103 z"
         style="fill:#474a00;fill-opacity:0.72445822" />
      <path
         id="path3012"
         d="m 361.625,886.6131 c -89.75208,0 -162.5,14.5736 -162.5,32.5443 0,17.97058 72.74792,32.54428 162.5,32.54428 89.75208,0 162.53125,-14.5737 162.53125,-32.54428 0,-17.9707 -72.77917,-32.5443 -162.53125,-32.5443 z m 24.9375,13.30223 c -0.0319,0.167 -0.0873,0.39646 -0.1875,0.68068 -0.10028,0.27966 -0.19013,0.57743 -0.28125,0.8662 -0.0912,0.28421 -0.17711,0.5807 -0.25,0.92797 -0.0729,0.34747 -0.10289,0.72513 -0.0937,1.14467 0.0136,0.41963 0.0644,0.87075 0.1875,1.29929 0.16404,0.57298 0.28448,1.08152 0.34375,1.57777 0.0638,0.49626 0.0631,0.99311 0.0312,1.48491 -0.0319,0.48725 -0.0697,0.95896 -0.15625,1.39206 -0.0866,0.42864 -0.21096,0.93836 -0.375,1.51579 -0.12763,-0.0902 -0.26109,-0.22679 -0.375,-0.37123 -0.11395,-0.14878 -0.2344,-0.29253 -0.34375,-0.46398 -0.1094,-0.17591 -0.21161,-0.36737 -0.34375,-0.55685 -0.13218,-0.18947 -0.3301,-0.37567 -0.5625,-0.58782 -0.22789,-0.21195 -0.48505,-0.4337 -0.78125,-0.61871 -1.00718,-0.61347 -2.10028,-1.01627 -3.3125,-1.23743 -1.21226,-0.2255 -2.36199,-0.19967 -3.4375,0.062 -0.64259,0.1669 -1.22137,0.40469 -1.75,0.71147 -0.52866,0.30233 -0.95769,0.62456 -1.28125,0.98995 -0.32358,0.36093 -0.55991,0.73413 -0.6875,1.14466 -0.12761,0.41053 -0.14519,0.80106 -0.0312,1.17545 0.12304,0.41509 0.30793,0.80631 0.53125,1.14467 0.2233,0.33836 0.4759,0.64 0.78125,0.89718 0.30533,0.2571 0.67447,0.473 1.09375,0.68049 0.42382,0.20759 0.89647,0.4035 1.375,0.55694 0.48306,0.14889 1.01431,0.27134 1.625,0.40211 0.56053,0.11732 1.13931,0.27461 1.75,0.46409 0.61522,0.18947 1.24542,0.43182 1.90625,0.71147 0.66079,0.2752 1.3268,0.60654 1.9375,0.98994 0.61521,0.37895 1.11196,0.7779 1.53125,1.20644 0.99347,1.01519 1.69334,2.19519 2.0625,3.55765 0.36912,1.35801 0.45831,2.94666 0.3125,4.7331 -0.0501,0.61366 -0.10614,1.14022 -0.15625,1.57777 -0.0501,0.4331 -0.0918,0.89134 -0.1875,1.39206 -0.0912,0.49635 -0.21617,0.94618 -0.34375,1.36116 -0.12763,0.41063 -0.30406,0.84373 -0.5,1.2994 -0.19599,0.45111 -0.41409,0.93193 -0.6875,1.39205 -0.2689,0.46013 -0.58205,0.92223 -0.9375,1.42304 -0.38739,0.52783 -0.79494,1.00409 -1.21875,1.39215 -0.42385,0.38796 -0.87893,0.69277 -1.34375,0.95896 -0.46486,0.26164 -0.95705,0.49171 -1.53125,0.6497 -0.56968,0.15789 -1.19272,0.26807 -1.8125,0.34024 -0.61981,0.0768 -1.3008,0.11919 -2.09375,0.12374 -0.56967,0.005 -1.10613,-0.0296 -1.59375,-0.0928 -0.48308,-0.0632 -0.96746,-0.1779 -1.46875,-0.34035 -0.50131,-0.1669 -1.01694,-0.40479 -1.5,-0.71157 -0.47852,-0.31123 -0.92384,-0.69345 -1.375,-1.14456 -0.44662,-0.44211 -0.81967,-0.88362 -1.125,-1.33028 -0.30534,-0.45113 -0.55404,-0.90095 -0.75,-1.36118 -0.19597,-0.46011 -0.38933,-0.93192 -0.5625,-1.39205 -0.17318,-0.46467 -0.40886,-1.02083 -0.71875,-1.67052 -0.3099,-0.65416 -0.66146,-1.32118 -1.0625,-1.97989 -0.16407,-0.27064 -0.36589,-0.50338 -0.59375,-0.74245 -0.22787,-0.23907 -0.44206,-0.46082 -0.65625,-0.61871 -0.21419,-0.1579 -0.46419,-0.31906 -0.6875,-0.49497 -0.22331,-0.17592 -0.41602,-0.34154 -0.59375,-0.49498 -0.17774,-0.15334 -0.32747,-0.31835 -0.46875,-0.52594 -0.14128,-0.21195 -0.25326,-0.44142 -0.3125,-0.68049 0.10937,-0.0181 0.4056,-0.0818 0.875,-0.18571 0.47396,-0.10376 0.85547,-0.16691 1.15625,-0.21651 0.30078,-0.0496 0.74284,-0.13988 1.3125,-0.2165 0.56966,-0.0767 1.222,-0.10958 1.9375,-0.15472 0.71549,-0.0451 1.52213,-0.10117 2.40625,-0.12375 1.82291,0.0406 2.96288,0.13405 3.46875,0.27847 0.3828,0.10821 0.59374,0.2958 0.59375,0.52587 -10e-6,0.20748 -0.19337,0.5601 -0.5625,1.05181 -0.0593,0.0812 -0.13217,0.16115 -0.21875,0.27847 -0.71551,0.94736 -1.13608,1.80901 -1.25,2.59858 -0.10938,0.78949 0.10155,1.48234 0.59375,2.04166 0.28254,0.3249 0.64647,0.57555 1.125,0.74246 0.48306,0.167 1.00194,0.21273 1.5625,0.1857 0.56509,-0.0271 1.10611,-0.16313 1.59375,-0.4022 0.26887,-0.13088 0.52603,-0.29194 0.78125,-0.49498 0.25975,-0.20749 0.52147,-0.47497 0.78125,-0.80432 0.25975,-0.32936 0.49152,-0.69029 0.6875,-1.0828 0.19595,-0.39697 0.34113,-0.85065 0.46875,-1.39205 0.13214,-0.5414 0.20962,-1.10596 0.21875,-1.70152 0.005,-0.36984 -0.008,-0.73591 -0.0625,-1.05171 -0.0547,-0.32033 -0.13218,-0.6091 -0.21875,-0.86619 -0.082,-0.25719 -0.22398,-0.47696 -0.40625,-0.71157 -0.18231,-0.23462 -0.35809,-0.46914 -0.53125,-0.6496 -0.16864,-0.18047 -0.40431,-0.36737 -0.71875,-0.55695 -0.31447,-0.18937 -0.61525,-0.32865 -0.875,-0.46398 -0.25522,-0.13532 -0.61134,-0.3145 -1.0625,-0.49497 -0.44663,-0.18492 -0.8366,-0.33766 -1.1875,-0.46398 -0.35092,-0.12632 -0.80079,-0.28748 -1.375,-0.49497 -0.83399,-0.29332 -1.58465,-0.58654 -2.25,-0.8662 -0.66082,-0.27975 -1.28256,-0.56783 -1.875,-0.89718 -0.59245,-0.32936 -1.12956,-0.669 -1.5625,-1.02092 -0.43295,-0.35639 -0.79688,-0.73405 -1.125,-1.14458 -0.32813,-0.41052 -0.58985,-0.86105 -0.78125,-1.33028 -0.28256,-0.69018 -0.48438,-1.46294 -0.59375,-2.32012 -0.10938,-0.86164 -0.13542,-1.72339 -0.0625,-2.59859 0.0775,-0.87521 0.25325,-1.74972 0.53125,-2.62958 0.28255,-0.87967 0.65559,-1.69171 1.125,-2.382 0.30533,-0.45112 0.63606,-0.86293 0.96875,-1.23743 0.33268,-0.37895 0.6582,-0.67929 1,-0.95905 0.34635,-0.28412 0.71614,-0.55674 1.0625,-0.77335 0.3509,-0.22104 0.70247,-0.38152 1.0625,-0.52585 0.36002,-0.14433 0.71158,-0.27649 1.0625,-0.37123 0.35546,-0.0947 0.72916,-0.14957 1.09375,-0.18571 0.36913,-0.0405 0.69856,-0.0618 1.03125,-0.0618 0.33723,0 0.68033,0.0212 1.03125,0.0618 0.65624,0.0723 1.2272,0.16572 1.6875,0.27847 0.46483,0.11285 0.82551,0.21849 1.0625,0.34024 0.23696,0.11741 0.40754,0.2276 0.5625,0.34035 0.15949,0.11285 0.32681,0.2366 0.5,0.34034 0.17316,0.0992 0.37954,0.14502 0.59375,0.18551 0.45571,0.0948 0.91014,0.0916 1.375,-0.0618 0.46938,-0.15344 1.04425,-0.51111 1.71875,-1.02092 0.34633,-0.2661 0.65948,-0.45627 0.9375,-0.61871 0.28253,-0.16691 0.52667,-0.29897 0.75,-0.37124 0.22328,-0.0722 0.41209,-0.11018 0.5625,-0.12374 0.15037,-0.018 0.31769,-0.0355 0.5,-0.031 z m 24.71875,0 c -0.0319,0.167 -0.0873,0.39646 -0.1875,0.68068 -0.10028,0.27966 -0.19013,0.57743 -0.28125,0.8662 -0.0912,0.28421 -0.17711,0.5807 -0.25,0.92797 -0.0729,0.34747 -0.10289,0.72513 -0.0937,1.14467 0.0136,0.41963 0.0644,0.87075 0.1875,1.29929 0.16404,0.57298 0.28448,1.08152 0.34375,1.57777 0.0638,0.49626 0.0944,0.99311 0.0625,1.48491 -0.0319,0.48725 -0.10093,0.95896 -0.1875,1.39206 -0.0866,0.42864 -0.21096,0.93836 -0.375,1.51579 -0.12763,-0.0902 -0.26109,-0.22679 -0.375,-0.37123 -0.11395,-0.14878 -0.2344,-0.29253 -0.34375,-0.46398 -0.1094,-0.17591 -0.21161,-0.36737 -0.34375,-0.55685 -0.13218,-0.18947 -0.3301,-0.37567 -0.5625,-0.58782 -0.22789,-0.21195 -0.48505,-0.4337 -0.78125,-0.61871 -1.00718,-0.61347 -2.10028,-1.01627 -3.3125,-1.23743 -1.21226,-0.2255 -2.36199,-0.19967 -3.4375,0.062 -0.64259,0.1669 -1.22137,0.40469 -1.75,0.71147 -0.52866,0.30233 -0.95769,0.62456 -1.28125,0.98995 -0.32358,0.36093 -0.55991,0.73413 -0.6875,1.14466 -0.12761,0.41053 -0.14519,0.80106 -0.0312,1.17545 0.12304,0.41509 0.30793,0.80631 0.53125,1.14467 0.2233,0.33836 0.4759,0.64 0.78125,0.89718 0.30533,0.2571 0.67447,0.473 1.09375,0.68049 0.42382,0.20759 0.89647,0.4035 1.375,0.55694 0.48306,0.14889 1.01431,0.27134 1.625,0.40211 0.56053,0.11732 1.13931,0.27461 1.75,0.46409 0.61522,0.18947 1.27667,0.43182 1.9375,0.71147 0.66079,0.2752 1.29555,0.60654 1.90625,0.98994 0.61521,0.37895 1.11196,0.7779 1.53125,1.20644 0.99347,1.01519 1.69334,2.19519 2.0625,3.55765 0.36912,1.35801 0.45831,2.94666 0.3125,4.7331 -0.0501,0.61366 -0.0749,1.14022 -0.125,1.57777 -0.0501,0.4331 -0.15432,0.89134 -0.25,1.39206 -0.0912,0.49635 -0.18492,0.94618 -0.3125,1.36116 -0.12763,0.41063 -0.30406,0.84373 -0.5,1.2994 -0.19599,0.45111 -0.41409,0.93193 -0.6875,1.39205 -0.2689,0.46013 -0.58205,0.92223 -0.9375,1.42304 -0.38739,0.52783 -0.79494,1.00409 -1.21875,1.39215 -0.42385,0.38796 -0.87893,0.69277 -1.34375,0.95896 -0.46486,0.26164 -0.9883,0.49171 -1.5625,0.6497 -0.56968,0.15789 -1.16147,0.26807 -1.78125,0.34024 -0.61981,0.0768 -1.3008,0.11919 -2.09375,0.12374 -0.56967,0.005 -1.10613,-0.0296 -1.59375,-0.0928 -0.48308,-0.0632 -0.96746,-0.1779 -1.46875,-0.34035 -0.50131,-0.1669 -1.01694,-0.40479 -1.5,-0.71157 -0.47852,-0.31123 -0.92384,-0.69345 -1.375,-1.14456 -0.44662,-0.44211 -0.81967,-0.88362 -1.125,-1.33028 -0.30534,-0.45113 -0.55404,-0.90095 -0.75,-1.36118 -0.19597,-0.46011 -0.38933,-0.93192 -0.5625,-1.39205 -0.17318,-0.46467 -0.40886,-1.02083 -0.71875,-1.67052 -0.3099,-0.65416 -0.66146,-1.32118 -1.0625,-1.97989 -0.16407,-0.27064 -0.36589,-0.50338 -0.59375,-0.74245 -0.22787,-0.23907 -0.47331,-0.46082 -0.6875,-0.61871 -0.21419,-0.1579 -0.40169,-0.31906 -0.625,-0.49497 -0.22331,-0.17592 -0.44727,-0.34154 -0.625,-0.49498 -0.17774,-0.15334 -0.32747,-0.31835 -0.46875,-0.52594 -0.14128,-0.21195 -0.25326,-0.44142 -0.3125,-0.68049 0.10937,-0.0181 0.4056,-0.0818 0.875,-0.18571 0.47396,-0.10376 0.85547,-0.16691 1.15625,-0.21651 0.30078,-0.0496 0.74284,-0.13988 1.3125,-0.2165 0.56966,-0.0767 1.222,-0.10958 1.9375,-0.15472 0.71549,-0.0451 1.52213,-0.10117 2.40625,-0.12375 1.82291,0.0406 2.96288,0.13405 3.46875,0.27847 0.3828,0.10821 0.59374,0.2958 0.59375,0.52587 -10e-6,0.20748 -0.19337,0.5601 -0.5625,1.05181 -0.0593,0.0812 -0.13217,0.16115 -0.21875,0.27847 -0.71551,0.94736 -1.13608,1.80901 -1.25,2.59858 -0.10938,0.78949 0.10155,1.48234 0.59375,2.04166 0.28254,0.3249 0.64647,0.57555 1.125,0.74246 0.48306,0.167 1.00194,0.21273 1.5625,0.1857 0.56509,-0.0271 1.10611,-0.16313 1.59375,-0.4022 0.26887,-0.13088 0.52603,-0.29194 0.78125,-0.49498 0.25975,-0.20749 0.52147,-0.47497 0.78125,-0.80432 0.25975,-0.32936 0.49152,-0.69029 0.6875,-1.0828 0.19595,-0.39697 0.34113,-0.85065 0.46875,-1.39205 0.13214,-0.5414 0.20962,-1.10596 0.21875,-1.70152 0.005,-0.36984 -0.008,-0.73591 -0.0625,-1.05171 -0.0547,-0.32033 -0.13218,-0.6091 -0.21875,-0.86619 -0.082,-0.25719 -0.22398,-0.47696 -0.40625,-0.71157 -0.18231,-0.23462 -0.35809,-0.46914 -0.53125,-0.6496 -0.16864,-0.18047 -0.40431,-0.36737 -0.71875,-0.55695 -0.31447,-0.18937 -0.61525,-0.32865 -0.875,-0.46398 -0.25522,-0.13532 -0.61134,-0.3145 -1.0625,-0.49497 -0.44663,-0.18492 -0.8366,-0.33766 -1.1875,-0.46398 -0.35092,-0.12632 -0.80079,-0.28748 -1.375,-0.49497 -0.83399,-0.29332 -1.58465,-0.58654 -2.25,-0.8662 -0.66082,-0.27975 -1.28256,-0.56783 -1.875,-0.89718 -0.59245,-0.32936 -1.12956,-0.669 -1.5625,-1.02092 -0.43295,-0.35639 -0.79688,-0.73405 -1.125,-1.14458 -0.32813,-0.41052 -0.58985,-0.86105 -0.78125,-1.33028 -0.28256,-0.69018 -0.48438,-1.46294 -0.59375,-2.32012 -0.10938,-0.86164 -0.13542,-1.72339 -0.0625,-2.59859 0.0775,-0.87521 0.25325,-1.74972 0.53125,-2.62958 0.28255,-0.87967 0.65559,-1.69171 1.125,-2.382 0.30533,-0.45112 0.63606,-0.86293 0.96875,-1.23743 0.33268,-0.37895 0.6582,-0.67929 1,-0.95905 0.34635,-0.28412 0.71614,-0.55674 1.0625,-0.77335 0.3509,-0.22104 0.70247,-0.38152 1.0625,-0.52585 0.36002,-0.14433 0.71158,-0.27649 1.0625,-0.37123 0.35546,-0.0947 0.72916,-0.14957 1.09375,-0.18571 0.36913,-0.0405 0.69856,-0.0618 1.03125,-0.0618 0.33723,0 0.68033,0.0212 1.03125,0.0618 0.65624,0.0723 1.2272,0.16572 1.6875,0.27847 0.46483,0.11285 0.82551,0.21849 1.0625,0.34024 0.23696,0.11741 0.40754,0.2276 0.5625,0.34035 0.15949,0.11285 0.32681,0.2366 0.5,0.34034 0.17316,0.0992 0.37954,0.14502 0.59375,0.18551 0.45571,0.0948 0.91014,0.0916 1.375,-0.0618 0.46938,-0.15344 1.04425,-0.51111 1.71875,-1.02092 0.34633,-0.2661 0.65948,-0.45627 0.9375,-0.61871 0.28253,-0.16691 0.52667,-0.29897 0.75,-0.37124 0.22328,-0.0722 0.41209,-0.11018 0.5625,-0.12374 0.15037,-0.018 0.31769,-0.0355 0.5,-0.031 z m -101.125,1.88712 c 0.15495,0 0.43359,0.0251 0.84375,0.0928 0.41471,0.0677 0.86002,0.13088 1.375,0.21661 0.51953,0.0857 1.25325,0.18373 2.1875,0.27837 0.93424,0.0948 1.92968,0.17155 2.96875,0.21659 4.81704,0.21205 8.50584,1.03965 11.0625,2.50574 1.12107,0.64524 2.10349,1.40116 2.9375,2.25836 0.83852,0.85719 1.54946,1.83357 2.1875,2.93883 0.55141,0.96103 0.96417,1.84912 1.1875,2.62958 0.22328,0.78047 0.33461,1.62152 0.34375,2.50583 -3e-5,0.44657 -0.0521,0.85333 -0.125,1.26832 -0.0729,0.41508 -0.15823,0.81917 -0.28125,1.17555 -0.12307,0.35193 -0.27737,0.67801 -0.46875,1.02093 -0.19143,0.34281 -0.40627,0.67474 -0.625,0.95895 -0.21422,0.28422 -0.46291,0.55111 -0.75,0.83522 -0.28713,0.2843 -0.57034,0.54338 -0.84375,0.77343 -0.27346,0.23007 -0.59117,0.46795 -0.9375,0.71148 -0.34638,0.23917 -0.66799,0.45577 -0.96875,0.64969 -0.3008,0.18948 -0.62177,0.40667 -1,0.61872 -0.25067,0.14888 -0.50783,0.27134 -0.78125,0.40221 -0.27346,0.13077 -0.59182,0.25838 -0.90625,0.37123 -0.31447,0.11275 -0.57945,0.21907 -0.84375,0.30926 -0.26434,0.0903 -0.59963,0.18373 -0.96875,0.27847 l -0.90625,0.24748 c -0.24155,0.0587 -0.5853,0.10444 -1,0.18562 -0.41017,0.0811 -0.72332,0.14502 -0.9375,0.18561 -0.20965,0.0406 -0.52215,0.10444 -0.96875,0.18561 -0.44663,0.0812 -0.76434,0.1276 -0.9375,0.15463 -10e-6,1.96701 0.12043,3.67882 0.34375,5.10443 0.22785,1.42562 0.55728,2.64374 1.03125,3.68129 0.15949,0.34747 0.52928,0.9249 1.0625,1.7324 0.53319,0.80304 0.8548,1.30454 0.96875,1.48491 -0.21421,0.0903 -0.3991,0.167 -0.53125,0.2166 -0.13218,0.0451 -0.29494,0.0915 -0.5,0.15462 -0.20509,0.0677 -0.41603,0.1186 -0.59375,0.15473 -0.17319,0.0406 -0.36981,0.0831 -0.625,0.12375 -0.25522,0.0451 -0.53452,0.0747 -0.8125,0.0928 -0.27801,0.0181 -0.57749,0.0484 -0.9375,0.062 -0.36004,0.0134 -0.78126,0.005 -1.21875,0 -0.43751,-10e-5 -0.90886,-0.0174 -1.4375,-0.031 -0.74285,-0.0226 -1.41212,-0.0471 -2,-0.12374 -0.5879,-0.0722 -1.04688,-0.17077 -1.375,-0.24749 -0.32357,-0.0722 -0.65821,-0.13146 -1,-0.18561 -0.33724,-0.0586 -0.71875,-0.0664 -1.15625,-0.0619 -0.43295,0 -0.95638,0.0335 -1.5625,0.12374 0.12305,-0.29322 0.29101,-0.591 0.46875,-0.8662 0.17773,-0.27975 0.36653,-0.53427 0.5625,-0.77344 0.20052,-0.23907 0.38867,-0.4633 0.59375,-0.71147 0.20507,-0.25263 0.42382,-0.55882 0.65625,-0.89719 0.23242,-0.33826 0.43815,-0.70374 0.625,-1.08269 0.34635,-0.68573 0.62955,-1.35662 0.84375,-2.01087 0.21874,-0.6586 0.39908,-1.38433 0.53125,-2.19637 0.13671,-0.81661 0.22721,-1.75042 0.25,-2.8151 0.0228,-1.06924 -0.0124,-2.27963 -0.0625,-3.61952 -0.0501,-1.34444 -0.13998,-2.95369 -0.28125,-4.82596 -0.13217,-1.7414 -0.27735,-3.30433 -0.46875,-4.67123 -0.19141,-1.37146 -0.41081,-2.51742 -0.625,-3.4648 -0.2142,-0.94746 -0.48047,-1.80069 -0.78125,-2.5677 -0.29623,-0.76691 -0.58789,-1.42176 -0.875,-1.91801 -0.28255,-0.49626 -0.60808,-0.97509 -1,-1.48491 -0.82031,-1.06013 -1.28776,-1.73171 -1.40625,-1.97989 -0.0912,-0.18946 -0.0742,-0.2951 0.0625,-0.34024 0.0592,-0.018 0.20573,-0.0264 0.40625,-0.031 z m 44.0625,1.2993 c 0.29621,-0.0226 0.55467,0.003 0.71875,0.0619 0.16404,0.0542 0.27928,0.1476 0.375,0.27847 0.19594,0.25263 0.40232,0.96222 0.59375,2.10362 0.19594,1.13685 0.33657,2.54118 0.46875,4.26902 0.2962,3.92957 0.83266,8.35846 1.59375,13.27144 0.19594,1.28128 0.38865,2.4401 0.59375,3.49578 0.20506,1.05567 0.46743,2.16866 0.75,3.31006 0.28709,1.13684 0.61716,2.25835 1,3.34105 0.38279,1.07824 0.80271,2.11392 1.28125,3.12455 0.19138,0.40597 0.43617,0.81333 0.71875,1.23742 0.28708,0.41954 0.56182,0.77592 0.8125,1.0827 0.25518,0.30679 0.54229,0.67217 0.875,1.0827 0.33721,0.41508 0.62953,0.78057 0.84375,1.08279 0.0729,0.10375 0.0722,0.21849 0.0312,0.34035 -0.0365,0.12632 -0.10485,0.21135 -0.21875,0.24748 -0.19599,0.0586 -0.47919,0.0792 -0.84375,0.0928 -0.36005,0.0135 -0.67711,0.018 -0.96875,0 -0.28714,-0.018 -0.65172,-0.0522 -1.09375,-0.0928 -0.44208,-0.0407 -0.74742,-0.0484 -0.875,-0.062 -1.21226,-0.0766 -2.27997,-0.0947 -3.21875,0 -0.93882,0.0993 -2.10158,0.29906 -3.46875,0.58783 -0.36916,0.0767 -0.8021,0.20878 -1.3125,0.37122 -0.50588,0.16691 -0.88739,0.29838 -1.15625,0.40212 -0.15952,0.0587 -0.35223,0.0968 -0.59375,0.12374 -0.24155,0.0316 -0.40431,0.0142 -0.5,-0.0309 -0.28257,-0.18047 -0.22788,-0.59228 0.21875,-1.23743 l 1.34375,-1.85614 c 1.23045,-1.80456 1.81704,-3.79602 1.8125,-5.97053 -0.005,-1.00162 -0.0384,-1.97859 -0.125,-2.90804 -0.0866,-0.93382 -0.19403,-1.6337 -0.3125,-2.13452 -0.60158,-0.0993 -1.16799,-0.16759 -1.6875,-0.18561 -0.51499,-0.0226 -1.1797,-0.018 -2,0 -0.51499,0.0135 -1.05079,0.0638 -1.625,0.18561 -0.56967,0.12187 -0.90366,0.26679 -1.03125,0.40212 -0.25978,0.2753 -0.38478,0.77601 -0.34375,1.51589 0.0182,0.32936 0.0443,0.60129 0.0625,0.80433 0.0228,0.20304 0.0703,0.4531 0.125,0.77334 0.0547,0.32035 0.10546,0.61812 0.1875,0.8662 0.082,0.24818 0.19791,0.5021 0.34375,0.80442 0.15038,0.30224 0.32616,0.61288 0.53125,0.89709 0.15038,0.20749 0.30077,0.38539 0.4375,0.55684 0.13671,0.17146 0.25715,0.29837 0.34375,0.40222 0.0866,0.0992 0.17186,0.23193 0.28125,0.34024 0.10936,0.1083 0.18228,0.15403 0.21875,0.18561 0.0365,0.0316 0.0918,0.10889 0.1875,0.18562 0.0957,0.0767 0.17381,0.11473 0.1875,0.12373 0.15493,0.13088 0.1673,0.31778 0.0625,0.55685 -0.0365,0.0811 -0.1478,0.13988 -0.34375,0.2166 -0.19598,0.0766 -0.45835,0.13591 -0.75,0.18551 -0.41017,0.0723 -1.23699,0.14057 -2.53125,0.18571 -1.28972,0.045 -2.45704,0.0322 -3.46875,-0.031 -0.92969,-0.0677 -1.73178,-0.13087 -2.40625,-0.2165 -0.66993,-0.0903 -1.21029,-0.20116 -1.625,-0.30946 -0.41472,-0.11275 -0.72331,-0.19719 -0.9375,-0.27836 -0.21419,-0.0857 -0.42839,-0.21394 -0.65625,-0.34035 -0.0365,-0.018 -0.071,-0.0509 -0.0937,-0.15463 -0.0182,-0.1083 -0.0182,-0.2655 0,-0.46408 0.0182,-0.20293 0.0566,-0.43696 0.125,-0.68048 0.0684,-0.24363 0.17513,-0.5414 0.34375,-0.8662 0.17318,-0.32491 0.40104,-0.63426 0.65625,-0.95906 0.25976,-0.3248 0.59896,-0.71088 1,-1.17555 0.40104,-0.46468 0.70507,-0.83392 0.9375,-1.11368 0.23697,-0.28422 0.50325,-0.64515 0.78125,-1.08271 0.28255,-0.43765 0.52278,-0.89649 0.71875,-1.36116 0.51497,-1.21812 1.02994,-2.54771 1.53125,-3.95976 0.50129,-1.41216 0.87825,-2.68115 1.15625,-3.83602 0.98892,-4.15052 1.45637,-7.32724 1.40625,-9.49729 -0.005,-0.19393 -0.0221,-0.35896 -0.0312,-0.52586 -0.009,-0.16691 -0.004,-0.32421 -0.0312,-0.46408 -0.0228,-0.14433 -0.071,-0.26293 -0.0937,-0.37123 -0.0228,-0.11275 -0.0436,-0.23649 -0.0937,-0.34034 -0.0456,-0.10365 -0.0885,-0.17522 -0.125,-0.24748 -0.0319,-0.0766 -0.0833,-0.16167 -0.15625,-0.24749 -0.0684,-0.0856 -0.11069,-0.16681 -0.15625,-0.21651 -0.041,-0.0542 -0.1185,-0.10888 -0.21875,-0.18561 -0.10027,-0.0812 -0.19076,-0.14047 -0.25,-0.18561 -0.0593,-0.0496 -0.15821,-0.12177 -0.28125,-0.2165 -0.0182,-0.0135 -0.0267,-0.0264 -0.0312,-0.031 -0.22787,-0.17136 -0.49415,-0.3241 -0.78125,-0.46398 -0.28256,-0.13988 -0.59115,-0.2759 -0.9375,-0.40222 -0.34636,-0.13077 -0.54297,-0.20689 -0.625,-0.24748 -0.17774,-0.0811 -0.34506,-0.20106 -0.5,-0.30935 -0.1504,-0.1082 -0.2754,-0.19265 -0.34375,-0.27837 -0.0684,-0.0903 -0.0632,-0.14504 -0.0312,-0.18572 0.0592,-0.0811 0.11914,-0.15334 0.1875,-0.2165 0.0684,-0.0676 0.1621,-0.15275 0.3125,-0.24749 0.15494,-0.0947 0.33984,-0.18877 0.53125,-0.24748 0.1914,-0.0586 0.43098,-0.10949 0.75,-0.15472 0.319,-0.045 0.67057,-0.0618 1.0625,-0.0618 0.58788,0 1.06835,0.0135 1.4375,0 0.36913,-0.018 0.81119,-0.0696 1.3125,-0.12375 0.50129,-0.0542 0.98241,-0.1173 1.40625,-0.21659 0.42837,-0.10374 0.9173,-0.24808 1.46875,-0.4331 0.55598,-0.18948 1.12108,-0.44081 1.75,-0.71147 0.69725,-0.30232 1.31118,-0.52269 1.8125,-0.68069 0.50584,-0.16234 0.89126,-0.26025 1.1875,-0.27836 z m -33.5,5.10433 c -0.53777,-0.0361 -0.86329,0.19788 -1,0.68068 -0.11394,0.41053 -0.097,1.17941 0.0625,2.28914 0.0365,0.23916 0.1009,0.60782 0.1875,1.14467 0.15949,0.98806 0.27538,1.75625 0.34375,2.32012 0.13671,1.08736 0.24413,2.09858 0.3125,3.00081 0.0729,0.89777 0.0976,1.61063 0.125,2.16549 0.0319,0.55497 0.0794,0.98807 0.125,1.2993 1.61783,-0.13533 2.94334,-0.35579 3.96875,-0.68059 0.45571,-0.13987 0.90233,-0.30549 1.3125,-0.49496 0.41014,-0.19393 0.80011,-0.4234 1.1875,-0.68059 0.38735,-0.25709 0.73956,-0.53744 1.03125,-0.83521 0.2962,-0.29778 0.51821,-0.62 0.71875,-0.98994 0.2005,-0.3745 0.34698,-0.76958 0.40625,-1.17565 0.1048,-0.74434 0.0742,-1.49966 -0.0625,-2.28915 -0.13674,-0.78957 -0.37697,-1.51134 -0.71875,-2.16559 -0.33726,-0.6586 -0.71812,-1.17744 -1.1875,-1.5158 -0.85223,-0.609 -1.86916,-1.08012 -3.03125,-1.42303 -1.15757,-0.34737 -2.42319,-0.56388 -3.78125,-0.6497 z m 31.65625,6.2491 c -0.47853,0.13978 -0.98895,0.66247 -1.53125,1.54668 -0.53777,0.87976 -0.99676,1.97542 -1.375,3.27927 -0.27345,0.93382 -0.51303,1.82971 -0.75,2.69136 -0.23243,0.86174 -0.39975,1.49006 -0.5,1.88712 l -0.15625,0.58772 c 0.92967,0 1.75715,-0.0174 2.5,-0.031 1.17121,-0.0225 2.02928,-0.0643 2.5625,-0.15463 -0.0684,-1.08725 -0.19273,-2.71778 -0.375,-4.88783 -0.18231,-2.1745 -0.31577,-3.82245 -0.375,-4.91871 z"
         style="fill:#d5dc27;fill-opacity:1"
         inkscape:connector-curvature="0" />
      <path
         inkscape:connector-curvature="0"
         style="fill:url(#linearGradient5733);fill-opacity:1;filter:url(#filter4666)"
         d="m 361.62531,885.36019 c -87.96601,0 -159.26625,14.42874 -159.26625,32.22079 0,17.79195 71.30024,32.22079 159.26625,32.22079 87.96602,0 159.29688,-14.42884 159.29688,-32.22079 0,-17.79205 -71.33086,-32.22079 -159.29688,-32.22079 z m 24.44124,13.17 c -0.0313,0.16534 -0.0855,0.39253 -0.18376,0.67392 -0.0983,0.27687 -0.18635,0.57169 -0.27566,0.85758 -0.0894,0.28139 -0.17358,0.57493 -0.24502,0.91875 -0.0715,0.34402 -0.10084,0.71792 -0.0919,1.13328 0.0134,0.41547 0.0631,0.86211 0.18376,1.28639 0.16078,0.56728 0.27882,1.07076 0.33691,1.56208 0.0626,0.49133 0.0619,0.98324 0.0306,1.47015 -0.0313,0.48241 -0.0683,0.94942 -0.15314,1.37822 -0.0849,0.42438 -0.20677,0.92904 -0.36754,1.50073 -0.12509,-0.0893 -0.2559,-0.22454 -0.36754,-0.36754 -0.11168,-0.14731 -0.22973,-0.28962 -0.33691,-0.45938 -0.10721,-0.17416 -0.20739,-0.36371 -0.3369,-0.5513 -0.12955,-0.18759 -0.32354,-0.37195 -0.55131,-0.58198 -0.22336,-0.20984 -0.4754,-0.42938 -0.7657,-0.61256 -0.98714,-0.60738 -2.05849,-1.00618 -3.24659,-1.22513 -1.18813,-0.22327 -2.31498,-0.19769 -3.36909,0.0614 -0.6298,0.16525 -1.19706,0.40067 -1.71517,0.7044 -0.51815,0.29933 -0.93864,0.61834 -1.25576,0.9801 -0.31714,0.35735 -0.54876,0.72685 -0.67382,1.13329 -0.12507,0.40645 -0.14229,0.7931 -0.0306,1.16378 0.12059,0.41095 0.3018,0.79828 0.52067,1.13328 0.21886,0.33501 0.46643,0.63364 0.76571,0.88827 0.29925,0.25453 0.66105,0.46829 1.07198,0.67372 0.41539,0.20553 0.87863,0.39949 1.34764,0.5514 0.47344,0.14741 0.99412,0.26865 1.59266,0.39812 0.54938,0.11614 1.11664,0.27187 1.71517,0.45947 0.60298,0.18759 1.22064,0.42752 1.86832,0.70439 0.64764,0.27247 1.3004,0.60052 1.89895,0.9801 0.60296,0.37518 1.08983,0.77017 1.50077,1.19446 0.9737,1.00509 1.65965,2.17337 2.02146,3.52228 0.36178,1.3445 0.44919,2.91736 0.30628,4.68606 -0.0491,0.60756 -0.10403,1.12887 -0.15314,1.56208 -0.0491,0.42879 -0.09,0.88247 -0.18377,1.37822 -0.0894,0.49141 -0.21187,0.93677 -0.33691,1.34763 -0.12509,0.40655 -0.29801,0.83534 -0.49005,1.28648 -0.19209,0.44663 -0.40585,0.92267 -0.67382,1.37822 -0.26355,0.45555 -0.57047,0.91306 -0.91884,1.40889 -0.37968,0.52259 -0.77912,0.99412 -1.19449,1.37831 -0.41543,0.3841 -0.86144,0.68588 -1.31702,0.94942 -0.45561,0.25905 -0.938,0.48683 -1.50077,0.64325 -0.55835,0.15632 -1.16899,0.26541 -1.77644,0.33685 -0.60747,0.0759 -1.27491,0.11801 -2.05208,0.12252 -0.55834,0.005 -1.08412,-0.0293 -1.56203,-0.0919 -0.47347,-0.0627 -0.94821,-0.17613 -1.43953,-0.33696 -0.49133,-0.16525 -0.9967,-0.40076 -1.47015,-0.7045 -0.46899,-0.30814 -0.90545,-0.68656 -1.34764,-1.13319 -0.43773,-0.43772 -0.80335,-0.87484 -1.10261,-1.31706 -0.29926,-0.44663 -0.54301,-0.89199 -0.73507,-1.34763 -0.19207,-0.45556 -0.38158,-0.92267 -0.55131,-1.37822 -0.16973,-0.46006 -0.40072,-1.01068 -0.70444,-1.65392 -0.30374,-0.64765 -0.6483,-1.30804 -1.04136,-1.96021 -0.16081,-0.26795 -0.35861,-0.49837 -0.58193,-0.73507 -0.22334,-0.23669 -0.43327,-0.45623 -0.6432,-0.61256 -0.20993,-0.15632 -0.45495,-0.31588 -0.67381,-0.49005 -0.21887,-0.17416 -0.40774,-0.33814 -0.58194,-0.49005 -0.1742,-0.15182 -0.32095,-0.3152 -0.45942,-0.52072 -0.13847,-0.20984 -0.24822,-0.43704 -0.30628,-0.67373 0.10719,-0.0179 0.39753,-0.0811 0.85759,-0.18386 0.46453,-0.10272 0.83844,-0.16525 1.13323,-0.21435 0.29481,-0.0491 0.72806,-0.13849 1.28639,-0.21435 0.55832,-0.0759 1.19768,-0.10849 1.89894,-0.15319 0.70125,-0.0446 1.49184,-0.10017 2.35837,-0.12251 1.78663,0.0402 2.90391,0.1327 3.39972,0.2757 0.37519,0.10713 0.58193,0.29285 0.58194,0.52063 -1e-5,0.20543 -0.18953,0.55454 -0.55131,1.04135 -0.0581,0.0804 -0.12955,0.15956 -0.2144,0.27571 -0.70127,0.93795 -1.11347,1.79104 -1.22512,2.57276 -0.10721,0.78162 0.0995,1.46761 0.58193,2.02136 0.27692,0.32166 0.63361,0.56983 1.10261,0.73508 0.47345,0.16534 0.982,0.21062 1.53141,0.18386 0.55384,-0.0268 1.08409,-0.16152 1.56203,-0.39822 0.26352,-0.12957 0.51557,-0.28903 0.76571,-0.49005 0.25458,-0.20542 0.51109,-0.47025 0.7657,-0.79632 0.25458,-0.32609 0.48174,-0.68343 0.67382,-1.07204 0.19205,-0.39302 0.33434,-0.8422 0.45942,-1.37821 0.12951,-0.53602 0.20544,-1.09497 0.21439,-1.6846 0.005,-0.36617 -0.008,-0.72861 -0.0613,-1.04126 -0.0536,-0.31716 -0.12955,-0.60306 -0.21439,-0.85759 -0.0804,-0.25463 -0.21953,-0.47221 -0.39817,-0.70449 -0.17869,-0.23228 -0.35097,-0.46447 -0.52068,-0.64314 -0.16528,-0.17868 -0.39627,-0.36372 -0.70445,-0.55141 -0.30821,-0.18749 -0.603,-0.32539 -0.85758,-0.45937 -0.25015,-0.13398 -0.59918,-0.31138 -1.04136,-0.49005 -0.43774,-0.18309 -0.81995,-0.33432 -1.16387,-0.45937 -0.34393,-0.12506 -0.78485,-0.28463 -1.34764,-0.49005 -0.81739,-0.29041 -1.55312,-0.58072 -2.20522,-0.85759 -0.64767,-0.27697 -1.25704,-0.56218 -1.83769,-0.88827 -0.58066,-0.32608 -1.10709,-0.66235 -1.53141,-1.01077 -0.42433,-0.35284 -0.78102,-0.72675 -1.10261,-1.13319 -0.3216,-0.40646 -0.57811,-0.85249 -0.7657,-1.31706 -0.27694,-0.68333 -0.47474,-1.4484 -0.58194,-2.29707 -0.1072,-0.85307 -0.13272,-1.70625 -0.0613,-2.57276 0.0759,-0.86651 0.24821,-1.73232 0.52068,-2.60343 0.27692,-0.87093 0.64254,-1.6749 1.10261,-2.35832 0.29925,-0.44664 0.62341,-0.85436 0.94947,-1.22513 0.32606,-0.37518 0.64511,-0.67254 0.9801,-0.94952 0.33945,-0.28128 0.70189,-0.55121 1.04135,-0.76565 0.34392,-0.21886 0.6885,-0.37774 1.04136,-0.52063 0.35286,-0.1429 0.69742,-0.27375 1.04136,-0.36754 0.34839,-0.0937 0.71465,-0.14809 1.07199,-0.18386 0.36177,-0.0401 0.68465,-0.0612 1.01072,-0.0612 0.33052,0 0.66679,0.0211 1.01073,0.0612 0.64318,0.0716 1.20278,0.16406 1.65392,0.27569 0.45558,0.11173 0.80908,0.21632 1.04135,0.33687 0.23225,0.11624 0.39944,0.22532 0.55132,0.33696 0.15631,0.11173 0.3203,0.23424 0.49005,0.33695 0.1697,0.0982 0.37198,0.14358 0.58193,0.18368 0.44664,0.0938 0.89203,0.0907 1.34763,-0.0612 0.46004,-0.15192 1.02348,-0.50603 1.68455,-1.01078 0.33944,-0.26345 0.64636,-0.45173 0.91885,-0.61257 0.2769,-0.16524 0.51618,-0.29599 0.73507,-0.36753 0.21883,-0.0715 0.40388,-0.10908 0.5513,-0.12252 0.14739,-0.0178 0.31137,-0.035 0.49005,-0.0307 z m 24.22685,0 c -0.0313,0.16534 -0.0855,0.39253 -0.18377,0.67392 -0.0983,0.27687 -0.18634,0.57169 -0.27565,0.85758 -0.0894,0.28139 -0.17359,0.57493 -0.24503,0.91875 -0.0715,0.34402 -0.10084,0.71792 -0.0919,1.13328 0.0134,0.41547 0.0631,0.86211 0.18377,1.28639 0.16077,0.56728 0.27882,1.07076 0.33691,1.56208 0.0626,0.49133 0.0926,0.98324 0.0613,1.47015 -0.0313,0.48241 -0.0989,0.94942 -0.18376,1.37822 -0.0848,0.42438 -0.20676,0.92904 -0.36754,1.50073 -0.12509,-0.0893 -0.25589,-0.22454 -0.36754,-0.36754 -0.11168,-0.14731 -0.22974,-0.28962 -0.33691,-0.45938 -0.10722,-0.17416 -0.2074,-0.36371 -0.33691,-0.5513 -0.12955,-0.18759 -0.32353,-0.37195 -0.5513,-0.58198 -0.22336,-0.20984 -0.4754,-0.42938 -0.76571,-0.61256 -0.98714,-0.60738 -2.05848,-1.00618 -3.24658,-1.22513 -1.18813,-0.22327 -2.31499,-0.19769 -3.36909,0.0614 -0.62981,0.16525 -1.19707,0.40067 -1.71518,0.7044 -0.51814,0.29933 -0.93863,0.61834 -1.25575,0.9801 -0.31714,0.35735 -0.54877,0.72685 -0.67382,1.13329 -0.12507,0.40645 -0.1423,0.7931 -0.0306,1.16378 0.1206,0.41095 0.3018,0.79828 0.52068,1.13328 0.21885,0.33501 0.46643,0.63364 0.7657,0.88827 0.29926,0.25453 0.66105,0.46829 1.07199,0.67372 0.41539,0.20553 0.87863,0.39949 1.34764,0.5514 0.47344,0.14741 0.99412,0.26865 1.59266,0.39812 0.54937,0.11614 1.11663,0.27187 1.71518,0.45947 0.60297,0.18759 1.25126,0.42752 1.89894,0.70439 0.64763,0.27247 1.26976,0.60052 1.86831,0.9801 0.60297,0.37518 1.08983,0.77017 1.50078,1.19446 0.9737,1.00509 1.65964,2.17337 2.02146,3.52228 0.36177,1.3445 0.44919,2.91736 0.30628,4.68606 -0.0491,0.60756 -0.0735,1.12887 -0.12251,1.56208 -0.0491,0.42879 -0.15125,0.88247 -0.24503,1.37822 -0.0894,0.49141 -0.18125,0.93677 -0.30628,1.34763 -0.12509,0.40655 -0.29801,0.83534 -0.49005,1.28648 -0.19209,0.44663 -0.40585,0.92267 -0.67382,1.37822 -0.26355,0.45555 -0.57046,0.91306 -0.91884,1.40889 -0.37969,0.52259 -0.77912,0.99412 -1.1945,1.37831 -0.41541,0.3841 -0.86144,0.68588 -1.31701,0.94942 -0.45561,0.25905 -0.96863,0.48683 -1.53141,0.64325 -0.55834,0.15632 -1.13836,0.26541 -1.7458,0.33685 -0.60748,0.0759 -1.27492,0.11801 -2.05208,0.12252 -0.55834,0.005 -1.08412,-0.0293 -1.56204,-0.0919 -0.47346,-0.0627 -0.94821,-0.17613 -1.43952,-0.33696 -0.49133,-0.16525 -0.99671,-0.40076 -1.47015,-0.7045 -0.469,-0.30814 -0.90546,-0.68656 -1.34763,-1.13319 -0.43774,-0.43772 -0.80337,-0.87484 -1.10262,-1.31706 -0.29926,-0.44663 -0.54301,-0.89199 -0.73507,-1.34763 -0.19208,-0.45556 -0.38159,-0.92267 -0.55131,-1.37822 -0.16974,-0.46006 -0.40072,-1.01068 -0.70445,-1.65392 -0.30373,-0.64765 -0.6483,-1.30804 -1.04136,-1.96021 -0.1608,-0.26795 -0.35861,-0.49837 -0.58193,-0.73507 -0.22333,-0.23669 -0.46389,-0.45623 -0.67381,-0.61256 -0.20993,-0.15632 -0.39371,-0.31588 -0.61257,-0.49005 -0.21887,-0.17416 -0.43837,-0.33814 -0.61256,-0.49005 -0.17421,-0.15182 -0.32096,-0.3152 -0.45943,-0.52072 -0.13846,-0.20984 -0.24821,-0.43704 -0.30627,-0.67373 0.10718,-0.0179 0.39752,-0.0811 0.85758,-0.18386 0.46453,-0.10272 0.83844,-0.16525 1.13325,-0.21435 0.29479,-0.0491 0.72805,-0.13849 1.28637,-0.21435 0.55832,-0.0759 1.19768,-0.10849 1.89895,-0.15319 0.70125,-0.0446 1.49183,-0.10017 2.35836,-0.12251 1.78663,0.0402 2.90392,0.1327 3.39973,0.2757 0.37518,0.10713 0.58192,0.29285 0.58193,0.52063 -10e-6,0.20543 -0.18952,0.55454 -0.55131,1.04135 -0.0581,0.0804 -0.12954,0.15956 -0.21439,0.27571 -0.70127,0.93795 -1.11348,1.79104 -1.22513,2.57276 -0.10721,0.78162 0.0995,1.46761 0.58193,2.02136 0.27692,0.32166 0.63361,0.56983 1.10261,0.73508 0.47345,0.16534 0.98201,0.21062 1.53142,0.18386 0.55384,-0.0268 1.0841,-0.16152 1.56203,-0.39822 0.26352,-0.12957 0.51556,-0.28903 0.7657,-0.49005 0.25458,-0.20542 0.51109,-0.47025 0.76571,-0.79632 0.25458,-0.32609 0.48173,-0.68343 0.67381,-1.07204 0.19205,-0.39302 0.33435,-0.8422 0.45942,-1.37821 0.12951,-0.53602 0.20546,-1.09497 0.21441,-1.6846 0.005,-0.36617 -0.008,-0.72861 -0.0613,-1.04126 -0.0537,-0.31716 -0.12956,-0.60306 -0.2144,-0.85759 -0.0804,-0.25463 -0.21952,-0.47221 -0.39817,-0.70449 -0.17868,-0.23228 -0.35096,-0.46447 -0.52068,-0.64314 -0.16528,-0.17868 -0.39626,-0.36372 -0.70444,-0.55141 -0.30822,-0.18749 -0.60301,-0.32539 -0.85759,-0.45937 -0.25014,-0.13398 -0.59918,-0.31138 -1.04135,-0.49005 -0.43775,-0.18309 -0.81996,-0.33432 -1.16387,-0.45937 -0.34394,-0.12506 -0.78486,-0.28463 -1.34764,-0.49005 -0.8174,-0.29041 -1.55311,-0.58072 -2.20523,-0.85759 -0.64767,-0.27697 -1.25703,-0.56218 -1.83768,-0.88827 -0.58067,-0.32608 -1.10708,-0.66235 -1.53141,-1.01077 -0.42434,-0.35284 -0.78103,-0.72675 -1.10261,-1.13319 -0.3216,-0.40646 -0.57812,-0.85249 -0.7657,-1.31706 -0.27695,-0.68333 -0.47475,-1.4484 -0.58194,-2.29707 -0.1072,-0.85307 -0.13273,-1.70625 -0.0613,-2.57276 0.0759,-0.86651 0.24822,-1.73232 0.52068,-2.60343 0.27693,-0.87093 0.64254,-1.6749 1.10262,-2.35832 0.29924,-0.44664 0.6234,-0.85436 0.94947,-1.22513 0.32605,-0.37518 0.6451,-0.67254 0.9801,-0.94952 0.33946,-0.28128 0.70189,-0.55121 1.04136,-0.76565 0.34391,-0.21886 0.68848,-0.37774 1.04135,-0.52063 0.35285,-0.1429 0.69741,-0.27375 1.04136,-0.36754 0.34838,-0.0937 0.71464,-0.14809 1.07198,-0.18386 0.36179,-0.0401 0.68466,-0.0612 1.01073,-0.0612 0.33051,0 0.66679,0.0211 1.01072,0.0612 0.64319,0.0716 1.20278,0.16406 1.65393,0.27569 0.45557,0.11173 0.80907,0.21632 1.04135,0.33687 0.23224,0.11624 0.39943,0.22532 0.55131,0.33696 0.15631,0.11173 0.3203,0.23424 0.49005,0.33695 0.16971,0.0982 0.37198,0.14358 0.58193,0.18368 0.44664,0.0938 0.89203,0.0907 1.34764,-0.0612 0.46004,-0.15192 1.02347,-0.50603 1.68454,-1.01078 0.33944,-0.26345 0.64636,-0.45173 0.91885,-0.61257 0.2769,-0.16524 0.51619,-0.29599 0.73508,-0.36753 0.21883,-0.0715 0.40389,-0.10908 0.5513,-0.12252 0.14738,-0.0178 0.31137,-0.035 0.49005,-0.0307 z m -99.11261,1.86836 c 0.15186,0 0.42496,0.0249 0.82696,0.0919 0.40646,0.067 0.84291,0.12956 1.34764,0.21445 0.50919,0.0848 1.2283,0.1819 2.14396,0.2756 0.91565,0.0938 1.89128,0.16985 2.90967,0.21445 4.72118,0.20994 8.33658,1.0293 10.84236,2.48083 1.09877,0.63882 2.06163,1.38722 2.87904,2.23589 0.82184,0.84867 1.51863,1.81535 2.14398,2.90963 0.54043,0.95148 0.94498,1.83073 1.16386,2.60343 0.21884,0.77272 0.32796,1.60541 0.33692,2.48093 -3e-5,0.44213 -0.0511,0.84485 -0.12252,1.25571 -0.0715,0.41095 -0.15508,0.81103 -0.27565,1.16386 -0.12062,0.34844 -0.27185,0.67127 -0.45942,1.01078 -0.18763,0.33942 -0.39819,0.66804 -0.61256,0.94942 -0.20996,0.28139 -0.4537,0.54563 -0.73508,0.82692 -0.28142,0.28148 -0.55899,0.53798 -0.82696,0.76575 -0.26802,0.22778 -0.5794,0.4633 -0.91884,0.7044 -0.33949,0.23679 -0.6547,0.45123 -0.94947,0.64323 -0.29482,0.1876 -0.60941,0.40263 -0.9801,0.61257 -0.24569,0.14741 -0.49774,0.26864 -0.76571,0.39821 -0.26802,0.12948 -0.58004,0.25581 -0.88822,0.36754 -0.3082,0.11163 -0.56791,0.2169 -0.82695,0.30619 -0.25909,0.0894 -0.5877,0.1819 -0.94947,0.27569 l -0.88822,0.24503 c -0.23675,0.0581 -0.57366,0.10341 -0.9801,0.18377 -0.40201,0.0804 -0.70893,0.14358 -0.91885,0.18377 -0.20547,0.0402 -0.51175,0.1034 -0.94947,0.18377 -0.43774,0.0804 -0.74913,0.12633 -0.91884,0.15309 -10e-6,1.94746 0.11803,3.64224 0.33691,5.05369 0.22331,1.41144 0.54619,2.61746 1.01073,3.6447 0.15631,0.34402 0.51874,0.9157 1.04135,1.71518 0.52258,0.79505 0.83779,1.29157 0.94947,1.47015 -0.20994,0.0894 -0.39116,0.16534 -0.52067,0.21444 -0.12955,0.0447 -0.28907,0.0906 -0.49005,0.15309 -0.20101,0.067 -0.40775,0.11742 -0.58194,0.15319 -0.16974,0.0402 -0.36245,0.0824 -0.61256,0.12251 -0.25014,0.0447 -0.52388,0.0739 -0.79633,0.0919 -0.27248,0.0179 -0.566,0.0479 -0.91885,0.0614 -0.35288,0.0134 -0.76571,0.005 -1.19449,0 -0.4288,-10e-5 -0.89078,-0.0172 -1.40889,-0.0307 -0.72808,-0.0224 -1.38402,-0.0465 -1.9602,-0.12251 -0.5762,-0.0715 -1.02605,-0.16906 -1.34764,-0.24503 -0.31714,-0.0715 -0.64511,-0.13015 -0.9801,-0.18376 -0.33053,-0.058 -0.70445,-0.0657 -1.13324,-0.0613 -0.42434,0 -0.93736,0.0333 -1.53141,0.12251 0.1206,-0.2903 0.28521,-0.58512 0.45942,-0.85759 0.1742,-0.27697 0.35924,-0.52895 0.55131,-0.76574 0.19653,-0.2367 0.38093,-0.45869 0.58193,-0.70441 0.20099,-0.25011 0.41539,-0.55326 0.64319,-0.88825 0.2278,-0.33491 0.42943,-0.69677 0.61256,-1.07195 0.33946,-0.67891 0.61703,-1.34312 0.82696,-1.99087 0.21439,-0.65206 0.39114,-1.37057 0.52068,-2.17455 0.13399,-0.80848 0.22269,-1.73302 0.24503,-2.78711 0.0224,-1.05861 -0.0122,-2.25697 -0.0613,-3.58354 -0.0491,-1.33108 -0.13719,-2.92432 -0.27565,-4.77799 -0.12954,-1.72409 -0.27183,-3.27147 -0.45942,-4.62479 -0.18761,-1.35784 -0.40264,-2.4924 -0.61256,-3.43035 -0.20994,-0.93806 -0.47092,-1.78281 -0.76571,-2.54218 -0.29034,-0.75929 -0.57619,-1.40763 -0.85759,-1.89895 -0.27693,-0.49132 -0.59598,-0.9654 -0.9801,-1.47015 -0.80398,-1.04959 -1.26213,-1.71449 -1.37826,-1.9602 -0.0894,-0.18759 -0.0728,-0.29217 0.0613,-0.33686 0.058,-0.0178 0.20163,-0.0261 0.39816,-0.0307 z m 43.18566,1.28639 c 0.29031,-0.0224 0.54363,0.003 0.70444,0.0613 0.16078,0.0537 0.27373,0.14613 0.36754,0.2757 0.19204,0.25013 0.39432,0.95266 0.58193,2.08271 0.19204,1.12556 0.32988,2.51592 0.45943,4.22659 0.2903,3.8905 0.81609,8.27537 1.56203,13.13951 0.19204,1.26855 0.38091,2.41585 0.58193,3.46103 0.20098,1.04518 0.45814,2.1471 0.73508,3.27716 0.28138,1.12555 0.60488,2.2359 0.9801,3.30783 0.37517,1.06753 0.78673,2.09291 1.25575,3.0935 0.18757,0.40194 0.4275,0.80524 0.70445,1.22512 0.28137,0.41537 0.55064,0.7682 0.79633,1.07193 0.2501,0.30374 0.5315,0.66549 0.85759,1.07195 0.33049,0.41095 0.617,0.7728 0.82696,1.07203 0.0715,0.10271 0.0708,0.2163 0.0306,0.33695 -0.0357,0.12506 -0.10276,0.20925 -0.2144,0.24503 -0.19209,0.058 -0.46965,0.0784 -0.82696,0.0919 -0.35289,0.0135 -0.66364,0.0178 -0.94947,0 -0.28143,-0.0178 -0.63875,-0.0517 -1.07198,-0.0919 -0.43329,-0.0403 -0.73255,-0.0479 -0.85759,-0.0614 -1.18814,-0.0758 -2.2346,-0.0937 -3.1547,0 -0.92014,0.0983 -2.05976,0.29608 -3.39972,0.58198 -0.36182,0.0759 -0.78614,0.2067 -1.28638,0.36754 -0.49581,0.16524 -0.86973,0.29539 -1.13324,0.39812 -0.15635,0.0581 -0.34523,0.0957 -0.58193,0.12251 -0.23675,0.0313 -0.39627,0.0142 -0.49005,-0.0306 -0.27696,-0.17868 -0.22335,-0.5864 0.21439,-1.22513 l 1.31701,-1.83768 c 1.20596,-1.78663 1.78088,-3.7583 1.77643,-5.91118 -0.005,-0.99167 -0.0376,-1.95893 -0.12251,-2.87914 -0.0848,-0.92453 -0.19017,-1.61746 -0.30629,-2.1133 -0.5896,-0.0983 -1.14474,-0.16593 -1.65391,-0.18377 -0.50474,-0.0224 -1.15623,-0.0178 -1.9602,0 -0.50474,0.0135 -1.02989,0.0633 -1.59266,0.18377 -0.55834,0.12065 -0.88569,0.26414 -1.01073,0.39812 -0.25461,0.27257 -0.37712,0.7683 -0.33691,1.50082 0.0178,0.32609 0.0435,0.59532 0.0613,0.79634 0.0224,0.20102 0.0689,0.44859 0.12251,0.76565 0.0536,0.31716 0.10337,0.61197 0.18378,0.85759 0.0804,0.24571 0.19397,0.4971 0.3369,0.79643 0.1474,0.29923 0.31968,0.60678 0.52068,0.88817 0.14739,0.20542 0.29479,0.38155 0.42879,0.5513 0.13399,0.16975 0.25204,0.2954 0.33691,0.39822 0.0848,0.0982 0.16845,0.22964 0.27566,0.33685 0.10718,0.10723 0.17865,0.15251 0.21439,0.18378 0.0357,0.0313 0.09,0.10781 0.18377,0.18376 0.0938,0.0759 0.17035,0.11359 0.18377,0.12251 0.15184,0.12957 0.16397,0.31461 0.0613,0.55131 -0.0357,0.0804 -0.14486,0.13849 -0.33691,0.21445 -0.19208,0.0758 -0.44923,0.13457 -0.73507,0.18367 -0.40201,0.0716 -1.21238,0.13918 -2.48088,0.18387 -1.26406,0.0445 -2.40815,0.0319 -3.39972,-0.0307 -0.9112,-0.067 -1.69733,-0.12958 -2.35837,-0.21435 -0.6566,-0.0894 -1.18621,-0.19916 -1.59266,-0.30638 -0.40647,-0.11164 -0.70892,-0.19523 -0.91885,-0.2756 -0.20992,-0.0848 -0.41986,-0.2118 -0.64319,-0.33696 -0.0357,-0.0178 -0.0696,-0.0504 -0.0919,-0.15309 -0.0178,-0.10723 -0.0178,-0.26287 0,-0.45947 0.0178,-0.20092 0.0554,-0.43262 0.12252,-0.67372 0.067,-0.24121 0.17164,-0.53602 0.33691,-0.85759 0.16973,-0.32167 0.39306,-0.62795 0.64319,-0.94952 0.25459,-0.32157 0.58704,-0.70381 0.9801,-1.16387 0.39305,-0.46006 0.69103,-0.82564 0.91884,-1.10262 0.23226,-0.28139 0.49324,-0.63873 0.76571,-1.07193 0.27692,-0.4333 0.51237,-0.88757 0.70444,-1.34764 0.50473,-1.20602 1.00945,-2.52238 1.50078,-3.9204 0.49131,-1.39811 0.86077,-2.6545 1.13324,-3.79788 0.96924,-4.10927 1.42739,-7.25441 1.37827,-9.40289 -0.005,-0.192 -0.0217,-0.35539 -0.0306,-0.52063 -0.009,-0.16524 -0.004,-0.32099 -0.0306,-0.45947 -0.0224,-0.14289 -0.0696,-0.26032 -0.0919,-0.36753 -0.0224,-0.11164 -0.0428,-0.23415 -0.0919,-0.33696 -0.0446,-0.10262 -0.0867,-0.17348 -0.12251,-0.24503 -0.0313,-0.0758 -0.0817,-0.16005 -0.15315,-0.24502 -0.067,-0.0847 -0.10848,-0.16515 -0.15314,-0.21435 -0.0402,-0.0536 -0.11614,-0.10782 -0.21439,-0.18377 -0.0983,-0.0804 -0.18696,-0.13907 -0.24503,-0.18377 -0.0581,-0.0491 -0.15506,-0.12055 -0.27565,-0.21435 -0.0178,-0.0135 -0.0261,-0.0261 -0.0306,-0.0307 -0.22334,-0.16965 -0.48431,-0.32088 -0.7657,-0.45937 -0.27694,-0.13849 -0.57939,-0.27315 -0.91885,-0.39821 -0.33946,-0.12948 -0.53216,-0.20485 -0.61256,-0.24503 -0.1742,-0.0804 -0.3382,-0.19906 -0.49005,-0.30628 -0.1474,-0.10712 -0.26992,-0.19073 -0.33691,-0.2756 -0.067,-0.0894 -0.062,-0.14359 -0.0306,-0.18386 0.058,-0.0803 0.11677,-0.15183 0.18377,-0.21436 0.067,-0.0669 0.15888,-0.15122 0.30628,-0.24502 0.15186,-0.0938 0.33308,-0.18691 0.52068,-0.24503 0.1876,-0.058 0.4224,-0.10839 0.73508,-0.15318 0.31265,-0.0446 0.65723,-0.0612 1.04136,-0.0612 0.57618,0 1.04708,0.0135 1.40889,0 0.36178,-0.0178 0.79505,-0.0689 1.28638,-0.12252 0.49131,-0.0536 0.96286,-0.11614 1.37826,-0.21444 0.41985,-0.10271 0.89905,-0.24562 1.43953,-0.4288 0.54492,-0.18758 1.09876,-0.43643 1.71517,-0.70439 0.68337,-0.29933 1.28508,-0.5175 1.77643,-0.67392 0.49577,-0.16073 0.87353,-0.25766 1.16387,-0.2756 z m -32.83335,5.05359 c -0.52707,-0.0356 -0.84612,0.19592 -0.9801,0.67391 -0.11168,0.40645 -0.095,1.1677 0.0613,2.26639 0.0357,0.23679 0.0989,0.60178 0.18377,1.13328 0.15631,0.97824 0.2699,1.7388 0.33691,2.29707 0.13398,1.07654 0.23927,2.07771 0.30628,2.97097 0.0715,0.88885 0.0956,1.59462 0.12252,2.14397 0.0313,0.54944 0.0778,0.97824 0.12251,1.28638 1.58563,-0.13398 2.88476,-0.35224 3.88977,-0.67381 0.44664,-0.13849 0.88438,-0.30247 1.28638,-0.49005 0.40197,-0.192 0.78418,-0.41919 1.16387,-0.67383 0.37964,-0.25453 0.72484,-0.53209 1.01073,-0.8269 0.2903,-0.29482 0.50789,-0.61384 0.70444,-0.9801 0.19651,-0.37078 0.34008,-0.76194 0.39817,-1.16397 0.10271,-0.73693 0.0727,-1.48476 -0.0613,-2.26638 -0.13402,-0.78173 -0.36947,-1.49632 -0.70444,-2.14407 -0.33055,-0.65206 -0.70383,-1.16573 -1.16388,-1.50073 -0.83526,-0.60296 -1.83195,-1.06939 -2.97092,-1.4089 -1.13454,-0.34391 -2.37497,-0.55826 -3.706,-0.64323 z m 31.02629,6.18698 c -0.46901,0.13839 -0.96927,0.65588 -1.50078,1.53131 -0.52707,0.87101 -0.97692,1.95578 -1.34764,3.24667 -0.26801,0.92453 -0.50282,1.81152 -0.73507,2.6646 -0.22781,0.85318 -0.3918,1.47525 -0.49005,1.86837 l -0.15315,0.58188 c 0.91117,0 1.72219,-0.0172 2.45025,-0.0307 1.14791,-0.0223 1.9889,-0.0637 2.51151,-0.1531 -0.067,-1.07644 -0.1889,-2.69077 -0.36753,-4.83924 -0.17869,-2.15289 -0.3095,-3.78446 -0.36754,-4.86982 z"
         id="path4628"
         transform="matrix(1.0053791,0,0,0.98105514,-1.9452418,18.588666)" />
    </g>
  </g>
</svg>
