<?xml version="1.0" encoding="UTF-8" standalone="no"?>
<!-- Created with Inkscape (http://www.inkscape.org/) -->

<svg
   xmlns:dc="http://purl.org/dc/elements/1.1/"
   xmlns:cc="http://creativecommons.org/ns#"
   xmlns:rdf="http://www.w3.org/1999/02/22-rdf-syntax-ns#"
   xmlns:svg="http://www.w3.org/2000/svg"
   xmlns="http://www.w3.org/2000/svg"
   xmlns:xlink="http://www.w3.org/1999/xlink"
   xmlns:sodipodi="http://sodipodi.sourceforge.net/DTD/sodipodi-0.dtd"
   xmlns:inkscape="http://www.inkscape.org/namespaces/inkscape"
   width="279"
   height="345"
   id="svg5754"
   version="1.1"
   inkscape:version="0.48.5 r10040"
   sodipodi:docname="ButtonScoreDown.svg">
  <defs
     id="defs5756">
    <linearGradient
       id="linearGradient5869">
      <stop
         style="stop-color:#c10000;stop-opacity:1;"
         offset="0"
         id="stop5871" />
      <stop
         id="stop6393"
         offset="0.5"
         style="stop-color:#ff2525;stop-opacity:1;" />
      <stop
         style="stop-color:#6b0000;stop-opacity:1;"
         offset="1"
         id="stop5873" />
    </linearGradient>
    <filter
       color-interpolation-filters="sRGB"
       inkscape:collect="always"
       id="filter4531">
      <feGaussianBlur
         inkscape:collect="always"
         stdDeviation="4.4074884"
         id="feGaussianBlur4533" />
    </filter>
    <radialGradient
       inkscape:collect="always"
       xlink:href="#linearGradient5869"
       id="radialGradient6395"
       cx="159.40359"
       cy="774.21191"
       fx="159.40359"
       fy="774.21191"
       r="128.39732"
       gradientTransform="matrix(-1.7061998,-0.39874619,0.42546251,-1.8545378,82.456097,2247.9995)"
       gradientUnits="userSpaceOnUse" />
  </defs>
  <sodipodi:namedview
     id="base"
     pagecolor="#ffffff"
     bordercolor="#666666"
     borderopacity="1.0"
     inkscape:pageopacity="0.0"
     inkscape:pageshadow="2"
     inkscape:zoom="1.4142136"
     inkscape:cx="55.331739"
     inkscape:cy="178.35431"
     inkscape:document-units="px"
     inkscape:current-layer="layer1"
     showgrid="false"
     fit-margin-top="0"
     fit-margin-left="0"
     fit-margin-right="0"
     fit-margin-bottom="0"
     inkscape:window-width="1366"
     inkscape:window-height="744"
     inkscape:window-x="0"
     inkscape:window-y="24"
     inkscape:window-maximized="1"
     inkscape:snap-page="true" />
  <metadata
     id="metadata5759">
    <rdf:RDF>
      <cc:Work
         rdf:about="">
        <dc:format>image/svg+xml</dc:format>
        <dc:type
           rdf:resource="http://purl.org/dc/dcmitype/StillImage" />
        <dc:title />
      </cc:Work>
    </rdf:RDF>
  </metadata>
  <g
     inkscape:label="Layer 1"
     inkscape:groupmode="layer"
     id="layer1"
     transform="translate(-188.87012,-426.90005)">
    <g
       id="g4246"
       transform="matrix(0.90630779,0.42261826,-0.42261826,0.90630779,528.11703,-171.55182)">
      <path
         style="fill:#840000;fill-opacity:0.28615388"
         d="M 14.946839,831.68993 C 57.27928,922.47215 78.792264,999.60794 147.97263,967.34861 217.15299,935.08928 308.71771,807.61131 266.38527,716.8291 224.05287,626.04698 143.54406,610.20731 74.363691,642.46665 5.1833391,674.72598 -27.385556,740.90782 14.946839,831.68993 z"
         id="path4244"
         inkscape:connector-curvature="0"
         sodipodi:nodetypes="sssss" />
      <path
         inkscape:connector-curvature="0"
         style="fill:#690000;fill-opacity:0.76615385"
         d="M 73.666214,645.39494 C 7.1466438,676.41353 -24.156651,740.03975 16.547573,827.33025 57.25184,914.62083 76.445812,987.57894 142.96539,956.56035 209.48498,925.54176 299.00311,804.16608 258.29884,716.8755 217.59462,629.585 140.1858,614.37635 73.666214,645.39494 z M 97.01191,894.66455 c 0.04409,0.17319 0.102074,0.4156 0.133803,0.7306 0.0297,0.31076 0.05744,0.63811 0.0998,0.95346 0.04029,0.31101 0.110404,0.64872 0.196041,1.01196 0.0856,0.36326 0.234956,0.7482 0.430079,1.14414 0.19938,0.39394 0.446333,0.74276 0.752941,1.09708 0.40951,0.47405 0.748219,0.93719 1.024712,1.38412 0.280795,0.44502 0.500164,0.92013 0.688664,1.4029 0.18646,0.47853 0.33999,0.95951 0.45081,1.41042 0.10878,0.44668 0.21857,0.95191 0.32043,1.5745 -0.16058,-0.0299 -0.31343,-0.0655 -0.48512,-0.15302 -0.17372,-0.0918 -0.35665,-0.22087 -0.53608,-0.33624 -0.181416,-0.11953 -0.368621,-0.22875 -0.577544,-0.35123 -0.208963,-0.12246 -0.488706,-0.21567 -0.802257,-0.31551 -0.30929,-0.10183 -0.638798,-0.17713 -1.000511,-0.22307 -1.223191,-0.14173 -2.456261,-0.0463 -3.698484,0.27634 -1.244199,0.31846 -2.316889,0.81127 -3.215621,1.53367 -0.532173,0.44191 -0.991528,0.93394 -1.354041,1.45894 -0.364478,0.52083 -0.597582,1.02696 -0.740497,1.51764 -0.144921,0.48642 -0.198402,0.96087 -0.136322,1.40836 0.06206,0.4475 0.254282,0.82603 0.528273,1.13288 0.300578,0.34147 0.622191,0.62744 0.983293,0.85164 0.361168,0.22439 0.730159,0.39558 1.132622,0.50638 0.4024,0.11071 0.835458,0.16266 1.323332,0.17591 0.492195,0.0114 1.020805,-0.0333 1.54054,-0.0977 0.522024,-0.0706 1.093082,-0.14428 1.727518,-0.28829 0.581058,-0.13491 1.208574,-0.26632 1.869086,-0.35442 0.664783,-0.0901 1.381653,-0.14136 2.12958,-0.16551 0.745903,-0.0284 1.473363,0.006 2.220133,0.10265 0.74901,0.0905 1.42803,0.25035 2.01421,0.47441 1.38872,0.5305 2.55675,1.36429 3.51073,2.50059 0.95194,1.13205 1.74171,2.5625 2.39822,4.32962 0.22538,0.60691 0.42431,1.1562 0.57155,1.59543 0.14518,0.43489 0.29019,0.90417 0.42249,1.42363 0.13453,0.51312 0.23185,0.99626 0.29593,1.448 0.0621,0.44759 0.0971,0.90868 0.11476,1.42921 0.0156,0.51628 -0.0188,1.06081 -0.0722,1.61978 -0.0492,0.55698 -0.11804,1.16339 -0.23083,1.79724 -0.13097,0.67355 -0.32623,1.28794 -0.55373,1.8442 -0.2275,0.55638 -0.49003,1.05747 -0.81033,1.51578 -0.32237,0.45397 -0.72373,0.87836 -1.19539,1.28156 -0.46742,0.40113 -0.95978,0.77747 -1.51252,1.11907 -0.55065,0.34615 -1.21179,0.6977 -1.95804,1.05097 -0.53758,0.25068 -1.05234,0.46093 -1.5408,0.61477 -0.48376,0.15276 -0.98781,0.26985 -1.53308,0.33555 -0.54724,0.0615 -1.11252,0.0473 -1.70475,-0.0326 -0.589924,-0.0862 -1.219903,-0.25228 -1.84618,-0.48379 -0.617975,-0.22491 -1.142344,-0.4661 -1.629019,-0.75753 -0.488673,-0.29568 -0.926103,-0.62022 -1.315566,-0.97264 -0.389475,-0.35242 -0.790858,-0.71772 -1.158862,-1.08026 -0.369958,-0.3667 -0.838065,-0.78607 -1.419313,-1.26907 -0.583201,-0.48718 -1.204878,-0.98388 -1.87611,-1.4353 -0.275141,-0.18583 -0.57528,-0.3162 -0.896634,-0.44396 -0.321275,-0.12758 -0.614904,-0.21961 -0.887223,-0.2759 -0.272281,-0.0562 -0.558631,-0.12138 -0.847582,-0.19088 -0.288911,-0.0694 -0.555049,-0.14931 -0.790937,-0.21729 -0.235932,-0.0681 -0.465345,-0.1629 -0.690919,-0.29858 -0.22756,-0.13994 -0.424762,-0.31743 -0.586957,-0.51929 0.09518,-0.0654 0.345423,-0.24714 0.742101,-0.55294 0.401145,-0.30743 0.737132,-0.56197 0.998908,-0.74164 0.261856,-0.17948 0.635147,-0.41401 1.13861,-0.73782 0.503329,-0.32408 1.078262,-0.65728 1.733375,-1.01517 0.655313,-0.35744 1.38865,-0.75931 2.212942,-1.16984 1.738373,-0.76317 2.904234,-1.17695 3.445756,-1.26197 0.409369,-0.0652 0.660373,0.0113 0.762657,0.23059 0.09221,0.19776 0.05385,0.61098 -0.0759,1.24216 -0.02,0.10311 -0.03664,0.22573 -0.06619,0.37566 -0.254053,1.21799 -0.242445,2.2311 9.93e-4,3.03383 0.24772,0.80073 0.723051,1.35829 1.436184,1.67498 0.411031,0.18535 0.880656,0.25765 1.406386,0.20614 0.53006,-0.0534 1.04829,-0.21596 1.56522,-0.48845 0.52142,-0.27404 0.9623,-0.65396 1.31618,-1.09647 0.19556,-0.24302 0.37445,-0.49073 0.52507,-0.79653 0.15285,-0.31215 0.26783,-0.70814 0.36658,-1.1364 0.0987,-0.42824 0.16548,-0.86299 0.17596,-1.32335 0.008,-0.4647 -0.0473,-0.9702 -0.16754,-1.54241 -0.11599,-0.57429 -0.31168,-1.16349 -0.56779,-1.73522 -0.16014,-0.35454 -0.34201,-0.64631 -0.53395,-0.92324 -0.19401,-0.28126 -0.39849,-0.55024 -0.5945,-0.75731 -0.19171,-0.20896 -0.40885,-0.36457 -0.68516,-0.50804 -0.27629,-0.14336 -0.5435,-0.26117 -0.78712,-0.35699 -0.23934,-0.0978 -0.54969,-0.17885 -0.930676,-0.22121 -0.380936,-0.0422 -0.727354,-0.0554 -1.032651,-0.0702 -0.300981,-0.0167 -0.69659,-0.0173 -1.202583,0.009 -0.503663,0.0203 -0.9569,0.0412 -1.344194,0.0751 -0.387276,0.0341 -0.893199,0.0713 -1.527312,0.12609 -0.91734,0.0875 -1.754934,0.14307 -2.507136,0.16921 -0.747917,0.0241 -1.48827,0.007 -2.193726,-0.046 -0.705469,-0.0533 -1.328505,-0.14449 -1.893459,-0.2894 -0.566952,-0.14918 -1.099166,-0.3557 -1.591286,-0.60266 -0.492128,-0.24696 -0.928295,-0.53976 -1.317475,-0.9028 -0.573457,-0.53364 -1.084053,-1.18929 -1.568295,-1.95829 -0.486191,-0.77316 -0.898593,-1.59949 -1.218844,-2.46593 -0.315917,-0.86834 -0.536874,-1.79741 -0.665588,-2.75834 -0.12442,-0.96294 -0.131536,-1.86152 0.0046,-2.72615 0.08764,-0.56431 0.217375,-1.08039 0.364849,-1.58378 0.145477,-0.50764 0.315709,-0.99494 0.51392,-1.41198 0.200512,-0.4233 0.402229,-0.79817 0.63276,-1.15713 0.232916,-0.36504 0.50632,-0.68915 0.781916,-0.98516 0.275538,-0.29608 0.53055,-0.58569 0.819564,-0.83047 0.29317,-0.24704 0.612364,-0.4505 0.940356,-0.64538 0.330159,-0.2014 0.651123,-0.37203 0.965072,-0.51843 0.318227,-0.14839 0.668574,-0.28969 1.017476,-0.40604 0.651381,-0.21989 1.220433,-0.38958 1.704879,-0.48473 0.488804,-0.097 0.872019,-0.1341 1.149756,-0.12237 0.275806,0.008 0.500289,0.0497 0.696602,0.0889 0.200667,0.0374 0.417229,0.0644 0.626772,0.0871 0.207525,0.0184 0.410402,0.003 0.630589,-0.0526 0.472298,-0.10989 0.892886,-0.34133 1.263092,-0.6927 0.374767,-0.35273 0.783762,-0.94618 1.193651,-1.72895 0.208529,-0.40607 0.410495,-0.727 0.600621,-1.00422 0.192443,-0.28338 0.357758,-0.53116 0.536385,-0.69831 0.178586,-0.16714 0.349398,-0.28507 0.485293,-0.36422 0.133867,-0.0834 0.265897,-0.16371 0.440053,-0.23941 z m 25.463,2.40125 c 0.0688,-0.0321 0.10934,-0.051 0.15471,-0.0379 0.25221,0.0918 0.45103,0.24372 0.57568,0.42117 0.12263,0.1732 0.21642,0.36967 0.26223,0.63629 0.0481,0.26037 0.10497,0.61462 0.19604,1.01196 0.0933,0.3911 0.24394,0.85457 0.43758,1.38206 0.19161,0.52324 0.49907,1.11329 0.91511,1.81457 0.25184,0.4166 0.44634,0.81591 0.58296,1.17623 0.13664,0.36043 0.23671,0.69774 0.29424,1.00071 0.0598,0.29673 0.073,0.55263 0.0621,0.79859 -0.013,0.24164 -0.0199,0.46762 -0.0738,0.65508 -0.0497,0.18546 -0.1409,0.356 -0.22289,0.48327 -0.0776,0.12556 -0.13896,0.2057 -0.21721,0.27364 -0.0785,0.0675 -0.16477,0.0923 -0.22657,0.10565 -0.72072,0.11618 -1.57185,-0.27221 -2.56716,-1.21655 -0.2442,-0.23171 -0.54539,-0.43364 -0.87959,-0.5553 -0.33622,-0.1259 -0.66561,-0.17191 -1.01561,-0.18149 -0.35003,-0.01 -0.7013,0.0314 -1.0516,0.11103 -0.34819,0.073 -0.67122,0.16989 -0.98746,0.32254 -0.46447,0.21658 -0.89978,0.47915 -1.27831,0.73401 -0.37856,0.25486 -0.74785,0.5448 -1.1292,0.90589 -0.38141,0.36102 -0.73224,0.78887 -1.05573,1.28529 -0.31919,0.49443 -0.59863,1.05759 -0.84246,1.66869 -0.17818,0.46 -0.28818,0.92009 -0.3459,1.40259 -0.0535,0.48041 -0.0662,1.01794 0.0259,1.60844 0.0964,0.58859 0.3046,1.18864 0.56583,1.80498 0.26556,0.61444 0.64696,1.29182 1.14724,2.0166 0.50461,0.72286 1.09747,1.43879 1.81361,2.18859 0.4479,0.46651 0.94343,0.8754 1.46277,1.21438 0.52159,0.33263 1.02403,0.59144 1.53082,0.76877 0.51108,0.17534 1.02691,0.29991 1.5555,0.37804 0.52858,0.0781 1.04085,0.11919 1.52159,0.0835 0.48077,-0.0356 0.93201,-0.12544 1.37633,-0.22803 0.44658,-0.10894 0.87031,-0.23337 1.22727,-0.39982 0.36123,-0.16845 0.6674,-0.3708 0.93844,-0.57553 0.26891,-0.20925 0.47947,-0.44051 0.61945,-0.66808 0.0533,-0.0878 0.11289,-0.20072 0.19266,-0.40022 0.0778,-0.20375 0.14543,-0.44451 0.22861,-0.69283 0.0855,-0.25448 0.19847,-0.52551 0.30231,-0.83058 0.10385,-0.30496 0.21608,-0.61317 0.33258,-0.91355 0.11444,-0.30471 0.21892,-0.59584 0.34572,-0.88536 0.12478,-0.29375 0.27144,-0.57962 0.41369,-0.81355 0.14225,-0.23383 0.27234,-0.412 0.42114,-0.57573 0.14898,-0.16325 0.32937,-0.28312 0.4984,-0.33612 0.16713,-0.057 0.33879,-0.0392 0.50216,0.0417 0.14873,0.072 0.2628,0.23418 0.3642,0.48525 0.0994,0.24692 0.1672,0.52624 0.22818,0.85905 0.0653,0.33092 0.17152,0.70585 0.27719,1.11205 0.10567,0.40631 0.2162,0.7885 0.37348,1.17064 0.16153,0.38015 0.39824,0.76507 0.69629,1.12349 0.84594,0.97207 1.37913,1.75863 1.61345,2.35089 0.23229,0.58802 0.17348,1.01079 -0.16083,1.28187 -0.32805,0.27336 -0.90487,0.43298 -1.74647,0.46948 -0.39961,0.0188 -0.79922,0.0855 -1.20827,0.21873 -0.40734,0.13699 -0.79093,0.30261 -1.1743,0.51338 -0.37953,0.20787 -0.7831,0.4402 -1.19335,0.69439 -0.40598,0.2522 -0.84295,0.51312 -1.32173,0.78879 -0.47901,0.27523 -0.97354,0.54665 -1.48967,0.79836 -0.51614,0.25172 -1.12999,0.48831 -1.8088,0.70554 -0.67882,0.21723 -1.3772,0.37937 -2.11079,0.50155 -0.64416,0.11192 -1.29841,0.13917 -1.93133,0.0731 -0.62863,-0.0681 -1.20585,-0.18381 -1.76508,-0.38381 -0.55692,-0.20626 -1.12178,-0.50061 -1.66861,-0.84244 -0.54457,-0.34818 -1.05991,-0.72367 -1.53451,-1.1464 -0.47027,-0.42464 -0.9261,-0.89353 -1.38718,-1.42198 -0.45877,-0.53471 -0.8838,-1.06685 -1.27007,-1.61451 -0.38826,-0.55193 -0.7641,-1.15278 -1.13977,-1.77877 -0.50825,-0.82047 -0.91648,-1.6247 -1.26226,-2.41115 -0.34575,-0.78636 -0.64138,-1.54963 -0.84702,-2.26009 -0.20559,-0.71037 -0.33561,-1.41537 -0.40336,-2.12205 -0.0697,-0.71094 -0.0758,-1.38427 -0.0277,-2.05591 0.0524,-0.67365 0.14245,-1.36378 0.30834,-2.07469 0.17538,-0.74668 0.4309,-1.48383 0.77276,-2.18788 0.34422,-0.71021 0.78014,-1.39301 1.2863,-2.04788 0.51045,-0.65687 1.12536,-1.25465 1.83933,-1.82315 0.71392,-0.56859 1.49327,-1.07037 2.34705,-1.47379 0.54186,-0.25267 1.08779,-0.47193 1.62577,-0.65439 0.53795,-0.18244 0.97995,-0.30988 1.3386,-0.38289 0.35844,-0.0734 0.70914,-0.13339 1.04028,-0.20925 0.32892,-0.0805 0.59194,-0.15906 0.7892,-0.23009 0.19724,-0.071 0.35637,-0.19155 0.4984,-0.33612 0.13988,-0.14908 0.25636,-0.34794 0.30976,-0.59275 0.085,-0.39038 0.20254,-0.75834 0.37982,-1.10803 0.17724,-0.34966 0.35471,-0.62286 0.52506,-0.79653 0.0863,-0.0899 0.16158,-0.13934 0.22828,-0.17596 z m 28.11241,-12.69527 c 1.60667,-0.68631 3.06112,-0.25553 4.39652,1.29454 0.0275,-0.0757 0.0639,-0.18513 0.12092,-0.33223 0.17126,-0.44111 0.31526,-0.78609 0.41941,-1.02311 0.10413,-0.23701 0.29765,-0.54043 0.5572,-0.94944 0.26185,-0.41527 0.54682,-0.7792 0.85366,-1.05314 0.30478,-0.27828 0.71589,-0.56564 1.24058,-0.88887 0.52693,-0.32957 1.12384,-0.61564 1.79951,-0.87333 0.459,-0.17211 0.94792,-0.32628 1.45193,-0.43563 0.50398,-0.10933 0.943,-0.1673 1.31969,-0.20161 0.38096,-0.0363 0.75297,-0.0975 1.13657,-0.15065 0.38356,-0.0532 0.73616,-0.12503 1.01196,-0.19605 0.27569,-0.0712 0.53074,-0.18459 0.7647,-0.35658 0.23822,-0.17398 0.41015,-0.38512 0.54957,-0.67004 0.34103,-0.67209 0.77054,-0.76634 1.25173,-0.27342 0.47713,0.48434 0.91696,1.36949 1.3245,2.69251 0.4115,1.33166 0.60959,2.5554 0.64082,3.6665 0.0107,0.53953 -0.012,0.98817 -0.10614,1.32522 -0.25938,-0.14077 -0.55336,-0.29818 -0.88149,-0.48544 -0.32591,-0.19361 -0.60072,-0.35676 -0.81167,-0.48359 -0.21095,-0.12672 -0.4674,-0.2683 -0.74366,-0.41168 -0.27834,-0.14771 -0.49603,-0.2511 -0.70411,-0.32686 -0.2058,-0.082 -0.4574,-0.15513 -0.72111,-0.21543 -0.25943,-0.0623 -0.5002,-0.11023 -0.73811,-0.10401 -0.2401,0.002 -0.4993,0.0303 -0.78538,0.0904 -0.28636,0.0596 -0.59547,0.15542 -0.90249,0.28292 -0.54991,0.23546 -1.05035,0.50081 -1.53152,0.78256 -0.47478,0.28429 -0.92481,0.62213 -1.35577,1.01155 -0.43099,0.38943 -0.8093,0.83231 -1.09724,1.27022 -0.28795,0.43793 -0.48915,0.91881 -0.6272,1.46481 -0.13804,0.5461 -0.17766,1.11494 -0.10245,1.70284 0.0326,0.28328 0.0954,0.56503 0.17153,0.88547 0.0784,0.31419 0.16698,0.62676 0.2546,0.9157 0.0856,0.28468 0.21198,0.63159 0.37729,1.03083 0.16329,0.39511 0.29307,0.75388 0.41881,1.04601 0.12533,0.29243 0.32004,0.65722 0.56977,1.14806 0.24785,0.48655 0.4349,0.89242 0.59615,1.20462 0.15931,0.30804 0.40862,0.75561 0.73208,1.34823 0.32346,0.59263 0.59659,1.05105 0.78681,1.39156 0.19032,0.34069 0.47753,0.86316 0.8661,1.56158 0.0405,0.0749 0.0627,0.14621 0.0792,0.16993 0.33372,0.60351 0.64213,1.09524 0.95103,1.52187 0.30686,0.42239 0.68889,0.85099 1.0984,1.24637 0.40953,0.39547 0.87478,0.75063 1.39671,1.07273 0.51989,0.31775 1.10764,0.61899 1.80641,0.91611 -0.39299,0.0106 -0.82608,0.11687 -1.33669,0.31304 -0.50632,0.19417 -1.01142,0.44294 -1.51629,0.74126 -0.50489,0.29832 -1.03609,0.62503 -1.57854,0.9775 -0.54043,0.35683 -1.07301,0.68716 -1.59367,1.01899 -0.51455,0.33372 -1.00655,0.63961 -1.47847,0.89631 -0.46991,0.26104 -0.90598,0.43681 -1.32902,0.55132 -0.42136,0.11814 -0.77905,0.14536 -1.07798,0.0545 -0.2253,-0.0677 -0.41508,-0.16659 -0.50967,-0.27961 -0.0966,-0.11726 -0.13001,-0.23574 -0.11502,-0.39455 0.0149,-0.15891 0.0558,-0.35692 0.12661,-0.54188 0.0732,-0.19113 0.16355,-0.39448 0.25507,-0.63609 0.0938,-0.24797 0.17315,-0.48149 0.24375,-0.73432 0.0729,-0.25908 0.1203,-0.58825 0.12301,-0.91931 0.003,-0.33115 -0.046,-0.65175 -0.14135,-0.96862 -0.52091,-1.75708 -1.11306,-3.53556 -1.78246,-5.37532 -0.66707,-1.84594 -1.38663,-3.51833 -2.14124,-5.03557 -0.318,-0.63699 -0.56448,-1.17029 -0.76786,-1.57285 -0.20538,-0.40683 -0.45369,-0.89249 -0.73017,-1.41797 -0.27653,-0.52558 -0.50192,-0.93322 -0.69248,-1.26331 -0.19047,-0.32991 -0.42454,-0.67547 -0.65666,-1.03848 -0.23211,-0.36291 -0.42464,-0.64663 -0.60578,-0.85544 -0.1788,-0.21497 -0.35464,-0.416 -0.54354,-0.57408 -0.19085,-0.16224 -0.38891,-0.24984 -0.55117,-0.29467 -0.0714,-0.0296 -0.10629,-0.0266 -0.15471,0.0379 -0.0462,0.058 -0.0833,0.14147 -0.0907,0.24917 -0.007,0.10816 -0.038,0.24524 -0.053,0.40395 -0.0149,0.1589 -0.0107,0.31504 -0.0133,0.48905 -0.005,0.16965 -0.0115,0.3602 -0.0568,0.54365 -0.0454,0.18345 -0.10221,0.36499 -0.16816,0.52671 -0.068,0.15738 -0.18386,0.28821 -0.31917,0.42468 -0.13554,0.13602 -0.30326,0.26058 -0.4984,0.33612 -0.19084,0.0736 -0.33409,0.083 -0.46256,0.0432 -0.13046,-0.044 -0.24272,-0.13298 -0.32842,-0.26062 -0.0833,-0.13382 -0.17917,-0.28785 -0.25281,-0.46823 -0.0713,-0.18664 -0.14243,-0.3906 -0.249,-0.60792 -0.10431,-0.22368 -0.23495,-0.44578 -0.37361,-0.65332 -0.13441,-0.20964 -0.30744,-0.40458 -0.55677,-0.60244 -0.24934,-0.19787 -0.54927,-0.36806 -0.8815,-0.48545 0.20654,-0.489 0.46839,-0.95128 0.83488,-1.38919 0.36875,-0.44426 0.81064,-0.83326 1.27653,-1.18148 0.46594,-0.34813 0.9232,-0.65922 1.39542,-0.92654 0.47209,-0.26758 0.98359,-0.51382 1.51629,-0.74126 z m 26.61503,-11.61768 c 0.62632,-0.31854 1.28489,-0.56605 1.97873,-0.78478 0.6917,-0.22324 1.33784,-0.40372 1.97109,-0.50537 0.63757,-0.10355 1.2862,-0.17187 1.90682,-0.19955 0.62292,-0.0339 1.169,-0.0431 1.65002,-0.0108 0.4833,0.026 0.92836,0.10367 1.32333,0.17592 1.01187,0.18268 1.90759,0.39226 2.69381,0.67476 0.78626,0.2827 1.46694,0.61563 2.00089,0.96346 0.53192,0.34359 0.95188,0.71776 1.29665,1.15392 0.34469,0.43609 0.61434,0.89823 0.77359,1.36319 0.15728,0.4608 0.21376,0.96596 0.22423,1.51608 0.0104,0.55013 -0.0206,1.10362 -0.12886,1.6462 -0.11025,0.53833 -0.29404,1.10146 -0.50837,1.71966 -0.29034,0.83703 -0.76089,1.67974 -1.42417,2.49163 -0.6653,0.80764 -1.51239,1.57911 -2.52479,2.34967 -1.01446,0.76622 -2.13451,1.51436 -3.40261,2.24184 -1.27015,0.72314 -2.73553,1.45843 -4.35223,2.20183 0.17188,0.23398 0.37778,0.48344 0.58123,0.72885 0.20575,0.23915 0.45595,0.50127 0.74739,0.7894 0.28944,0.28388 0.57235,0.53372 0.87386,0.76485 0.30149,0.23114 0.65108,0.43853 1.01738,0.62897 0.36861,0.18417 0.72114,0.30887 1.07976,0.39299 0.35656,0.0798 0.73662,0.11176 1.13084,0.0589 0.39845,-0.0549 0.79066,-0.18895 1.15739,-0.40178 0.80055,-0.47261 1.46748,-0.8764 1.99018,-1.20388 0.52694,-0.32957 1.05822,-0.69174 1.59554,-1.08893 0.54163,-0.3991 0.9544,-0.76535 1.2879,-1.08317 0.33143,-0.32216 0.69997,-0.69891 1.05187,-1.14568 0.35413,-0.45312 0.63693,-0.89295 0.86124,-1.33264 0.22659,-0.44594 0.43894,-0.99658 0.68771,-1.63084 0.24869,-0.63433 0.50004,-1.29141 0.69722,-1.98018 0.20139,-0.69084 0.40676,-1.52432 0.64069,-2.47109 0.83387,1.10337 1.70097,2.7287 2.62081,4.8809 0.89207,2.08152 1.50965,3.87429 1.81079,5.36212 0.26935,1.32997 0.19173,2.08513 -0.20073,2.2315 -0.0989,0.0351 -0.22582,0.008 -0.36251,-0.038 -1.31535,-0.41797 -2.51151,-0.54683 -3.5963,-0.39185 -1.07845,0.15742 -2.09352,0.60891 -3.02834,1.34373 -0.31033,0.24401 -0.58187,0.4738 -0.82898,0.6624 -0.24306,0.18616 -0.53537,0.37797 -0.88375,0.61888 -0.34634,0.24535 -0.64675,0.46665 -0.94032,0.64546 -0.29147,0.18337 -0.6356,0.37363 -1.00819,0.57385 -0.36662,0.20185 -0.71305,0.35347 -1.04792,0.48865 -0.33276,0.13973 -0.69371,0.28266 -1.08764,0.40346 -0.38753,0.12333 -0.78494,0.21056 -1.15357,0.26208 -0.36238,0.0538 -0.73134,0.0812 -1.13467,0.0808 -0.40134,0.004 -0.79257,-0.0343 -1.18553,-0.10225 -0.7668,-0.13985 -1.58578,-0.44149 -2.45023,-0.89185 -0.86013,-0.45227 -1.68766,-0.96619 -2.47265,-1.60543 -0.78699,-0.6435 -1.54545,-1.3708 -2.24781,-2.15847 -0.7001,-0.79401 -1.28389,-1.59538 -1.77961,-2.41144 -0.35127,-0.58484 -0.66612,-1.1486 -0.9472,-1.66157 -0.28311,-0.51721 -0.55484,-1.05308 -0.83587,-1.64463 -0.28126,-0.59134 -0.52684,-1.16555 -0.72254,-1.69738 -0.19134,-0.53385 -0.36353,-1.10168 -0.513,-1.69169 -0.14948,-0.59001 -0.2523,-1.14958 -0.30348,-1.68601 -0.0488,-0.5426 -0.0612,-1.09549 -0.024,-1.67829 0.0372,-0.58271 0.13301,-1.14245 0.2837,-1.68386 0.15294,-0.54776 0.38043,-1.12211 0.66125,-1.68757 0.2831,-0.57182 0.6162,-1.10892 1.02368,-1.6498 0.46687,-0.61559 1.01811,-1.19625 1.62598,-1.68913 0.61018,-0.49914 1.22203,-0.89368 1.85049,-1.2077 z m -44.00702,20.83108 c 0.61553,-0.30799 1.26962,-0.581 1.9242,-0.82776 0.65414,-0.24766 1.28071,-0.45233 1.88995,-0.60545 0.60719,-0.15747 1.19038,-0.27439 1.75771,-0.37144 0.56961,-0.10331 1.07772,-0.18732 1.51603,-0.22421 0.43833,-0.0368 0.80134,-0.048 1.11953,-0.0393 0.74443,0.0246 1.46266,0.1392 2.15777,0.33861 0.69507,0.19944 1.34262,0.46131 1.92161,0.79343 0.58126,0.32589 1.14717,0.70493 1.67421,1.15022 0.52704,0.44539 0.9926,0.95763 1.41359,1.47863 0.42094,0.52101 0.82749,1.06695 1.1851,1.65413 0.35987,0.58094 0.66635,1.17354 0.9302,1.77299 0.26381,0.59948 0.4704,1.18768 0.66403,1.79373 0.19358,0.60608 0.33359,1.192 0.44122,1.75959 0.11189,0.56561 0.21619,1.12372 0.24874,1.64258 0.0362,0.61658 0.046,1.12178 0.0562,1.52538 0.0145,0.40161 -0.002,0.88046 -0.025,1.4253 -0.0254,0.54068 -0.0649,1.00023 -0.14951,1.38009 -0.0824,0.37342 -0.2023,0.79453 -0.3704,1.27609 -0.16817,0.48149 -0.38915,0.89557 -0.6498,1.26847 -0.25842,0.36655 -0.59399,0.77372 -0.98399,1.2173 -0.38767,0.43742 -0.82819,0.86031 -1.34827,1.24947 -0.51785,0.38282 -1.12921,0.77184 -1.82221,1.1944 -0.69045,0.41686 -1.4589,0.83709 -2.313,1.25103 -0.87739,0.42017 -1.77918,0.71743 -2.69424,0.87712 -0.91078,0.15768 -1.78991,0.18884 -2.64497,0.0955 -0.85078,-0.0954 -1.69332,-0.30705 -2.5277,-0.61431 -0.83207,-0.31353 -1.61958,-0.71723 -2.35758,-1.21078 -0.73805,-0.49364 -1.44297,-1.04808 -2.10642,-1.70736 -0.65911,-0.6612 -1.24968,-1.40125 -1.77206,-2.17343 -0.52436,-0.77644 -0.98012,-1.60208 -1.37173,-2.49803 -0.3916,-0.89594 -0.69135,-1.8132 -0.90348,-2.75091 -0.21647,-0.93579 -0.33289,-1.89264 -0.35409,-2.90371 -0.0212,-1.01107 0.0554,-2.02693 0.25009,-3.01298 0.13838,-0.71376 0.37646,-1.38341 0.71231,-2.02176 0.34018,-0.64026 0.74979,-1.20994 1.20687,-1.70058 0.46138,-0.49264 0.98537,-0.95755 1.56167,-1.3834 0.57434,-0.43002 1.15036,-0.79649 1.7636,-1.09823 z m 47.61944,-17.44689 c -0.75145,0.30848 -1.43559,0.73343 -2.03364,1.25858 -0.55655,0.47943 -0.99776,0.98793 -1.3144,1.54394 -0.31665,0.55602 -0.48609,1.11158 -0.5631,1.67623 -0.079,0.56039 -0.0626,1.13323 0.0505,1.73502 0.11535,0.59544 0.30792,1.18919 0.58093,1.76341 0.27487,0.56817 0.6197,1.14818 1.04349,1.72017 2.53466,-0.93058 4.76944,-2.05698 6.7332,-3.38106 1.81894,-1.23039 3.01228,-2.3861 3.56157,-3.45377 0.56243,-1.08429 0.37376,-1.94411 -0.57321,-2.56023 -0.15016,-0.0975 -0.32304,-0.19372 -0.50962,-0.27951 -0.70681,-0.31434 -1.45571,-0.52376 -2.26152,-0.63504 -0.80777,-0.11543 -1.62999,-0.11589 -2.41835,-0.0101 -0.79037,0.10154 -1.54443,0.31381 -2.29583,0.62237 z m -44.33955,21.74472 c -0.61774,0.31454 -1.17997,0.66376 -1.70696,1.07181 -0.5247,0.40179 -0.96812,0.83432 -1.30681,1.26445 -0.23543,0.30354 -0.37664,0.67425 -0.47792,1.11947 -0.10134,0.44513 -0.14938,0.92003 -0.12314,1.43664 0.0285,0.51026 0.10526,1.06544 0.2487,1.64248 0.14573,0.57079 0.34366,1.12452 0.58287,1.69365 0.24148,0.56278 0.53119,1.1195 0.87738,1.65971 0.34412,0.53587 0.71555,1.0514 1.11905,1.51248 0.40778,0.45907 0.85356,0.84835 1.35139,1.19736 0.49579,0.34466 1.02493,0.60459 1.54405,0.79714 0.52336,0.19046 1.08506,0.29067 1.68388,0.28363 0.59886,-0.007 1.20262,-0.11999 1.79926,-0.35628 0.79606,-0.31383 1.49791,-0.71393 2.14311,-1.1717 0.6494,-0.45993 1.20718,-0.95726 1.64854,-1.49287 0.44134,-0.5356 0.77797,-1.11196 1.05395,-1.73276 0.27596,-0.62079 0.48347,-1.24916 0.56883,-1.88578 0.0853,-0.6367 0.0539,-1.28378 -0.0448,-1.94458 -0.0944,-0.66279 -0.27495,-1.29536 -0.54878,-1.91632 -0.26961,-0.62303 -0.62841,-1.24541 -1.09632,-1.83345 -0.46799,-0.58813 -1.01345,-1.12655 -1.64767,-1.6109 -0.47402,-0.36529 -1.03564,-0.62365 -1.67057,-0.77268 -0.6369,-0.15319 -1.28999,-0.18153 -1.95388,-0.1232 -0.66594,0.054 -1.36367,0.17534 -2.06547,0.37692 -0.70183,0.2016 -1.35857,0.46426 -1.97873,0.78478 z"
         id="path4242"
         sodipodi:nodetypes="ssssscccccccccccccccccccccccccccccccccccccccccccccccccccccccccccccccccccccccccccccccccccccccccsccccccccccccccccccccccccccccccccccccccccccccccccccccccccccccccccccccccccccccccccccssccccccccsccccccccccccccccccccccccccccccccccccccccccccccsccccccccsscccccccccccccccccccccccsccccccccccccccccccsccccccccccccccccccccccccccccccccccccccccccccccccccccccccccccccsccccccccccccccccccccccccccccccccccccscsccccccccscccccccccccccccccccccccccccccccscccccc" />
      <path
         style="fill:url(#radialGradient6395);fill-opacity:1"
         d="M 72.880066,648.20359 C 8.9189383,678.30654 -21.187137,740.06582 17.95154,824.77963 57.090259,909.49351 76.513325,986.18864 140.47446,956.08567 204.43559,925.98271 289.55378,802.31309 250.41506,717.59919 211.27638,632.8854 136.8412,618.10062 72.880066,648.20359 z m 21.075706,247.6449 c 0.136619,-0.0858 0.303827,-0.14856 0.481476,-0.22661 0.04499,0.17839 0.07313,0.42641 0.10548,0.75073 0.03036,0.32014 0.05661,0.63764 0.0998,0.96232 0.04116,0.3204 0.121901,0.67596 0.209269,1.05001 0.08732,0.37407 0.231019,0.7471 0.430079,1.15478 0.203446,0.40572 0.466502,0.79953 0.779355,1.16445 0.417808,0.48814 0.755789,0.9653 1.037897,1.42554 0.286498,0.45828 0.537894,0.93409 0.730213,1.43125 0.190255,0.49278 0.337721,0.95914 0.450809,1.42353 0.110973,0.45994 0.214612,1.01855 0.318568,1.65974 -0.163791,-0.0307 -0.323209,-0.093 -0.498348,-0.18307 -0.177251,-0.0946 -0.368125,-0.17865 -0.551174,-0.29741 -0.18512,-0.12313 -0.377629,-0.25704 -0.590816,-0.38322 -0.213186,-0.12606 -0.495538,-0.24419 -0.815443,-0.34699 -0.315599,-0.10492 -0.631432,-0.17779 -1.000511,-0.22513 -1.248026,-0.14596 -2.5292,-0.0419 -3.796636,0.29035 -1.269454,0.32797 -2.355293,0.83066 -3.27218,1.57478 -0.542964,0.45511 -0.999284,0.97379 -1.369136,1.51447 -0.371902,0.53629 -0.623001,1.03979 -0.768819,1.54508 -0.147866,0.5009 -0.186449,0.98924 -0.123136,1.45 0.06334,0.46087 0.220438,0.84085 0.499951,1.15675 0.306697,0.35167 0.656419,0.644 1.024885,0.87495 0.368447,0.23096 0.763492,0.4122 1.174088,0.52621 0.410617,0.1141 0.838751,0.19246 1.33656,0.20618 0.502174,0.0117 1.010242,-0.0324 1.54054,-0.0986 0.532632,-0.0728 1.136842,-0.16933 1.784162,-0.31763 0.592897,-0.13884 1.236689,-0.25174 1.910636,-0.34242 0.67826,-0.0929 1.394777,-0.15552 2.157902,-0.18037 0.761017,-0.0293 1.528072,0.006 2.289927,0.10539 0.76426,0.0934 1.44451,0.23489 2.04257,0.46558 1.41689,0.54624 2.60534,1.42617 3.57865,2.59623 0.97127,1.16579 1.78123,2.66452 2.45109,4.48432 0.22996,0.62499 0.42129,1.15791 0.57151,1.61017 0.14815,0.4479 0.30072,0.93058 0.43567,1.46542 0.13731,0.5285 0.2438,1.02495 0.3092,1.49019 0.0633,0.46087 0.0948,0.9769 0.11281,1.51291 0.0159,0.53172 -0.004,1.08789 -0.059,1.66348 -0.0502,0.57355 -0.11571,1.1613 -0.23087,1.81386 -0.13357,0.69375 -0.33672,1.33047 -0.56879,1.90341 -0.23211,0.57296 -0.49862,1.09986 -0.82546,1.57175 -0.32891,0.46751 -0.72931,0.92011 -1.21052,1.33534 -0.47687,0.4132 -1.01838,0.77586 -1.58236,1.1276 -0.56198,0.35615 -1.21173,0.7389 -1.97318,1.10262 -0.54638,0.26272 -1.07089,0.47505 -1.56903,0.634 -0.49374,0.15698 -1.018273,0.25573 -1.574587,0.32346 -0.558364,0.0634 -1.1288,0.0628 -1.73307,-0.0196 -0.601886,-0.0887 -1.248714,-0.26513 -1.887734,-0.5036 -0.630505,-0.23157 -1.187172,-0.50825 -1.683712,-0.80832 -0.498624,-0.30455 -0.918207,-0.61879 -1.315609,-0.98178 -0.397372,-0.3629 -0.796584,-0.74553 -1.172048,-1.11885 -0.37746,-0.37761 -0.867803,-0.79876 -1.460821,-1.29608 -0.595055,-0.50172 -1.232785,-0.99905 -1.91766,-1.46395 -0.280736,-0.19139 -0.581986,-0.34516 -0.909819,-0.47663 -0.327839,-0.13147 -0.650914,-0.23578 -0.928773,-0.29376 -0.277822,-0.0579 -0.552789,-0.12115 -0.847582,-0.19266 -0.294795,-0.0716 -0.55025,-0.14928 -0.790937,-0.21932 -0.240689,-0.07 -0.489059,-0.14823 -0.719241,-0.28802 -0.232169,-0.14409 -0.434657,-0.34479 -0.600185,-0.55276 0.09715,-0.0672 0.365554,-0.25679 0.770465,-0.57131 0.409254,-0.31667 0.731792,-0.56357 0.998908,-0.74854 0.26707,-0.18505 0.653231,-0.42459 1.16689,-0.7581 0.513736,-0.33334 1.108392,-0.71132 1.776833,-1.07981 0.668431,-0.3685 1.441794,-0.75598 2.282815,-1.17876 1.77351,-0.78624 2.921511,-1.19959 3.474035,-1.28713 0.417718,-0.0671 0.686624,-0.006 0.79098,0.21941 0.09411,0.20372 0.06971,0.63237 -0.06267,1.28234 -0.0202,0.10662 -0.03603,0.22477 -0.06619,0.37916 -0.259225,1.25424 -0.277593,2.31929 -0.02924,3.14587 0.252767,0.82463 0.750098,1.37969 1.477734,1.70586 0.419318,0.19076 0.898287,0.24776 1.434712,0.19474 0.54079,-0.0551 1.079309,-0.19716 1.606727,-0.47778 0.531824,-0.2826 0.955109,-0.65098 1.316179,-1.10667 0.19953,-0.25027 0.38651,-0.53094 0.54016,-0.84591 0.15601,-0.32132 0.29418,-0.71922 0.3949,-1.16029 0.10074,-0.44097 0.15209,-0.89011 0.16278,-1.3642 0.009,-0.47847 -0.0581,-0.99609 -0.18077,-1.58538 -0.11831,-0.59135 -0.29135,-1.20449 -0.55265,-1.79323 -0.16339,-0.36511 -0.35132,-0.67524 -0.54718,-0.96047 -0.19793,-0.28959 -0.394467,-0.55101 -0.594462,-0.76425 -0.195594,-0.2152 -0.444788,-0.38033 -0.726659,-0.52798 -0.281945,-0.14771 -0.551807,-0.29032 -0.80039,-0.38904 -0.244185,-0.10063 -0.541933,-0.17959 -0.930639,-0.22316 -0.388694,-0.0435 -0.762703,-0.0709 -1.074201,-0.0861 -0.307098,-0.0172 -0.714662,-0.005 -1.230905,0.0225 -0.513869,0.0209 -0.949036,0.0409 -1.344194,0.0758 -0.39514,0.0351 -0.908661,0.0841 -1.555635,0.14058 -0.935983,0.09 -1.809522,0.14192 -2.577007,0.16882 -0.763073,0.0249 -1.502241,0.0218 -2.222006,-0.033 -0.719821,-0.0549 -1.358548,-0.15808 -1.93501,-0.30739 -0.578502,-0.1537 -1.13071,-0.36922 -1.632836,-0.62356 -0.502091,-0.25426 -0.933586,-0.5659 -1.330661,-0.93974 -0.585124,-0.5496 -1.128916,-1.22834 -1.622988,-2.02025 -0.496106,-0.79629 -0.905315,-1.62525 -1.232072,-2.5175 -0.322334,-0.89422 -0.547484,-1.82305 -0.678816,-2.81263 -0.126909,-0.99154 -0.132408,-1.93166 0.0065,-2.82191 0.08935,-0.58128 0.216249,-1.15071 0.366716,-1.6691 0.14847,-0.52269 0.311696,-0.99563 0.51392,-1.42511 0.204571,-0.43595 0.41263,-0.84024 0.647897,-1.20977 0.237611,-0.37599 0.529054,-0.70281 0.810195,-1.00774 0.281168,-0.30483 0.553037,-0.59938 0.847887,-0.85153 0.299304,-0.25401 0.634037,-0.46399 0.96872,-0.66461 0.336978,-0.20715 0.631309,-0.40158 0.951632,-0.55234 0.324689,-0.15282 0.702936,-0.27493 1.059238,-0.39406 0.664589,-0.22649 1.210557,-0.39135 1.704879,-0.48924 0.498724,-0.0998 0.894659,-0.149 1.178078,-0.13684 0.28136,0.008 0.524586,0.0359 0.724924,0.0764 0.204738,0.0385 0.412938,0.0645 0.626772,0.0879 0.211731,0.019 0.434241,-0.009 0.658869,-0.0665 0.481748,-0.11347 0.913526,-0.35098 1.291541,-0.7122 0.382366,-0.36327 0.775446,-0.93893 1.193608,-1.74512 0.212757,-0.41819 0.421784,-0.76992 0.6158,-1.05534 0.196335,-0.29186 0.395621,-0.51751 0.577894,-0.6896 0.182229,-0.17207 0.333414,-0.31472 0.472065,-0.39623 z m 26.446678,2.23914 c 0.0681,-0.0376 0.10658,-0.0557 0.1548,-0.0381 0.25735,0.0946 0.47683,0.22905 0.604,0.41175 0.12514,0.17842 0.20039,0.40962 0.24713,0.68418 0.0491,0.26812 0.13145,0.59886 0.22437,1.00804 0.0952,0.40275 0.2249,0.89364 0.42248,1.43688 0.19548,0.53876 0.51699,1.16632 0.94148,1.88852 0.25694,0.42898 0.44361,0.81621 0.58301,1.18726 0.13941,0.37116 0.24871,0.72654 0.30742,1.03856 0.061,0.30559 0.0865,0.58138 0.0753,0.83465 -0.0133,0.24879 -0.0604,0.45281 -0.11537,0.64586 -0.0507,0.191 -0.1109,0.34341 -0.19457,0.47445 -0.0793,0.12897 -0.15248,0.24815 -0.23235,0.31805 -0.0799,0.0699 -0.15019,0.12169 -0.21335,0.13526 -0.73533,0.11968 -1.61961,-0.32788 -2.63512,-1.30034 -0.24913,-0.23856 -0.5537,-0.39322 -0.89468,-0.5185 -0.34305,-0.12965 -0.68495,-0.23055 -1.04207,-0.24044 -0.3571,-0.0101 -0.72244,0.0436 -1.07988,0.12548 -0.35511,0.0755 -0.69312,0.18167 -1.01578,0.33887 -0.47179,0.22761 -0.89216,0.47824 -1.27831,0.74083 -0.38618,0.2626 -0.78354,0.59774 -1.17266,0.96953 -0.3891,0.37188 -0.75397,0.79941 -1.08405,1.31057 -0.32566,0.50919 -0.58048,1.08349 -0.82924,1.71284 -0.18177,0.47376 -0.31528,0.93217 -0.37421,1.42896 -0.0546,0.49474 -0.0417,1.07245 0.0523,1.68057 0.0984,0.60607 0.28416,1.22892 0.5507,1.86364 0.27097,0.63276 0.65,1.31755 1.16047,2.06398 0.51484,0.74438 1.15087,1.50923 1.88157,2.28142 0.45698,0.48039 0.93285,0.8765 1.46273,1.22559 0.53223,0.34263 1.0553,0.60862 1.57237,0.79122 0.52145,0.18056 1.05772,0.31638 1.59706,0.39686 0.53927,0.0804 1.05939,0.10766 1.5499,0.071 0.4905,-0.0367 0.96447,-0.10935 1.41789,-0.21485 0.45567,-0.11211 0.87815,-0.27408 1.24235,-0.44549 0.36646,-0.17804 0.67516,-0.34138 0.95164,-0.55235 0.27438,-0.21544 0.47659,-0.44002 0.6194,-0.67439 0.0545,-0.0902 0.12642,-0.24035 0.20784,-0.44571 0.0793,-0.20993 0.17204,-0.45694 0.25694,-0.71261 0.0872,-0.26211 0.18312,-0.55279 0.28907,-0.86693 0.10597,-0.31403 0.21371,-0.61275 0.33258,-0.92205 0.11677,-0.31377 0.23147,-0.63736 0.36082,-0.93555 0.12733,-0.30247 0.26856,-0.5802 0.41373,-0.82103 0.14509,-0.2409 0.29762,-0.42584 0.44947,-0.59441 0.15184,-0.16846 0.32592,-0.28469 0.49847,-0.33906 0.17053,-0.0586 0.33548,-0.0412 0.50217,0.0421 0.15179,0.0742 0.26074,0.2312 0.36424,0.48986 0.10138,0.25419 0.17917,0.55289 0.24136,0.89558 0.0666,0.34073 0.16942,0.70416 0.27719,1.12238 0.10783,0.41843 0.23942,0.84517 0.39989,1.23871 0.16483,0.39149 0.39222,0.76489 0.6963,1.13394 0.86309,1.00099 1.42907,1.8066 1.66818,2.4166 0.23701,0.60553 0.16514,1.05651 -0.17596,1.33565 -0.33468,0.28158 -0.91604,0.44973 -1.77475,0.48727 -0.40773,0.0194 -0.81922,0.0969 -1.23663,0.234 -0.41538,0.14159 -0.81135,0.31471 -1.20272,0.53131 -0.38705,0.21446 -0.80306,0.45246 -1.22167,0.71418 -0.41428,0.25957 -0.86157,0.52554 -1.35009,0.80936 -0.48854,0.28383 -0.99126,0.56019 -1.51807,0.81893 -0.52672,0.25903 -1.14451,0.5018 -1.83712,0.72543 -0.69268,0.22355 -1.41897,0.40702 -2.16749,0.53279 -0.65721,0.11531 -1.29872,0.11332 -1.94451,0.0452 -0.64142,-0.0701 -1.23604,-0.1967 -1.80659,-0.40259 -0.56823,-0.21242 -1.139,-0.48492 -1.69698,-0.83703 -0.55558,-0.35848 -1.07666,-0.77887 -1.56092,-1.21423 -0.4798,-0.43725 -0.95823,-0.90621 -1.42868,-1.45042 -0.4681,-0.55067 -0.90237,-1.12271 -1.29648,-1.6867 -0.39615,-0.56839 -0.79801,-1.16592 -1.18129,-1.81052 -0.51863,-0.84505 -0.93589,-1.6809 -1.28872,-2.49084 -0.35274,-0.80976 -0.6504,-1.57806 -0.86015,-2.30956 -0.2098,-0.73159 -0.3475,-1.44276 -0.41659,-2.17042 -0.0712,-0.73213 -0.0749,-1.45393 -0.0258,-2.14562 0.0534,-0.69368 0.1542,-1.40382 0.32348,-2.13586 0.17895,-0.76889 0.43904,-1.52519 0.7879,-2.2501 0.35121,-0.73135 0.78495,-1.4345 1.30139,-2.10888 0.52081,-0.67643 1.1543,-1.3099 1.88275,-1.8954 0.72847,-0.5854 1.53257,-1.09871 2.40374,-1.51407 0.55285,-0.26019 1.10521,-0.48585 1.65396,-0.67407 0.54876,-0.18811 1.01423,-0.29594 1.38015,-0.37115 0.36592,-0.0751 0.71757,-0.17491 1.05537,-0.25316 0.33583,-0.0825 0.6012,-0.13037 0.80243,-0.2036 0.20125,-0.0731 0.382,-0.20328 0.52685,-0.35229 0.14274,-0.1535 0.22697,-0.33279 0.28144,-0.58494 0.0867,-0.40206 0.21403,-0.80021 0.39491,-1.1603 0.18084,-0.36006 0.3796,-0.63837 0.55339,-0.81727 0.0881,-0.0927 0.1603,-0.13971 0.22848,-0.17713 z m 28.67886,-13.07994 c 1.63926,-0.7068 3.11706,-0.25917 4.47957,1.33709 0.0281,-0.0779 0.091,-0.19727 0.14924,-0.34864 0.17472,-0.4543 0.31317,-0.78852 0.41942,-1.03263 0.10623,-0.24411 0.29428,-0.60757 0.55907,-1.02886 0.2672,-0.42756 0.55382,-0.75222 0.86688,-1.03431 0.31097,-0.28656 0.72035,-0.60619 1.25567,-0.93909 0.53769,-0.33926 1.16662,-0.64306 1.85608,-0.9083 0.46832,-0.17721 0.96601,-0.3404 1.48025,-0.45301 0.5142,-0.11261 0.96367,-0.18148 1.34801,-0.21683 0.38869,-0.0373 0.75838,-0.0687 1.14976,-0.12351 0.39134,-0.0548 0.73053,-0.12476 1.01196,-0.19786 0.28134,-0.0732 0.55428,-0.19617 0.79302,-0.37323 0.24309,-0.17911 0.42243,-0.42477 0.56466,-0.71823 0.34797,-0.69208 0.76081,-0.78348 1.25177,-0.27587 0.48681,0.49876 0.94826,1.44077 1.3641,2.80326 0.41989,1.37139 0.64856,2.64212 0.68042,3.78631 0.0109,0.55558 -0.0384,1.00377 -0.13446,1.35088 -0.26465,-0.14494 -0.55987,-0.32562 -0.89468,-0.51851 -0.3325,-0.19931 -0.59641,-0.35741 -0.81167,-0.48807 -0.21521,-0.13047 -0.46179,-0.26787 -0.74366,-0.41552 -0.28398,-0.1521 -0.53334,-0.26716 -0.74561,-0.3451 -0.21,-0.0845 -0.45209,-0.1554 -0.72111,-0.21744 -0.26471,-0.0642 -0.5237,-0.0981 -0.76647,-0.0917 -0.2448,0.002 -0.5218,0.0427 -0.81371,0.10455 -0.29195,0.0619 -0.58924,0.15426 -0.90249,0.28555 -0.56104,0.24256 -1.07099,0.50851 -1.55963,0.80363 -0.48444,0.29271 -0.9444,0.63324 -1.3841,1.03429 -0.43972,0.40107 -0.80346,0.83106 -1.09727,1.28194 -0.29376,0.45108 -0.54297,0.94288 -0.68381,1.50519 -0.14087,0.56232 -0.16601,1.14176 -0.0893,1.74721 0.0333,0.29171 0.0787,0.60553 0.1564,0.93558 0.08,0.32361 0.1784,0.65526 0.26782,0.95285 0.0873,0.2932 0.20862,0.62923 0.37734,1.0405 0.16655,0.40682 0.33195,0.77009 0.46035,1.07092 0.12803,0.30102 0.29976,0.69516 0.55469,1.2006 0.25289,0.50105 0.47318,0.90954 0.63774,1.2311 0.1625,0.31708 0.41529,0.77899 0.74526,1.38931 0.33007,0.61029 0.57762,1.0957 0.77168,1.44648 0.19406,0.35078 0.48287,0.88538 0.87928,1.60465 0.0414,0.0776 0.0909,0.13372 0.10752,0.1582 0.34054,0.6215 0.66227,1.15386 0.97748,1.59329 0.31308,0.43486 0.68053,0.8507 1.09836,1.25787 0.41781,0.40717 0.87741,0.77964 1.4099,1.11124 0.53048,0.32731 1.17653,0.64923 1.88951,0.95523 -0.40102,0.0108 -0.88562,0.1119 -1.40656,0.31399 -0.51659,0.20002 -1.02935,0.45461 -1.54453,0.76166 -0.51516,0.30717 -1.05339,0.63698 -1.60686,0.99993 -0.55145,0.36733 -1.07757,0.72865 -1.60881,1.07033 -0.5248,0.3441 -1.02526,0.6537 -1.50676,0.91806 -0.47947,0.26877 -0.92555,0.45221 -1.35759,0.56924 -0.42998,0.12152 -0.81446,0.13342 -1.11948,0.0398 -0.22989,-0.0697 -0.38488,-0.17923 -0.48135,-0.29553 -0.0985,-0.12079 -0.13028,-0.23469 -0.11502,-0.39823 0.0152,-0.16363 0.0543,-0.35643 0.1266,-0.54691 0.0747,-0.19684 0.14848,-0.4218 0.24185,-0.67065 0.0957,-0.2553 0.18684,-0.5227 0.25889,-0.783 0.0744,-0.26686 0.10512,-0.54506 0.10787,-0.88601 0.003,-0.34094 -0.0572,-0.67989 -0.1545,-1.00607 -0.53152,-1.80951 -1.12401,-3.6585 -1.80696,-5.55299 -0.68065,-1.90103 -1.39585,-3.64771 -2.16579,-5.21016 -0.32449,-0.65601 -0.60191,-1.18817 -0.80941,-1.60267 -0.20958,-0.41899 -0.44816,-0.89002 -0.73022,-1.43125 -0.28205,-0.54123 -0.52453,-0.99228 -0.71884,-1.33214 -0.19441,-0.33982 -0.41991,-0.67435 -0.6567,-1.04823 -0.23679,-0.37377 -0.43415,-0.6769 -0.61892,-0.89184 -0.18245,-0.2215 -0.37919,-0.40342 -0.57187,-0.56609 -0.19475,-0.16715 -0.37053,-0.29322 -0.53608,-0.33938 -0.0729,-0.0304 -0.1337,-0.015 -0.18316,0.0514 -0.0471,0.06 -0.0833,0.14023 -0.0907,0.25158 -0.007,0.11128 0.004,0.25947 -0.0114,0.423 -0.0153,0.16354 -0.039,0.32762 -0.0417,0.50674 -0.005,0.17484 -0.0388,0.3732 -0.0851,0.56213 -0.0463,0.18893 -0.10086,0.36508 -0.1682,0.53152 -0.0693,0.16214 -0.16787,0.31677 -0.30595,0.45726 -0.13809,0.1405 -0.31251,0.23284 -0.5117,0.31044 -0.19481,0.0755 -0.35982,0.0978 -0.49085,0.057 -0.13309,-0.0452 -0.24101,-0.13168 -0.32841,-0.26305 -0.0851,-0.13789 -0.14971,-0.30016 -0.22454,-0.486 -0.0728,-0.19215 -0.18167,-0.40517 -0.29055,-0.62888 -0.10637,-0.23024 -0.23212,-0.44557 -0.37361,-0.65939 -0.1371,-0.21578 -0.31555,-0.43281 -0.56995,-0.63659 -0.25441,-0.20378 -0.57085,-0.35575 -0.90982,-0.47663 0.21074,-0.50354 0.51758,-0.97782 0.89152,-1.42877 0.37624,-0.45749 0.81626,-0.87584 1.29163,-1.23443 0.4754,-0.3585 0.94199,-0.67309 1.42374,-0.94848 0.48182,-0.27522 1.00105,-0.52738 1.54453,-0.76168 z m 27.16633,-11.95045 c 0.63916,-0.32778 1.286,-0.60859 1.99387,-0.83395 0.70582,-0.22974 1.3948,-0.40355 2.04092,-0.50819 0.65053,-0.1066 1.30193,-0.18622 1.93514,-0.21474 0.63559,-0.0348 1.20074,-0.0289 1.69157,0.004 0.4931,0.0267 0.9203,0.10308 1.32333,0.17755 1.0324,0.18809 1.96144,0.39195 2.76368,0.68302 0.80216,0.29099 1.46923,0.64265 2.01408,1.00095 0.54273,0.35384 0.98638,0.7307 1.33816,1.17987 0.3517,0.44909 0.6243,0.92561 0.78681,1.40449 0.16039,0.47444 0.22674,0.99224 0.23742,1.55873 0.0106,0.56651 -0.0335,1.14469 -0.144,1.70337 -0.11247,0.55441 -0.27644,1.12771 -0.49514,1.76429 -0.29624,0.86196 -0.79086,1.73397 -1.46759,2.5701 -0.67884,0.83165 -1.53529,1.6332 -2.56825,2.42672 -1.03505,0.78905 -2.19372,1.55353 -3.48761,2.30259 -1.29589,0.74477 -2.74612,1.51206 -4.39561,2.27769 0.17538,0.24085 0.34531,0.4962 0.55291,0.74896 0.20991,0.24632 0.47832,0.4866 0.77567,0.78332 0.29535,0.29241 0.57948,0.56261 0.88709,0.80059 0.3076,0.23799 0.65686,0.46729 1.03057,0.66336 0.3761,0.1897 0.75542,0.32534 1.1213,0.41195 0.36384,0.0823 0.75695,0.10053 1.15913,0.046 0.40658,-0.0565 0.78326,-0.18622 1.15739,-0.40551 0.81678,-0.48676 1.47202,-0.91966 2.00531,-1.25695 0.53765,-0.33935 1.10401,-0.7166 1.65223,-1.12563 0.55258,-0.41107 0.97591,-0.77937 1.31618,-1.10666 0.3382,-0.33168 0.70796,-0.73813 1.067,-1.19821 0.36133,-0.46662 0.66071,-0.90553 0.88957,-1.35836 0.23121,-0.45917 0.46224,-1.00611 0.71603,-1.65933 0.25376,-0.6532 0.46962,-1.34647 0.67076,-2.05587 0.20552,-0.71134 0.45869,-1.54567 0.69738,-2.52064 0.85077,1.13619 1.72193,2.79578 2.66045,5.0121 0.91011,2.1435 1.51483,3.97893 1.82207,5.51103 0.27483,1.36961 0.21288,2.13009 -0.18755,2.2808 -0.10078,0.0363 -0.20978,0.038 -0.34923,-0.0101 -1.34211,-0.43053 -2.55938,-0.5571 -3.66618,-0.39746 -1.10037,0.16207 -2.13122,0.62608 -3.0852,1.38243 -0.31654,0.25143 -0.61832,0.45917 -0.87048,0.65335 -0.24784,0.19204 -0.54342,0.41845 -0.89885,0.66659 -0.35339,0.25263 -0.66912,0.48063 -0.96868,0.66471 -0.29751,0.18858 -0.62803,0.37298 -1.00827,0.579 -0.37389,0.20826 -0.76294,0.38057 -1.10457,0.51986 -0.33965,0.14359 -0.68566,0.28295 -1.08756,0.40739 -0.39549,0.12678 -0.77741,0.21153 -1.15357,0.26451 -0.36971,0.0554 -0.79297,0.0801 -1.20449,0.0796 -0.40951,0.004 -0.78461,-0.0332 -1.18554,-0.10321 -0.78238,-0.14405 -1.63809,-0.43835 -2.52006,-0.90202 -0.87762,-0.46584 -1.69817,-1.01934 -2.4991,-1.67763 -0.80293,-0.66257 -1.58593,-1.41126 -2.30255,-2.22238 -0.71431,-0.81765 -1.30022,-1.65064 -1.80597,-2.49094 -0.35838,-0.60231 -0.70199,-1.16413 -0.98876,-1.69233 -0.28877,-0.53261 -0.57554,-1.10792 -0.86224,-1.71701 -0.28692,-0.6091 -0.52297,-1.16563 -0.72258,-1.71325 -0.19516,-0.54972 -0.37371,-1.12841 -0.52619,-1.73597 -0.15253,-0.60764 -0.23616,-1.19125 -0.28838,-1.74366 -0.0498,-0.55876 -0.06,-1.16424 -0.0221,-1.7644 0.0379,-0.60015 0.11679,-1.17049 0.27048,-1.72814 0.15608,-0.56403 0.40309,-1.13419 0.68957,-1.7166 0.28885,-0.58887 0.62308,-1.14998 1.03882,-1.70701 0.47636,-0.63391 1.0341,-1.21057 1.6543,-1.71817 0.62254,-0.51406 1.26592,-0.92221 1.90713,-1.24559 z m -44.91333,21.45137 c 0.62807,-0.31709 1.27163,-0.62288 1.93913,-0.87779 0.66753,-0.25481 1.33821,-0.45142 1.95982,-0.60911 0.61952,-0.16217 1.20718,-0.28829 1.78603,-0.38823 0.58119,-0.10637 1.09714,-0.20164 1.54436,-0.23962 0.44723,-0.0379 0.83638,-0.0334 1.16103,-0.0244 0.75958,0.0253 1.49007,0.15164 2.19928,0.35697 0.70921,0.20544 1.37245,0.47417 1.9632,0.81621 0.59303,0.33551 1.14962,0.73082 1.6874,1.18945 0.53773,0.45864 1.01238,0.94252 1.44191,1.47905 0.42949,0.53653 0.84663,1.12199 1.21151,1.72669 0.36717,0.59816 0.67418,1.2007 0.94335,1.81804 0.26925,0.61741 0.49286,1.2435 0.69044,1.86758 0.19753,0.62411 0.34462,1.22005 0.45445,1.80459 0.11417,0.58249 0.18717,1.1368 0.22037,1.67109 0.037,0.63508 0.0722,1.18123 0.0826,1.59684 0.0148,0.41356 -0.001,0.87741 -0.025,1.43854 -0.0259,0.55677 -0.0783,1.04369 -0.16465,1.4348 -0.084,0.38468 -0.21397,0.83404 -0.38553,1.32984 -0.17156,0.4959 -0.37062,0.92491 -0.63658,1.30889 -0.26363,0.37754 -0.61439,0.78517 -1.01227,1.24204 -0.39559,0.45034 -0.84599,0.87357 -1.37664,1.27434 -0.52836,0.39422 -1.15853,0.82567 -1.86561,1.2608 -0.70471,0.42877 -1.4699,0.84971 -2.34133,1.27599 -0.89529,0.4325 -1.83047,0.71885 -2.76411,0.8833 -0.92927,0.1624 -1.82918,0.21921 -2.70162,0.12301 -0.86802,-0.0982 -1.71788,-0.31883 -2.5692,-0.63524 -0.84896,-0.32285 -1.64616,-0.7291 -2.39914,-1.23734 -0.75298,-0.50824 -1.4691,-1.13004 -2.14597,-1.80886 -0.67252,-0.68096 -1.28066,-1.41384 -1.81361,-2.20894 -0.53501,-0.79958 -0.9986,-1.65584 -1.39818,-2.57852 -0.39954,-0.9226 -0.71346,-1.868 -0.9299,-2.83367 -0.22083,-0.96361 -0.3305,-1.95993 -0.35218,-3.00122 -0.0216,-1.04111 0.0666,-2.06742 0.26522,-3.08287 0.14121,-0.73498 0.38475,-1.42513 0.72745,-2.08243 0.34708,-0.65937 0.72728,-1.23977 1.19365,-1.74503 0.47074,-0.50732 1.03031,-0.98438 1.61831,-1.42293 0.586,-0.44284 1.16624,-0.81104 1.79192,-1.12177 z m 48.01401,-17.72536 c -0.54568,0.28009 -1.03775,0.61169 -1.49548,1.0171 -0.56783,0.49376 -1.00646,1.02761 -1.32954,1.60018 -0.32305,0.57266 -0.52797,1.16557 -0.60652,1.74711 -0.0806,0.57715 -0.0517,1.16002 0.0637,1.7797 0.11771,0.61322 0.31561,1.21711 0.59416,1.80843 0.28118,0.58474 0.6243,1.17574 1.05667,1.76471 2.58616,-0.95824 4.87119,-2.11564 6.87482,-3.47915 1.85587,-1.26701 3.07289,-2.45497 3.6333,-3.55451 0.57391,-1.11648 0.37982,-1.97807 -0.58635,-2.61249 -0.15319,-0.10043 -0.31929,-0.19384 -0.50962,-0.28211 -0.72118,-0.32376 -1.49412,-0.57025 -2.31625,-0.68479 -0.8242,-0.11891 -1.64236,-0.10592 -2.44668,0.003 -0.80641,0.10459 -1.59904,0.30847 -2.36574,0.6261 -0.1918,0.0791 -0.38456,0.1732 -0.56644,0.2666 z m -44.6662,22.13554 c -0.63036,0.32374 -1.22587,0.68831 -1.7636,1.10844 -0.53535,0.41378 -0.9612,0.83336 -1.30677,1.2763 -0.24019,0.31261 -0.3897,0.71329 -0.49306,1.17175 -0.1034,0.45838 -0.16503,0.9599 -0.13827,1.49187 0.0291,0.52552 0.11556,1.0921 0.26193,1.68639 0.14871,0.58784 0.352,1.15188 0.59606,1.73794 0.24641,0.57961 0.53742,1.14747 0.8906,1.70377 0.3511,0.55184 0.74889,1.06699 1.1606,1.54185 0.41604,0.47271 0.86982,0.90617 1.37776,1.26558 0.5059,0.35503 1.02762,0.6349 1.55728,0.83318 0.53399,0.19615 1.10123,0.2802 1.71221,0.27295 0.61101,-0.007 1.21885,-0.12953 1.82758,-0.37293 0.81232,-0.32295 1.5415,-0.73775 2.19975,-1.20925 0.66258,-0.47365 1.22656,-0.96849 1.67687,-1.52009 0.45028,-0.55158 0.81584,-1.16474 1.09736,-1.80416 0.28158,-0.63924 0.46856,-1.27627 0.5556,-1.93196 0.087,-0.65559 0.0711,-1.32396 -0.0296,-2.00444 -0.0963,-0.68253 -0.28261,-1.32329 -0.56201,-1.96277 -0.27509,-0.64162 -0.64534,-1.30214 -1.12278,-1.90778 -0.47742,-0.60551 -1.04206,-1.14226 -1.68913,-1.64099 -0.4837,-0.37627 -1.03597,-0.65501 -1.68379,-0.8085 -0.64984,-0.15776 -1.31804,-0.19965 -1.99543,-0.13964 -0.67946,0.0556 -1.37771,0.18625 -2.0938,0.39375 -0.71603,0.20771 -1.40263,0.48865 -2.03538,0.81874 z"
         id="path3046"
         inkscape:connector-curvature="0" />
      <g
         transform="matrix(1.152016,-0.08185276,0.08185276,1.152016,-98.469866,-97.822536)"
         id="g4233">
        <path
           sodipodi:type="star"
           style="fill:#b90000;fill-opacity:1"
           id="path4231"
           sodipodi:sides="5"
           sodipodi:cx="144.45181"
           sodipodi:cy="983.01514"
           sodipodi:r1="117.45603"
           sodipodi:r2="58.728016"
           sodipodi:arg1="0.78539816"
           sodipodi:arg2="1.4137167"
           inkscape:flatsided="false"
           inkscape:rounded="0"
           inkscape:randomized="0"
           d="m 227.50577,1066.0691 -73.86687,-25.049 -62.511009,46.6491 0.996876,-77.9921 -63.682907,-45.03613 74.48297,-23.15281 23.15281,-74.48298 45.03613,63.68291 77.99213,-0.99688 -46.64911,62.51101 z"
           transform="matrix(1.1040808,0,0,1.1040808,-18.85791,-327.71033)"
           inkscape:transform-center-x="6.2688943"
           inkscape:transform-center-y="-6.2688952" />
        <path
           inkscape:transform-center-y="-5.9073162"
           inkscape:transform-center-x="5.907319"
           transform="matrix(1.0404,0,0,1.0404,-10.020678,-265.47271)"
           d="m 227.50577,1066.0691 -73.86687,-25.049 -62.511009,46.6491 0.996876,-77.9921 -63.682907,-45.03613 74.48297,-23.15281 23.15281,-74.48298 45.03613,63.68291 77.99213,-0.99688 -46.64911,62.51101 z"
           inkscape:randomized="0"
           inkscape:rounded="0"
           inkscape:flatsided="false"
           sodipodi:arg2="1.4137167"
           sodipodi:arg1="0.78539816"
           sodipodi:r2="58.728016"
           sodipodi:r1="117.45603"
           sodipodi:cy="983.01514"
           sodipodi:cx="144.45181"
           sodipodi:sides="5"
           id="path4229"
           style="fill:#ff1a1a;fill-opacity:1"
           sodipodi:type="star" />
        <path
           sodipodi:type="star"
           style="fill:#c40000;fill-opacity:1"
           id="path3788"
           sodipodi:sides="5"
           sodipodi:cx="144.45181"
           sodipodi:cy="983.01514"
           sodipodi:r1="117.45603"
           sodipodi:r2="58.728016"
           sodipodi:arg1="0.78539816"
           sodipodi:arg2="1.4137167"
           inkscape:flatsided="false"
           inkscape:rounded="0"
           inkscape:randomized="0"
           d="m 227.50577,1066.0691 -73.86687,-25.049 -62.511009,46.6491 0.996876,-77.9921 -63.682907,-45.03613 74.48297,-23.15281 23.15281,-74.48298 45.03613,63.68291 77.99213,-0.99688 -46.64911,62.51101 z"
           transform="matrix(0.98,0,0,0.98,-1.412359,-206.45326)"
           inkscape:transform-center-x="5.5643714"
           inkscape:transform-center-y="-5.564375" />
        <path
           inkscape:transform-center-y="-4.8305773"
           inkscape:transform-center-x="4.8305724"
           transform="matrix(0.85076302,0,0,0.85076302,17.985172,-80.220829)"
           d="m 227.50577,1066.0691 -73.86687,-25.049 -62.511009,46.6491 0.996876,-77.9921 -63.682907,-45.03613 74.48297,-23.15281 23.15281,-74.48298 45.03613,63.68291 77.99213,-0.99688 -46.64911,62.51101 z"
           inkscape:randomized="0"
           inkscape:rounded="0"
           inkscape:flatsided="false"
           sodipodi:arg2="1.4137167"
           sodipodi:arg1="0.78539816"
           sodipodi:r2="58.728016"
           sodipodi:r1="117.45603"
           sodipodi:cy="983.01514"
           sodipodi:cx="144.45181"
           sodipodi:sides="5"
           id="path4238"
           style="fill:#ff9090;fill-opacity:1"
           sodipodi:type="star" />
        <path
           sodipodi:type="star"
           style="fill:#ffffff;fill-opacity:1;filter:url(#filter4531)"
           id="path4240"
           sodipodi:sides="5"
           sodipodi:cx="144.45181"
           sodipodi:cy="983.01514"
           sodipodi:r1="117.45603"
           sodipodi:r2="58.728016"
           sodipodi:arg1="0.78539816"
           sodipodi:arg2="1.4137167"
           inkscape:flatsided="false"
           inkscape:rounded="0"
           inkscape:randomized="0"
           d="m 227.50577,1066.0691 -73.86687,-25.049 -62.511009,46.6491 0.996876,-77.9921 -63.682907,-45.03613 74.48297,-23.15281 23.15281,-74.48298 45.03613,63.68291 77.99213,-0.99688 -46.64911,62.51101 z"
           transform="matrix(0.70932176,0,0,0.70932176,39.214475,57.932148)"
           inkscape:transform-center-x="4.0274786"
           inkscape:transform-center-y="-4.0274878" />
      </g>
    </g>
  </g>
</svg>
