<?xml version="1.0" encoding="UTF-8" standalone="no"?>
<!-- Created with Inkscape (http://www.inkscape.org/) -->

<svg
   xmlns:dc="http://purl.org/dc/elements/1.1/"
   xmlns:cc="http://creativecommons.org/ns#"
   xmlns:rdf="http://www.w3.org/1999/02/22-rdf-syntax-ns#"
   xmlns:svg="http://www.w3.org/2000/svg"
   xmlns="http://www.w3.org/2000/svg"
   xmlns:xlink="http://www.w3.org/1999/xlink"
   xmlns:sodipodi="http://sodipodi.sourceforge.net/DTD/sodipodi-0.dtd"
   xmlns:inkscape="http://www.inkscape.org/namespaces/inkscape"
   width="279.34326"
   height="345.1644"
   id="svg5754"
   version="1.1"
   inkscape:version="0.48.5 r10040"
   sodipodi:docname="ButtonScoreUp.svg">
  <defs
     id="defs5756">
    <linearGradient
       id="linearGradient5869">
      <stop
         style="stop-color:#c10000;stop-opacity:1;"
         offset="0"
         id="stop5871" />
      <stop
         id="stop6393"
         offset="0.5"
         style="stop-color:#ff2525;stop-opacity:1;" />
      <stop
         style="stop-color:#6b0000;stop-opacity:1;"
         offset="1"
         id="stop5873" />
    </linearGradient>
    <filter
       color-interpolation-filters="sRGB"
       inkscape:collect="always"
       id="filter4324">
      <feGaussianBlur
         inkscape:collect="always"
         stdDeviation="0.78499799"
         id="feGaussianBlur4326" />
    </filter>
    <filter
       color-interpolation-filters="sRGB"
       inkscape:collect="always"
       id="filter4531">
      <feGaussianBlur
         inkscape:collect="always"
         stdDeviation="4.4074884"
         id="feGaussianBlur4533" />
    </filter>
    <radialGradient
       inkscape:collect="always"
       xlink:href="#linearGradient5869"
       id="radialGradient6395"
       cx="156.33321"
       cy="764.42133"
       fx="156.33321"
       fy="764.42133"
       r="128.39732"
       gradientTransform="matrix(-1.4167631,-1.0295541,1.4514195,-1.9972892,-739.76257,2454.3458)"
       gradientUnits="userSpaceOnUse" />
  </defs>
  <sodipodi:namedview
     id="base"
     pagecolor="#ffffff"
     bordercolor="#666666"
     borderopacity="1.0"
     inkscape:pageopacity="0.0"
     inkscape:pageshadow="2"
     inkscape:zoom="2.8"
     inkscape:cx="182.20275"
     inkscape:cy="106.06119"
     inkscape:document-units="px"
     inkscape:current-layer="g4246"
     showgrid="false"
     fit-margin-top="0"
     fit-margin-left="0"
     fit-margin-right="0"
     fit-margin-bottom="0"
     inkscape:window-width="1366"
     inkscape:window-height="744"
     inkscape:window-x="0"
     inkscape:window-y="24"
     inkscape:window-maximized="1" />
  <metadata
     id="metadata5759">
    <rdf:RDF>
      <cc:Work
         rdf:about="">
        <dc:format>image/svg+xml</dc:format>
        <dc:type
           rdf:resource="http://purl.org/dc/dcmitype/StillImage" />
        <dc:title />
      </cc:Work>
    </rdf:RDF>
  </metadata>
  <g
     inkscape:label="Layer 1"
     inkscape:groupmode="layer"
     id="layer1"
     transform="translate(-184.58734,-422.18088)">
    <g
       id="g4246"
       transform="translate(179.30681,-188.38584)">
      <path
         style="fill:#840000;fill-opacity:0.28615388"
         d="m 6.6130079,772.1994 c 0,100.16709 -15.6939079,183.53173 60.6381731,183.53173 76.332089,0 215.784719,-81.20144 215.784719,-181.36853 0,-100.16698 -66.27163,-148.54709 -142.60372,-148.54709 -76.332073,0 -133.8191721,46.21691 -133.8191721,146.38389 z"
         id="path4244"
         inkscape:connector-curvature="0"
         sodipodi:nodetypes="sssss" />
      <path
         inkscape:connector-curvature="0"
         style="fill:#690000;fill-opacity:0.76615385"
         d="m 136.5625,853.8125 c -73.396225,0 -128.65625,44.4356 -128.65625,140.75 0,96.3145 -15.0837319,176.4687 58.3125,176.4687 73.39624,0 207.46875,-78.0917 207.46875,-174.4062 0,-96.3144 -63.72876,-142.8125 -137.125,-142.8125 z M 52.375,1089.5938 c -0.03324,0.1756 -0.08313,0.4198 -0.1875,0.7187 -0.104416,0.2942 -0.217622,0.6026 -0.3125,0.9063 -0.09493,0.2989 -0.174102,0.6346 -0.25,1 -0.07594,0.3654 -0.103263,0.7774 -0.09375,1.2187 0.01421,0.4413 0.09061,0.8618 0.21875,1.3125 0.1708,0.6027 0.28204,1.1656 0.34375,1.6875 0.06641,0.522 0.06444,1.0453 0.03125,1.5625 -0.03324,0.5125 -0.09737,1.0133 -0.1875,1.4688 -0.09018,0.4508 -0.2042,0.9551 -0.375,1.5624 -0.132886,-0.095 -0.256396,-0.1918 -0.375,-0.3437 -0.11865,-0.1566 -0.22989,-0.3509 -0.34375,-0.5313 -0.113905,-0.185 -0.237414,-0.3631 -0.375,-0.5624 -0.13763,-0.1993 -0.351772,-0.402 -0.59375,-0.625 -0.237277,-0.223 -0.50409,-0.4305 -0.8125,-0.625 -1.048687,-0.6454 -2.206572,-1.08 -3.46875,-1.3126 -1.262213,-0.2372 -2.442671,-0.2439 -3.5625,0.031 -0.669072,0.1756 -1.293331,0.4274 -1.84375,0.75 -0.550443,0.318 -0.975609,0.6782 -1.3125,1.0625 -0.336913,0.3796 -0.585897,0.787 -0.71875,1.2188 -0.132873,0.4318 -0.118637,0.8561 0,1.25 0.128108,0.4365 0.29873,0.8316 0.53125,1.1874 0.232499,0.356 0.494567,0.6671 0.8125,0.9376 0.31791,0.2704 0.688439,0.5005 1.125,0.7187 0.441282,0.2183 0.939251,0.4012 1.4375,0.5625 0.502966,0.1566 1.051641,0.3312 1.6875,0.4688 0.583631,0.1233 1.20789,0.2694 1.84375,0.4687 0.640571,0.1993 1.311942,0.4558 2,0.75 0.68802,0.2895 1.332886,0.6279 1.96875,1.0313 0.640567,0.3986 1.188428,0.8304 1.625,1.2812 1.034408,1.0677 1.740622,2.317 2.125,3.75 0.384328,1.4283 0.495568,3.0585 0.34375,4.9375 -0.05222,0.6453 -0.104079,1.2272 -0.15625,1.6875 -0.05222,0.4555 -0.119128,0.9421 -0.21875,1.4688 -0.09493,0.5219 -0.210912,1.0009 -0.34375,1.4374 -0.132887,0.4319 -0.295985,0.8646 -0.5,1.3438 -0.204063,0.4745 -0.465318,0.9535 -0.75,1.4375 -0.279984,0.484 -0.598655,1.0045 -0.96875,1.5313 -0.403356,0.5551 -0.839977,1.0294 -1.28125,1.4374 -0.441315,0.4081 -0.89102,0.7513 -1.375,1.0313 -0.48402,0.2752 -1.027136,0.4902 -1.625,0.6563 -0.593155,0.166 -1.198433,0.299 -1.84375,0.375 -0.64535,0.081 -1.393117,0.1202 -2.21875,0.125 -0.593151,0 -1.148537,-0.027 -1.65625,-0.094 -0.502993,-0.066 -1.0093,-0.1729 -1.53125,-0.3438 -0.521972,-0.1755 -1.028279,-0.4273 -1.53125,-0.75 -0.498245,-0.3274 -0.998993,-0.7442 -1.46875,-1.2187 -0.465027,-0.465 -0.838335,-0.9052 -1.15625,-1.375 -0.317928,-0.4745 -0.577217,-0.9535 -0.78125,-1.4375 -0.204045,-0.484 -0.413442,-0.9847 -0.59375,-1.4688 -0.180319,-0.4887 -0.427338,-1.0666 -0.75,-1.75 -0.322671,-0.688 -0.676185,-1.4009 -1.09375,-2.0937 -0.170827,-0.2847 -0.387748,-0.5297 -0.625,-0.7813 -0.237258,-0.2514 -0.464483,-0.4589 -0.6875,-0.625 -0.223022,-0.166 -0.454992,-0.3461 -0.6875,-0.5312 -0.232511,-0.185 -0.439942,-0.3699 -0.625,-0.5312 -0.18506,-0.1614 -0.352902,-0.3443 -0.5,-0.5626 -0.147098,-0.223 -0.250814,-0.4672 -0.3125,-0.7187 0.113882,-0.019 0.417504,-0.078 0.90625,-0.1875 0.493489,-0.1091 0.905571,-0.1978 1.21875,-0.25 0.313174,-0.052 0.750609,-0.1068 1.34375,-0.1875 0.593133,-0.081 1.255014,-0.14 2,-0.1875 0.744975,-0.047 1.579443,-0.1013 2.5,-0.125 1.898031,0.043 3.129532,0.1607 3.65625,0.3125 0.398576,0.1139 0.593738,0.2893 0.59375,0.5313 -1.2e-5,0.2182 -0.209409,0.5765 -0.59375,1.0937 -0.0617,0.085 -0.128605,0.1891 -0.21875,0.3125 -0.744992,0.9965 -1.162633,1.9196 -1.28125,2.75 -0.113893,0.8304 0.08127,1.5366 0.59375,2.125 0.294185,0.3417 0.689253,0.6057 1.1875,0.7812 0.502968,0.1756 1.041339,0.2473 1.625,0.2188 0.588378,-0.028 1.148509,-0.186 1.65625,-0.4375 0.279945,-0.1376 0.546758,-0.2865 0.8125,-0.5 0.270454,-0.2183 0.542013,-0.5286 0.8125,-0.875 0.270454,-0.3464 0.514693,-0.7122 0.71875,-1.125 0.204021,-0.4176 0.367119,-0.8993 0.5,-1.4687 0.13759,-0.5695 0.209241,-1.1862 0.21875,-1.8126 0.0047,-0.389 -0.03683,-0.7303 -0.09375,-1.0624 -0.05696,-0.3369 -0.128611,-0.6671 -0.21875,-0.9376 -0.08543,-0.2704 -0.216464,-0.5032 -0.40625,-0.75 -0.189822,-0.2467 -0.382203,-0.4664 -0.5625,-0.6562 -0.175586,-0.1898 -0.422605,-0.3944 -0.75,-0.5938 -0.327428,-0.1992 -0.635795,-0.3576 -0.90625,-0.5 -0.265741,-0.1423 -0.624,-0.3101 -1.09375,-0.5 -0.465034,-0.1945 -0.884641,-0.3671 -1.25,-0.5 -0.365386,-0.1328 -0.839629,-0.3129 -1.4375,-0.5312 -0.868364,-0.3084 -1.650975,-0.612 -2.34375,-0.9062 -0.688048,-0.2942 -1.351895,-0.6224 -1.96875,-0.9688 -0.61687,-0.3464 -1.142972,-0.6924 -1.59375,-1.0625 -0.45079,-0.3748 -0.845858,-0.7869 -1.1875,-1.2187 -0.341652,-0.4318 -0.61321,-0.8815 -0.8125,-1.375 -0.2942,-0.726 -0.479871,-1.536 -0.59375,-2.4376 -0.113885,-0.9062 -0.138425,-1.8294 -0.0625,-2.75 0.08066,-0.9205 0.273045,-1.8559 0.5625,-2.7812 0.294192,-0.9253 0.6675,-1.7427 1.15625,-2.4688 0.317917,-0.4744 0.653602,-0.8873 1,-1.2812 0.346386,-0.3986 0.706611,-0.7683 1.0625,-1.0625 0.36062,-0.2989 0.701865,-0.5534 1.0625,-0.7813 0.365364,-0.2324 0.750128,-0.4106 1.125,-0.5624 0.374854,-0.1519 0.728367,-0.3066 1.09375,-0.4063 0.370107,-0.1 0.745381,-0.1495 1.125,-0.1875 0.384342,-0.043 0.747346,-0.062 1.09375,-0.062 0.351125,0 0.728364,0.02 1.09375,0.062 0.68328,0.076 1.27073,0.1627 1.75,0.2812 0.483985,0.1187 0.846989,0.247 1.09375,0.375 0.246729,0.1235 0.4324,0.2565 0.59375,0.375 0.166061,0.1187 0.350919,0.2347 0.53125,0.3438 0.180296,0.1044 0.370712,0.1761 0.59375,0.2188 0.474492,0.1 0.953481,0.068 1.4375,-0.094 0.488725,-0.1613 1.110204,-0.5263 1.8125,-1.0625 0.360606,-0.2799 0.679277,-0.4854 0.96875,-0.6563 0.294174,-0.1755 0.548717,-0.3302 0.78125,-0.4062 0.232487,-0.076 0.437138,-0.1107 0.59375,-0.125 0.156565,-0.019 0.310172,-0.036 0.5,-0.031 z m 22.0625,12.9374 c 0.07592,0 0.120651,0 0.15625,0.031 0.189783,0.1898 0.305768,0.4115 0.34375,0.625 0.03794,0.2088 0.03991,0.4265 -0.03125,0.6875 -0.06645,0.2563 -0.164609,0.6014 -0.25,1 -0.08069,0.3939 -0.14007,0.8776 -0.1875,1.4375 -0.04747,0.5552 -0.01819,1.2199 0.0625,2.0313 0.05218,0.484 0.0597,0.9281 0.03125,1.3124 -0.02849,0.3844 -0.08035,0.7324 -0.15625,1.0313 -0.0712,0.2942 -0.167388,0.5317 -0.28125,0.75 -0.113902,0.2135 -0.215652,0.4154 -0.34375,0.5625 -0.123392,0.1471 -0.278152,0.2631 -0.40625,0.3438 -0.123392,0.081 -0.212872,0.1277 -0.3125,0.1562 -0.09967,0.028 -0.188333,0.014 -0.25,0 -0.702293,-0.1993 -1.309537,-0.911 -1.8125,-2.1875 -0.12339,-0.3132 -0.311026,-0.6235 -0.5625,-0.875 -0.251507,-0.2562 -0.530589,-0.4371 -0.84375,-0.5937 -0.313192,-0.1566 -0.648877,-0.2679 -1,-0.3438 -0.346407,-0.081 -0.680126,-0.1297 -1.03125,-0.125 -0.512484,0 -1.017978,0.054 -1.46875,0.125 -0.450796,0.071 -0.908026,0.1777 -1.40625,0.3438 -0.498246,0.166 -0.997029,0.4055 -1.5,0.7187 -0.498244,0.3132 -0.989503,0.7055 -1.46875,1.1563 -0.35589,0.3416 -0.650022,0.7121 -0.90625,1.125 -0.251497,0.4128 -0.490178,0.8946 -0.65625,1.4687 -0.16134,0.5742 -0.22628,1.206 -0.25,1.875 -0.01899,0.6691 0.0404,1.4442 0.1875,2.3125 0.151837,0.8684 0.386586,1.7678 0.71875,2.75 0.208777,0.6121 0.485081,1.1921 0.8125,1.7188 0.332149,0.5219 0.678138,0.9688 1.0625,1.3437 0.389089,0.3749 0.803951,0.7058 1.25,1 0.446029,0.2942 0.892954,0.5479 1.34375,0.7187 0.450773,0.1709 0.897698,0.2802 1.34375,0.375 0.450772,0.09 0.887393,0.1563 1.28125,0.1563 0.398574,0 0.761578,-0.054 1.09375,-0.125 0.332142,-0.076 0.620715,-0.1966 0.84375,-0.3437 0.0854,-0.057 0.187146,-0.1342 0.34375,-0.2813 0.156572,-0.1518 0.31967,-0.3414 0.5,-0.5313 0.185042,-0.1945 0.401963,-0.3924 0.625,-0.625 0.223002,-0.2325 0.454972,-0.4644 0.6875,-0.6874 0.232492,-0.2278 0.450226,-0.4475 0.6875,-0.6563 0.237236,-0.2135 0.490966,-0.4106 0.71875,-0.5625 0.227745,-0.1518 0.420941,-0.2583 0.625,-0.3438 0.204019,-0.085 0.418161,-0.1174 0.59375,-0.094 0.175548,0.019 0.323597,0.1077 0.4375,0.25 0.104371,0.1281 0.139214,0.3233 0.125,0.5937 -0.01426,0.2658 -0.07086,0.5476 -0.15625,0.875 -0.08069,0.3275 -0.142849,0.7122 -0.21875,1.125 -0.07594,0.4129 -0.13729,0.806 -0.15625,1.2188 -0.01426,0.4128 0.0376,0.8617 0.15625,1.3125 0.355861,1.2385 0.506689,2.1767 0.46875,2.8125 -0.03798,0.6311 -0.269952,0.9894 -0.6875,1.0938 -0.412844,0.1091 -1.003073,0.01 -1.78125,-0.3126 -0.370136,-0.1518 -0.760459,-0.2603 -1.1875,-0.3124 -0.427076,-0.048 -0.844717,-0.06 -1.28125,-0.031 -0.43182,0.028 -0.89576,0.068 -1.375,0.125 -0.474525,0.057 -0.980832,0.1088 -1.53125,0.1563 -0.550445,0.047 -1.113355,0.084 -1.6875,0.094 -0.574168,0.01 -1.23049,-0.035 -1.9375,-0.125 -0.707029,-0.09 -1.408498,-0.2382 -2.125,-0.4375 -0.631106,-0.1708 -1.23557,-0.4226 -1.78125,-0.75 -0.540947,-0.3274 -1.015191,-0.6762 -1.4375,-1.0938 -0.417573,-0.4223 -0.805116,-0.9278 -1.15625,-1.4687 -0.346395,-0.5457 -0.654762,-1.1038 -0.90625,-1.6875 -0.246747,-0.5836 -0.461703,-1.2012 -0.65625,-1.875 -0.189806,-0.6785 -0.350124,-1.3404 -0.46875,-2 -0.118629,-0.6643 -0.205329,-1.3677 -0.28125,-2.0938 -0.113883,-0.9584 -0.143981,-1.8598 -0.125,-2.7187 0.01898,-0.8588 0.07362,-1.6755 0.1875,-2.4063 0.113881,-0.7307 0.293994,-1.4246 0.53125,-2.0937 0.237253,-0.6738 0.516336,-1.2866 0.84375,-1.875 0.332154,-0.5884 0.705462,-1.1758 1.15625,-1.75 0.474506,-0.6026 1.017622,-1.1627 1.625,-1.6563 0.612112,-0.4982 1.295753,-0.9328 2.03125,-1.3124 0.740228,-0.3796 1.550157,-0.6615 2.4375,-0.875 0.887323,-0.2136 1.805713,-0.339 2.75,-0.3438 0.59787,0 1.185319,0.032 1.75,0.094 0.564652,0.062 1.019102,0.1333 1.375,0.2187 0.355867,0.085 0.699077,0.1788 1.03125,0.25 0.33214,0.066 0.603698,0.106 0.8125,0.125 0.208767,0.019 0.403928,-0.023 0.59375,-0.094 0.189786,-0.076 0.379388,-0.207 0.53125,-0.4063 0.241981,-0.3179 0.504049,-0.6017 0.8125,-0.8437 0.308412,-0.242 0.584715,-0.4146 0.8125,-0.5 0.116245,-0.045 0.205328,-0.058 0.28125,-0.063 z m 30.84375,0.375 c 1.74619,0.057 2.88231,1.0621 3.4375,3.0313 0.0569,-0.057 0.13611,-0.1408 0.25,-0.25 0.34164,-0.3274 0.61794,-0.5792 0.8125,-0.75 0.19454,-0.1708 0.49816,-0.364 0.90625,-0.625 0.41281,-0.2657 0.82489,-0.4751 1.21875,-0.5937 0.39383,-0.1234 0.88787,-0.2101 1.5,-0.2813 0.61685,-0.076 1.27873,-0.083 2,-0.031 0.48873,0.038 0.997,0.1049 1.5,0.2188 0.50296,0.1139 0.92535,0.2469 1.28125,0.375 0.36061,0.1281 0.72361,0.2299 1.09375,0.3438 0.3701,0.1139 0.72002,0.1978 1,0.25 0.27994,0.052 0.55902,0.057 0.84375,0 0.28943,-0.057 0.53448,-0.1757 0.78125,-0.375 0.59311,-0.465 1.02221,-0.3689 1.25,0.2812 0.22774,0.6406 0.25228,1.6287 0.0625,3 -0.18983,1.3808 -0.52748,2.5736 -0.96875,3.5938 -0.2183,0.4935 -0.42851,0.8905 -0.65625,1.1562 -0.17559,-0.2372 -0.3755,-0.5041 -0.59375,-0.8125 -0.21355,-0.3132 -0.39366,-0.5772 -0.53125,-0.7813 -0.13763,-0.204 -0.31022,-0.4407 -0.5,-0.6874 -0.18983,-0.2515 -0.34343,-0.4372 -0.5,-0.5938 -0.15186,-0.1613 -0.34899,-0.3339 -0.5625,-0.5 -0.2088,-0.1661 -0.40675,-0.3113 -0.625,-0.4062 -0.21829,-0.1 -0.46531,-0.1836 -0.75,-0.25 -0.28472,-0.067 -0.60536,-0.1108 -0.9375,-0.125 -0.5979,-0.019 -1.16359,0.01 -1.71875,0.062 -0.55045,0.057 -1.10109,0.173 -1.65625,0.3438 -0.55519,0.1708 -1.08522,0.4123 -1.53125,0.6875 -0.44605,0.2752 -0.83163,0.626 -1.1875,1.0625 -0.35589,0.4366 -0.6322,0.9354 -0.8125,1.5 -0.0902,0.2705 -0.15233,0.5524 -0.21875,0.875 -0.0617,0.3179 -0.11355,0.6386 -0.15625,0.9375 -0.0427,0.2942 -0.0748,0.662 -0.0937,1.0937 -0.019,0.4271 -0.053,0.8071 -0.0625,1.125 -0.01,0.318 0.0123,0.7309 0.0312,1.2813 0.019,0.5457 0.017,0.9926 0.0312,1.3437 0.0142,0.3465 0.051,0.8575 0.0937,1.5313 0.0427,0.6738 0.0965,1.2047 0.125,1.5937 0.0285,0.3892 0.068,0.9841 0.125,1.7813 0.005,0.085 -0.005,0.159 0,0.1875 0.0474,0.688 0.11909,1.264 0.21875,1.7812 0.0996,0.5125 0.2647,1.0624 0.46875,1.5938 0.20403,0.5315 0.47559,1.05 0.8125,1.5625 0.33689,0.5077 0.74226,1.0291 1.25,1.5937 -0.36064,-0.1565 -0.79808,-0.2432 -1.34375,-0.2812 -0.54095,-0.038 -1.10386,-0.026 -1.6875,0.031 -0.58366,0.057 -1.20317,0.1286 -1.84375,0.2188 -0.6406,0.095 -1.26289,0.1693 -1.875,0.25 -0.60738,0.085 -1.18256,0.1543 -1.71875,0.1875 -0.5362,0.038 -1.0057,0.013 -1.4375,-0.062 -0.43181,-0.071 -0.76749,-0.1975 -1,-0.4062 -0.17557,-0.1566 -0.30579,-0.3264 -0.34375,-0.4688 -0.038,-0.1471 -0.0182,-0.2686 0.0625,-0.4062 0.0807,-0.1377 0.20139,-0.2999 0.34375,-0.4376 0.1471,-0.1423 0.31494,-0.2884 0.5,-0.4687 0.1898,-0.1851 0.36042,-0.3632 0.53125,-0.5625 0.17556,-0.204 0.35764,-0.4823 0.5,-0.7812 0.14235,-0.299 0.23379,-0.6101 0.28125,-0.9376 0.27047,-1.8126 0.48542,-3.6747 0.65625,-5.625 0.17556,-1.9549 0.2302,-3.7747 0.1875,-5.4687 -0.019,-0.7117 -0.017,-1.2992 -0.0312,-1.75 -0.0142,-0.4555 -0.034,-1.0006 -0.0625,-1.5937 -0.0285,-0.5932 -0.0605,-1.0579 -0.0937,-1.4376 -0.0332,-0.3795 -0.0993,-0.7916 -0.15625,-1.2187 -0.057,-0.427 -0.11158,-0.7655 -0.1875,-1.0313 -0.0712,-0.2704 -0.14561,-0.5269 -0.25,-0.75 -0.1044,-0.2277 -0.24689,-0.3908 -0.375,-0.5 -0.0522,-0.057 -0.0851,-0.069 -0.15625,-0.031 -0.0664,0.033 -0.13531,0.093 -0.1875,0.1875 -0.0522,0.095 -0.13809,0.2062 -0.21875,0.3437 -0.0807,0.1377 -0.14283,0.281 -0.21875,0.4376 -0.0759,0.1518 -0.16263,0.3216 -0.28125,0.4687 -0.11863,0.1471 -0.24689,0.2876 -0.375,0.4063 -0.12812,0.1139 -0.28844,0.1835 -0.46875,0.25 -0.18032,0.066 -0.38497,0.108 -0.59375,0.094 -0.20404,-0.014 -0.33785,-0.066 -0.4375,-0.1563 -0.09965,-0.095 -0.163776,-0.2231 -0.1875,-0.375 -0.01898,-0.1565 -0.04074,-0.3366 -0.03125,-0.5312 0.01423,-0.1993 0.03599,-0.4142 0.03125,-0.6562 -10e-7,-0.2468 -0.02454,-0.5033 -0.0625,-0.75 -0.03322,-0.2468 -0.107648,-0.4966 -0.25,-0.7813 -0.142354,-0.2847 -0.34226,-0.5657 -0.59375,-0.8125 0.393843,-0.3559 0.826533,-0.6642 1.34375,-0.9062 0.52196,-0.2468 1.08684,-0.4126 1.65625,-0.5313 0.56941,-0.1186 1.1153,-0.2073 1.65625,-0.25 0.54094,-0.043 1.10859,-0.05 1.6875,-0.031 z m 29.03125,0.7188 c 0.70226,-0.024 1.40373,0.03 2.125,0.125 0.72124,0.09 1.38312,0.1995 2,0.375 0.62159,0.1756 1.23833,0.3878 1.8125,0.625 0.57889,0.2325 1.07767,0.455 1.5,0.6875 0.42704,0.2278 0.79757,0.4863 1.125,0.7187 0.83986,0.5932 1.56309,1.1617 2.15625,1.75 0.59312,0.5885 1.06933,1.1779 1.40625,1.7188 0.33688,0.5362 0.55936,1.0528 0.6875,1.5938 0.12809,0.5409 0.17717,1.0737 0.125,1.5624 -0.0522,0.4841 -0.2145,0.9658 -0.4375,1.4688 -0.22304,0.503 -0.48511,0.9915 -0.8125,1.4375 -0.32743,0.4413 -0.73199,0.874 -1.1875,1.3437 -0.61688,0.6359 -1.39949,1.2008 -2.34375,1.6563 -0.94429,0.4508 -2.03805,0.792 -3.28125,1.0625 -1.24323,0.2657 -2.57452,0.4704 -4.03125,0.5938 -1.45676,0.1186 -3.09559,0.1657 -4.875,0.1562 0.0569,0.2847 0.13808,0.5978 0.21875,0.9062 0.0854,0.3037 0.20139,0.647 0.34375,1.0313 0.14235,0.3796 0.29317,0.7256 0.46875,1.0625 0.17556,0.3369 0.40475,0.6726 0.65625,1 0.25623,0.3227 0.52304,0.5847 0.8125,0.8125 0.28944,0.223 0.62038,0.4126 1,0.5313 0.38434,0.1186 0.79643,0.1629 1.21875,0.125 0.92528,-0.09 1.70037,-0.1741 2.3125,-0.25 0.61685,-0.076 1.25141,-0.1797 1.90625,-0.3126 0.65955,-0.1328 1.18843,-0.2903 1.625,-0.4374 0.43653,-0.1519 0.92976,-0.3376 1.4375,-0.5938 0.51245,-0.261 0.95463,-0.5401 1.34375,-0.8438 0.39382,-0.3084 0.81899,-0.7177 1.3125,-1.1874 0.49347,-0.4698 0.99896,-0.9591 1.46875,-1.5 0.47449,-0.541 1.01286,-1.2096 1.625,-1.9688 0.28943,1.3524 0.3884,3.1919 0.3125,5.5312 -0.0712,2.2635 -0.26914,4.1493 -0.625,5.625 -0.31795,1.3192 -0.70745,1.9708 -1.125,1.9376 -0.10441,-0.01 -0.20813,-0.088 -0.3125,-0.1876 -1.01547,-0.9347 -2.0451,-1.557 -3.09375,-1.875 -1.04394,-0.3131 -2.15471,-0.3329 -3.3125,-0.062 -0.38437,0.09 -0.72758,0.1835 -1.03125,0.25 -0.29896,0.066 -0.64495,0.1163 -1.0625,0.1874 -0.41758,0.076 -0.78337,0.1496 -1.125,0.1876 -0.34166,0.043 -0.73395,0.07 -1.15625,0.094 -0.41758,0.028 -0.79563,0.019 -1.15625,0 -0.36064,-0.014 -0.74818,-0.037 -1.15625,-0.094 -0.40334,-0.052 -0.80038,-0.1409 -1.15625,-0.25 -0.35115,-0.1044 -0.69713,-0.2355 -1.0625,-0.4063 -0.36538,-0.1661 -0.70384,-0.366 -1.03125,-0.5937 -0.63585,-0.4508 -1.25062,-1.0703 -1.84375,-1.8438 -0.5884,-0.7734 -1.12121,-1.5889 -1.5625,-2.5 -0.4413,-0.9158 -0.82132,-1.8955 -1.125,-2.9062 -0.29894,-1.0155 -0.48936,-1.9885 -0.59375,-2.9376 -0.0712,-0.6785 -0.11829,-1.3225 -0.15625,-1.9062 -0.038,-0.5884 -0.0578,-1.1889 -0.0625,-1.8438 -0.005,-0.6548 0.0151,-1.279 0.0625,-1.8437 0.0522,-0.5647 0.13612,-1.1521 0.25,-1.75 0.11388,-0.5979 0.25718,-1.1485 0.4375,-1.6563 0.18506,-0.5124 0.40754,-1.0187 0.6875,-1.5312 0.27996,-0.5124 0.60337,-0.9792 0.96875,-1.4062 0.37011,-0.4318 0.81901,-0.8562 1.3125,-1.25 0.49823,-0.3986 1.02711,-0.7446 1.625,-1.0626 0.68329,-0.3606 1.42828,-0.6539 2.1875,-0.8437 0.76395,-0.1945 1.48522,-0.2935 2.1875,-0.3125 z m -48.6875,0.2812 c 0.688029,-0.019 1.396209,0.01 2.09375,0.063 0.697518,0.052 1.351874,0.1313 1.96875,0.25 0.616849,0.1139 1.194808,0.2544 1.75,0.4062 0.559906,0.1471 1.05591,0.2857 1.46875,0.4375 0.412807,0.1519 0.746526,0.2952 1.03125,0.4375 0.664296,0.3369 1.266794,0.7443 1.8125,1.2188 0.545666,0.4745 1.021876,0.9855 1.40625,1.5312 0.389077,0.541 0.741777,1.1237 1.03125,1.75 0.289429,0.6264 0.494894,1.2874 0.65625,1.9375 0.16131,0.6501 0.299055,1.3167 0.375,2 0.08064,0.6786 0.107962,1.3452 0.09375,2 -0.01426,0.6548 -0.07561,1.2752 -0.15625,1.9063 -0.08069,0.6311 -0.20142,1.2213 -0.34375,1.7812 -0.137631,0.5599 -0.278968,1.1098 -0.46875,1.5938 -0.227787,0.5741 -0.432438,1.0361 -0.59375,1.4062 -0.15661,0.3701 -0.373531,0.7973 -0.625,1.2812 -0.251511,0.4793 -0.481516,0.8791 -0.71875,1.1876 -0.23253,0.3036 -0.519137,0.6346 -0.875,1 -0.355902,0.3653 -0.731175,0.6472 -1.125,0.875 -0.389116,0.223 -0.865326,0.4502 -1.40625,0.6874 -0.536213,0.2326 -1.114172,0.4297 -1.75,0.5626 -0.631113,0.1281 -1.349597,0.2223 -2.15625,0.3124 -0.801934,0.086 -1.675991,0.1421 -2.625,0.1563 -0.972755,0.01 -1.915684,-0.1017 -2.8125,-0.3437 -0.892086,-0.242 -1.702015,-0.5853 -2.4375,-1.0313 -0.73075,-0.446 -1.4049,-0.9939 -2.03125,-1.625 -0.621611,-0.6358 -1.164727,-1.3345 -1.625,-2.0937 -0.460276,-0.7593 -0.864834,-1.5597 -1.1875,-2.4376 -0.317922,-0.8778 -0.540402,-1.7981 -0.6875,-2.7187 -0.147098,-0.9253 -0.211225,-1.8662 -0.1875,-2.8437 0.02373,-0.9775 0.139711,-1.9355 0.34375,-2.875 0.199294,-0.9396 0.498171,-1.856 0.90625,-2.7813 0.408078,-0.9253 0.906861,-1.8136 1.5,-2.625 0.427057,-0.5884 0.92584,-1.0947 1.5,-1.5313 0.578898,-0.4365 1.190887,-0.7797 1.8125,-1.0312 0.626347,-0.2515 1.297718,-0.4514 2,-0.5938 0.702267,-0.147 1.379196,-0.2357 2.0625,-0.25 z m 50.53125,4.3126 c -0.81142,-0.038 -1.61105,0.058 -2.375,0.2812 -0.70703,0.1993 -1.3218,0.4737 -1.84375,0.8438 -0.52197,0.3701 -0.91033,0.802 -1.21875,1.2812 -0.30844,0.4745 -0.53566,1.0006 -0.6875,1.5938 -0.1471,0.5884 -0.2235,1.2079 -0.21875,1.8437 0.009,0.6311 0.0764,1.3025 0.21875,2 2.69046,0.2278 5.1919,0.1514 7.53125,-0.2187 2.1685,-0.3464 3.73846,-0.8895 4.6875,-1.625 0.96798,-0.745 1.16036,-1.604 0.5625,-2.5626 -0.0949,-0.1518 -0.21091,-0.3121 -0.34375,-0.4687 -0.50774,-0.5836 -1.09797,-1.0899 -1.78125,-1.5313 -0.68331,-0.446 -1.4283,-0.7939 -2.1875,-1.0312 -0.75923,-0.242 -1.53235,-0.3683 -2.34375,-0.4062 z m -49.375,0.9687 c -0.692795,0.024 -1.34993,0.1029 -2,0.25 -0.645342,0.1424 -1.230012,0.347 -1.71875,0.5937 -0.341654,0.1756 -0.626295,0.4519 -0.90625,0.8126 -0.279967,0.3606 -0.524206,0.7707 -0.71875,1.25 -0.189809,0.4745 -0.354873,1.0101 -0.46875,1.5937 -0.109142,0.5789 -0.163779,1.1644 -0.1875,1.7813 -0.01899,0.6121 0.0083,1.2391 0.09375,1.875 0.08541,0.6311 0.204171,1.2553 0.375,1.8437 0.175563,0.5884 0.415058,1.1296 0.71875,1.6563 0.30368,0.5219 0.673395,0.9811 1.0625,1.375 0.393836,0.3938 0.860555,0.722 1.40625,0.9687 0.545678,0.2468 1.140652,0.3995 1.78125,0.4375 0.854107,0.052 1.659292,-0.014 2.4375,-0.1562 0.782928,-0.1424 1.498633,-0.3574 2.125,-0.6563 0.626338,-0.2989 1.175013,-0.679 1.6875,-1.125 0.512454,-0.446 0.96609,-0.9278 1.3125,-1.4687 0.346374,-0.541 0.591428,-1.1407 0.78125,-1.7813 0.19453,-0.6406 0.298246,-1.2902 0.3125,-1.9687 0.01896,-0.6786 -0.0432,-1.3943 -0.21875,-2.125 -0.175587,-0.7308 -0.4424,-1.4493 -0.8125,-2.1563 -0.275233,-0.5314 -0.675046,-1.0029 -1.1875,-1.4063 -0.512487,-0.408 -1.092412,-0.7097 -1.71875,-0.9374 -0.626368,-0.2325 -1.310008,-0.4174 -2.03125,-0.5313 -0.721268,-0.1139 -1.427482,-0.1534 -2.125,-0.125 z"
         transform="translate(2,-225.63782)"
         id="path4242" />
      <path
         style="fill:url(#radialGradient6395);fill-opacity:1"
         d="M 136.71875,630.26843 C 66.145454,630.26843 13,673.00218 13,765.61218 c 0,92.6101 -14.5108,169.6875 56.0625,169.6875 70.5733,0 199.5,-75.0774 199.5,-167.6875 0,-92.61 -61.27045,-137.34375 -131.84375,-137.34375 z M 52.125,861.54968 c 0.159743,-0.0193 0.337568,-0.005 0.53125,0 -0.03392,0.1792 -0.112263,0.4138 -0.21875,0.7187 -0.106536,0.3003 -0.215695,0.5965 -0.3125,0.9063 -0.09685,0.3051 -0.172561,0.6585 -0.25,1.0313 -0.07749,0.3728 -0.103457,0.7685 -0.09375,1.2187 0.0145,0.4503 0.08801,0.9151 0.21875,1.375 0.174268,0.6149 0.280787,1.1862 0.34375,1.7187 0.06776,0.5326 0.09637,1.0661 0.0625,1.5938 -0.03391,0.5229 -0.09554,1.004 -0.1875,1.4688 -0.09201,0.4599 -0.231982,1.0053 -0.40625,1.625 -0.135584,-0.0968 -0.253987,-0.2201 -0.375,-0.375 -0.121059,-0.1598 -0.258828,-0.316 -0.375,-0.5 -0.116218,-0.1888 -0.234621,-0.3904 -0.375,-0.5938 -0.140424,-0.2033 -0.346859,-0.4287 -0.59375,-0.6562 -0.242094,-0.2276 -0.497828,-0.4265 -0.8125,-0.625 -1.06998,-0.6585 -2.274694,-1.1065 -3.5625,-1.3438 -1.287841,-0.242 -2.482434,-0.2495 -3.625,0.0312 -0.682657,0.1792 -1.313405,0.4521 -1.875,0.7813 -0.561619,0.3244 -1.000019,0.6704 -1.34375,1.0625 -0.343753,0.3873 -0.5832,0.8095 -0.71875,1.25 -0.135571,0.4406 -0.152296,0.8482 -0.03125,1.25 0.130709,0.4454 0.325259,0.8557 0.5625,1.2188 0.23722,0.3631 0.519362,0.6928 0.84375,0.9687 0.324365,0.276 0.679575,0.5273 1.125,0.75 0.450241,0.2227 0.929135,0.3979 1.4375,0.5625 0.513179,0.1598 1.101231,0.3284 1.75,0.4688 0.595481,0.1259 1.226229,0.2966 1.875,0.5 0.653577,0.2033 1.329221,0.4498 2.03125,0.75 0.701989,0.2953 1.382475,0.651 2.03125,1.0624 0.653573,0.4068 1.210814,0.8214 1.65625,1.2813 1.055411,1.0893 1.764068,2.3817 2.15625,3.8437 0.392131,1.4573 0.49865,3.1454 0.34375,5.0626 -0.05328,0.6584 -0.10302,1.2178 -0.15625,1.6874 -0.05328,0.4648 -0.117105,0.9627 -0.21875,1.5 -0.09685,0.5326 -0.208215,1.0234 -0.34375,1.4688 -0.135586,0.4406 -0.323093,0.9173 -0.53125,1.4062 -0.208207,0.4842 -0.459537,0.975 -0.75,1.4688 -0.285669,0.4938 -0.591141,0.9939 -0.96875,1.5312 -0.411545,0.5665 -0.862268,1.0524 -1.3125,1.4688 -0.450276,0.4164 -0.912443,0.7769 -1.40625,1.0625 -0.493847,0.2808 -1.046247,0.518 -1.65625,0.6875 -0.605199,0.1695 -1.247831,0.2663 -1.90625,0.3438 -0.658453,0.0823 -1.407604,0.1514 -2.25,0.1562 -0.605195,0.005 -1.169479,-0.026 -1.6875,-0.0938 -0.513206,-0.0677 -1.029953,-0.2007 -1.5625,-0.375 -0.53257,-0.1791 -1.049317,-0.4207 -1.5625,-0.75 -0.508361,-0.334 -1.020705,-0.7658 -1.5,-1.25 -0.474469,-0.4744 -0.86313,-0.9581 -1.1875,-1.4374 -0.324384,-0.4842 -0.573074,-0.9437 -0.78125,-1.4376 -0.208188,-0.4938 -0.409781,-1.0061 -0.59375,-1.5 -0.18398,-0.4986 -0.452037,-1.084 -0.78125,-1.7812 -0.329223,-0.702 -0.698957,-1.4181 -1.125,-2.125 -0.174296,-0.2905 -0.382931,-0.5559 -0.625,-0.8125 -0.242075,-0.2566 -0.491205,-0.4868 -0.71875,-0.6563 -0.22755,-0.1694 -0.450271,-0.3424 -0.6875,-0.5312 -0.237232,-0.1888 -0.436185,-0.3666 -0.625,-0.5312 -0.188817,-0.1646 -0.381166,-0.3398 -0.53125,-0.5626 -0.150085,-0.2275 -0.249561,-0.4933 -0.3125,-0.75 0.116194,-0.0193 0.43883,-0.0761 0.9375,-0.1874 0.503509,-0.1114 0.899213,-0.1968 1.21875,-0.25 0.319533,-0.0533 0.769816,-0.1052 1.375,-0.1876 0.605176,-0.0822 1.302388,-0.1703 2.0625,-0.2187 0.760101,-0.0484 1.623252,-0.0695 2.5625,-0.0937 1.936568,0.0435 3.150088,0.1575 3.6875,0.3124 0.406669,0.1163 0.624987,0.2844 0.625,0.5313 -1.3e-5,0.2227 -0.201605,0.5973 -0.59375,1.125 -0.06295,0.0872 -0.126774,0.1866 -0.21875,0.3125 -0.760118,1.0167 -1.222724,1.9653 -1.34375,2.8125 -0.116205,0.8473 0.102113,1.5559 0.625,2.1563 0.300158,0.3485 0.710386,0.6021 1.21875,0.7812 0.51318,0.1791 1.060739,0.2791 1.65625,0.25 0.600325,-0.029 1.1382,-0.1809 1.65625,-0.4375 0.285629,-0.1404 0.572613,-0.3134 0.84375,-0.5313 0.275946,-0.2226 0.567771,-0.5215 0.84375,-0.875 0.275945,-0.3534 0.51055,-0.735 0.71875,-1.1562 0.208164,-0.426 0.364421,-0.919 0.5,-1.5 0.140383,-0.581 0.240298,-1.2047 0.25,-1.8438 0.0048,-0.3969 -0.03567,-0.7548 -0.09375,-1.0937 -0.05812,-0.3437 -0.126781,-0.6615 -0.21875,-0.9375 -0.08716,-0.2759 -0.24386,-0.5295 -0.4375,-0.7812 -0.193676,-0.2518 -0.378543,-0.4939 -0.5625,-0.6876 -0.179151,-0.1936 -0.415957,-0.3903 -0.75,-0.5937 -0.334076,-0.2033 -0.661554,-0.386 -0.9375,-0.5313 -0.271137,-0.1452 -0.645712,-0.3063 -1.125,-0.5 -0.474476,-0.1984 -0.877222,-0.3644 -1.25,-0.5 -0.372804,-0.1355 -0.85874,-0.3085 -1.46875,-0.5312 -0.885996,-0.3147 -1.699409,-0.6373 -2.40625,-0.9375 -0.702019,-0.3001 -1.37062,-0.6153 -2,-0.9687 -0.629395,-0.3535 -1.165069,-0.7161 -1.625,-1.0938 -0.459943,-0.3825 -0.870171,-0.8094 -1.21875,-1.25 -0.348588,-0.4405 -0.609163,-0.9027 -0.8125,-1.4062 -0.300173,-0.7408 -0.508809,-1.5801 -0.625,-2.5 -0.116198,-0.9247 -0.139966,-1.842 -0.0625,-2.7813 0.0823,-0.9392 0.267168,-1.8684 0.5625,-2.8125 0.300166,-0.944 0.688827,-1.7905 1.1875,-2.5312 0.324372,-0.4842 0.677819,-0.9419 1.03125,-1.3438 0.353419,-0.4066 0.699385,-0.7623 1.0625,-1.0625 0.367943,-0.305 0.725792,-0.5801 1.09375,-0.8125 0.372783,-0.2372 0.773767,-0.4075 1.15625,-0.5625 0.382465,-0.1549 0.752199,-0.3045 1.125,-0.4063 0.377622,-0.1016 0.768923,-0.1487 1.15625,-0.1874 0.392145,-0.0436 0.740312,-0.0938 1.09375,-0.0938 0.358254,0 0.752195,0.0502 1.125,0.0938 0.697154,0.0775 1.260999,0.1602 1.75,0.2812 0.493811,0.1211 0.873228,0.2443 1.125,0.375 0.251738,0.1259 0.460374,0.254 0.625,0.375 0.169433,0.1211 0.347257,0.2324 0.53125,0.3438 0.183957,0.1065 0.397434,0.1752 0.625,0.2187 0.484126,0.1017 0.974903,0.0709 1.46875,-0.0937 0.498649,-0.1646 1.095945,-0.5154 1.8125,-1.0626 0.367928,-0.2856 0.704649,-0.5131 1,-0.6874 0.300147,-0.1791 0.575246,-0.2975 0.8125,-0.375 0.237207,-0.0775 0.433958,-0.1417 0.59375,-0.1563 z m 23.03125,13.1875 c 0.07746,-0.005 0.119929,-0.005 0.15625,0.0312 0.193637,0.1937 0.336247,0.4072 0.375,0.625 0.03871,0.2131 0.0101,0.4525 -0.0625,0.7188 -0.0678,0.2615 -0.131625,0.5933 -0.21875,1 -0.08233,0.4019 -0.170357,0.8975 -0.21875,1.4688 -0.04843,0.5664 -0.01982,1.2658 0.0625,2.0937 0.05324,0.4938 0.06028,0.9204 0.03125,1.3125 -0.02907,0.3922 -0.07881,0.7575 -0.15625,1.0625 -0.07264,0.3002 -0.165076,0.5586 -0.28125,0.7813 -0.116215,0.2178 -0.244301,0.3811 -0.375,0.5312 -0.125898,0.1501 -0.244301,0.2615 -0.375,0.3438 -0.125897,0.0823 -0.242099,0.1584 -0.34375,0.1874 -0.10169,0.0291 -0.18708,0.0458 -0.25,0.0313 -0.716553,-0.2033 -1.330575,-0.9789 -1.84375,-2.2813 -0.125895,-0.3195 -0.33717,-0.5871 -0.59375,-0.8437 -0.256613,-0.2614 -0.524231,-0.4965 -0.84375,-0.6563 -0.319551,-0.1597 -0.672998,-0.2662 -1.03125,-0.3437 -0.35344,-0.0823 -0.704247,-0.1298 -1.0625,-0.125 -0.52289,0.005 -1.008825,0.0524 -1.46875,0.125 -0.459949,0.0726 -0.96041,0.2056 -1.46875,0.375 -0.508362,0.1695 -1.018067,0.3992 -1.53125,0.7187 -0.508361,0.3196 -0.979772,0.7276 -1.46875,1.1876 -0.363116,0.3486 -0.676069,0.7038 -0.9375,1.125 -0.256603,0.4212 -0.486806,0.9454 -0.65625,1.5312 -0.164615,0.5858 -0.257049,1.2236 -0.28125,1.9062 -0.01937,0.6827 0.03741,1.4578 0.1875,2.3438 0.15492,0.886 0.411092,1.8416 0.75,2.8438 0.213016,0.6245 0.478433,1.1813 0.8125,1.7187 0.338893,0.5326 0.701584,0.9925 1.09375,1.375 0.396989,0.3825 0.826144,0.7311 1.28125,1.0313 0.455085,0.3001 0.915052,0.5444 1.375,0.7187 0.459925,0.1743 0.919892,0.3094 1.375,0.4063 0.459924,0.0919 0.910646,0.125 1.3125,0.125 0.406667,-0.005 0.754834,-0.0212 1.09375,-0.0938 0.338886,-0.0775 0.616186,-0.1937 0.84375,-0.3438 0.08713,-0.058 0.215216,-0.1624 0.375,-0.3124 0.159751,-0.155 0.347258,-0.3376 0.53125,-0.5313 0.188799,-0.1985 0.397435,-0.419 0.625,-0.6563 0.22753,-0.2372 0.450251,-0.4599 0.6875,-0.6874 0.237212,-0.2324 0.476659,-0.4745 0.71875,-0.6876 0.242053,-0.2178 0.486341,-0.4075 0.71875,-0.5624 0.232369,-0.155 0.448048,-0.2566 0.65625,-0.3438 0.208161,-0.0871 0.414596,-0.1179 0.59375,-0.0938 0.179112,0.0194 0.321284,0.1048 0.4375,0.25 0.10649,0.1308 0.139503,0.3178 0.125,0.5938 -0.01455,0.2711 -0.06913,0.5722 -0.15625,0.9062 -0.08233,0.3341 -0.141308,0.7039 -0.21875,1.125 -0.07748,0.4213 -0.136905,0.8601 -0.15625,1.2813 -0.01454,0.4212 0.03519,0.8526 0.15625,1.3125 0.363087,1.2636 0.53871,2.2262 0.5,2.875 -0.03875,0.6439 -0.292724,1.0185 -0.71875,1.125 -0.421226,0.1114 -1.018523,0.0167 -1.8125,-0.3125 -0.377652,-0.1549 -0.783038,-0.2592 -1.21875,-0.3125 -0.435748,-0.0484 -0.867104,-0.0603 -1.3125,-0.0312 -0.440588,0.029 -0.91728,0.0669 -1.40625,0.125 -0.484159,0.058 -1.000907,0.1078 -1.5625,0.1562 -0.561621,0.0484 -1.132948,0.0841 -1.71875,0.0938 -0.585826,0.01 -1.247385,-0.0331 -1.96875,-0.125 -0.721385,-0.092 -1.45645,-0.2342 -2.1875,-0.4376 -0.64392,-0.1742 -1.22449,-0.4471 -1.78125,-0.7812 -0.55193,-0.3341 -1.037866,-0.699 -1.46875,-1.125 -0.426051,-0.4309 -0.829237,-0.9168 -1.1875,-1.4688 -0.353429,-0.5567 -0.649656,-1.1544 -0.90625,-1.75 -0.251757,-0.5954 -0.489003,-1.2187 -0.6875,-1.9062 -0.193659,-0.6923 -0.347715,-1.3895 -0.46875,-2.0625 -0.121037,-0.6778 -0.235038,-1.3842 -0.3125,-2.125 -0.116196,-0.978 -0.144367,-1.9049 -0.125,-2.7813 0.01937,-0.8762 0.0713,-1.6919 0.1875,-2.4374 0.116193,-0.7456 0.289176,-1.4424 0.53125,-2.125 0.24207,-0.6875 0.540938,-1.3372 0.875,-1.9376 0.338898,-0.6003 0.727559,-1.1954 1.1875,-1.7812 0.48414,-0.6148 1.03654,-1.184 1.65625,-1.6875 0.624541,-0.5083 1.312069,-0.9564 2.0625,-1.3437 0.755257,-0.3873 1.594641,-0.6884 2.5,-0.9063 0.90534,-0.2178 1.84904,-0.3389 2.8125,-0.3437 0.610009,0 1.205104,0.0308 1.78125,0.0937 0.576117,0.063 1.043126,0.1629 1.40625,0.25 0.363092,0.0872 0.723582,0.1462 1.0625,0.2187 0.338884,0.0679 0.599459,0.137 0.8125,0.1563 0.213006,0.0194 0.431324,-0.0211 0.625,-0.0937 0.193639,-0.0775 0.345055,-0.2029 0.5,-0.4063 0.246895,-0.3244 0.529037,-0.6281 0.84375,-0.875 0.314674,-0.2469 0.61134,-0.4128 0.84375,-0.5 0.118605,-0.046 0.203787,-0.0577 0.28125,-0.0625 z m 31.46875,0.375 c 1.78164,0.0581 2.93354,1.0846 3.5,3.0938 0.0581,-0.0581 0.16504,-0.1387 0.28125,-0.25 0.34857,-0.3341 0.61399,-0.5757 0.8125,-0.75 0.19849,-0.1743 0.52112,-0.4212 0.9375,-0.6876 0.42119,-0.271 0.8169,-0.4414 1.21875,-0.5624 0.40183,-0.1259 0.90669,-0.2399 1.53125,-0.3126 0.62937,-0.0774 1.32658,-0.0844 2.0625,-0.0312 0.49865,0.0388 1.01804,0.1026 1.53125,0.2188 0.51317,0.1162 0.94937,0.2443 1.3125,0.375 0.36793,0.1307 0.7161,0.2588 1.09375,0.375 0.37761,0.1162 0.71433,0.1967 1,0.25 0.28562,0.0532 0.58449,0.0581 0.875,0 0.29531,-0.0581 0.56072,-0.2029 0.8125,-0.4063 0.60516,-0.4744 1.01759,-0.382 1.25,0.2813 0.23236,0.6536 0.25613,1.6945 0.0625,3.0937 -0.19368,1.4089 -0.51852,2.6466 -0.96875,3.6875 -0.22273,0.5035 -0.45513,0.8851 -0.6875,1.1562 -0.17916,-0.242 -0.37107,-0.529 -0.59375,-0.8437 -0.21789,-0.3195 -0.39087,-0.573 -0.53125,-0.7813 -0.14042,-0.2081 -0.30636,-0.4357 -0.5,-0.6874 -0.19368,-0.2566 -0.3715,-0.4653 -0.53125,-0.625 -0.15495,-0.1646 -0.34466,-0.3306 -0.5625,-0.5 -0.21304,-0.1695 -0.43356,-0.3094 -0.65625,-0.4063 -0.22273,-0.1016 -0.49078,-0.1822 -0.78125,-0.25 -0.29051,-0.0678 -0.59862,-0.1105 -0.9375,-0.125 -0.61004,-0.0193 -1.18357,0.004 -1.75,0.0625 -0.56162,0.0581 -1.12107,0.1695 -1.6875,0.3438 -0.56646,0.1743 -1.07617,0.4067 -1.53125,0.6874 -0.45511,0.2809 -0.8869,0.6172 -1.25,1.0626 -0.36312,0.4454 -0.62854,0.9551 -0.8125,1.5312 -0.092,0.276 -0.18223,0.577 -0.25,0.9062 -0.063,0.3244 -0.11269,0.6638 -0.15625,0.9688 -0.0436,0.3002 -0.0744,0.6532 -0.0937,1.0938 -0.0194,0.4357 -0.0216,0.8318 -0.0312,1.1562 -0.01,0.3244 -0.0194,0.7509 0,1.3125 0.0194,0.5568 0.048,1.0167 0.0625,1.375 0.0145,0.3534 0.0502,0.875 0.0937,1.5625 0.0436,0.6875 0.0647,1.228 0.0937,1.625 0.029,0.397 0.0669,0.9991 0.125,1.8125 0.005,0.0872 0.0264,0.1585 0.0312,0.1875 0.0484,0.702 0.11707,1.316 0.21875,1.8438 0.10166,0.5228 0.26056,1.0515 0.46875,1.5937 0.20817,0.5422 0.46875,1.0709 0.8125,1.5937 0.34373,0.5181 0.79445,1.0802 1.3125,1.6563 -0.36796,-0.1598 -0.8495,-0.2738 -1.40625,-0.3125 -0.55194,-0.0387 -1.12326,-0.0268 -1.71875,0.0312 -0.59551,0.0581 -1.22141,0.1268 -1.875,0.2188 -0.6536,0.0968 -1.28171,0.1989 -1.90625,0.2812 -0.61971,0.0872 -1.20292,0.1537 -1.75,0.1876 -0.54709,0.0387 -1.02818,0.0149 -1.46875,-0.0626 -0.44057,-0.0726 -0.79402,-0.2244 -1.03125,-0.4374 -0.17914,-0.1598 -0.27377,-0.3236 -0.3125,-0.4688 -0.0387,-0.1501 -0.0198,-0.2658 0.0625,-0.4062 0.0823,-0.1405 0.1985,-0.2971 0.34375,-0.4376 0.15008,-0.1452 0.31118,-0.316 0.5,-0.5 0.19365,-0.1888 0.3882,-0.3904 0.5625,-0.5937 0.17913,-0.2082 0.3235,-0.445 0.46875,-0.75 0.14524,-0.305 0.23283,-0.6347 0.28125,-0.9687 0.27596,-1.8495 0.5132,-3.7602 0.6875,-5.75 0.17913,-1.9947 0.26232,-3.8654 0.21875,-5.5938 -0.0194,-0.7262 -0.048,-1.3213 -0.0625,-1.7812 -0.0145,-0.4648 -0.0335,-0.9886 -0.0625,-1.5938 -0.029,-0.6052 -0.0599,-1.1127 -0.0937,-1.5 -0.0339,-0.3873 -0.0982,-0.783 -0.15625,-1.2188 -0.0581,-0.4357 -0.11004,-0.7913 -0.1875,-1.0624 -0.0726,-0.276 -0.17474,-0.5225 -0.28125,-0.75 -0.10652,-0.2324 -0.21304,-0.4199 -0.34375,-0.5313 -0.0533,-0.0581 -0.11488,-0.07 -0.1875,-0.0313 -0.0678,0.034 -0.13425,0.0907 -0.1875,0.1876 -0.0533,0.0968 -0.1052,0.2346 -0.1875,0.375 -0.0823,0.1404 -0.17254,0.2777 -0.25,0.4374 -0.0775,0.155 -0.19147,0.3187 -0.3125,0.4688 -0.12104,0.1501 -0.24428,0.2852 -0.375,0.4062 -0.13072,0.1163 -0.28478,0.2135 -0.46875,0.2813 -0.18398,0.0678 -0.38073,0.077 -0.59375,0.0625 -0.20818,-0.0145 -0.36708,-0.0642 -0.46875,-0.1562 -0.10167,-0.0969 -0.16329,-0.2201 -0.1875,-0.375 -0.0194,-0.1598 -0.01,-0.3328 0,-0.5313 0.0145,-0.2033 0.005,-0.4406 0,-0.6875 0,-0.2517 -0.0238,-0.4982 -0.0625,-0.75 -0.0339,-0.2517 -0.10476,-0.522 -0.25,-0.8125 -0.14524,-0.2905 -0.3684,-0.5607 -0.625,-0.8125 0.40184,-0.3631 0.87853,-0.6593 1.40625,-0.9062 0.53256,-0.2518 1.10652,-0.4415 1.6875,-0.5626 0.58097,-0.121 1.13557,-0.2063 1.6875,-0.25 0.55192,-0.0435 1.12809,-0.0505 1.71875,-0.0312 z m 29.625,0.75 c 0.71652,-0.0242 1.42034,-0.003 2.15625,0.0938 0.73589,0.092 1.4331,0.2271 2.0625,0.4062 0.63421,0.1792 1.25792,0.383 1.84375,0.625 0.59064,0.2373 1.10034,0.4815 1.53125,0.7188 0.43571,0.2324 0.79092,0.4815 1.125,0.7187 0.85692,0.6052 1.61355,1.1809 2.21875,1.7813 0.60516,0.6003 1.06248,1.198 1.40625,1.75 0.34372,0.5471 0.58801,1.073 0.71875,1.625 0.1307,0.5519 0.17823,1.095 0.125,1.5937 -0.0533,0.4938 -0.20998,0.9868 -0.4375,1.5 -0.22757,0.5132 -0.50971,1.0137 -0.84375,1.4687 -0.33408,0.4503 -0.72274,0.8958 -1.1875,1.375 -0.62941,0.6488 -1.44282,1.2228 -2.40625,1.6876 -0.96347,0.4599 -2.07531,0.8177 -3.34375,1.0937 -1.26847,0.2711 -2.63869,0.4679 -4.125,0.5937 -1.48633,0.1211 -3.12197,0.1972 -4.9375,0.1876 0.0581,0.2904 0.10519,0.5915 0.1875,0.9062 0.0871,0.3099 0.22975,0.6391 0.375,1.0312 0.14524,0.3874 0.28961,0.7501 0.46875,1.0938 0.17913,0.3437 0.39965,0.6972 0.65625,1.0312 0.26143,0.3293 0.54841,0.6114 0.84375,0.8438 0.29532,0.2276 0.64392,0.4102 1.03125,0.5312 0.39215,0.1211 0.78785,0.1638 1.21875,0.125 0.94407,-0.0919 1.71919,-0.2037 2.34375,-0.2812 0.62937,-0.0775 1.30062,-0.1769 1.96875,-0.3125 0.67294,-0.1356 1.21082,-0.2874 1.65625,-0.4375 0.4454,-0.1549 0.9507,-0.3636 1.46875,-0.625 0.52286,-0.2663 0.97798,-0.5339 1.375,-0.8438 0.40182,-0.3146 0.84022,-0.7081 1.34375,-1.1874 0.50349,-0.4793 0.98942,-1.0106 1.46875,-1.5626 0.48412,-0.5519 1.06293,-1.1941 1.6875,-1.9687 0.2953,1.3798 0.38994,3.2382 0.3125,5.625 -0.0727,2.3094 -0.29317,4.2131 -0.65625,5.7187 -0.3244,1.346 -0.69898,2.0027 -1.125,1.9688 -0.10653,-0.01 -0.20601,-0.0546 -0.3125,-0.1562 -1.03609,-0.9538 -2.08631,-1.5819 -3.15625,-1.9063 -1.06514,-0.3195 -2.1937,-0.3385 -3.375,-0.0625 -0.39217,0.092 -0.75266,0.151 -1.0625,0.2188 -0.30503,0.0677 -0.66772,0.1461 -1.09375,0.2187 -0.42606,0.0775 -0.80768,0.1488 -1.15625,0.1875 -0.3486,0.0436 -0.72537,0.0695 -1.15625,0.0938 -0.42606,0.029 -0.85081,0.0193 -1.21875,0 -0.36796,-0.0146 -0.7399,-0.0357 -1.15625,-0.0938 -0.41153,-0.0533 -0.79315,-0.1386 -1.15625,-0.25 -0.35827,-0.1065 -0.75222,-0.2632 -1.125,-0.4375 -0.3728,-0.1695 -0.6972,-0.3614 -1.03125,-0.5937 -0.64876,-0.46 -1.30107,-1.0859 -1.90625,-1.875 -0.60034,-0.7892 -1.11225,-1.633 -1.5625,-2.5626 -0.45026,-0.9343 -0.8464,-1.9375 -1.15625,-2.9687 -0.30501,-1.0361 -0.48724,-2.0317 -0.59375,-3 -0.0726,-0.6923 -0.14877,-1.342 -0.1875,-1.9375 -0.0387,-0.6003 -0.0577,-1.2381 -0.0625,-1.9062 -0.005,-0.6682 0.0141,-1.2677 0.0625,-1.8438 0.0533,-0.5761 0.1338,-1.1712 0.25,-1.7812 0.11619,-0.6101 0.28477,-1.1695 0.46875,-1.6876 0.18881,-0.5228 0.4331,-1.0708 0.71875,-1.5937 0.28564,-0.5229 0.59596,-1.0017 0.96875,-1.4375 0.37763,-0.4405 0.84024,-0.8481 1.34375,-1.25 0.50835,-0.4067 1.04622,-0.7693 1.65625,-1.0938 0.69716,-0.3679 1.44411,-0.65 2.21875,-0.8437 0.77946,-0.1985 1.53346,-0.2931 2.25,-0.3125 z m -49.6875,0.2812 c 0.701999,-0.0193 1.413296,-0.0219 2.125,0.0313 0.71168,0.0533 1.401849,0.1602 2.03125,0.2813 0.629373,0.1162 1.214786,0.2513 1.78125,0.4062 0.571274,0.1501 1.078777,0.2826 1.5,0.4375 0.421188,0.155 0.771995,0.3235 1.0625,0.4687 0.677784,0.3438 1.286964,0.7659 1.84375,1.25 0.556746,0.4842 1.045322,1.0058 1.4375,1.5626 0.396977,0.5519 0.7359,1.1421 1.03125,1.7812 0.295305,0.6391 0.522868,1.2742 0.6875,1.9375 0.16459,0.6633 0.29751,1.3653 0.375,2.0625 0.0823,0.6923 0.10825,1.3631 0.0937,2.0312 -0.0145,0.6682 -0.074,1.3249 -0.15625,1.9688 -0.0823,0.6439 -0.19853,1.2412 -0.34375,1.8125 -0.140425,0.5713 -0.306365,1.0999 -0.5,1.5937 -0.232412,0.5859 -0.429163,1.0912 -0.59375,1.4688 -0.15979,0.3776 -0.368425,0.7874 -0.625,1.2812 -0.256618,0.489 -0.507949,0.9041 -0.75,1.2188 -0.237251,0.3099 -0.543162,0.6585 -0.90625,1.0312 -0.363128,0.3728 -0.723179,0.6739 -1.125,0.9063 -0.397017,0.2276 -0.885593,0.4454 -1.4375,0.6875 -0.5471,0.2372 -1.132512,0.4269 -1.78125,0.5625 -0.643927,0.1307 -1.395718,0.2518 -2.21875,0.3437 -0.818217,0.0872 -1.687972,0.1418 -2.65625,0.1563 -0.992506,0.01 -1.959975,-0.1281 -2.875,-0.375 -0.910199,-0.2469 -1.749582,-0.5762 -2.5,-1.0313 -0.745587,-0.455 -1.423433,-1.0123 -2.0625,-1.6562 -0.634232,-0.6487 -1.186632,-1.3504 -1.65625,-2.125 -0.469621,-0.7746 -0.858282,-1.6356 -1.1875,-2.5312 -0.324377,-0.8957 -0.568665,-1.8108 -0.71875,-2.75 -0.150084,-0.9441 -0.211707,-1.9089 -0.1875,-2.9063 0.02421,-0.9973 0.135568,-1.9789 0.34375,-2.9375 0.203341,-0.9586 0.521135,-1.8996 0.9375,-2.8438 0.416363,-0.944 0.926068,-1.8283 1.53125,-2.6562 0.435727,-0.6003 0.945432,-1.1171 1.53125,-1.5625 0.590652,-0.4454 1.178266,-0.8059 1.8125,-1.0625 0.639065,-0.2566 1.345959,-0.4485 2.0625,-0.5938 0.716526,-0.15 1.396573,-0.2354 2.09375,-0.25 z m 50.9375,4.375 c -0.61184,0.0209 -1.19665,0.1107 -1.78125,0.2813 -0.72138,0.2034 -1.34245,0.4974 -1.875,0.875 -0.53257,0.3777 -0.96656,0.8235 -1.28125,1.3125 -0.3147,0.4842 -0.53258,1.0198 -0.6875,1.625 -0.15009,0.6004 -0.2236,1.2263 -0.21875,1.875 0.01,0.6439 0.0735,1.3196 0.21875,2.0312 2.74509,0.2325 5.30066,0.1589 7.6875,-0.2187 2.21252,-0.3534 3.81294,-0.9058 4.78125,-1.6563 0.98764,-0.76 1.1725,-1.6157 0.5625,-2.5937 -0.0968,-0.1549 -0.20821,-0.309 -0.34375,-0.4687 -0.51805,-0.5955 -1.11535,-1.1435 -1.8125,-1.5938 -0.69718,-0.4551 -1.44413,-0.7892 -2.21875,-1.0312 -0.77465,-0.2469 -1.57838,-0.3988 -2.40625,-0.4376 -0.20697,-0.01 -0.42105,-0.007 -0.625,0 z m -49.75,1 c -0.706861,0.0243 -1.399231,0.1 -2.0625,0.25 -0.658445,0.1453 -1.220089,0.3421 -1.71875,0.5938 -0.348591,0.1792 -0.651861,0.4758 -0.9375,0.8438 -0.285651,0.3679 -0.551506,0.7922 -0.75,1.2812 -0.193663,0.4842 -0.35256,1.0295 -0.46875,1.625 -0.111358,0.5907 -0.163298,1.1831 -0.1875,1.8125 -0.01937,0.6246 0.0066,1.2575 0.09375,1.9063 0.08714,0.6439 0.231953,1.2746 0.40625,1.875 0.179128,0.6003 0.408892,1.1813 0.71875,1.7187 0.309846,0.5326 0.665495,1.0044 1.0625,1.4063 0.401833,0.4018 0.880726,0.717 1.4375,0.9687 0.556757,0.2518 1.158895,0.3988 1.8125,0.4375 0.871449,0.0533 1.705991,-0.011 2.5,-0.1562 0.798825,-0.1453 1.517165,-0.3513 2.15625,-0.6563 0.639055,-0.305 1.227108,-0.7011 1.75,-1.1563 0.522859,-0.455 0.959057,-0.948 1.3125,-1.5 0.353407,-0.5519 0.618823,-1.1588 0.8125,-1.8124 0.19848,-0.6536 0.297956,-1.3077 0.3125,-2 0.01935,-0.6924 -0.03964,-1.442 -0.21875,-2.1876 -0.179152,-0.7455 -0.466136,-1.4661 -0.84375,-2.1874 -0.280822,-0.5423 -0.664641,-1.026 -1.1875,-1.4376 -0.522893,-0.4163 -1.110945,-0.7363 -1.75,-0.9687 -0.639085,-0.2372 -1.326614,-0.415 -2.0625,-0.5313 -0.735912,-0.1161 -1.475819,-0.154 -2.1875,-0.125 z"
         id="path3046"
         inkscape:connector-curvature="0" />
      <g
         transform="matrix(1.0786735,0.41267919,-0.41267919,1.0786735,296.65151,-118.15696)"
         id="g4233">
        <path
           sodipodi:type="star"
           style="fill:#b90000;fill-opacity:1"
           id="path4231"
           sodipodi:sides="5"
           sodipodi:cx="144.45181"
           sodipodi:cy="983.01514"
           sodipodi:r1="117.45603"
           sodipodi:r2="58.728016"
           sodipodi:arg1="0.78539816"
           sodipodi:arg2="1.4137167"
           inkscape:flatsided="false"
           inkscape:rounded="0"
           inkscape:randomized="0"
           d="m 227.50577,1066.0691 -73.86687,-25.049 -62.511009,46.6491 0.996876,-77.9921 -63.682907,-45.03613 74.48297,-23.15281 23.15281,-74.48298 45.03613,63.68291 77.99213,-0.99688 -46.64911,62.51101 z"
           transform="matrix(1.1040808,0,0,1.1040808,-18.85791,-327.71033)"
           inkscape:transform-center-x="6.2688943"
           inkscape:transform-center-y="-6.2688952" />
        <path
           inkscape:transform-center-y="-5.9073162"
           inkscape:transform-center-x="5.907319"
           transform="matrix(1.0404,0,0,1.0404,-10.020678,-265.47271)"
           d="m 227.50577,1066.0691 -73.86687,-25.049 -62.511009,46.6491 0.996876,-77.9921 -63.682907,-45.03613 74.48297,-23.15281 23.15281,-74.48298 45.03613,63.68291 77.99213,-0.99688 -46.64911,62.51101 z"
           inkscape:randomized="0"
           inkscape:rounded="0"
           inkscape:flatsided="false"
           sodipodi:arg2="1.4137167"
           sodipodi:arg1="0.78539816"
           sodipodi:r2="58.728016"
           sodipodi:r1="117.45603"
           sodipodi:cy="983.01514"
           sodipodi:cx="144.45181"
           sodipodi:sides="5"
           id="path4229"
           style="fill:#ff1a1a;fill-opacity:1"
           sodipodi:type="star" />
        <path
           sodipodi:type="star"
           style="fill:#c40000;fill-opacity:1"
           id="path3788"
           sodipodi:sides="5"
           sodipodi:cx="144.45181"
           sodipodi:cy="983.01514"
           sodipodi:r1="117.45603"
           sodipodi:r2="58.728016"
           sodipodi:arg1="0.78539816"
           sodipodi:arg2="1.4137167"
           inkscape:flatsided="false"
           inkscape:rounded="0"
           inkscape:randomized="0"
           d="m 227.50577,1066.0691 -73.86687,-25.049 -62.511009,46.6491 0.996876,-77.9921 -63.682907,-45.03613 74.48297,-23.15281 23.15281,-74.48298 45.03613,63.68291 77.99213,-0.99688 -46.64911,62.51101 z"
           transform="matrix(0.98,0,0,0.98,-1.412359,-206.45326)"
           inkscape:transform-center-x="5.5643714"
           inkscape:transform-center-y="-5.564375" />
        <path
           inkscape:transform-center-y="-4.8305773"
           inkscape:transform-center-x="4.8305724"
           transform="matrix(0.85076302,0,0,0.85076302,17.985172,-80.220829)"
           d="m 227.50577,1066.0691 -73.86687,-25.049 -62.511009,46.6491 0.996876,-77.9921 -63.682907,-45.03613 74.48297,-23.15281 23.15281,-74.48298 45.03613,63.68291 77.99213,-0.99688 -46.64911,62.51101 z"
           inkscape:randomized="0"
           inkscape:rounded="0"
           inkscape:flatsided="false"
           sodipodi:arg2="1.4137167"
           sodipodi:arg1="0.78539816"
           sodipodi:r2="58.728016"
           sodipodi:r1="117.45603"
           sodipodi:cy="983.01514"
           sodipodi:cx="144.45181"
           sodipodi:sides="5"
           id="path4238"
           style="fill:#ff9090;fill-opacity:1"
           sodipodi:type="star" />
        <path
           sodipodi:type="star"
           style="fill:#ffffff;fill-opacity:1;filter:url(#filter4531)"
           id="path4240"
           sodipodi:sides="5"
           sodipodi:cx="144.45181"
           sodipodi:cy="983.01514"
           sodipodi:r1="117.45603"
           sodipodi:r2="58.728016"
           sodipodi:arg1="0.78539816"
           sodipodi:arg2="1.4137167"
           inkscape:flatsided="false"
           inkscape:rounded="0"
           inkscape:randomized="0"
           d="m 227.50577,1066.0691 -73.86687,-25.049 -62.511009,46.6491 0.996876,-77.9921 -63.682907,-45.03613 74.48297,-23.15281 23.15281,-74.48298 45.03613,63.68291 77.99213,-0.99688 -46.64911,62.51101 z"
           transform="matrix(0.70932176,0,0,0.70932176,39.214475,57.932148)"
           inkscape:transform-center-x="4.0274786"
           inkscape:transform-center-y="-4.0274878" />
      </g>
    </g>
  </g>
</svg>
