<?xml version="1.0" encoding="UTF-8" standalone="no"?>
<!-- Created with Inkscape (http://www.inkscape.org/) -->

<svg
   xmlns:dc="http://purl.org/dc/elements/1.1/"
   xmlns:cc="http://creativecommons.org/ns#"
   xmlns:rdf="http://www.w3.org/1999/02/22-rdf-syntax-ns#"
   xmlns:svg="http://www.w3.org/2000/svg"
   xmlns="http://www.w3.org/2000/svg"
   xmlns:sodipodi="http://sodipodi.sourceforge.net/DTD/sodipodi-0.dtd"
   xmlns:inkscape="http://www.inkscape.org/namespaces/inkscape"
   width="122.48958"
   height="192.13341"
   id="svg3595"
   version="1.1"
   inkscape:version="0.48.5 r10040"
   sodipodi:docname="Nowy dokument 8">
  <defs
     id="defs3597" />
  <sodipodi:namedview
     id="base"
     pagecolor="#ffffff"
     bordercolor="#666666"
     borderopacity="1.0"
     inkscape:pageopacity="0.0"
     inkscape:pageshadow="2"
     inkscape:zoom="0.35"
     inkscape:cx="-180.89807"
     inkscape:cy="-26.790443"
     inkscape:document-units="px"
     inkscape:current-layer="layer1"
     showgrid="false"
     fit-margin-top="0"
     fit-margin-left="0"
     fit-margin-right="0"
     fit-margin-bottom="0"
     inkscape:window-width="1366"
     inkscape:window-height="744"
     inkscape:window-x="0"
     inkscape:window-y="24"
     inkscape:window-maximized="1" />
  <metadata
     id="metadata3600">
    <rdf:RDF>
      <cc:Work
         rdf:about="">
        <dc:format>image/svg+xml</dc:format>
        <dc:type
           rdf:resource="http://purl.org/dc/dcmitype/StillImage" />
        <dc:title></dc:title>
      </cc:Work>
    </rdf:RDF>
  </metadata>
  <g
     inkscape:label="Layer 1"
     inkscape:groupmode="layer"
     id="layer1"
     transform="translate(-555.89807,-313.43833)">
    <g
       id="g3921"
       transform="translate(144.90291,-832.58663)">
      <path
         inkscape:connector-curvature="0"
         d="m 470.63482,1148.2526 c -8.27606,-0.5323 -17.14123,4.7396 -19.04033,13.1179 -17.65784,-10.1369 -39.62146,10.3009 -27.00136,27.7001 -19.66406,8.8704 -11.45321,31.7204 6.09669,32.3714 -8.57585,18.4593 11.85662,30.4251 25.86813,23.0901 6.97461,20.3103 37.30213,16.8061 37.23817,-2.293 15.1107,6.1971 40.28621,0.9144 30.27573,-22.4364 14.51838,-10.815 4.8778,-31.9827 -8.95374,-31.5681 19.23933,-20.929 -11.0589,-40.7325 -27.62963,-28.9177 -2.73126,-6.6844 -9.79482,-10.8223 -16.85366,-11.0643 z"
         id="path6228"
         style="fill:#ffffff;fill-opacity:1;stroke:#b7d4e1;stroke-width:4.38151884;stroke-miterlimit:4;stroke-opacity:1;stroke-dasharray:none;display:inline" />
      <path
         inkscape:connector-curvature="0"
         d="m 455.95268,1268.2088 a 15.010267,12.41495 2.4518672 1 1 -29.99305,-1.2843 15.010267,12.41495 2.4518672 1 1 29.99305,1.2843 z"
         id="path6251"
         style="fill:#ffffff;fill-opacity:1;stroke:#b7d4e1;stroke-width:4.37656116;stroke-linecap:round;stroke-linejoin:round;stroke-miterlimit:4;stroke-opacity:1;stroke-dasharray:none;stroke-dashoffset:0" />
      <path
         inkscape:connector-curvature="0"
         d="m 458.70515,1303.6502 a 11.907628,9.7882792 2.4518669 0 1 -23.79345,-1.0189 11.907628,9.7882792 2.4518669 0 1 23.79345,1.0189 z"
         id="path9994"
         style="fill:#ffffff;fill-opacity:1;stroke:#b7d4e1;stroke-width:4.37656116;stroke-linecap:round;stroke-linejoin:round;stroke-miterlimit:4;stroke-opacity:1;stroke-dasharray:none;stroke-dashoffset:0" />
      <path
         inkscape:connector-curvature="0"
         d="m 473.92507,1328.8747 a 9.1890523,7.4865964 2.4518696 0 1 -18.36128,-0.7862 9.1890523,7.4865964 2.4518696 1 1 18.36128,0.7862 z"
         id="path9998"
         style="fill:#ffffff;fill-opacity:1;stroke:#b7d4e1;stroke-width:4.37656116;stroke-linecap:round;stroke-linejoin:round;stroke-miterlimit:4;stroke-opacity:1;stroke-dasharray:none;stroke-dashoffset:0" />
      <path
         inkscape:connector-curvature="0"
         d="m 470.63482,1148.2526 c -8.27606,-0.5323 -17.14123,4.7396 -19.04033,13.1179 -17.65784,-10.1369 -39.62146,10.3009 -27.00136,27.7001 -19.66406,8.8704 -11.45321,31.7204 6.09669,32.3714 -8.57585,18.4593 11.85662,30.4251 25.86813,23.0901 6.97461,20.3103 37.30213,16.8061 37.23817,-2.293 15.1107,6.1971 40.28621,0.9144 30.27573,-22.4364 14.51838,-10.815 4.8778,-31.9827 -8.95374,-31.5681 19.23933,-20.929 -11.0589,-40.7325 -27.62963,-28.9177 -2.73126,-6.6844 -9.79482,-10.8223 -16.85366,-11.0643 z"
         id="path10003"
         style="fill:none;stroke:#b7d4e1;stroke-width:4.38151884;stroke-miterlimit:4;stroke-opacity:1;stroke-dasharray:none;display:inline" />
    </g>
  </g>
</svg>
