<?xml version="1.0" encoding="UTF-8" standalone="no"?>
<!-- Created with Inkscape (http://www.inkscape.org/) -->

<svg
   xmlns:dc="http://purl.org/dc/elements/1.1/"
   xmlns:cc="http://creativecommons.org/ns#"
   xmlns:rdf="http://www.w3.org/1999/02/22-rdf-syntax-ns#"
   xmlns:svg="http://www.w3.org/2000/svg"
   xmlns="http://www.w3.org/2000/svg"
   xmlns:sodipodi="http://sodipodi.sourceforge.net/DTD/sodipodi-0.dtd"
   xmlns:inkscape="http://www.inkscape.org/namespaces/inkscape"
   width="518.50665"
   height="83.479843"
   id="svg3326"
   version="1.1"
   inkscape:version="0.48.5 r10040"
   sodipodi:docname="Nowy dokument 4">
  <defs
     id="defs3328" />
  <sodipodi:namedview
     id="base"
     pagecolor="#ffffff"
     bordercolor="#666666"
     borderopacity="1.0"
     inkscape:pageopacity="0.0"
     inkscape:pageshadow="2"
     inkscape:zoom="2"
     inkscape:cx="272.31392"
     inkscape:cy="61.88659"
     inkscape:document-units="px"
     inkscape:current-layer="layer1"
     showgrid="false"
     fit-margin-top="0"
     fit-margin-left="0"
     fit-margin-right="0"
     fit-margin-bottom="0"
     inkscape:window-width="1366"
     inkscape:window-height="744"
     inkscape:window-x="0"
     inkscape:window-y="24"
     inkscape:window-maximized="1" />
  <metadata
     id="metadata3331">
    <rdf:RDF>
      <cc:Work
         rdf:about="">
        <dc:format>image/svg+xml</dc:format>
        <dc:type
           rdf:resource="http://purl.org/dc/dcmitype/StillImage" />
        <dc:title></dc:title>
      </cc:Work>
    </rdf:RDF>
  </metadata>
  <g
     inkscape:label="Layer 1"
     inkscape:groupmode="layer"
     id="layer1"
     transform="translate(-87.091651,-230.03593)">
    <g
       transform="matrix(0.07100216,0.00983311,-0.00973723,0.07170137,367.71287,94.098191)"
       id="g8472">
      <g
         transform="matrix(0.73723027,-0.0070344,-0.0070344,0.68689905,-3569.1966,2025.7795)"
         id="g8474">
        <path
           inkscape:connector-curvature="0"
           transform="matrix(10.379673,-1.423403,1.0507489,7.6622223,9643.0395,-3818.2259)"
           id="path8476"
           d="m -918.59375,391.03125 c -13.90127,-0.0398 -29.81738,7.14615 -42.46875,32.84375 0,0 -28.14096,85.72512 3.8125,138.625 31.95344,52.90014 61.04483,32.20646 90.25,23.46875 0,0 173.12696,-26.02729 358.8125,-28.65625 0,0.34153 0,0.58886 0,0.9375 186.34866,2.48864 360.5625,28.71875 360.5625,28.71875 29.20518,8.73771 58.296573,29.43139 90.25,-23.46875 31.95347,-52.89988 3.84375,-138.625 3.84375,-138.625 -28.917402,-58.73738 -74.875,-20.78125 -74.875,-20.78125 l -40.5,11.84375 c -98.43743,29.47037 -216.95358,20.80971 -337.53125,21.9375 1.2e-4,-0.71117 -1.3e-4,-0.24414 0,-0.96875 -121.17983,-1.22934 -240.33704,7.64398 -339.25,-21.96875 l -40.5,-11.84375 c 0,0 -14.53318,-12.01138 -32.40625,-12.0625 z"
           style="fill:#fbf4cc" />
      </g>
      <path
         inkscape:connector-curvature="0"
         id="path8478"
         d="m -3149.422,2376.3265 c -128.5112,16.5262 -229.3367,62.0716 -229.3367,62.0716 0,0 -245.0394,193.6735 -117.7274,607.3279 179.4337,566.1578 725.2248,332.4309 725.2248,332.4309 l 515.3938,-176.5991 C -1369.6486,2987.6462 -15.800102,2785.7121 69.949228,2773.0077 l 0.698223,5.0914 c 0,0 1430.451749,-181.801 2371.387449,-215.4274 l 543.669,31.3658 c 0,0 588.7795,77.9718 609.1765,-515.5895 11.2542,-432.6565 -277.0939,-553.0174 -277.0939,-553.0174 0,0 -309.7594,-47.5548 -498.3712,106.8299 l -65.1607,204.3793 266.8203,-76.917 -50.9163,180.1708 -43.7992,15.0423 c 0,0 -156.8663,33.0719 -191.9122,48.5728 l -43.043,33.0104 63.1173,293.0439 -37.1791,9.9511 c 0,0 -1092.9418,76.5521 -2651.706611,293.5262 l -0.720748,-5.2557 C -1502.0306,2838.9963 -2581.0641,3060.9169 -2581.0641,3060.9169 l -38.7473,0.2936 -17.8397,-299.0857 -50.6025,-20.3357 c -37.925,-5.494 -197.6639,4.8512 -197.6639,4.8512 l -46.4487,-2.4989 -97.3224,-160.0096 277.6989,2.4124 -117.7974,-179.457 c -90.6791,-39.7758 -191.7064,-42.068 -279.6349,-30.7607 z"
         style="fill:#e9dfb4" />
      <path
         inkscape:connector-curvature="0"
         id="path8480"
         d="m -3194.0255,2333.917 c -140.7069,19.6072 -276.4764,87.9397 -322.2276,270.5882 -100.9694,403.0864 14.8031,745.2052 387.0878,851.6807 205.7176,58.8376 365.0438,-76.2103 540.2834,-124.9599 707.5522,-229.6561 1968.25793,-412.6547 2660.999522,-512.1648 l 0.06757,0.4927 C 760.50305,2729.6103 2047.3648,2561.9113 2799.4265,2592.9766 c 181.894,-0.2254 371.694,86.9455 553.9776,-25.1001 329.8774,-202.7656 349.2757,-563.4207 143.5212,-924.4451 -93.2321,-163.5891 -242.385,-192.8492 -383.1758,-173.8537 -169.9197,22.9259 -327.8316,116.1489 -360.2909,128.2213 -285.6857,106.2576 -1185.0319,330.5637 -2751.6280172,527.2703 l -0.1126185,-0.8212 C -1573.5883,2359.6394 -2507.3196,2385.9612 -2812.5176,2360.4127 c -34.5109,-2.8886 -211.6892,-50.1594 -381.5079,-26.4957 z m -9.7966,63.7582 c 106.3822,-14.8771 237.773,-2.0424 386.452,21.6344 548.3328,87.3209 2049.75927,-137.8426 2803.973814,-241.6179 l 0.09009,0.657 C 734.13504,2075.8493 2264.9813,1886.9577 2773.9872,1653.2154 c 312.7231,-143.6066 553.4725,-207.8548 688.7629,23.851 275.069,471.0952 18.7998,736.2864 -140.8855,828.0351 -159.6839,91.7487 -209.2412,50.1737 -542.8423,26.2505 -664.3537,-16.0562 -2266.26588,181.6664 -2690.373883,239.2586 l -0.09009,-0.6569 c -397.022567,54.4452 -2030.277427,299.3196 -2674.401427,496.2655 -314.8452,112.8471 -351.3584,166.3925 -529.8464,121.0187 -178.4894,-45.3738 -496.6886,-231.7859 -358.5954,-759.5395 38.2046,-146.0096 133.6857,-210.8955 270.4628,-230.0232 z"
         style="fill:#bfb688" />
      <path
         id="path8482"
         d="m -2888.8546,3385.5711 c 392.7052,-263.1319 280.1011,-797.5728 -138.8461,-994.6316 0,0 150.3933,-25.5998 222.1679,30.4243 0,0 440.9025,387.7035 120.0409,888.1344 -140.3456,141.6972 -203.3627,76.0729 -203.3627,76.0729 z"
         inkscape:connector-curvature="0"
         style="fill:#bfb688" />
      <path
         id="path8484"
         d="m -2804.8968,2555.5557 c -127.7202,15.9245 -304.0988,-29.4702 -367.0832,-46.5228 -62.9836,-17.0527 -203.935,-27.4773 -249.7374,127.9207 l 92.3016,32.467 -143.5368,36.6776 c 0,0 -30.6952,132.3645 -20.1109,302.7351 0,0 12.7033,242.9548 113.8274,222.2208 0,0 -111.1585,-259.9794 -35.0199,-500.0173 l 171.0472,-50.6692 -89.8576,-65.8394 c 0,0 4.9909,-76.5484 152.0171,-42.6433 147.0262,33.9051 359.9818,61.1589 430.2945,52.7125 70.3148,-8.446 -54.142,-69.0417 -54.142,-69.0417 z"
         inkscape:connector-curvature="0"
         style="fill:#bfb688" />
      <path
         id="path8486"
         d="m -3218.9051,2565.0921 c 0,0 205.0688,21.5645 304.5638,327.9965 l 93.0336,12.261 -88.9582,52.3399 c 0,0 23.322,189.558 -105.2941,259.9293 0,0 51.8993,20.1015 105.9361,-14.2515 0,0 62.0231,-43.2558 78.4036,-255.2592 l 112.5851,-46.6806 -132.1331,-48.7584 c 0,0 -26.3908,-171.8518 -163.103,-249.2665 -136.7131,-77.4141 -205.0338,-38.3105 -205.0338,-38.3105 z"
         inkscape:connector-curvature="0"
         style="fill:#bfb688" />
      <path
         id="path8488"
         d="m -2698.6336,3174.3568 c 0,0 -124.275,41.4239 -254.199,85.3282 -129.9248,43.9036 -270.24,23.1745 -358.4719,-149.581 -88.232,-172.7557 -45.7439,-261.638 63.9846,-388.9989 l 247.8657,-2.365 c 0,0 58.8861,21.1886 35.8537,57.7522 -22.5537,0.3247 -257.5074,3.7042 -257.5074,3.7042 -86.4779,120.9665 -93.5931,199.0063 -17.3306,307.1442 76.261,108.1387 162.6606,151.4494 284.5842,117.9205 121.9237,-33.5289 206.0055,-71.1104 275.5408,-77.6587 69.5354,-6.5475 -20.3201,46.7543 -20.3201,46.7543 z"
         inkscape:connector-curvature="0"
         style="fill:#bfb688" />
      <path
         id="path8490"
         d="m -3157.9029,2779.2885 c 0,0 84.8191,42.8258 145.4483,83.8418 60.6291,41.0168 65.499,79.22 21.4948,162.0253 -44.0049,82.8055 -149.6869,21.0477 -202.7845,-36.3147 -53.0969,-57.3631 13.3364,-68.7899 170.8866,-34.9852 0,0 36.5532,28.0978 -1.3765,31.4021 0,0 -32.16,-6.5553 -62.8613,-9.2041 -30.7005,-2.6494 -39.1672,1.3504 4.7476,30.3546 43.9132,29.0049 98.4976,-58.8089 13.898,-123.7102 -84.5995,-64.9006 -152.6588,-102.5016 -152.6588,-102.5016 0,0 -12.2948,-27.95 63.2058,-0.908 z"
         inkscape:connector-curvature="0"
         style="fill:#bfb688" />
      <path
         style="fill:#bfb688"
         inkscape:connector-curvature="0"
         d="m 3102.8817,2564.6605 c -449.044,-147.6997 -484.471,-692.7242 -134.0392,-995.2907 0,0 -151.7328,15.8318 -205.7758,89.1097 0,0 -320.2539,492.0837 123.4807,887.6627 173.3102,98.6845 216.3343,18.5183 216.3343,18.5183 z"
         id="path8492" />
      <path
         style="fill:#bfb688"
         inkscape:connector-curvature="0"
         d="m 2798.5793,1787.8888 c 127.2921,-19.0465 284.939,-110.2471 341.0074,-143.626 56.0679,-33.3786 189.0093,-81.3632 274.9549,55.9677 l -80.1541,56.1165 148.1118,-3.3172 c 0,0 65.1951,119.2146 100.8662,286.1451 0,0 53.1703,237.4054 -49.8024,244.6599 0,0 37.0672,-280.3061 -100.8799,-490.9858 l -178.3731,-2.7518 68.816,-87.599 c 0,0 -25.4138,-72.3788 -157.8847,-0.1452 -132.471,72.2336 -330.2282,155.81 -400.2189,166.6039 -69.9927,10.7949 33.5568,-81.0681 33.5568,-81.0681 z"
         id="path8494" />
      <path
         style="fill:#bfb688"
         inkscape:connector-curvature="0"
         d="m 3199.8709,1685.62 c 0,0 -191.6931,75.9739 -205.022,397.8779 l -86.2983,36.8535 99.7642,26.4596 c 0,0 28.569,188.8386 171.3813,221.9879 0,0 -44.572,33.3309 -105.862,14.7931 0,0 -71.3779,-24.962 -144.2261,-224.7291 l -120.9954,-14.6489 114.1292,-82.5292 c 0,0 -20.8469,-172.6122 89.978,-283.9726 110.8257,-111.3599 187.1511,-92.0922 187.1511,-92.0922 z"
         id="path8496" />
      <path
         style="fill:#bfb688"
         inkscape:connector-curvature="0"
         d="m 2862.8233,2412.452 c 0,0 130.8386,6.4392 267.7854,13.7465 136.9475,7.3065 266.5022,-50.4309 304.9703,-240.5613 38.4681,-190.1304 -26.3791,-264.2935 -166.3429,-357.4132 l -239.3518,64.4489 c 0,0 -51.0081,36.259 -18.9829,65.2722 21.8085,-5.7592 248.9982,-65.7546 248.9982,-65.7546 115.85,93.2205 143.7114,166.4638 99.3755,291.1398 -44.3343,124.6764 -115.8849,189.6474 -242.3335,190.1787 -126.4488,0.5312 -217.5436,-13.0277 -286.2748,-0.6148 -68.7309,12.4133 32.1565,39.5578 32.1565,39.5578 z"
         id="path8498" />
      <path
         style="fill:#bfb688"
         inkscape:connector-curvature="0"
         d="m 3198.7833,1908.3311 c 0,0 -70.1587,64.0784 -117.5079,119.9019 -47.349,55.8243 -41.7547,93.928 22.9165,161.8304 64.6721,67.9021 149.8272,-20.0259 185.5222,-89.5647 35.6943,-69.5394 -31.3626,-62.6602 -173.9961,12.3098 0,0 -27.6397,36.9008 9.7793,29.8722 0,0 29.208,-14.9709 58.0628,-25.7868 28.854,-10.8164 38.0849,-9.2434 3.5994,30.512 -34.4839,39.7559 -110.693,-30.1218 -46.6884,-115.4016 64.0048,-85.2793 119.4293,-139.8141 119.4293,-139.8141 0,0 4.3166,-30.2281 -61.1171,16.1409 z"
         id="path8500" />
      <g
         id="g8502"
         transform="matrix(0.73723027,-0.0070344,-0.0070344,0.68689905,-3569.1966,2025.7795)">
        <path
           style="fill:#fbf4cc"
           d="m -918.59375,391.03125 c -13.90127,-0.0398 -29.81738,7.14615 -42.46875,32.84375 0,0 -28.14096,85.72512 3.8125,138.625 31.95344,52.90014 61.04483,32.20646 90.25,23.46875 0,0 173.12696,-26.02729 358.8125,-28.65625 0,0.34153 0,0.58886 0,0.9375 186.34866,2.48864 360.5625,28.71875 360.5625,28.71875 29.20518,8.73771 58.296573,29.43139 90.25,-23.46875 31.95347,-52.89988 3.84375,-138.625 3.84375,-138.625 -28.917402,-58.73738 -74.875,-20.78125 -74.875,-20.78125 l -40.5,11.84375 c -98.43743,29.47037 -216.95358,20.80971 -337.53125,21.9375 1.2e-4,-0.71117 -1.3e-4,-0.24414 0,-0.96875 -121.17983,-1.22934 -240.33704,7.64398 -339.25,-21.96875 l -40.5,-11.84375 c 0,0 -14.53318,-12.01138 -32.40625,-12.0625 z"
           id="path8504"
           transform="matrix(10.379673,-1.423403,1.0507489,7.6622223,9643.0395,-3818.2259)"
           inkscape:connector-curvature="0" />
      </g>
      <path
         style="fill:#e9dfb4"
         d="m -3149.422,2376.3265 c -128.5112,16.5262 -229.3367,62.0716 -229.3367,62.0716 0,0 -245.0394,193.6735 -117.7274,607.3279 179.4337,566.1578 725.2248,332.4309 725.2248,332.4309 l 515.3938,-176.5991 C -1369.6486,2987.6462 -15.800102,2785.7121 69.949228,2773.0077 l 0.698223,5.0914 c 0,0 1430.451749,-181.801 2371.387449,-215.4274 l 543.669,31.3658 c 0,0 588.7795,77.9718 609.1765,-515.5895 11.2542,-432.6565 -277.0939,-553.0174 -277.0939,-553.0174 0,0 -309.7594,-47.5548 -498.3712,106.8299 l -65.1607,204.3793 266.8203,-76.917 -50.9163,180.1708 -43.7992,15.0423 c 0,0 -156.8663,33.0719 -191.9122,48.5728 l -43.043,33.0104 63.1173,293.0439 -37.1791,9.9511 c 0,0 -1092.9418,76.5521 -2651.706611,293.5262 l -0.720748,-5.2557 C -1502.0306,2838.9963 -2581.0641,3060.9169 -2581.0641,3060.9169 l -38.7473,0.2936 -17.8397,-299.0857 -50.6025,-20.3357 c -37.925,-5.494 -197.6639,4.8512 -197.6639,4.8512 l -46.4487,-2.4989 -97.3224,-160.0096 277.6989,2.4124 -117.7974,-179.457 c -90.6791,-39.7758 -191.7064,-42.068 -279.6349,-30.7607 z"
         id="path8506"
         inkscape:connector-curvature="0" />
      <path
         style="fill:#bfb688"
         d="m -3194.0255,2333.917 c -140.7069,19.6072 -276.4764,87.9397 -322.2276,270.5882 -100.9694,403.0864 14.8031,745.2052 387.0878,851.6807 205.7176,58.8376 365.0438,-76.2103 540.2834,-124.9599 707.5522,-229.6561 1968.25793,-412.6547 2660.999522,-512.1648 l 0.06757,0.4927 C 760.50305,2729.6103 2047.3648,2561.9113 2799.4265,2592.9766 c 181.894,-0.2254 371.694,86.9455 553.9776,-25.1001 329.8774,-202.7656 349.2757,-563.4207 143.5212,-924.4451 -93.2321,-163.5891 -242.385,-192.8492 -383.1758,-173.8537 -169.9197,22.9259 -327.8316,116.1489 -360.2909,128.2213 -285.6857,106.2576 -1185.0319,330.5637 -2751.6280172,527.2703 l -0.1126185,-0.8212 C -1573.5883,2359.6394 -2507.3196,2385.9612 -2812.5176,2360.4127 c -34.5109,-2.8886 -211.6892,-50.1594 -381.5079,-26.4957 z m -9.7966,63.7582 c 106.3822,-14.8771 237.773,-2.0424 386.452,21.6344 548.3328,87.3209 2049.75927,-137.8426 2803.973814,-241.6179 l 0.09009,0.657 C 734.13504,2075.8493 2264.9813,1886.9577 2773.9872,1653.2154 c 312.7231,-143.6066 553.4725,-207.8548 688.7629,23.851 275.069,471.0952 18.7998,736.2864 -140.8855,828.0351 -159.6839,91.7487 -209.2412,50.1737 -542.8423,26.2505 -664.3537,-16.0562 -2266.26588,181.6664 -2690.373883,239.2586 l -0.09009,-0.6569 c -397.022567,54.4452 -2030.277427,299.3196 -2674.401427,496.2655 -314.8452,112.8471 -351.3584,166.3925 -529.8464,121.0187 -178.4894,-45.3738 -496.6886,-231.7859 -358.5954,-759.5395 38.2046,-146.0096 133.6857,-210.8955 270.4628,-230.0232 z"
         id="path8508"
         inkscape:connector-curvature="0" />
      <path
         style="fill:#bfb688"
         inkscape:connector-curvature="0"
         d="m -2888.8546,3385.5711 c 392.7052,-263.1319 280.1011,-797.5728 -138.8461,-994.6316 0,0 150.3933,-25.5998 222.1679,30.4243 0,0 440.9025,387.7035 120.0409,888.1344 -140.3456,141.6972 -203.3627,76.0729 -203.3627,76.0729 z"
         id="path8510" />
      <path
         style="fill:#bfb688"
         inkscape:connector-curvature="0"
         d="m -2804.8968,2555.5557 c -127.7202,15.9245 -304.0988,-29.4702 -367.0832,-46.5228 -62.9836,-17.0527 -203.935,-27.4773 -249.7374,127.9207 l 92.3016,32.467 -143.5368,36.6776 c 0,0 -30.6952,132.3645 -20.1109,302.7351 0,0 12.7033,242.9548 113.8274,222.2208 0,0 -111.1585,-259.9794 -35.0199,-500.0173 l 171.0472,-50.6692 -89.8576,-65.8394 c 0,0 4.9909,-76.5484 152.0171,-42.6433 147.0262,33.9051 359.9818,61.1589 430.2945,52.7125 70.3148,-8.446 -54.142,-69.0417 -54.142,-69.0417 z"
         id="path8512" />
      <path
         style="fill:#bfb688"
         inkscape:connector-curvature="0"
         d="m -3218.9051,2565.0921 c 0,0 205.0688,21.5645 304.5638,327.9965 l 93.0336,12.261 -88.9582,52.3399 c 0,0 23.322,189.558 -105.2941,259.9293 0,0 51.8993,20.1015 105.9361,-14.2515 0,0 62.0231,-43.2558 78.4036,-255.2592 l 112.5851,-46.6806 -132.1331,-48.7584 c 0,0 -26.3908,-171.8518 -163.103,-249.2665 -136.7131,-77.4141 -205.0338,-38.3105 -205.0338,-38.3105 z"
         id="path8514" />
      <path
         style="fill:#bfb688"
         inkscape:connector-curvature="0"
         d="m -2698.6336,3174.3568 c 0,0 -124.275,41.4239 -254.199,85.3282 -129.9248,43.9036 -270.24,23.1745 -358.4719,-149.581 -88.232,-172.7557 -45.7439,-261.638 63.9846,-388.9989 l 247.8657,-2.365 c 0,0 58.8861,21.1886 35.8537,57.7522 -22.5537,0.3247 -257.5074,3.7042 -257.5074,3.7042 -86.4779,120.9665 -93.5931,199.0063 -17.3306,307.1442 76.261,108.1387 162.6606,151.4494 284.5842,117.9205 121.9237,-33.5289 206.0055,-71.1104 275.5408,-77.6587 69.5354,-6.5475 -20.3201,46.7543 -20.3201,46.7543 z"
         id="path8516" />
      <path
         style="fill:#bfb688"
         inkscape:connector-curvature="0"
         d="m -3157.9029,2779.2885 c 0,0 84.8191,42.8258 145.4483,83.8418 60.6291,41.0168 65.499,79.22 21.4948,162.0253 -44.0049,82.8055 -149.6869,21.0477 -202.7845,-36.3147 -53.0969,-57.3631 13.3364,-68.7899 170.8866,-34.9852 0,0 36.5532,28.0978 -1.3765,31.4021 0,0 -32.16,-6.5553 -62.8613,-9.2041 -30.7005,-2.6494 -39.1672,1.3504 4.7476,30.3546 43.9132,29.0049 98.4976,-58.8089 13.898,-123.7102 -84.5995,-64.9006 -152.6588,-102.5016 -152.6588,-102.5016 0,0 -12.2948,-27.95 63.2058,-0.908 z"
         id="path8518" />
      <path
         id="path8520"
         d="m 3102.8817,2564.6605 c -449.044,-147.6997 -484.471,-692.7242 -134.0392,-995.2907 0,0 -151.7328,15.8318 -205.7758,89.1097 0,0 -320.2539,492.0837 123.4807,887.6627 173.3102,98.6845 216.3343,18.5183 216.3343,18.5183 z"
         inkscape:connector-curvature="0"
         style="fill:#bfb688" />
      <path
         id="path8522"
         d="m 2798.5793,1787.8888 c 127.2921,-19.0465 284.939,-110.2471 341.0074,-143.626 56.0679,-33.3786 189.0093,-81.3632 274.9549,55.9677 l -80.1541,56.1165 148.1118,-3.3172 c 0,0 65.1951,119.2146 100.8662,286.1451 0,0 53.1703,237.4054 -49.8024,244.6599 0,0 37.0672,-280.3061 -100.8799,-490.9858 l -178.3731,-2.7518 68.816,-87.599 c 0,0 -25.4138,-72.3788 -157.8847,-0.1452 -132.471,72.2336 -330.2282,155.81 -400.2189,166.6039 -69.9927,10.7949 33.5568,-81.0681 33.5568,-81.0681 z"
         inkscape:connector-curvature="0"
         style="fill:#bfb688" />
      <path
         id="path8524"
         d="m 3199.8709,1685.62 c 0,0 -191.6931,75.9739 -205.022,397.8779 l -86.2983,36.8535 99.7642,26.4596 c 0,0 28.569,188.8386 171.3813,221.9879 0,0 -44.572,33.3309 -105.862,14.7931 0,0 -71.3779,-24.962 -144.2261,-224.7291 l -120.9954,-14.6489 114.1292,-82.5292 c 0,0 -20.8469,-172.6122 89.978,-283.9726 110.8257,-111.3599 187.1511,-92.0922 187.1511,-92.0922 z"
         inkscape:connector-curvature="0"
         style="fill:#bfb688" />
      <path
         id="path8526"
         d="m 2862.8233,2412.452 c 0,0 130.8386,6.4392 267.7854,13.7465 136.9475,7.3065 266.5022,-50.4309 304.9703,-240.5613 38.4681,-190.1304 -26.3791,-264.2935 -166.3429,-357.4132 l -239.3518,64.4489 c 0,0 -51.0081,36.259 -18.9829,65.2722 21.8085,-5.7592 248.9982,-65.7546 248.9982,-65.7546 115.85,93.2205 143.7114,166.4638 99.3755,291.1398 -44.3343,124.6764 -115.8849,189.6474 -242.3335,190.1787 -126.4488,0.5312 -217.5436,-13.0277 -286.2748,-0.6148 -68.7309,12.4133 32.1565,39.5578 32.1565,39.5578 z"
         inkscape:connector-curvature="0"
         style="fill:#bfb688" />
      <path
         id="path8528"
         d="m 3198.7833,1908.3311 c 0,0 -70.1587,64.0784 -117.5079,119.9019 -47.349,55.8243 -41.7547,93.928 22.9165,161.8304 64.6721,67.9021 149.8272,-20.0259 185.5222,-89.5647 35.6943,-69.5394 -31.3626,-62.6602 -173.9961,12.3098 0,0 -27.6397,36.9008 9.7793,29.8722 0,0 29.208,-14.9709 58.0628,-25.7868 28.854,-10.8164 38.0849,-9.2434 3.5994,30.512 -34.4839,39.7559 -110.693,-30.1218 -46.6884,-115.4016 64.0048,-85.2793 119.4293,-139.8141 119.4293,-139.8141 0,0 4.3166,-30.2281 -61.1171,16.1409 z"
         inkscape:connector-curvature="0"
         style="fill:#bfb688" />
    </g>
  </g>
</svg>
